# Blender v2.83.5 OBJ File: 'Arrows.blend'
# www.blender.org
mtllib Arrow_9.mtl
o Arrow_9
v -0.202791 1.000000 -0.371132
v -0.202791 -1.000000 -0.371132
v -0.202791 1.000000 0.371132
v -0.202791 -1.000000 0.371132
v 0.994305 0.000000 -0.371132
v 0.994305 -0.000000 0.371132
v -0.202791 -0.500000 -0.371132
v -0.202791 -0.500000 0.371132
v -0.202791 0.500000 0.371132
v -0.202791 0.500000 -0.371132
v -0.714816 0.500000 -0.371132
v -0.714816 0.000000 -0.371132
v -0.714816 -0.500000 0.371132
v -0.714816 -0.000000 0.371132
v -0.714816 -0.500000 -0.371132
v -0.714816 0.500000 0.371132
v -0.132792 0.850315 -0.371132
v -0.132792 -0.850314 -0.371132
v -0.132792 0.850314 0.371132
v -0.132792 -0.850314 0.371132
v 0.885117 0.000000 -0.371132
v 0.885117 -0.000000 0.371132
v -0.132791 -0.430000 -0.371132
v -0.132791 -0.430000 0.371132
v -0.132791 0.430000 0.371132
v -0.132791 0.430000 -0.371132
v -0.644816 0.430000 -0.371132
v -0.644816 0.000000 -0.371132
v -0.644816 -0.430000 0.371132
v -0.644816 -0.000000 0.371132
v -0.644816 -0.430000 -0.371132
v -0.644816 0.430000 0.371132
vt 0.982630 0.899189
vt 0.992257 0.899189
vt 0.992257 0.913485
vt 0.982630 0.913485
vt 0.874876 0.949765
vt 0.874876 0.976574
vt 0.860585 0.976574
vt 0.860585 0.949765
vt 0.981340 0.489625
vt 0.981340 0.512682
vt 0.967049 0.512682
vt 0.967049 0.489625
vt 0.666310 0.848328
vt 0.666310 0.862624
vt 0.656452 0.862624
vt 0.656452 0.848328
vt 0.982630 0.976985
vt 0.992257 0.976985
vt 0.992257 0.991282
vt 0.982630 0.991282
vt 0.827476 0.990925
vt 0.827476 0.981294
vt 0.841768 0.981294
vt 0.841768 0.990925
vt 0.827476 0.971664
vt 0.841768 0.971664
vt 0.994318 0.030487
vt 0.994318 0.044784
vt 0.984714 0.044784
vt 0.984714 0.030487
vt 0.979888 0.669570
vt 0.965597 0.669570
vt 0.965597 0.667743
vt 0.979888 0.667743
vt 0.316292 0.986056
vt 0.302000 0.986056
vt 0.302000 0.966450
vt 0.316292 0.966450
vt 0.333672 0.994933
vt 0.319380 0.994933
vt 0.319380 0.978556
vt 0.333672 0.978556
vt 0.979888 0.679177
vt 0.965597 0.679177
vt 0.170729 0.499899
vt 0.170729 0.485602
vt 0.172555 0.485602
vt 0.172555 0.499899
vt 0.979888 0.682915
vt 0.965597 0.682915
vt 0.965597 0.681046
vt 0.979888 0.681046
vt 0.778308 0.986053
vt 0.768449 0.986053
vt 0.768449 0.971756
vt 0.778308 0.971756
vt 0.282319 0.858572
vt 0.275431 0.865300
vt 0.273525 0.865278
vt 0.279315 0.859622
vt 0.002776 0.856564
vt 0.009664 0.863292
vt 0.009686 0.865199
vt 0.003896 0.859543
vt 0.252440 0.855532
vt 0.253909 0.857037
vt 0.000448 0.886517
vt 0.001917 0.885012
vt 0.030327 0.883477
vt 0.027323 0.882427
vt 0.254768 0.885486
vt 0.255888 0.882507
vt 0.023439 0.876749
vt 0.021533 0.876771
vt 0.261655 0.878757
vt 0.261678 0.876851
vt 0.275431 0.879085
vt 0.268543 0.885813
vt 0.268566 0.883906
vt 0.274489 0.878120
vt 0.023439 0.862964
vt 0.030327 0.869693
vt 0.028421 0.869715
vt 0.022498 0.863929
vt 0.282319 0.872356
vt 0.280413 0.872334
vt 0.016551 0.856236
vt 0.016574 0.858143
vn -1.0000 -0.0000 -0.0000
vn 0.6411 0.7675 0.0000
vn 0.6411 -0.7675 -0.0000
vn 0.0000 -1.0000 -0.0000
vn 0.0000 1.0000 0.0000
vn 1.0000 -0.0000 -0.0000
vn -0.6411 -0.7675 -0.0000
vn -0.6411 0.7675 0.0000
vn -0.0000 0.0000 -1.0000
vn -0.0000 -0.0000 1.0000
usemtl Material.001
s off
f 7/1/1 2/2/1 4/3/1 8/4/1
f 3/5/2 6/6/2 5/7/2 1/8/2
f 6/9/3 4/10/3 2/11/3 5/12/3
f 7/13/4 8/14/4 13/15/4 15/16/4
f 1/17/1 10/18/1 9/19/1 3/20/1
f 11/21/1 12/22/1 14/23/1 16/24/1
f 12/22/1 15/25/1 13/26/1 14/23/1
f 9/27/5 10/28/5 11/29/5 16/30/5
f 23/31/6 24/32/6 20/33/6 18/34/6
f 19/35/7 17/36/7 21/37/7 22/38/7
f 22/39/8 21/40/8 18/41/8 20/42/8
f 23/31/5 31/43/5 29/44/5 24/32/5
f 17/45/6 19/46/6 25/47/6 26/48/6
f 27/49/6 32/50/6 30/51/6 28/52/6
f 28/52/6 30/51/6 29/44/6 31/43/6
f 25/53/4 32/54/4 27/55/4 26/56/4
f 2/57/9 7/58/9 23/59/9 18/60/9
f 3/61/10 9/62/10 25/63/10 19/64/10
f 5/65/9 2/57/9 18/60/9 21/66/9
f 6/67/10 3/61/10 19/64/10 22/68/10
f 4/69/10 6/67/10 22/68/10 20/70/10
f 1/71/9 5/65/9 21/66/9 17/72/9
f 8/73/10 4/69/10 20/70/10 24/74/10
f 10/75/9 1/71/9 17/72/9 26/76/9
f 12/77/9 11/78/9 27/79/9 28/80/9
f 14/81/10 13/82/10 29/83/10 30/84/10
f 15/85/9 12/77/9 28/80/9 31/86/9
f 16/87/10 14/81/10 30/84/10 32/88/10
f 11/78/9 10/75/9 26/76/9 27/79/9
f 13/82/10 8/73/10 24/74/10 29/83/10
f 7/58/9 15/85/9 31/86/9 23/59/9
f 9/62/10 16/87/10 32/88/10 25/63/10
