# Blender v2.83.5 OBJ File: 'Arrows.blend'
# www.blender.org
mtllib Arrow_17.mtl
o Arrow_17
v 1.141846 0.000000 -0.371132
v 1.141846 -0.000000 0.371132
v -1.145058 0.000000 -0.371132
v -1.145058 -0.000000 0.371132
v 1.141846 0.883583 -0.371132
v 1.231191 0.925365 -0.371132
v 1.148647 0.922453 -0.371132
v 1.168015 0.944042 -0.371132
v 1.197000 0.945065 -0.371132
v 1.231191 -0.925365 -0.371132
v 1.141846 -0.883583 -0.371132
v 1.197000 -0.945065 -0.371132
v 1.168015 -0.944042 -0.371132
v 1.148647 -0.922452 -0.371132
v 1.231191 0.925365 0.371132
v 1.141846 0.883583 0.371132
v 1.197000 0.945065 0.371132
v 1.168015 0.944042 0.371132
v 1.148647 0.922452 0.371132
v 1.141846 -0.883583 0.371132
v 1.231191 -0.925365 0.371132
v 1.148647 -0.922453 0.371132
v 1.168015 -0.944042 0.371132
v 1.197000 -0.945065 0.371132
v 2.249598 0.074635 -0.371132
v 2.249598 -0.074635 -0.371132
v 2.222526 0.000000 -0.371132
v 2.276988 0.040392 -0.371132
v 2.286606 0.000000 -0.371132
v 2.276988 -0.040392 -0.371132
v 2.249598 -0.074635 0.371132
v 2.249598 0.074635 0.371132
v 2.222526 -0.000000 0.371132
v 2.276988 -0.040392 0.371132
v 2.286606 -0.000000 0.371132
v 2.276988 0.040392 0.371132
v 1.141846 -0.616417 -0.371132
v 1.025429 -0.500000 -0.371132
v 1.141846 -0.383583 -0.371132
v 1.132984 -0.571866 -0.371132
v 1.107748 -0.534098 -0.371132
v 1.069979 -0.508862 -0.371132
v 1.025429 -0.500000 0.371132
v 1.141846 -0.616417 0.371132
v 1.141846 -0.383583 0.371132
v 1.069979 -0.508862 0.371132
v 1.107748 -0.534098 0.371132
v 1.132984 -0.571866 0.371132
v 1.141846 0.616417 0.371132
v 1.025429 0.500000 0.371132
v 1.141846 0.383583 0.371132
v 1.132984 0.571866 0.371132
v 1.107748 0.534098 0.371132
v 1.069979 0.508862 0.371132
v 1.025429 0.500000 -0.371132
v 1.141846 0.616417 -0.371132
v 1.141846 0.383583 -0.371132
v 1.069979 0.508862 -0.371132
v 1.107748 0.534098 -0.371132
v 1.132984 0.571866 -0.371132
v -1.234403 0.925365 -0.371132
v -1.145058 0.883583 -0.371132
v -1.200212 0.945065 -0.371132
v -1.171227 0.944042 -0.371132
v -1.151859 0.922453 -0.371132
v -1.145058 -0.883583 -0.371132
v -1.234403 -0.925365 -0.371132
v -1.151859 -0.922452 -0.371132
v -1.171227 -0.944042 -0.371132
v -1.200212 -0.945065 -0.371132
v -1.145058 0.883583 0.371132
v -1.234403 0.925365 0.371132
v -1.151859 0.922452 0.371132
v -1.171227 0.944042 0.371132
v -1.200212 0.945065 0.371132
v -1.234403 -0.925365 0.371132
v -1.145058 -0.883583 0.371132
v -1.200212 -0.945065 0.371132
v -1.171227 -0.944042 0.371132
v -1.151859 -0.922453 0.371132
v -2.252810 -0.074635 -0.371132
v -2.252810 0.074635 -0.371132
v -2.225738 0.000000 -0.371132
v -2.280200 -0.040392 -0.371132
v -2.289818 0.000000 -0.371132
v -2.280200 0.040392 -0.371132
v -2.252810 0.074635 0.371132
v -2.252810 -0.074635 0.371132
v -2.225738 -0.000000 0.371132
v -2.280200 0.040392 0.371132
v -2.289818 -0.000000 0.371132
v -2.280200 -0.040392 0.371132
v -1.028641 -0.500000 -0.371132
v -1.145058 -0.616417 -0.371132
v -1.145058 -0.383583 -0.371132
v -1.073191 -0.508862 -0.371132
v -1.110960 -0.534098 -0.371132
v -1.136196 -0.571866 -0.371132
v -1.145058 -0.616417 0.371132
v -1.028641 -0.500000 0.371132
v -1.145058 -0.383583 0.371132
v -1.136196 -0.571866 0.371132
v -1.110960 -0.534098 0.371132
v -1.073191 -0.508862 0.371132
v -1.028641 0.500000 0.371132
v -1.145058 0.616417 0.371132
v -1.145058 0.383583 0.371132
v -1.073191 0.508862 0.371132
v -1.110960 0.534098 0.371132
v -1.136196 0.571866 0.371132
v -1.145058 0.616417 -0.371132
v -1.028641 0.500000 -0.371132
v -1.145058 0.383583 -0.371132
v -1.136196 0.571866 -0.371132
v -1.110960 0.534098 -0.371132
v -1.073191 0.508862 -0.371132
vt 0.984525 0.683994
vt 0.984525 0.703609
vt 0.970234 0.703609
vt 0.970234 0.683994
vt 0.697796 0.364106
vt 0.700038 0.366349
vt 0.700038 0.405912
vt 0.697796 0.408154
vt 0.690411 0.408154
vt 0.690411 0.364106
vt 0.993174 0.580138
vt 0.998318 0.580138
vt 0.998318 0.594434
vt 0.993174 0.594434
vt 0.688974 0.342770
vt 0.690411 0.343291
vt 0.683025 0.364106
vt 0.678542 0.364106
vt 0.673398 0.364106
vt 0.672650 0.363975
vt 0.672234 0.363602
vt 0.672214 0.363044
vt 0.672594 0.362385
vt 0.670038 0.315038
vt 0.669659 0.314379
vt 0.669678 0.313821
vt 0.670094 0.313448
vt 0.670842 0.313317
vt 0.675986 0.313317
vt 0.680469 0.313317
vt 0.687855 0.313317
vt 0.687855 0.334132
vt 0.686418 0.334653
vt 0.691848 0.342770
vt 0.708228 0.362385
vt 0.708607 0.363044
vt 0.708587 0.363602
vt 0.708172 0.363975
vt 0.707423 0.364106
vt 0.702279 0.364106
vt 0.695240 0.313317
vt 0.699723 0.313317
vt 0.704867 0.313317
vt 0.705616 0.313448
vt 0.706032 0.313821
vt 0.706051 0.314379
vt 0.705672 0.315038
vt 0.689292 0.334653
vt 0.678228 0.311075
vt 0.678228 0.271512
vt 0.680469 0.269269
vt 0.687855 0.269269
vt 0.379484 0.966703
vt 0.379484 0.986318
vt 0.365192 0.986318
vt 0.365192 0.966703
vt 0.793030 0.907850
vt 0.793030 0.947413
vt 0.778738 0.947413
vt 0.778738 0.907850
vt 0.683025 0.408154
vt 0.680784 0.405912
vt 0.680784 0.366349
vt 0.985738 0.137654
vt 0.971447 0.137654
vt 0.971447 0.118039
vt 0.985738 0.118039
vt 0.089916 0.998500
vt 0.089916 0.984204
vt 0.095060 0.984204
vt 0.095060 0.998500
vt 0.690411 0.428969
vt 0.688974 0.429490
vt 0.672594 0.409875
vt 0.672214 0.409216
vt 0.672234 0.408658
vt 0.672650 0.408285
vt 0.673398 0.408154
vt 0.678542 0.408154
vt 0.670842 0.269269
vt 0.670094 0.269138
vt 0.669678 0.268765
vt 0.669659 0.268207
vt 0.670038 0.267549
vt 0.686418 0.247933
vt 0.687855 0.248455
vt 0.675986 0.269269
vt 0.691848 0.429490
vt 0.702279 0.408154
vt 0.707423 0.408154
vt 0.708172 0.408285
vt 0.708587 0.408658
vt 0.708607 0.409216
vt 0.708228 0.409875
vt 0.689292 0.247933
vt 0.705672 0.267549
vt 0.706051 0.268207
vt 0.706032 0.268765
vt 0.705616 0.269138
vt 0.704867 0.269269
vt 0.699723 0.269269
vt 0.695240 0.269269
vt 0.845864 0.908051
vt 0.860156 0.908051
vt 0.860156 0.947614
vt 0.845864 0.947614
vt 0.970717 0.596667
vt 0.985008 0.596667
vt 0.985008 0.616282
vt 0.970717 0.616282
vt 0.697482 0.271512
vt 0.697482 0.311075
vt 0.153579 0.999516
vt 0.153579 0.985220
vt 0.158723 0.985220
vt 0.158723 0.999516
vt 0.689633 0.342242
vt 0.690411 0.342057
vt 0.691188 0.342242
vt 0.688633 0.335181
vt 0.687855 0.335366
vt 0.687077 0.335181
vt 0.701421 0.364277
vt 0.700694 0.364763
vt 0.700208 0.365490
vt 0.697653 0.311933
vt 0.698138 0.312660
vt 0.698866 0.313146
vt 0.676844 0.313146
vt 0.677571 0.312660
vt 0.678057 0.311933
vt 0.680613 0.365490
vt 0.680127 0.364763
vt 0.679400 0.364277
vt 0.691188 0.430018
vt 0.690411 0.430203
vt 0.689633 0.430018
vt 0.687077 0.247406
vt 0.687855 0.247220
vt 0.688633 0.247406
vt 0.700208 0.406770
vt 0.700694 0.407497
vt 0.701421 0.407983
vt 0.698866 0.269440
vt 0.698138 0.269926
vt 0.697653 0.270654
vt 0.678057 0.270654
vt 0.677571 0.269926
vt 0.676844 0.269440
vt 0.679400 0.407983
vt 0.680127 0.407497
vt 0.680613 0.406770
vt 0.365192 0.966044
vt 0.379484 0.966044
vt 0.365192 0.965486
vt 0.379484 0.965486
vt 0.167135 0.999786
vt 0.167135 0.985489
vt 0.167551 0.985489
vt 0.167551 0.999786
vt 0.168299 0.985489
vt 0.168299 0.999786
vt 0.984525 0.704268
vt 0.970234 0.704268
vt 0.984525 0.704826
vt 0.970234 0.704826
vt 0.999482 0.580138
vt 0.999482 0.594434
vt 0.999067 0.594434
vt 0.999067 0.580138
vt 0.085180 0.447929
vt 0.085180 0.433632
vt 0.085840 0.433632
vt 0.085840 0.447929
vt 0.086617 0.433632
vt 0.086617 0.447929
vt 0.087395 0.433632
vt 0.087395 0.447929
vt 0.088054 0.433632
vt 0.088054 0.447929
vt 0.992316 0.594434
vt 0.992316 0.580138
vt 0.991589 0.594434
vt 0.991589 0.580138
vt 0.778738 0.906264
vt 0.793030 0.906264
vt 0.793030 0.906992
vt 0.778738 0.906992
vt 0.845864 0.907193
vt 0.860156 0.907193
vt 0.845864 0.906465
vt 0.860156 0.906465
vt 0.175028 0.985489
vt 0.175028 0.999786
vt 0.174301 0.999786
vt 0.174301 0.985489
vt 0.173443 0.999786
vt 0.173443 0.985489
vt 0.152831 0.999516
vt 0.152831 0.985220
vt 0.152415 0.999516
vt 0.152415 0.985220
vt 0.970717 0.595450
vt 0.985008 0.595450
vt 0.985008 0.596008
vt 0.970717 0.596008
vt 0.095809 0.984204
vt 0.095809 0.998500
vt 0.096224 0.984204
vt 0.096224 0.998500
vt 0.971447 0.116822
vt 0.985738 0.116822
vt 0.985738 0.117380
vt 0.971447 0.117380
vt 0.088054 0.418907
vt 0.088054 0.433203
vt 0.087395 0.433203
vt 0.087395 0.418907
vt 0.086617 0.433203
vt 0.086617 0.418907
vt 0.085840 0.433203
vt 0.085840 0.418907
vt 0.085180 0.433203
vt 0.085180 0.418907
vt 0.793030 0.948271
vt 0.778738 0.948271
vt 0.793030 0.948999
vt 0.778738 0.948999
vt 0.088331 0.998500
vt 0.088331 0.984204
vt 0.089059 0.984204
vt 0.089059 0.998500
vt 0.159581 0.985220
vt 0.159581 0.999516
vt 0.160308 0.985220
vt 0.160308 0.999516
vt 0.860156 0.949199
vt 0.845864 0.949199
vt 0.845864 0.948472
vt 0.860156 0.948472
vn 0.7146 -0.6995 -0.0000
vn 0.5723 -0.8200 -0.0000
vn 0.0000 0.0000 -1.0000
vn -0.9952 -0.0980 -0.0000
vn -0.9963 -0.0865 -0.0000
vn -0.0000 -0.0000 1.0000
vn 0.5723 0.8200 0.0000
vn 0.7146 0.6995 0.0000
vn -0.0980 -0.9952 -0.0000
vn 0.0980 -0.9952 -0.0000
vn -0.7146 -0.6995 -0.0000
vn -0.5723 -0.8200 -0.0000
vn 0.9952 -0.0980 -0.0000
vn 0.9963 -0.0865 -0.0000
vn -0.0980 0.9952 0.0000
vn 0.0980 0.9952 0.0000
vn -0.5723 0.8200 0.0000
vn -0.7146 0.6995 0.0000
vn 0.9963 0.0865 0.0000
vn 0.9952 0.0980 0.0000
vn 0.2413 0.9704 0.0000
vn -0.4236 0.9058 0.0000
vn -0.8995 0.4370 0.0000
vn -0.9963 0.0865 0.0000
vn 0.2413 -0.9704 -0.0000
vn -0.4236 -0.9058 -0.0000
vn -0.8995 -0.4370 -0.0000
vn 0.8986 0.4388 0.0000
vn 1.0000 -0.0000 -0.0000
vn 0.8986 -0.4388 -0.0000
vn -0.9239 -0.3827 -0.0000
vn -0.7071 -0.7071 -0.0000
vn -0.3827 -0.9239 -0.0000
vn -0.3827 0.9239 0.0000
vn -0.7071 0.7071 0.0000
vn -0.9239 0.3827 0.0000
vn -0.9952 0.0980 0.0000
vn 0.8995 0.4370 0.0000
vn 0.4236 0.9058 0.0000
vn -0.2413 0.9704 0.0000
vn 0.8995 -0.4370 -0.0000
vn 0.4236 -0.9058 -0.0000
vn -0.2413 -0.9704 -0.0000
vn -0.8986 -0.4388 -0.0000
vn -1.0000 -0.0000 -0.0000
vn -0.8986 0.4388 0.0000
vn 0.3827 -0.9239 -0.0000
vn 0.7071 -0.7071 -0.0000
vn 0.9239 -0.3827 -0.0000
vn 0.9239 0.3827 0.0000
vn 0.7071 0.7071 0.0000
vn 0.3827 0.9239 0.0000
usemtl Material.001
s 1
f 31/1/1 21/2/2 10/3/2 26/4/1
f 39/5/3 38/6/3 93/7/3 95/8/3 3/9/3 1/10/3
f 37/11/4 11/12/5 20/13/5 44/14/4
f 25/15/3 27/16/3 1/10/3 57/17/3 56/18/3 5/19/3 7/20/3 8/21/3 9/22/3 6/23/3
f 15/24/6 17/25/6 18/26/6 19/27/6 16/28/6 49/29/6 51/30/6 2/31/6 33/32/6 32/33/6
f 27/16/3 26/34/3 10/35/3 12/36/3 13/37/3 14/38/3 11/39/3 37/40/3 39/5/3 1/10/3
f 2/31/6 45/41/6 44/42/6 20/43/6 22/44/6 23/45/6 24/46/6 21/47/6 31/48/6 33/32/6
f 51/30/6 50/49/6 105/50/6 107/51/6 4/52/6 2/31/6
f 15/53/7 32/54/8 25/55/8 6/56/7
f 43/57/9 100/58/10 93/59/10 38/60/9
f 1/10/3 3/9/3 113/61/3 112/62/3 55/63/3 57/17/3
f 88/64/11 81/65/11 67/66/12 76/67/12
f 94/68/13 99/69/13 77/70/14 66/71/14
f 83/72/3 82/73/3 61/74/3 63/75/3 64/76/3 65/77/3 62/78/3 111/79/3 113/61/3 3/9/3
f 71/80/6 73/81/6 74/82/6 75/83/6 72/84/6 87/85/6 89/86/6 4/52/6 107/51/6 106/87/6
f 81/88/3 83/72/3 3/9/3 95/8/3 94/89/3 66/90/3 68/91/3 69/92/3 70/93/3 67/94/3
f 4/52/6 89/86/6 88/95/6 76/96/6 78/97/6 79/98/6 80/99/6 77/100/6 99/101/6 101/102/6
f 50/103/15 55/104/15 112/105/16 105/106/16
f 72/107/17 61/108/17 82/109/18 87/110/18
f 2/31/6 4/52/6 101/102/6 100/111/6 43/112/6 45/41/6
f 62/113/19 71/114/19 106/115/20 111/116/20
f 25/15/3 28/117/3 27/16/3
f 28/117/3 29/118/3 27/16/3
f 29/118/3 30/119/3 27/16/3
f 30/119/3 26/34/3 27/16/3
f 31/48/6 34/120/6 33/32/6
f 34/120/6 35/121/6 33/32/6
f 35/121/6 36/122/6 33/32/6
f 36/122/6 32/33/6 33/32/6
f 37/40/3 40/123/3 39/5/3
f 40/123/3 41/124/3 39/5/3
f 41/124/3 42/125/3 39/5/3
f 42/125/3 38/6/3 39/5/3
f 43/112/6 46/126/6 45/41/6
f 46/126/6 47/127/6 45/41/6
f 47/127/6 48/128/6 45/41/6
f 48/128/6 44/42/6 45/41/6
f 49/29/6 52/129/6 51/30/6
f 52/129/6 53/130/6 51/30/6
f 53/130/6 54/131/6 51/30/6
f 54/131/6 50/49/6 51/30/6
f 55/63/3 58/132/3 57/17/3
f 58/132/3 59/133/3 57/17/3
f 59/133/3 60/134/3 57/17/3
f 60/134/3 56/18/3 57/17/3
f 81/88/3 84/135/3 83/72/3
f 84/135/3 85/136/3 83/72/3
f 85/136/3 86/137/3 83/72/3
f 86/137/3 82/73/3 83/72/3
f 87/85/6 90/138/6 89/86/6
f 90/138/6 91/139/6 89/86/6
f 91/139/6 92/140/6 89/86/6
f 92/140/6 88/95/6 89/86/6
f 93/7/3 96/141/3 95/8/3
f 96/141/3 97/142/3 95/8/3
f 97/142/3 98/143/3 95/8/3
f 98/143/3 94/89/3 95/8/3
f 99/101/6 102/144/6 101/102/6
f 102/144/6 103/145/6 101/102/6
f 103/145/6 104/146/6 101/102/6
f 104/146/6 100/111/6 101/102/6
f 105/50/6 108/147/6 107/51/6
f 108/147/6 109/148/6 107/51/6
f 109/148/6 110/149/6 107/51/6
f 110/149/6 106/87/6 107/51/6
f 111/79/3 114/150/3 113/61/3
f 114/150/3 115/151/3 113/61/3
f 115/151/3 116/152/3 113/61/3
f 116/152/3 112/62/3 113/61/3
f 15/53/7 6/56/7 9/153/21 17/154/21
f 17/154/21 9/153/21 8/155/22 18/156/22
f 18/157/22 8/158/22 7/159/23 19/160/23
f 19/160/23 7/159/23 5/161/24 16/162/24
f 10/3/2 21/2/2 24/163/25 12/164/25
f 12/164/25 24/163/25 23/165/26 13/166/26
f 13/167/26 23/168/26 22/169/27 14/170/27
f 14/170/27 22/169/27 20/13/5 11/12/5
f 25/171/8 32/172/8 36/173/28 28/174/28
f 28/174/28 36/173/28 35/175/29 29/176/29
f 29/176/29 35/175/29 34/177/30 30/178/30
f 30/178/30 34/177/30 31/179/1 26/180/1
f 37/11/4 44/14/4 48/181/31 40/182/31
f 40/182/31 48/181/31 47/183/32 41/184/32
f 41/185/32 47/186/32 46/187/33 42/188/33
f 42/188/33 46/187/33 43/57/9 38/60/9
f 55/104/15 50/103/15 54/189/34 58/190/34
f 58/190/34 54/189/34 53/191/35 59/192/35
f 59/193/35 53/194/35 52/195/36 60/196/36
f 60/196/36 52/195/36 49/197/37 56/198/37
f 71/114/19 62/113/19 65/199/38 73/200/38
f 73/200/38 65/199/38 64/201/39 74/202/39
f 74/203/39 64/204/39 63/205/40 75/206/40
f 75/206/40 63/205/40 61/108/17 72/107/17
f 66/71/14 77/70/14 80/207/41 68/208/41
f 68/208/41 80/207/41 79/209/42 69/210/42
f 69/211/42 79/212/42 78/213/43 70/214/43
f 70/214/43 78/213/43 76/67/12 67/66/12
f 81/215/11 88/216/11 92/217/44 84/218/44
f 84/218/44 92/217/44 91/219/45 85/220/45
f 85/220/45 91/219/45 90/221/46 86/222/46
f 86/222/46 90/221/46 87/223/18 82/224/18
f 93/59/10 100/58/10 104/225/47 96/226/47
f 96/226/47 104/225/47 103/227/48 97/228/48
f 97/229/48 103/230/48 102/231/49 98/232/49
f 98/232/49 102/231/49 99/69/13 94/68/13
f 111/116/20 106/115/20 110/233/50 114/234/50
f 114/234/50 110/233/50 109/235/51 115/236/51
f 115/237/51 109/238/51 108/239/52 116/240/52
f 116/240/52 108/239/52 105/106/16 112/105/16
f 5/161/24 56/198/37 49/197/37 16/162/24
