# Blender v2.83.5 OBJ File: 'Arrows.blend'
# www.blender.org
mtllib Arrow_69.mtl
o Arrow_69
v 1.745643 -0.598396 -0.425989
v 1.745643 -0.598396 0.425989
v 1.148083 -0.000836 -0.425989
v 1.148083 -0.000836 0.425989
v 1.747111 0.598191 0.425990
v 1.747111 0.598192 -0.425989
v 1.258470 -1.085569 -0.425990
v 1.258470 -1.085569 0.425989
v 0.660910 -0.488010 0.425989
v 0.660910 -0.488009 -0.425989
v 1.259938 1.085365 -0.425989
v 1.259937 1.085364 0.425990
v 0.660910 0.486337 0.425990
v 0.660910 0.486337 -0.425989
v -2.973152 -0.000836 0.425989
v -2.973152 -0.000836 -0.425990
v 2.045847 0.299455 -0.425989
v 2.045847 -0.298191 -0.425989
v 2.137455 0.162354 -0.425989
v 2.169624 0.000632 -0.425989
v 2.137455 -0.161090 -0.425989
v 2.045847 -0.298192 0.425989
v 2.045847 0.299455 0.425990
v 2.137455 -0.161090 0.425989
v 2.169624 0.000632 0.425989
v 2.137455 0.162353 0.425990
v -2.973152 0.063738 -0.425989
v -2.550551 0.486337 -0.425989
v -2.940983 0.225460 -0.425989
v -2.849375 0.362561 -0.425989
v -2.712273 0.454169 -0.425989
v -2.973152 -0.065410 0.425989
v -2.550551 -0.488010 0.425989
v -2.940983 -0.227132 0.425989
v -2.849374 -0.364233 0.425989
v -2.712273 -0.455841 0.425989
v -2.550551 -0.488009 -0.425990
v -2.973152 -0.065409 -0.425990
v -2.712273 -0.455840 -0.425990
v -2.849374 -0.364232 -0.425990
v -2.940983 -0.227131 -0.425990
v -2.550551 0.486337 0.425989
v -2.973152 0.063737 0.425989
v -2.712273 0.454168 0.425989
v -2.849375 0.362560 0.425989
v -2.940983 0.225459 0.425989
v -0.096074 -1.842466 0.425988
v 0.501572 -1.842466 0.425988
v 0.041028 -1.934074 0.425988
v 0.202749 -1.966243 0.425988
v 0.364471 -1.934074 0.425988
v 0.501573 -1.842466 -0.425990
v -0.096073 -1.842466 -0.425990
v 0.364471 -1.934074 -0.425990
v 0.202750 -1.966242 -0.425990
v 0.041028 -1.934074 -0.425990
v -0.095987 -1.244907 0.425989
v -0.187595 -1.382008 0.425989
v -0.219764 -1.543730 0.425988
v -0.187595 -1.705451 0.425988
v -0.095987 -1.244906 -0.425990
v -0.187595 -1.705451 -0.425990
v -0.219764 -1.543729 -0.425990
v -0.187595 -1.382007 -0.425990
v -0.095296 1.841571 0.425990
v -0.095987 1.243234 0.425990
v -0.187595 1.703779 0.425990
v -0.219764 1.542057 0.425990
v -0.187596 1.380335 0.425990
v -0.095987 1.243235 -0.425989
v -0.095296 1.841571 -0.425988
v -0.187596 1.380336 -0.425989
v -0.219764 1.542057 -0.425988
v -0.187595 1.703779 -0.425988
v 0.503040 1.842261 0.425990
v 0.365939 1.933870 0.425990
v 0.204217 1.966038 0.425990
v 0.042496 1.933870 0.425990
v 0.503040 1.842262 -0.425988
v 0.042496 1.933870 -0.425988
v 0.204217 1.966039 -0.425988
v 0.365939 1.933870 -0.425988
vt 0.815265 0.325074
vt 0.815265 0.333308
vt 0.798860 0.333308
vt 0.798860 0.325074
vt 0.364062 0.215176
vt 0.364062 0.228446
vt 0.347791 0.228446
vt 0.347791 0.215176
vt 0.291682 0.172317
vt 0.292561 0.171437
vt 0.295200 0.169673
vt 0.298314 0.169053
vt 0.301428 0.169673
vt 0.304068 0.171437
vt 0.017406 0.326891
vt 0.017406 0.340161
vt 0.001135 0.340161
vt 0.001135 0.326891
vt 0.334525 0.244763
vt 0.313916 0.244763
vt 0.310802 0.244143
vt 0.308162 0.242378
vt 0.306398 0.239738
vt 0.305779 0.236585
vt 0.306398 0.233470
vt 0.308162 0.230830
vt 0.310802 0.229065
vt 0.313916 0.228446
vt 0.334525 0.228446
vt 0.017406 0.356478
vt 0.009271 0.356478
vt 0.006158 0.355858
vt 0.003518 0.354094
vt 0.001754 0.351453
vt 0.001135 0.348338
vt 0.507046 0.868660
vt 0.507046 0.861297
vt 0.523450 0.861297
vt 0.523450 0.868660
vt 0.364062 0.236623
vt 0.363443 0.239738
vt 0.361679 0.242378
vt 0.359039 0.244143
vt 0.355925 0.244763
vt 0.347791 0.244763
vt 0.030671 0.340161
vt 0.073515 0.284032
vt 0.074394 0.284911
vt 0.076158 0.287552
vt 0.076777 0.290667
vt 0.076158 0.293782
vt 0.074394 0.296423
vt 0.719131 0.975105
vt 0.735295 0.975105
vt 0.735295 0.991515
vt 0.719131 0.991515
vt 0.523450 0.880667
vt 0.523450 0.899321
vt 0.507046 0.899321
vt 0.507046 0.880667
vt 0.030671 0.356478
vt 0.051281 0.340161
vt 0.054395 0.340780
vt 0.057035 0.342545
vt 0.058798 0.345186
vt 0.059418 0.348338
vt 0.058798 0.351453
vt 0.057035 0.354094
vt 0.054395 0.355858
vt 0.051281 0.356478
vt 0.001135 0.306274
vt 0.001754 0.303159
vt 0.003518 0.300518
vt 0.006158 0.298754
vt 0.009271 0.298134
vt 0.012383 0.298754
vt 0.015023 0.300518
vt 0.016786 0.303159
vt 0.017406 0.306274
vt 0.724805 0.705078
vt 0.724805 0.687288
vt 0.741209 0.687288
vt 0.741209 0.705078
vt 0.347791 0.194559
vt 0.348410 0.191444
vt 0.350174 0.188803
vt 0.352814 0.187038
vt 0.355925 0.186419
vt 0.359039 0.187038
vt 0.361679 0.188803
vt 0.363443 0.191444
vt 0.364062 0.194559
vt 0.061129 0.283152
vt 0.063769 0.281388
vt 0.066882 0.280768
vt 0.069996 0.281388
vt 0.072636 0.283152
vt 0.523942 0.787349
vt 0.540346 0.787349
vt 0.540346 0.848788
vt 0.523942 0.848788
vt 0.245875 0.856263
vt 0.229470 0.856263
vt 0.229470 0.798063
vt 0.245875 0.798063
vt 0.515790 0.992311
vt 0.514587 0.992311
vt 0.514587 0.975901
vt 0.515790 0.975901
vt 0.290802 0.184707
vt 0.289039 0.182067
vt 0.288419 0.178952
vt 0.289039 0.175837
vt 0.290802 0.173196
vt 0.513384 0.992311
vt 0.513384 0.975901
vt 0.507046 0.858743
vt 0.523450 0.858743
vt 0.507046 0.857105
vt 0.523450 0.857105
vt 0.507046 0.856633
vt 0.523450 0.856633
vt 0.815265 0.339828
vt 0.798860 0.339828
vt 0.798860 0.338381
vt 0.815265 0.338381
vt 0.518646 0.975901
vt 0.518646 0.992311
vt 0.520754 0.975901
vt 0.520754 0.992311
vt 0.540346 0.854781
vt 0.523942 0.854781
vt 0.523942 0.851953
vt 0.540346 0.851953
vt 0.229470 0.795342
vt 0.245875 0.795342
vt 0.504841 0.992311
vt 0.504841 0.975901
vt 0.507215 0.975901
vt 0.507215 0.992311
vt 0.510215 0.975901
vt 0.510215 0.992311
vt 0.798860 0.300849
vt 0.815265 0.300849
vt 0.815265 0.303676
vt 0.798860 0.303676
vt 0.815265 0.306842
vt 0.798860 0.306842
vt 0.815265 0.309864
vt 0.798860 0.309864
vt 0.815265 0.312283
vt 0.798860 0.312283
vt 0.724805 0.676151
vt 0.741209 0.676151
vt 0.741209 0.678259
vt 0.724805 0.678259
vt 0.741209 0.681116
vt 0.724805 0.681116
vt 0.741209 0.684287
vt 0.724805 0.684287
vt 0.855488 0.245126
vt 0.855488 0.228716
vt 0.858488 0.228716
vt 0.858488 0.245126
vt 0.861657 0.228716
vt 0.861657 0.245126
vt 0.864514 0.228716
vt 0.864514 0.245126
vt 0.866622 0.228716
vt 0.866622 0.245126
vt 0.523450 0.902403
vt 0.507046 0.902403
vt 0.523450 0.905544
vt 0.507046 0.905544
vt 0.523450 0.908265
vt 0.507046 0.908265
vt 0.853082 0.245126
vt 0.853082 0.228716
vn 0.7071 -0.7071 -0.0000
vn -0.0000 -0.0000 1.0000
vn 0.0000 0.0000 -1.0000
vn 0.7071 0.7071 0.0000
vn 0.7730 0.6344 0.0000
vn -0.7071 -0.7071 -0.0000
vn -0.7730 -0.6344 -0.0000
vn 0.6344 0.7730 0.0000
vn -0.7071 0.7071 0.0000
vn -0.7730 0.6344 0.0000
vn -0.0000 -1.0000 -0.0000
vn -0.0980 -0.9952 -0.0000
vn 0.0000 1.0000 0.0000
vn -0.0980 0.9952 0.0000
vn -0.9952 -0.0980 -0.0000
vn -1.0000 -0.0000 0.0000
vn -0.9952 0.0980 0.0000
vn 0.9239 0.3827 0.0000
vn 1.0000 0.0000 0.0000
vn 0.9239 -0.3827 -0.0000
vn 0.7730 -0.6344 -0.0000
vn -0.9239 -0.3827 -0.0000
vn -0.3827 -0.9239 -0.0000
vn -0.3827 0.9239 0.0000
vn -0.9239 0.3827 0.0000
vn -0.7072 -0.7071 -0.0000
vn 0.3827 -0.9239 -0.0000
vn 0.6344 -0.7730 -0.0000
vn -0.9239 -0.3826 -0.0000
vn -0.9237 0.3832 0.0000
vn 0.3827 0.9239 0.0000
vn -0.3832 0.9237 0.0000
usemtl Material.001
s 1
f 7/1/1 1/2/1 2/3/1 8/4/1
f 8/5/2 2/6/2 4/7/2 9/8/2
f 9/8/2 4/7/2 15/9/2 32/10/2 34/11/2 35/12/2 36/13/2 33/14/2
f 10/15/3 3/16/3 1/17/3 7/18/3
f 12/19/2 75/20/2 76/21/2 77/22/2 78/23/2 65/24/2 67/25/2 68/26/2 69/27/2 66/28/2 13/29/2
f 1/17/3 3/16/3 6/30/3 17/31/3 19/32/3 20/33/3 21/34/3 18/35/3
f 5/36/4 23/37/5 17/38/5 6/39/4
f 4/7/2 2/6/2 22/40/2 24/41/2 25/42/2 26/43/2 23/44/2 5/45/2
f 14/46/3 3/16/3 16/47/3 27/48/3 29/49/3 30/50/3 31/51/3 28/52/3
f 13/53/6 66/54/7 70/55/7 14/56/6
f 11/57/4 79/58/8 75/59/8 12/60/4
f 11/61/3 14/46/3 70/62/3 72/63/3 73/64/3 74/65/3 71/66/3 80/67/3 81/68/3 82/69/3 79/70/3
f 10/15/3 7/18/3 52/71/3 54/72/3 55/73/3 56/74/3 53/75/3 62/76/3 63/77/3 64/78/3 61/79/3
f 10/80/9 61/81/10 57/82/10 9/83/9
f 9/8/2 57/84/2 58/85/2 59/86/2 60/87/2 47/88/2 49/89/2 50/90/2 51/91/2 48/92/2 8/5/2
f 4/7/2 5/45/2 12/19/2 13/29/2
f 6/30/3 3/16/3 14/46/3 11/61/3
f 3/16/3 10/15/3 37/93/3 39/94/3 40/95/3 41/96/3 38/97/3 16/47/3
f 5/36/4 6/39/4 11/57/4 12/60/4
f 10/98/11 9/99/11 33/100/12 37/101/12
f 13/102/13 14/103/13 28/104/14 42/105/14
f 32/106/15 15/107/16 16/108/16 38/109/15
f 4/7/2 13/29/2 42/110/2 44/111/2 45/112/2 46/113/2 43/114/2 15/9/2
f 16/108/16 15/107/16 43/115/17 27/116/17
f 17/38/5 23/37/5 26/117/18 19/118/18
f 19/118/18 26/117/18 25/119/19 20/120/19
f 20/120/19 25/119/19 24/121/20 21/122/20
f 21/123/20 24/124/20 22/125/21 18/126/21
f 32/106/15 38/109/15 41/127/22 34/128/22
f 34/128/22 41/127/22 40/129/6 35/130/6
f 35/131/6 40/132/6 39/133/23 36/134/23
f 36/134/23 39/133/23 37/101/12 33/100/12
f 42/105/14 28/104/14 31/135/24 44/136/24
f 44/137/24 31/138/24 30/139/9 45/140/9
f 45/140/9 30/139/9 29/141/25 46/142/25
f 46/142/25 29/141/25 27/116/17 43/115/17
f 47/143/26 53/144/26 56/145/23 49/146/23
f 49/146/23 56/145/23 55/147/11 50/148/11
f 50/148/11 55/147/11 54/149/27 51/150/27
f 51/150/27 54/149/27 52/151/28 48/152/28
f 53/153/26 47/154/26 60/155/29 62/156/29
f 62/156/29 60/155/29 59/157/16 63/158/16
f 63/158/16 59/157/16 58/159/25 64/160/25
f 64/160/25 58/159/25 57/82/10 61/81/10
f 65/161/9 71/162/9 74/163/30 67/164/30
f 67/164/30 74/163/30 73/165/16 68/166/16
f 68/166/16 73/165/16 72/167/22 69/168/22
f 69/168/22 72/167/22 70/169/7 66/170/7
f 75/59/8 79/58/8 82/171/31 76/172/31
f 76/172/31 82/171/31 81/173/13 77/174/13
f 77/174/13 81/173/13 80/175/32 78/176/32
f 78/177/32 80/178/32 71/162/9 65/161/9
f 2/3/1 1/2/1 18/126/21 22/125/21
f 8/4/1 48/152/28 52/151/28 7/1/1
