# Blender v2.83.5 OBJ File: 'Arrows.blend'
# www.blender.org
mtllib Arrow_7.mtl
o Arrow_7
v 1.207236 1.000000 -0.371132
v 1.207236 -1.000000 -0.371132
v 1.207236 1.000000 0.371132
v 1.207236 -1.000000 0.371132
v 2.404332 0.000000 -0.371132
v 1.318373 0.754133 -0.371132
v 1.318373 0.754133 0.371132
v 2.404332 -0.000000 0.371132
v 1.207236 -0.500000 -0.371132
v 1.207236 -0.500000 0.371132
v 1.207236 0.500000 0.371132
v 1.207236 0.500000 -0.371132
v 0.464934 0.500000 -0.371132
v 0.464934 0.000000 -0.371132
v 0.464934 -0.500000 0.371132
v 0.464934 -0.000000 0.371132
v 0.464934 -0.500000 -0.371132
v 0.464934 0.500000 0.371132
v -0.942831 0.500001 -0.371132
v -0.942831 -0.500001 -0.371132
v -0.942831 0.500001 0.371132
v -0.942831 -0.500001 0.371132
v 0.033237 0.500001 -0.371132
v 0.033237 -0.500001 -0.371132
v 0.033237 0.500001 0.371132
v 0.033237 -0.500001 0.371132
v -2.372930 0.500001 -0.371132
v -2.372930 -0.500001 -0.371132
v -2.372930 0.500001 0.371132
v -2.372930 -0.500001 0.371132
v -1.396861 0.500001 -0.371132
v -1.396861 -0.500001 -0.371132
v -1.396861 0.500001 0.371132
v -1.396861 -0.500001 0.371132
v 1.319465 -0.387771 -0.371132
v 1.318373 -0.754133 -0.371132
v 1.318373 -0.754133 0.371132
v 1.319465 0.387771 0.371132
v 2.245616 0.000000 -0.371132
v 2.245616 -0.000000 0.371132
v 1.319465 -0.387771 0.371132
v 1.319465 0.387771 -0.371132
v 0.577163 0.387771 -0.371132
v 0.577164 0.000000 -0.371132
v 0.577163 -0.387771 0.371132
v 0.577164 -0.000000 0.371132
v 0.577163 -0.387771 -0.371132
v 0.577163 0.387771 0.371132
v -0.830603 0.387772 0.371132
v -0.830603 0.387772 -0.371132
v -0.830603 -0.387772 -0.371132
v -0.830603 -0.387772 0.371132
v -0.078992 0.387772 0.371132
v -0.078992 -0.387772 0.371132
v -0.078992 0.387772 -0.371132
v -0.078992 -0.387772 -0.371132
v -2.260701 0.387772 0.371132
v -2.260701 0.387772 -0.371132
v -2.260701 -0.387772 -0.371132
v -2.260701 -0.387772 0.371132
v -1.509090 0.387772 0.371132
v -1.509090 -0.387772 0.371132
v -1.509090 0.387772 -0.371132
v -1.509090 -0.387772 -0.371132
vt 0.982629 0.792136
vt 0.992256 0.792136
vt 0.992256 0.806432
vt 0.982629 0.806432
vt 0.852665 0.245516
vt 0.838373 0.245516
vt 0.838373 0.231104
vt 0.852665 0.231104
vt 0.753683 0.126094
vt 0.739391 0.126094
vt 0.739391 0.111617
vt 0.753683 0.111617
vt 0.938538 0.978558
vt 0.938538 0.953788
vt 0.952830 0.953788
vt 0.952830 0.978558
vt 0.811847 0.978530
vt 0.811847 0.955447
vt 0.826138 0.955447
vt 0.826138 0.978530
vt 0.468634 0.993651
vt 0.454343 0.993651
vt 0.454343 0.978714
vt 0.468634 0.978714
vt 0.838373 0.229695
vt 0.852665 0.229695
vt 0.938538 0.979144
vt 0.952830 0.979144
vt 0.952830 0.993442
vt 0.938538 0.993442
vt 0.811418 0.979240
vt 0.811418 0.993538
vt 0.797126 0.993538
vt 0.797126 0.979240
vt 0.198679 0.973848
vt 0.208306 0.973848
vt 0.208306 0.988145
vt 0.198679 0.988145
vt 0.974051 0.309808
vt 0.974051 0.300178
vt 0.988342 0.300178
vt 0.988342 0.309808
vt 0.974051 0.290548
vt 0.988342 0.290548
vt 0.404855 0.747012
vt 0.419147 0.747012
vt 0.419147 0.747716
vt 0.404855 0.747716
vt 0.105323 0.993627
vt 0.105323 0.979331
vt 0.119551 0.979331
vt 0.119551 0.993627
vt 0.404855 0.746307
vt 0.419147 0.746307
vt 0.177589 0.298144
vt 0.177589 0.283847
vt 0.178275 0.283847
vt 0.178275 0.298144
vt 0.974003 0.285287
vt 0.974003 0.266026
vt 0.988295 0.266026
vt 0.988295 0.285287
vt 0.404855 0.761950
vt 0.419147 0.761950
vt 0.538202 0.984654
vt 0.538202 0.986471
vt 0.523910 0.986471
vt 0.523910 0.984654
vt 0.419147 0.779004
vt 0.404855 0.779004
vt 0.404855 0.762594
vt 0.419147 0.762594
vt 0.538202 0.965938
vt 0.523910 0.965938
vt 0.634535 0.974842
vt 0.634535 0.993642
vt 0.620243 0.993642
vt 0.620243 0.974842
vt 0.973526 0.223298
vt 0.973526 0.204037
vt 0.987817 0.204037
vt 0.987817 0.223298
vt 0.982271 0.994878
vt 0.967979 0.994878
vt 0.967979 0.977038
vt 0.982271 0.977038
vt 0.394204 0.984681
vt 0.394204 0.986497
vt 0.379912 0.986497
vt 0.379912 0.984681
vt 0.394204 0.965965
vt 0.379912 0.965965
vt 0.993362 0.350797
vt 0.993362 0.369597
vt 0.979070 0.369597
vt 0.979070 0.350797
vt 0.815009 0.689801
vt 0.829300 0.689801
vt 0.829300 0.691210
vt 0.815009 0.691210
vt 0.981340 0.564329
vt 0.967049 0.564329
vt 0.967049 0.549392
vt 0.981340 0.549392
vt 0.738962 0.126094
vt 0.724671 0.126094
vt 0.724671 0.111617
vt 0.738962 0.111617
vt 0.829300 0.705622
vt 0.815009 0.705622
vt 0.605003 0.821702
vt 0.604730 0.818657
vt 0.613892 0.807684
vt 0.614165 0.810729
vt 0.589286 0.816903
vt 0.587025 0.812224
vt 0.587327 0.789206
vt 0.589286 0.786860
vt 0.559733 0.792207
vt 0.564738 0.793600
vt 0.570165 0.798108
vt 0.567121 0.798381
vt 0.184096 0.954084
vt 0.186257 0.956246
vt 0.186257 0.971183
vt 0.184096 0.973345
vt 0.886079 0.309941
vt 0.888240 0.312103
vt 0.888240 0.327041
vt 0.886079 0.329202
vt 0.557958 0.809354
vt 0.561002 0.809081
vt 0.566732 0.813869
vt 0.565347 0.815528
vt 0.660659 0.972527
vt 0.658498 0.970365
vt 0.658498 0.955427
vt 0.660659 0.953266
vt 0.590226 0.809354
vt 0.593270 0.809081
vt 0.599000 0.813869
vt 0.597614 0.815528
vt 0.644026 0.955427
vt 0.641865 0.953266
vt 0.248300 0.973645
vt 0.246139 0.971483
vt 0.246139 0.956545
vt 0.248300 0.954384
vt 0.641865 0.972527
vt 0.644026 0.970365
vt 0.621554 0.816903
vt 0.619293 0.812224
vt 0.619595 0.789206
vt 0.621554 0.786860
vt 0.231667 0.956545
vt 0.229506 0.954384
vt 0.572462 0.818657
vt 0.572735 0.821702
vt 0.597005 0.793600
vt 0.592000 0.792207
vt 0.229506 0.973645
vt 0.231667 0.971483
vt 0.202890 0.973345
vt 0.200729 0.971183
vt 0.200729 0.956246
vt 0.202890 0.954084
vt 0.904873 0.329202
vt 0.902712 0.327041
vt 0.902712 0.312103
vt 0.904873 0.309941
vt 0.581898 0.810729
vt 0.581625 0.807684
vt 0.599389 0.798381
vt 0.602433 0.798108
vn -1.0000 -0.0000 -0.0000
vn 0.0000 1.0000 0.0000
vn 0.0000 -1.0000 -0.0000
vn 0.6411 0.7675 0.0000
vn 0.6411 -0.7675 -0.0000
vn 1.0000 0.0000 0.0000
vn 1.0000 0.0030 0.0000
vn -0.6310 0.7758 0.0000
vn -0.6310 -0.7758 -0.0000
vn 1.0000 -0.0030 -0.0000
vn 0.0000 -0.0000 1.0000
vn 0.0000 0.0000 -1.0000
usemtl Material.001
s off
f 9/1/1 2/2/1 4/3/1 10/4/1
f 54/5/2 56/6/2 51/7/2 52/8/2
f 49/9/3 50/10/3 55/11/3 53/12/3
f 3/13/4 8/14/4 5/15/4 1/16/4
f 8/17/5 4/18/5 2/19/5 5/20/5
f 53/21/1 55/22/1 56/23/1 54/24/1
f 50/25/6 49/26/6 52/8/6 51/7/6
f 9/27/3 10/28/3 15/29/3 17/30/3
f 38/31/3 48/32/3 43/33/3 42/34/3
f 1/35/1 12/36/1 11/37/1 3/38/1
f 13/39/1 14/40/1 16/41/1 18/42/1
f 14/40/1 17/43/1 15/44/1 16/41/1
f 44/45/6 46/46/6 45/47/6 47/48/6
f 11/49/2 12/50/2 13/51/2 18/52/2
f 43/53/6 48/54/6 46/46/6 44/45/6
f 6/55/7 7/56/7 38/57/7 42/58/7
f 19/59/1 20/60/1 22/61/1 21/62/1
f 35/63/2 47/48/2 45/47/2 41/64/2
f 25/65/6 26/66/6 24/67/6 23/68/6
f 40/69/8 39/70/8 36/71/8 37/72/8
f 21/73/2 25/65/2 23/68/2 19/74/2
f 26/75/3 22/76/3 20/77/3 24/78/3
f 27/79/1 28/80/1 30/81/1 29/82/1
f 7/83/9 6/84/9 39/85/9 40/86/9
f 33/87/6 34/88/6 32/89/6 31/90/6
f 35/63/10 41/64/10 37/72/10 36/71/10
f 29/91/2 33/87/2 31/90/2 27/92/2
f 34/93/3 30/94/3 28/95/3 32/96/3
f 58/97/6 57/98/6 60/99/6 59/100/6
f 61/101/1 63/102/1 64/103/1 62/104/1
f 57/105/3 58/106/3 63/107/3 61/108/3
f 62/109/2 64/110/2 59/100/2 60/99/2
f 18/111/11 48/112/11 38/113/11 11/114/11
f 2/115/12 36/116/12 39/117/12 5/118/12
f 1/119/12 6/120/12 42/121/12 12/122/12
f 27/123/12 58/124/12 59/125/12 28/126/12
f 19/127/12 50/128/12 51/129/12 20/130/12
f 13/131/12 43/132/12 44/133/12 14/134/12
f 30/135/11 60/136/11 57/137/11 29/138/11
f 15/139/11 45/140/11 46/141/11 16/142/11
f 29/138/11 57/137/11 61/143/11 33/144/11
f 22/145/11 52/146/11 49/147/11 21/148/11
f 34/149/11 62/150/11 60/136/11 30/135/11
f 3/151/11 7/152/11 40/153/11 8/154/11
f 21/148/11 49/147/11 53/155/11 25/156/11
f 14/134/12 44/133/12 47/157/12 17/158/12
f 33/144/11 61/143/11 62/150/11 34/149/11
f 8/154/11 40/153/11 37/159/11 4/160/11
f 26/161/11 54/162/11 52/146/11 22/145/11
f 25/156/11 53/155/11 54/162/11 26/161/11
f 16/142/11 46/141/11 48/112/11 18/111/11
f 5/118/12 39/117/12 6/120/12 1/119/12
f 32/163/12 64/164/12 63/165/12 31/166/12
f 12/122/12 42/121/12 43/132/12 13/131/12
f 31/166/12 63/165/12 58/124/12 27/123/12
f 24/167/12 56/168/12 55/169/12 23/170/12
f 9/171/12 35/172/12 36/116/12 2/115/12
f 10/173/11 41/174/11 45/140/11 15/139/11
f 28/126/12 59/125/12 64/164/12 32/163/12
f 4/160/11 37/159/11 41/174/11 10/173/11
f 23/170/12 55/169/12 50/128/12 19/127/12
f 17/158/12 47/157/12 35/172/12 9/171/12
f 20/130/12 51/129/12 56/168/12 24/167/12
f 11/114/11 38/113/11 7/152/11 3/151/11
