# Blender v2.83.5 OBJ File: 'Arrows.blend'
# www.blender.org
mtllib Arrow_24.mtl
o Arrow_24
v 0.654513 0.786164 -0.371132
v 0.654513 -0.786164 -0.371132
v 0.654513 0.786164 0.371132
v 0.654513 -0.786164 0.371132
v 1.595626 0.000000 -0.371132
v 1.751608 -0.000000 0.371132
v 0.654512 -0.379309 -0.371132
v 0.554512 -0.500000 0.371132
v 0.654512 0.379309 0.371132
v 0.554512 0.500000 -0.371132
v -1.309801 0.750900 -0.371132
v -1.409801 0.000000 -0.371132
v -1.309801 -0.750900 0.371132
v -1.309801 -0.000000 0.371132
v -1.309801 -0.750899 -0.371132
v -1.309801 0.750900 0.371132
v 0.554512 -0.500000 -0.371132
v 0.554513 -1.000000 -0.371132
v 0.554512 0.500000 0.371132
v 0.554513 1.000000 0.371132
v 1.751608 0.000000 -0.371132
v 1.595626 -0.000000 0.371132
v 0.554513 -1.000000 0.371132
v 0.554513 1.000000 -0.371132
v 0.654512 -0.379310 0.371132
v 0.654512 0.379309 -0.371132
v -1.409801 0.871590 -0.371132
v -1.309801 0.000000 -0.371132
v -1.409801 -0.871590 0.371132
v -1.409801 -0.000000 0.371132
v -1.409801 -0.871590 -0.371132
v -1.409801 0.871590 0.371132
vt 0.085696 0.309298
vt 0.087895 0.309298
vt 0.087895 0.323595
vt 0.085696 0.323595
vt 0.410259 0.870542
vt 0.410259 0.872332
vt 0.395967 0.872332
vt 0.395967 0.870542
vt 0.395967 0.856353
vt 0.410259 0.856353
vt 0.899826 0.190054
vt 0.899826 0.208102
vt 0.885534 0.208102
vt 0.885534 0.190054
vt 0.793030 0.950042
vt 0.793030 0.976889
vt 0.778738 0.976889
vt 0.778738 0.950042
vt 0.102719 0.983673
vt 0.088427 0.983673
vt 0.088427 0.962566
vt 0.102719 0.962566
vt 0.085474 0.580982
vt 0.087264 0.580982
vt 0.087264 0.595279
vt 0.085474 0.595279
vt 0.719103 0.915925
vt 0.733395 0.915925
vt 0.733395 0.954394
vt 0.719103 0.954394
vt 0.797126 0.954469
vt 0.797126 0.916000
vt 0.811418 0.916000
vt 0.811418 0.954469
vt 0.885534 0.187854
vt 0.899826 0.187854
vt 0.885534 0.152655
vt 0.885534 0.148820
vt 0.899826 0.148820
vt 0.899826 0.152655
vt 0.885534 0.144986
vt 0.899826 0.144986
vt 0.410259 0.914138
vt 0.395967 0.914138
vt 0.395967 0.910835
vt 0.410259 0.910835
vt 0.395967 0.907531
vt 0.410259 0.907531
vt 0.765995 0.728076
vt 0.773829 0.728076
vt 0.777946 0.730003
vt 0.768319 0.730003
vt 0.653998 0.757932
vt 0.661832 0.757932
vt 0.665949 0.759858
vt 0.656322 0.759858
vt 0.758692 0.709950
vt 0.758692 0.706945
vt 0.646695 0.739805
vt 0.646695 0.736801
vt 0.631558 0.757932
vt 0.627441 0.759858
vt 0.743555 0.728076
vt 0.739438 0.730003
vt 0.639392 0.757932
vt 0.637068 0.759858
vt 0.751389 0.728076
vt 0.749065 0.730003
vt 0.744234 0.765911
vt 0.758692 0.765911
vt 0.758692 0.767837
vt 0.741910 0.767837
vt 0.632237 0.795766
vt 0.646695 0.795766
vt 0.646695 0.797692
vt 0.629913 0.797692
vt 0.773150 0.765911
vt 0.775474 0.767837
vt 0.661153 0.795766
vt 0.663477 0.797692
vn -1.0000 -0.0000 -0.0000
vn 1.0000 -0.0000 -0.0000
vn -0.6411 -0.7675 -0.0000
vn 0.6411 0.7675 0.0000
vn 0.6411 -0.7675 -0.0000
vn -0.6411 0.7675 0.0000
vn 0.1859 -0.9826 -0.0000
vn -0.1859 0.9826 0.0000
vn 0.1859 0.9826 0.0000
vn -0.1859 -0.9826 -0.0000
vn 0.0000 0.0000 -1.0000
vn -0.0000 -0.0000 1.0000
usemtl Material.001
s off
f 17/1/1 18/2/1 23/3/1 8/4/1
f 3/5/2 9/6/2 26/7/2 1/8/2
f 3/5/3 1/8/3 5/9/3 22/10/3
f 20/11/4 6/12/4 21/13/4 24/14/4
f 6/15/5 23/16/5 18/17/5 21/18/5
f 22/19/6 5/20/6 2/21/6 4/22/6
f 2/23/2 7/24/2 25/25/2 4/26/2
f 17/27/7 8/28/7 29/29/7 31/30/7
f 7/31/8 15/32/8 13/33/8 25/34/8
f 24/14/1 10/35/1 19/36/1 20/11/1
f 27/37/1 12/38/1 30/39/1 32/40/1
f 12/38/1 31/41/1 29/42/1 30/39/1
f 13/43/2 15/44/2 28/45/2 14/46/2
f 19/36/9 10/35/9 27/37/9 32/40/9
f 14/46/2 28/45/2 11/47/2 16/48/2
f 9/6/10 16/48/10 11/47/10 26/7/10
f 7/49/11 2/50/11 18/51/11 17/52/11
f 9/53/12 3/54/12 20/55/12 19/56/12
f 2/50/11 5/57/11 21/58/11 18/51/11
f 3/54/12 22/59/12 6/60/12 20/55/12
f 22/59/12 4/61/12 23/62/12 6/60/12
f 5/57/11 1/63/11 24/64/11 21/58/11
f 4/61/12 25/65/12 8/66/12 23/62/12
f 1/63/11 26/67/11 10/68/11 24/64/11
f 11/69/11 28/70/11 12/71/11 27/72/11
f 13/73/12 14/74/12 30/75/12 29/76/12
f 28/70/11 15/77/11 31/78/11 12/71/11
f 14/74/12 16/79/12 32/80/12 30/75/12
f 26/67/11 11/69/11 27/72/11 10/68/11
f 25/65/12 13/73/12 29/76/12 8/66/12
f 15/77/11 7/49/11 17/52/11 31/78/11
f 16/79/12 9/53/12 19/56/12 32/80/12
