# Blender v2.83.5 OBJ File: 'Arrows.blend'
# www.blender.org
mtllib Arrow_40.mtl
o Arrow_40
v 0.461954 0.798863 -0.371132
v 0.461954 -0.798863 -0.371132
v 0.461954 0.798863 0.371132
v 0.461954 -0.798863 0.371132
v 2.059679 0.000000 -0.371132
v 2.283967 -0.000000 0.371132
v 0.603904 -0.399695 -0.371132
v 0.461776 -0.500000 0.371132
v 0.603904 0.399695 0.371132
v 0.461776 0.500000 -0.371132
v -1.901132 0.399695 -0.371132
v -1.758993 0.000000 -0.371132
v -1.901132 -0.399695 0.371132
v -1.758993 -0.000000 0.371132
v -1.901132 -0.399695 -0.371132
v -1.901132 0.399695 0.371132
v 0.461776 -0.500000 -0.371132
v 0.283967 -1.000000 -0.371132
v 0.461776 0.500000 0.371132
v 0.283967 1.000000 0.371132
v 2.283967 0.000000 -0.371132
v 0.603905 0.399695 -0.371132
v -2.043261 0.500000 -0.371132
v 2.059679 -0.000000 0.371132
v 0.283967 -1.000000 0.371132
v 0.283967 1.000000 -0.371132
v 0.603905 -0.399695 0.371132
v -1.865452 0.000000 -0.371132
v -2.043261 -0.500000 0.371132
v -1.865452 -0.000000 0.371132
v -2.043261 -0.500000 -0.371132
v -2.043261 0.500000 0.371132
vt 0.506288 0.672037
vt 0.502864 0.672037
vt 0.502864 0.657740
vt 0.506288 0.657740
vt 0.921806 0.000724
vt 0.921806 0.048973
vt 0.907514 0.048973
vt 0.907514 0.000724
vt 0.436941 0.687052
vt 0.439674 0.687052
vt 0.439674 0.701349
vt 0.436941 0.701349
vt 0.243730 0.914995
vt 0.243730 0.953517
vt 0.229439 0.953517
vt 0.229439 0.914995
vt 0.681033 0.913854
vt 0.681033 0.952376
vt 0.666741 0.952375
vt 0.666741 0.913854
vt 0.316292 0.965695
vt 0.302000 0.965695
vt 0.302000 0.934921
vt 0.316292 0.934921
vt 0.281218 0.965581
vt 0.266926 0.965581
vt 0.266926 0.934807
vt 0.281218 0.934807
vt 0.436941 0.701778
vt 0.439674 0.701778
vt 0.439674 0.716074
vt 0.436941 0.716074
vt 0.922459 0.538252
vt 0.908167 0.538252
vt 0.908167 0.490003
vt 0.922459 0.490003
vt 0.502864 0.643015
vt 0.506288 0.643015
vt 0.506288 0.657311
vt 0.502864 0.657311
vt 0.148296 0.608731
vt 0.151720 0.608731
vt 0.151720 0.623027
vt 0.148296 0.623027
vt 0.151720 0.608302
vt 0.148296 0.608302
vt 0.148296 0.594005
vt 0.151720 0.594005
vt 0.922459 0.565921
vt 0.922459 0.614170
vt 0.908167 0.614170
vt 0.908167 0.565921
vt 0.087915 0.492534
vt 0.087915 0.506831
vt 0.085178 0.506831
vt 0.085178 0.492534
vt 0.922737 0.452833
vt 0.908445 0.452833
vt 0.908445 0.404584
vt 0.922737 0.404584
vt 0.085178 0.492105
vt 0.085178 0.477809
vt 0.087915 0.477809
vt 0.087915 0.492105
vt 0.708653 0.562207
vt 0.716741 0.563265
vt 0.721248 0.565803
vt 0.711116 0.564477
vt 0.711297 0.031273
vt 0.719386 0.032331
vt 0.723892 0.034869
vt 0.713760 0.033544
vt 0.695241 0.536410
vt 0.694334 0.532186
vt 0.693605 0.565441
vt 0.703736 0.612613
vt 0.702423 0.615696
vt 0.692292 0.568523
vt 0.697886 0.005476
vt 0.696978 0.001253
vt 0.689309 0.038795
vt 0.686243 0.042961
vt 0.686665 0.569729
vt 0.683599 0.573894
vt 0.696249 0.034507
vt 0.694936 0.037589
vt 0.710686 0.608320
vt 0.711116 0.610325
vt 0.706381 0.081680
vt 0.713330 0.077386
vt 0.713760 0.079391
vt 0.705067 0.084762
vt 0.718785 0.609379
vt 0.721248 0.611650
vt 0.721429 0.078446
vt 0.723892 0.080716
vn -0.9422 0.3351 0.0000
vn 0.0000 -1.0000 -0.0000
vn 0.9422 0.3351 0.0000
vn 0.4472 0.8944 0.0000
vn 0.4472 -0.8944 -0.0000
vn -0.4472 -0.8944 -0.0000
vn -0.4472 0.8944 0.0000
vn 0.9422 -0.3351 -0.0000
vn 0.0000 1.0000 0.0000
vn -0.9422 -0.3351 -0.0000
vn 0.0000 0.0000 -1.0000
vn 0.0000 -0.0000 1.0000
usemtl Material.001
s off
f 17/1/1 18/2/1 25/3/1 8/4/1
f 9/5/2 16/6/2 11/7/2 22/8/2
f 22/9/3 1/10/3 3/11/3 9/12/3
f 20/13/4 6/14/4 21/15/4 26/16/4
f 6/17/5 25/18/5 18/19/5 21/20/5
f 3/21/6 1/22/6 5/23/6 24/24/6
f 24/25/7 5/26/7 2/27/7 4/28/7
f 2/29/8 7/30/8 27/31/8 4/32/8
f 19/33/9 10/34/9 23/35/9 32/36/9
f 26/37/10 10/38/10 19/39/10 20/40/10
f 23/41/10 28/42/10 30/43/10 32/44/10
f 28/45/1 31/46/1 29/47/1 30/48/1
f 7/49/9 15/50/9 13/51/9 27/52/9
f 13/53/8 15/54/8 12/55/8 14/56/8
f 17/57/2 8/58/2 29/59/2 31/60/2
f 14/61/3 12/62/3 11/63/3 16/64/3
f 7/65/11 2/66/11 18/67/11 17/68/11
f 9/69/12 3/70/12 20/71/12 19/72/12
f 2/66/11 5/73/11 21/74/11 18/67/11
f 22/75/11 11/76/11 23/77/11 10/78/11
f 3/70/12 24/79/12 6/80/12 20/71/12
f 24/79/12 4/81/12 25/82/12 6/80/12
f 5/73/11 1/83/11 26/84/11 21/74/11
f 4/81/12 27/85/12 8/86/12 25/82/12
f 1/83/11 22/75/11 10/78/11 26/84/11
f 11/76/11 12/87/11 28/88/11 23/77/11
f 13/89/12 14/90/12 30/91/12 29/92/12
f 12/87/11 15/93/11 31/94/11 28/88/11
f 14/90/12 16/95/12 32/96/12 30/91/12
f 16/95/12 9/69/12 19/72/12 32/96/12
f 27/85/12 13/89/12 29/92/12 8/86/12
f 15/93/11 7/65/11 17/68/11 31/94/11
