# Blender v2.83.5 OBJ File: 'Arrows.blend'
# www.blender.org
mtllib Arrow_22.mtl
o Arrow_22
v -0.679916 1.000000 -0.369946
v -0.679916 -1.000000 -0.369947
v -0.679916 1.000000 0.369947
v -0.679916 -1.000000 0.369946
v 1.320084 0.000000 -0.369946
v -0.679916 0.000000 -0.369946
v -0.679916 -0.000000 0.369946
v 1.320084 -0.000000 0.369946
vt 0.811846 0.935262
vt 0.811846 0.916001
vt 0.826092 0.916001
vt 0.826092 0.935262
vt 0.057401 0.760874
vt 0.074623 0.752260
vt 0.074623 0.795329
vt 0.322025 0.747858
vt 0.322025 0.790926
vt 0.304803 0.782312
vt 0.943657 0.189046
vt 0.943657 0.232114
vt 0.929411 0.232114
vt 0.929411 0.189046
vt 0.943657 0.144685
vt 0.943657 0.187754
vt 0.929411 0.187754
vt 0.929411 0.144685
vt 0.287582 0.773699
vt 0.040180 0.769488
vt 0.811846 0.954523
vt 0.826092 0.954523
vn -1.0000 -0.0000 0.0000
vn 0.0000 -0.0000 1.0000
vn 0.0000 0.0000 -1.0000
vn 0.4472 0.8944 0.0000
vn 0.4472 -0.8944 -0.0000
usemtl Material.001
s off
f 6/1/1 2/2/1 4/3/1 7/4/1
f 7/5/2 4/6/2 8/7/2
f 5/8/3 2/9/3 6/10/3
f 3/11/4 8/12/4 5/13/4 1/14/4
f 8/15/5 4/16/5 2/17/5 5/18/5
f 5/8/3 6/10/3 1/19/3
f 3/20/2 7/5/2 8/7/2
f 1/21/1 6/1/1 7/4/1 3/22/1
