# Blender v2.83.5 OBJ File: 'Arrows.blend'
# www.blender.org
mtllib Arrow_57.mtl
o Arrow_57
v -0.184260 -0.760538 0.262207
v -0.379350 -0.741323 0.262207
v -0.566943 -0.684417 0.262208
v -0.739830 -0.592007 0.262208
v -0.891367 -0.467645 0.262208
v -1.015730 -0.316108 0.262208
v -1.108139 -0.143221 0.262208
v -1.165045 0.044372 0.262208
v -1.184260 0.239462 0.262208
v -1.165045 0.434552 0.262208
v -1.108140 0.622145 0.262208
v -1.015730 0.795032 0.262208
v -0.891367 0.946569 0.262208
v -0.739830 1.070932 0.262208
v -0.566943 1.163342 0.262208
v -0.379350 1.220248 0.262208
v -0.184260 1.239462 0.262208
v -0.184260 -0.760538 -0.262208
v -0.379350 -0.741323 -0.262208
v -0.566943 -0.684417 -0.262208
v -0.739830 -0.592007 -0.262208
v -0.891367 -0.467644 -0.262208
v -1.015730 -0.316108 -0.262208
v -1.108139 -0.143221 -0.262208
v -1.165045 0.044372 -0.262208
v -1.184260 0.239462 -0.262208
v -1.165045 0.434553 -0.262208
v -1.108140 0.622146 -0.262208
v -1.015730 0.795033 -0.262207
v -0.891367 0.946569 -0.262207
v -0.739830 1.070932 -0.262207
v -0.566943 1.163342 -0.262207
v -0.379350 1.220248 -0.262207
v -0.184260 1.239462 -0.262207
v -0.484848 -1.271697 0.262207
v -0.184260 -1.301302 0.262207
v -0.773885 -1.184018 0.262207
v -1.040263 -1.041636 0.262207
v -1.273745 -0.850023 0.262207
v -1.465359 -0.616540 0.262208
v -1.607741 -0.350163 0.262208
v -1.695419 -0.061126 0.262208
v -1.725024 0.239462 0.262208
v -1.695419 0.540050 0.262208
v -1.607741 0.829087 0.262208
v -1.465359 1.095465 0.262208
v -1.273745 1.328947 0.262208
v -1.040263 1.520561 0.262208
v -0.773885 1.662943 0.262208
v -0.484848 1.750621 0.262208
v -0.184259 1.780226 0.262208
v -0.484848 -1.271697 -0.262208
v -0.184260 -1.301302 -0.262208
v -0.773885 -1.184018 -0.262208
v -1.040263 -1.041636 -0.262208
v -1.273745 -0.850023 -0.262208
v -1.465359 -0.616540 -0.262208
v -1.607741 -0.350163 -0.262208
v -1.695419 -0.061126 -0.262208
v -1.725024 0.239462 -0.262208
v -1.695419 0.540050 -0.262208
v -1.607741 0.829087 -0.262207
v -1.465359 1.095465 -0.262207
v -1.273745 1.328947 -0.262207
v -1.040263 1.520561 -0.262207
v -0.773885 1.662943 -0.262207
v -0.484848 1.750621 -0.262207
v -0.184259 1.780227 -0.262207
v 1.008308 1.780227 -0.262207
v 1.596433 -1.301302 -0.262208
v 1.008308 1.780226 0.262208
v 1.596433 -1.301302 0.262207
v 1.008308 1.239462 -0.262207
v 1.596433 -0.760538 -0.262208
v 1.008308 1.239462 0.262208
v 1.596433 -0.760538 0.262207
v 1.596433 -1.501302 -0.262208
v 1.596433 -1.501302 0.262207
v 1.596433 -0.560538 -0.262208
v 1.596433 -0.560538 0.262208
v 2.596433 -1.030920 -0.262208
v 2.596433 -1.030920 0.262207
v -1.430232 0.487301 -0.262208
v -1.357940 0.725616 -0.262208
v -1.240544 0.945249 -0.262207
v -1.082556 1.137758 -0.262207
v -0.890046 1.295747 -0.262207
v -0.670414 1.413143 -0.262207
v -0.432099 1.485435 -0.262207
v -0.184259 1.509845 -0.262207
v 1.596433 -1.030920 -0.262208
v 1.008308 1.509845 -0.262207
v -0.184260 -1.030920 -0.262208
v -0.432099 -1.006510 -0.262208
v -0.670414 -0.934218 -0.262208
v -0.890046 -0.816822 -0.262208
v -1.082556 -0.658834 -0.262208
v -1.240544 -0.466324 -0.262208
v -1.357940 -0.246692 -0.262208
v -1.430232 -0.008377 -0.262208
v -1.454642 0.239462 -0.262208
v -0.184259 1.509844 0.262208
v -0.432099 1.485434 0.262208
v -0.432099 -1.006510 0.262207
v -0.184260 -1.030920 0.262207
v -0.670414 -0.934218 0.262207
v -0.890046 -0.816822 0.262207
v -1.082556 -0.658834 0.262208
v 1.596433 -1.030920 0.262207
v -1.240544 -0.466324 0.262208
v -1.357940 -0.246692 0.262208
v 1.008308 1.509844 0.262208
v -1.430232 -0.008377 0.262208
v -1.454642 0.239462 0.262208
v -1.430232 0.487301 0.262208
v -1.357940 0.725616 0.262208
v -1.240544 0.945249 0.262208
v -1.082556 1.137758 0.262208
v -0.890046 1.295746 0.262208
v -0.670414 1.413142 0.262208
vt 0.070576 0.614155
vt 0.060479 0.614155
vt 0.060479 0.611639
vt 0.070576 0.611639
vt 0.060479 0.608622
vt 0.070576 0.608622
vt 0.060479 0.605220
vt 0.070576 0.605220
vt 0.084986 0.378482
vt 0.074889 0.378482
vt 0.074889 0.374712
vt 0.084986 0.374712
vt 0.060479 0.601564
vt 0.070576 0.601564
vt 0.074889 0.371056
vt 0.084986 0.371056
vt 0.060479 0.597794
vt 0.070576 0.597794
vt 0.074889 0.367654
vt 0.084986 0.367654
vt 0.074889 0.364637
vt 0.084986 0.364637
vt 0.074889 0.362121
vt 0.084986 0.362121
vt 0.074889 0.360203
vt 0.084986 0.360203
vt 0.074889 0.358956
vt 0.084986 0.358956
vt 0.074889 0.358428
vt 0.084986 0.358428
vt 0.070576 0.617848
vt 0.060479 0.617848
vt 0.060479 0.617320
vt 0.070576 0.617320
vt 0.060479 0.616073
vt 0.070576 0.616073
vt 0.060479 0.623619
vt 0.060479 0.619122
vt 0.070576 0.619122
vt 0.070576 0.623619
vt 0.353449 0.487248
vt 0.353449 0.482910
vt 0.363547 0.482910
vt 0.363547 0.487248
vt 0.353449 0.477899
vt 0.363547 0.477899
vt 0.176374 0.308425
vt 0.176374 0.314185
vt 0.166277 0.314185
vt 0.166277 0.308425
vt 0.353449 0.472408
vt 0.363547 0.472408
vt 0.176374 0.319676
vt 0.166277 0.319676
vt 0.353449 0.466648
vt 0.363547 0.466648
vt 0.176374 0.324687
vt 0.166277 0.324687
vt 0.176374 0.329025
vt 0.166277 0.329025
vt 0.060479 0.661091
vt 0.060479 0.656594
vt 0.070576 0.656594
vt 0.070576 0.661091
vt 0.060479 0.651463
vt 0.070576 0.651463
vt 0.060479 0.645896
vt 0.070576 0.645896
vt 0.060479 0.640107
vt 0.070576 0.640107
vt 0.060479 0.634317
vt 0.070576 0.634317
vt 0.060479 0.628750
vt 0.070576 0.628750
vt 0.455189 0.376840
vt 0.451720 0.380152
vt 0.447774 0.376755
vt 0.451981 0.372739
vt 0.250519 0.515464
vt 0.254905 0.513525
vt 0.257466 0.518060
vt 0.252146 0.520411
vt 0.459237 0.374269
vt 0.456891 0.369620
vt 0.463709 0.372538
vt 0.462314 0.367520
vt 0.468432 0.371712
vt 0.468043 0.366519
vt 0.473226 0.371824
vt 0.473857 0.366655
vt 0.477906 0.372870
vt 0.479533 0.367923
vt 0.482292 0.374808
vt 0.484852 0.370274
vt 0.230843 0.470917
vt 0.226919 0.473675
vt 0.223523 0.469727
vt 0.228282 0.466383
vt 0.223609 0.477145
vt 0.219508 0.473936
vt 0.221038 0.481194
vt 0.216391 0.478847
vt 0.219307 0.485668
vt 0.214292 0.484273
vt 0.218482 0.490393
vt 0.213291 0.490003
vt 0.060479 0.574845
vt 0.070576 0.574845
vt 0.166277 0.274157
vt 0.176374 0.274157
vt 0.218594 0.495188
vt 0.213427 0.495819
vt 0.252344 0.508991
vt 0.272336 0.497693
vt 0.274897 0.502227
vt 0.454305 0.414659
vt 0.458229 0.417416
vt 0.455668 0.421951
vt 0.450910 0.418606
vt 0.219639 0.499869
vt 0.214694 0.501497
vt 0.353450 0.443698
vt 0.363547 0.443698
vt 0.450995 0.411189
vt 0.446895 0.414398
vt 0.221577 0.504257
vt 0.217045 0.506818
vt 0.460790 0.412882
vt 0.490641 0.429752
vt 0.488080 0.434287
vt 0.448425 0.407140
vt 0.443778 0.409486
vt 0.224334 0.508182
vt 0.220388 0.511579
vt 0.084986 0.412749
vt 0.074889 0.412749
vt 0.446694 0.402666
vt 0.441678 0.404061
vt 0.227802 0.511493
vt 0.224595 0.515595
vt 0.504844 0.381572
vt 0.502284 0.386107
vt 0.445869 0.397941
vt 0.440677 0.398330
vt 0.231851 0.514064
vt 0.229504 0.518713
vt 0.258133 0.449513
vt 0.260694 0.454047
vt 0.445981 0.393146
vt 0.440813 0.392514
vt 0.236322 0.515796
vt 0.234928 0.520813
vt 0.447026 0.388464
vt 0.442081 0.386837
vt 0.241046 0.516622
vt 0.240657 0.521815
vt 0.448964 0.384077
vt 0.444431 0.381515
vt 0.245839 0.516510
vt 0.246471 0.521679
vt 0.700370 0.441777
vt 0.700370 0.431677
vt 0.704221 0.431677
vt 0.704221 0.441777
vt 0.696404 0.441777
vt 0.696404 0.431677
vt 0.700255 0.431677
vt 0.700255 0.441777
vt 0.881163 0.686017
vt 0.891260 0.686017
vt 0.891260 0.705642
vt 0.881163 0.705642
vt 0.505644 0.578352
vt 0.495547 0.578352
vt 0.495547 0.558728
vt 0.505644 0.558728
vt 0.455666 0.383549
vt 0.453496 0.386639
vt 0.451971 0.390092
vt 0.451148 0.393777
vt 0.451060 0.397552
vt 0.451710 0.401271
vt 0.479731 0.379343
vt 0.499723 0.390641
vt 0.453072 0.404793
vt 0.455095 0.407980
vt 0.485520 0.438821
vt 0.457701 0.410712
vt 0.476278 0.377817
vt 0.472595 0.376994
vt 0.468821 0.376905
vt 0.465103 0.377555
vt 0.461583 0.378918
vt 0.458397 0.380942
vt 0.245208 0.511340
vt 0.248892 0.510517
vt 0.241435 0.511428
vt 0.237717 0.510778
vt 0.234197 0.509415
vt 0.233403 0.475452
vt 0.263255 0.458582
vt 0.231010 0.507392
vt 0.228280 0.504785
vt 0.226110 0.501695
vt 0.224584 0.498242
vt 0.223762 0.494557
vt 0.277458 0.506761
vt 0.223674 0.490782
vt 0.224323 0.487062
vt 0.225686 0.483541
vt 0.227709 0.480354
vt 0.230315 0.477622
vt 0.504844 0.443760
vt 0.483626 0.442175
vt 0.492535 0.426398
vt 0.277458 0.444573
vt 0.265149 0.461936
vt 0.256239 0.446159
vt 0.353450 0.443479
vt 0.363547 0.443479
vt 0.353450 0.443260
vt 0.363547 0.443260
vn 0.8315 -0.5556 -0.0000
vn 0.7071 -0.7071 -0.0000
vn 0.5556 -0.8315 -0.0000
vn 0.3827 -0.9239 -0.0000
vn 0.0491 0.9988 0.0000
vn 0.1951 0.9808 0.0000
vn 0.1951 -0.9808 -0.0000
vn 0.3827 0.9239 0.0000
vn 0.0491 -0.9988 -0.0000
vn 0.5556 0.8315 0.0000
vn 0.7071 0.7071 0.0000
vn 0.8315 0.5556 0.0000
vn 0.9239 0.3827 0.0000
vn 0.9808 0.1951 0.0000
vn 1.0000 0.0000 -0.0000
vn 0.9808 -0.1951 -0.0000
vn 0.9239 -0.3827 -0.0000
vn -0.8315 0.5556 0.0000
vn -0.7071 0.7071 0.0000
vn -0.5556 0.8315 0.0000
vn -0.3827 0.9239 0.0000
vn -0.0491 -0.9988 -0.0000
vn -0.1951 -0.9808 -0.0000
vn -0.1951 0.9808 0.0000
vn -0.3827 -0.9239 -0.0000
vn -0.0491 0.9988 0.0000
vn -0.5556 -0.8315 -0.0000
vn -0.7071 -0.7071 -0.0000
vn -0.8315 -0.5556 -0.0000
vn -0.9239 -0.3827 -0.0000
vn -0.9808 -0.1951 -0.0000
vn -1.0000 -0.0000 -0.0000
vn -0.9808 0.1951 0.0000
vn -0.9239 0.3827 0.0000
vn 0.0000 0.0000 -1.0000
vn 0.0000 -0.0000 1.0000
vn 0.0000 -1.0000 -0.0000
vn 0.0000 1.0000 0.0000
vn 0.4256 0.9049 0.0000
vn 0.4256 -0.9049 -0.0000
usemtl Material.001
s 1
f 12/1/1 29/2/1 30/3/2 13/4/2
f 13/4/2 30/3/2 31/5/3 14/6/3
f 14/6/3 31/5/3 32/7/4 15/8/4
f 1/9/5 18/10/5 19/11/6 2/12/6
f 15/8/4 32/7/4 33/13/7 16/14/7
f 2/12/6 19/11/6 20/15/8 3/16/8
f 16/14/7 33/13/7 34/17/9 17/18/9
f 3/16/8 20/15/8 21/19/10 4/20/10
f 4/20/10 21/19/10 22/21/11 5/22/11
f 5/22/11 22/21/11 23/23/12 6/24/12
f 6/24/12 23/23/12 24/25/13 7/26/13
f 7/26/13 24/25/13 25/27/14 8/28/14
f 8/28/14 25/27/14 26/29/15 9/30/15
f 9/31/15 26/32/15 27/33/16 10/34/16
f 10/34/16 27/33/16 28/35/17 11/36/17
f 11/36/17 28/35/17 29/2/1 12/1/1
f 46/37/18 47/38/19 64/39/19 63/40/18
f 47/41/19 48/42/20 65/43/20 64/44/19
f 48/42/20 49/45/21 66/46/21 65/43/20
f 36/47/22 35/48/23 52/49/23 53/50/22
f 49/45/21 50/51/24 67/52/24 66/46/21
f 35/48/23 37/53/25 54/54/25 52/49/23
f 50/51/24 51/55/26 68/56/26 67/52/24
f 37/53/25 38/57/27 55/58/27 54/54/25
f 38/57/27 39/59/28 56/60/28 55/58/27
f 39/61/28 40/62/29 57/63/29 56/64/28
f 40/62/29 41/65/30 58/66/30 57/63/29
f 41/65/30 42/67/31 59/68/31 58/66/30
f 42/67/31 43/69/32 60/70/32 59/68/31
f 43/69/32 44/71/33 61/72/33 60/70/32
f 44/71/33 45/73/34 62/74/34 61/72/33
f 45/73/34 46/37/18 63/40/18 62/74/34
f 84/75/35 83/76/35 61/77/35 62/78/35
f 103/79/36 102/80/36 51/81/36 50/82/36
f 85/83/35 84/75/35 62/78/35 63/84/35
f 86/85/35 85/83/35 63/84/35 64/86/35
f 87/87/35 86/85/35 64/86/35 65/88/35
f 88/89/35 87/87/35 65/88/35 66/90/35
f 89/91/35 88/89/35 66/90/35 67/92/35
f 90/93/35 89/91/35 67/92/35 68/94/35
f 105/95/36 104/96/36 35/97/36 36/98/36
f 104/96/36 106/99/36 37/100/36 35/97/36
f 106/99/36 107/101/36 38/102/36 37/100/36
f 107/101/36 108/103/36 39/104/36 38/102/36
f 108/103/36 110/105/36 40/106/36 39/104/36
f 17/18/9 34/17/9 73/107/37 75/108/37
f 36/47/22 53/50/22 70/109/37 72/110/37
f 110/105/36 111/111/36 41/112/36 40/106/36
f 102/80/36 17/113/36 75/114/36 112/115/36
f 94/116/35 93/117/35 53/118/35 52/119/35
f 111/111/36 113/120/36 42/121/36 41/112/36
f 68/56/26 51/55/26 71/122/38 69/123/38
f 95/124/35 94/116/35 52/119/35 54/125/35
f 113/120/36 114/126/36 43/127/36 42/121/36
f 93/117/35 18/128/35 74/129/35 91/130/35
f 96/131/35 95/124/35 54/125/35 55/132/35
f 114/126/36 115/133/36 44/134/36 43/127/36
f 18/10/5 1/9/5 76/135/38 74/136/38
f 97/137/35 96/131/35 55/132/35 56/138/35
f 115/133/36 116/139/36 45/140/36 44/134/36
f 90/93/35 68/94/35 69/141/35 92/142/35
f 98/143/35 97/137/35 56/138/35 57/144/35
f 116/139/36 117/145/36 46/146/36 45/140/36
f 105/95/36 36/98/36 72/147/36 109/148/36
f 99/149/35 98/143/35 57/144/35 58/150/35
f 117/145/36 118/151/36 47/152/36 46/146/36
f 100/153/35 99/149/35 58/150/35 59/154/35
f 118/151/36 119/155/36 48/156/36 47/152/36
f 101/157/35 100/153/35 59/154/35 60/158/35
f 119/155/36 120/159/36 49/160/36 48/156/36
f 83/76/35 101/157/35 60/158/35 61/77/35
f 120/159/36 103/79/36 50/82/36 49/160/36
f 74/161/32 76/162/32 80/163/32 79/164/32
f 72/165/32 70/166/32 77/167/32 78/168/32
f 79/169/39 80/170/39 82/171/39 81/172/39
f 78/173/40 77/174/40 81/175/40 82/176/40
f 27/177/35 26/178/35 101/157/35 83/76/35
f 26/178/35 25/179/35 100/153/35 101/157/35
f 25/179/35 24/180/35 99/149/35 100/153/35
f 24/180/35 23/181/35 98/143/35 99/149/35
f 23/181/35 22/182/35 97/137/35 98/143/35
f 34/183/35 90/93/35 92/142/35 73/184/35
f 22/182/35 21/185/35 96/131/35 97/137/35
f 21/185/35 20/186/35 95/124/35 96/131/35
f 53/118/35 93/117/35 91/130/35 70/187/35
f 20/186/35 19/188/35 94/116/35 95/124/35
f 19/188/35 18/128/35 93/117/35 94/116/35
f 34/183/35 33/189/35 89/91/35 90/93/35
f 33/189/35 32/190/35 88/89/35 89/91/35
f 32/190/35 31/191/35 87/87/35 88/89/35
f 31/191/35 30/192/35 86/85/35 87/87/35
f 30/192/35 29/193/35 85/83/35 86/85/35
f 29/193/35 28/194/35 84/75/35 85/83/35
f 28/194/35 27/177/35 83/76/35 84/75/35
f 15/195/36 16/196/36 103/79/36 120/159/36
f 14/197/36 15/195/36 120/159/36 119/155/36
f 13/198/36 14/197/36 119/155/36 118/151/36
f 12/199/36 13/198/36 118/151/36 117/145/36
f 1/200/36 105/95/36 109/148/36 76/201/36
f 11/202/36 12/199/36 117/145/36 116/139/36
f 10/203/36 11/202/36 116/139/36 115/133/36
f 9/204/36 10/203/36 115/133/36 114/126/36
f 8/205/36 9/204/36 114/126/36 113/120/36
f 7/206/36 8/205/36 113/120/36 111/111/36
f 51/81/36 102/80/36 112/115/36 71/207/36
f 6/208/36 7/206/36 111/111/36 110/105/36
f 5/209/36 6/208/36 110/105/36 108/103/36
f 4/210/36 5/209/36 108/103/36 107/101/36
f 3/211/36 4/210/36 107/101/36 106/99/36
f 2/212/36 3/211/36 106/99/36 104/96/36
f 1/200/36 2/212/36 104/96/36 105/95/36
f 16/196/36 17/113/36 102/80/36 103/79/36
f 91/130/35 81/213/35 77/214/35 70/187/35
f 79/215/35 81/213/35 91/130/35 74/129/35
f 109/148/36 82/216/36 80/217/36 76/201/36
f 78/218/36 82/216/36 109/148/36 72/147/36
f 112/219/15 92/220/15 69/123/15 71/122/15
f 92/220/15 112/219/15 75/221/15 73/222/15
