# Blender v2.83.5 OBJ File: 'Arrows.blend'
# www.blender.org
mtllib Arrow_44.mtl
o Arrow_44
v -0.117373 -0.830806 0.262207
v -0.322454 -0.810607 0.262207
v -0.522866 -0.749813 0.262207
v -0.707567 -0.651088 0.262207
v -0.869459 -0.518227 0.262208
v -1.002320 -0.356335 0.262208
v -1.101044 -0.171634 0.262208
v -1.161839 0.028778 0.262208
v -1.182366 0.237199 0.262208
v -1.161839 0.445621 0.262208
v -1.101045 0.646033 0.262208
v -1.002320 0.830734 0.262208
v -0.869459 0.992626 0.262208
v -0.707567 1.125487 0.262208
v -0.522866 1.224212 0.262208
v -0.322453 1.285006 0.262208
v -0.117373 1.305205 0.262208
v -0.117373 -0.830806 -0.262208
v -0.322454 -0.810607 -0.262208
v -0.522866 -0.749813 -0.262208
v -0.707567 -0.651088 -0.262208
v -0.869459 -0.518227 -0.262208
v -1.002320 -0.356335 -0.262208
v -1.101044 -0.171634 -0.262208
v -1.161839 0.028778 -0.262208
v -1.182366 0.237200 -0.262208
v -1.161839 0.445621 -0.262208
v -1.101045 0.646033 -0.262208
v -1.002320 0.830735 -0.262208
v -0.869459 0.992626 -0.262207
v -0.707567 1.125488 -0.262207
v -0.522866 1.224212 -0.262207
v -0.322453 1.285007 -0.262207
v -0.117373 1.305205 -0.262207
v -0.401289 -1.206938 0.262207
v -0.110691 -1.235559 0.262207
v -0.677506 -1.123148 0.262207
v -0.932070 -0.987081 0.262207
v -1.155197 -0.803966 0.262207
v -1.338313 -0.580839 0.262208
v -1.474380 -0.326275 0.262208
v -1.558169 -0.050057 0.262208
v -1.586462 0.237199 0.262208
v -1.558169 0.524456 0.262208
v -1.474380 0.800674 0.262208
v -1.338313 1.055238 0.262208
v -1.155197 1.278365 0.262208
v -0.932070 1.461480 0.262208
v -0.677506 1.597547 0.262208
v -0.401288 1.681337 0.262208
v -0.110691 1.709958 0.262208
v -0.401289 -1.206938 -0.262208
v -0.110691 -1.235559 -0.262208
v -0.677506 -1.123148 -0.262208
v -0.932070 -0.987081 -0.262208
v -1.155197 -0.803965 -0.262208
v -1.338313 -0.580838 -0.262208
v -1.474380 -0.326275 -0.262208
v -1.558169 -0.050057 -0.262208
v -1.586462 0.237200 -0.262208
v -1.558169 0.524456 -0.262208
v -1.474380 0.800674 -0.262208
v -1.338313 1.055238 -0.262207
v -1.155197 1.278365 -0.262207
v -0.932070 1.461480 -0.262207
v -0.677506 1.597547 -0.262207
v -0.401288 1.681337 -0.262207
v -0.110691 1.709958 -0.262207
v 1.010531 1.709958 -0.262207
v 1.734666 -1.235559 -0.262208
v 1.010531 1.709958 0.262208
v 1.734666 -1.235559 0.262207
v 1.010531 1.305205 -0.262207
v 1.734667 -0.830806 -0.262208
v 1.010531 1.305205 0.262208
v 1.734667 -0.830806 0.262207
v 1.734666 -1.396423 -0.262208
v 1.734666 -1.396423 0.262207
v 1.734667 -0.669942 -0.262208
v 1.734667 -0.669942 0.262207
v 2.506890 -1.033183 -0.262208
v 2.506890 -1.033183 0.262207
v 1.010531 1.507582 -0.262207
v 1.010531 1.507582 0.262208
v -0.309122 -0.743586 0.262207
v -0.114032 -0.762800 0.262207
v -0.496715 -0.686680 0.262207
v -0.669602 -0.594270 0.262208
v -0.821139 -0.469907 0.262208
v -0.945502 -0.318371 0.262208
v -1.037911 -0.145484 0.262208
v -1.094817 0.042109 0.262208
v -1.114032 0.237199 0.262208
v -1.094817 0.432290 0.262208
v -1.037912 0.619883 0.262208
v -0.945502 0.792770 0.262208
v -0.821139 0.944306 0.262208
v -0.669602 1.068669 0.262208
v -0.496715 1.161079 0.262208
v -0.309122 1.217985 0.262208
v -0.114032 1.237199 0.262208
v -0.309122 -0.743586 -0.262208
v -0.114032 -0.762800 -0.262208
v -0.496715 -0.686680 -0.262208
v -0.669602 -0.594270 -0.262208
v -0.821139 -0.469907 -0.262208
v -0.945502 -0.318370 -0.262208
v -1.037911 -0.145484 -0.262208
v -1.094817 0.042109 -0.262208
v -1.114032 0.237200 -0.262208
v -1.094817 0.432290 -0.262208
v -1.037912 0.619883 -0.262208
v -0.945502 0.792770 -0.262208
v -0.821139 0.944306 -0.262207
v -0.669602 1.068669 -0.262207
v -0.496715 1.161079 -0.262207
v -0.309122 1.217985 -0.262207
v -0.114032 1.237200 -0.262207
v -0.414620 -1.273960 0.262207
v -0.114032 -1.303565 0.262207
v -0.703657 -1.186281 0.262207
v -0.970035 -1.043899 0.262207
v -1.203517 -0.852285 0.262207
v -1.395131 -0.618803 0.262207
v -1.537513 -0.352425 0.262208
v -1.625191 -0.063389 0.262208
v -1.654796 0.237199 0.262208
v -1.625191 0.537788 0.262208
v -1.537513 0.826824 0.262208
v -1.395131 1.093202 0.262208
v -1.203517 1.326684 0.262208
v -0.970035 1.518298 0.262208
v -0.703657 1.660680 0.262208
v -0.414620 1.748358 0.262208
v -0.114031 1.777964 0.262208
v -0.414620 -1.273959 -0.262208
v -0.114032 -1.303565 -0.262208
v -0.703657 -1.186281 -0.262208
v -0.970035 -1.043899 -0.262208
v -1.203517 -0.852285 -0.262208
v -1.395131 -0.618803 -0.262208
v -1.537513 -0.352425 -0.262208
v -1.625191 -0.063389 -0.262208
v -1.654796 0.237200 -0.262208
v -1.625191 0.537788 -0.262208
v -1.537513 0.826824 -0.262208
v -1.395131 1.093202 -0.262207
v -1.203517 1.326685 -0.262207
v -0.970035 1.518299 -0.262207
v -0.703657 1.660680 -0.262207
v -0.414620 1.748359 -0.262207
v -0.114031 1.777964 -0.262207
v 1.078536 1.237199 0.262208
v 1.078536 1.777964 0.262208
v 1.666661 -1.303565 -0.262208
v 1.666661 -0.762800 -0.262208
v 1.078536 1.777964 -0.262207
v 1.078536 1.237200 -0.262207
v 1.666661 -1.303565 0.262207
v 1.666661 -0.762800 0.262207
v 1.078536 1.507582 -0.262207
v 1.078536 1.507582 0.262208
v 1.666661 -0.562800 -0.262208
v 1.666661 -0.562800 0.262208
v 1.666661 -1.503565 0.262207
v 1.666661 -1.503565 -0.262208
v 2.666661 -1.033183 0.262207
v 2.666661 -1.033183 -0.262208
vt 0.141900 0.773742
vt 0.151997 0.773742
vt 0.151997 0.776661
vt 0.141900 0.776661
vt 0.735692 0.798870
vt 0.725595 0.798870
vt 0.725595 0.795952
vt 0.735692 0.795952
vt 0.725595 0.792622
vt 0.735692 0.792622
vt 0.074889 0.448580
vt 0.084986 0.448580
vt 0.084986 0.452338
vt 0.074889 0.452338
vt 0.725595 0.789009
vt 0.735692 0.789009
vt 0.084986 0.455951
vt 0.074889 0.455951
vt 0.725595 0.785251
vt 0.735692 0.785251
vt 0.084986 0.459281
vt 0.074889 0.459281
vt 0.084986 0.462199
vt 0.074889 0.462199
vt 0.141900 0.749422
vt 0.151997 0.749422
vt 0.151997 0.752341
vt 0.141900 0.752341
vt 0.151997 0.755671
vt 0.141900 0.755671
vt 0.151997 0.759284
vt 0.141900 0.759284
vt 0.151997 0.763041
vt 0.141900 0.763041
vt 0.151997 0.766799
vt 0.141900 0.766799
vt 0.151997 0.770412
vt 0.141900 0.770412
vt 0.084986 0.501019
vt 0.084986 0.505517
vt 0.074889 0.505517
vt 0.074889 0.501019
vt 0.505644 0.513820
vt 0.505644 0.518317
vt 0.495547 0.518317
vt 0.495547 0.513820
vt 0.505644 0.523447
vt 0.495547 0.523447
vt 0.166277 0.238207
vt 0.166277 0.232418
vt 0.176374 0.232418
vt 0.176374 0.238207
vt 0.505644 0.529014
vt 0.495547 0.529014
vt 0.166277 0.226851
vt 0.176374 0.226851
vt 0.505644 0.534804
vt 0.495547 0.534804
vt 0.166277 0.221720
vt 0.176374 0.221720
vt 0.166277 0.217223
vt 0.176374 0.217223
vt 0.084986 0.463548
vt 0.084986 0.468045
vt 0.074889 0.468045
vt 0.074889 0.463548
vt 0.084986 0.473175
vt 0.074889 0.473175
vt 0.084986 0.478743
vt 0.074889 0.478743
vt 0.084986 0.484532
vt 0.074889 0.484532
vt 0.084986 0.490322
vt 0.074889 0.490322
vt 0.084986 0.495889
vt 0.074889 0.495889
vt 0.725595 0.762281
vt 0.735692 0.762281
vt 0.176374 0.272505
vt 0.166277 0.272505
vt 0.505644 0.557774
vt 0.495547 0.557774
vt 0.074889 0.414282
vt 0.084986 0.414282
vt 0.506148 0.714101
vt 0.506148 0.719698
vt 0.496051 0.719698
vt 0.496051 0.714101
vt 0.496051 0.708781
vt 0.506148 0.708781
vt 0.506721 0.687128
vt 0.506721 0.697229
vt 0.502871 0.697229
vt 0.502871 0.687128
vt 0.708187 0.431677
vt 0.708187 0.441777
vt 0.704337 0.441777
vt 0.704337 0.431677
vt 0.065651 0.990602
vt 0.055554 0.990602
vt 0.055554 0.971341
vt 0.065651 0.971341
vt 0.601498 0.980613
vt 0.591401 0.980613
vt 0.591401 0.961352
vt 0.601498 0.961352
vt 0.496051 0.703878
vt 0.506148 0.703878
vt 0.496051 0.699580
vt 0.506148 0.699580
vt 0.624592 0.761324
vt 0.614494 0.761324
vt 0.614494 0.757026
vt 0.624592 0.757026
vt 0.614494 0.752123
vt 0.624592 0.752123
vt 0.614494 0.746803
vt 0.624592 0.746803
vt 0.614494 0.741270
vt 0.624592 0.741270
vt 0.614495 0.735737
vt 0.624592 0.735737
vt 0.614495 0.730417
vt 0.624592 0.730417
vt 0.614495 0.725514
vt 0.624592 0.725514
vt 0.614495 0.721216
vt 0.624592 0.721216
vt 0.176374 0.215559
vt 0.166277 0.215559
vt 0.166277 0.211261
vt 0.176374 0.211261
vt 0.166277 0.206358
vt 0.176374 0.206358
vt 0.166277 0.201038
vt 0.176374 0.201038
vt 0.166277 0.195441
vt 0.176374 0.195441
vt 0.166277 0.159898
vt 0.176374 0.159898
vt 0.169242 0.566146
vt 0.169242 0.556046
vt 0.172339 0.556046
vt 0.172339 0.566146
vt 0.981701 0.434129
vt 0.991798 0.434129
vt 0.991798 0.449002
vt 0.981701 0.449002
vt 0.991798 0.418809
vt 0.991798 0.433682
vt 0.981701 0.433682
vt 0.981701 0.418809
vt 0.594784 0.245067
vt 0.591686 0.245067
vt 0.591686 0.234966
vt 0.594784 0.234966
vt 0.353449 0.391691
vt 0.363547 0.391691
vt 0.363547 0.427363
vt 0.353450 0.427363
vt 0.363547 0.431313
vt 0.353450 0.431313
vt 0.363547 0.435173
vt 0.353450 0.435173
vt 0.363547 0.438730
vt 0.353450 0.438730
vt 0.363547 0.441848
vt 0.353450 0.441848
vt 0.166277 0.330285
vt 0.176374 0.330285
vt 0.176374 0.333403
vt 0.166277 0.333403
vt 0.176374 0.336960
vt 0.166277 0.336960
vt 0.176374 0.340820
vt 0.166277 0.340820
vt 0.176374 0.344835
vt 0.166277 0.344835
vt 0.176374 0.348849
vt 0.166277 0.348849
vt 0.176374 0.352709
vt 0.166277 0.352709
vt 0.176374 0.356267
vt 0.166277 0.356267
vt 0.176374 0.359385
vt 0.166277 0.359385
vt 0.202080 0.794971
vt 0.212177 0.794971
vt 0.212177 0.798089
vt 0.202080 0.798089
vt 0.212177 0.801647
vt 0.202080 0.801647
vt 0.212177 0.805507
vt 0.202080 0.805507
vt 0.212177 0.809457
vt 0.202080 0.809457
vt 0.212177 0.831181
vt 0.202080 0.831181
vt 0.560807 0.433753
vt 0.560807 0.443854
vt 0.556911 0.443854
vt 0.556911 0.433753
vt 0.553014 0.443854
vt 0.553014 0.433753
vt 0.506148 0.741294
vt 0.496051 0.741294
vt 0.505958 0.438966
vt 0.516055 0.438966
vt 0.516055 0.444173
vt 0.505958 0.444173
vt 0.505958 0.433758
vt 0.516055 0.433758
vt 0.382106 0.473333
vt 0.385352 0.471052
vt 0.386053 0.472161
vt 0.382964 0.474331
vt 0.379322 0.476252
vt 0.380358 0.477063
vt 0.377161 0.479657
vt 0.378335 0.480250
vt 0.375705 0.483419
vt 0.376973 0.483771
vt 0.375011 0.487392
vt 0.376323 0.487491
vt 0.375105 0.491425
vt 0.376411 0.491266
vt 0.375984 0.495362
vt 0.377234 0.494951
vt 0.377614 0.499052
vt 0.378759 0.498404
vt 0.379932 0.502352
vt 0.380929 0.501494
vt 0.382849 0.505137
vt 0.383660 0.504101
vt 0.386253 0.507299
vt 0.386846 0.506124
vt 0.390014 0.508756
vt 0.390366 0.507487
vt 0.393986 0.509450
vt 0.394084 0.508137
vt 0.398017 0.509356
vt 0.397857 0.508049
vt 0.401952 0.508476
vt 0.401541 0.507226
vt 0.405582 0.506872
vt 0.404994 0.505700
vt 0.307440 0.491972
vt 0.304194 0.489690
vt 0.305052 0.488692
vt 0.308140 0.490863
vt 0.301410 0.486772
vt 0.302446 0.485961
vt 0.299248 0.483366
vt 0.300423 0.482773
vt 0.297793 0.479605
vt 0.299060 0.479252
vt 0.297099 0.475631
vt 0.298411 0.475533
vt 0.297193 0.471598
vt 0.298499 0.471758
vt 0.298072 0.467661
vt 0.299322 0.468073
vt 0.299702 0.463972
vt 0.300847 0.464619
vt 0.302020 0.460671
vt 0.303017 0.461530
vt 0.304937 0.457886
vt 0.305747 0.458923
vt 0.308341 0.455724
vt 0.308934 0.456899
vt 0.312101 0.454268
vt 0.312454 0.455536
vt 0.316074 0.453574
vt 0.316172 0.454886
vt 0.320105 0.453668
vt 0.319945 0.454974
vt 0.324040 0.454547
vt 0.323629 0.455797
vt 0.327670 0.456151
vt 0.327082 0.457323
vt 0.381631 0.464201
vt 0.377031 0.467434
vt 0.376173 0.466436
vt 0.380931 0.463092
vt 0.373194 0.471456
vt 0.372158 0.470645
vt 0.370215 0.476149
vt 0.369040 0.475556
vt 0.368209 0.481334
vt 0.366941 0.480982
vt 0.367252 0.486811
vt 0.365940 0.486712
vt 0.367382 0.492369
vt 0.366076 0.492528
vt 0.368593 0.497795
vt 0.367343 0.498206
vt 0.370839 0.502880
vt 0.369694 0.503527
vt 0.374034 0.507429
vt 0.373037 0.508288
vt 0.378055 0.511267
vt 0.377244 0.512304
vt 0.382747 0.514247
vt 0.382154 0.515422
vt 0.387930 0.516254
vt 0.387577 0.517522
vt 0.393404 0.517211
vt 0.393306 0.518524
vt 0.398960 0.517081
vt 0.399120 0.518388
vt 0.404384 0.515870
vt 0.404796 0.517120
vt 0.409527 0.513597
vt 0.410115 0.514769
vt 0.299119 0.495589
vt 0.303719 0.498822
vt 0.303019 0.499931
vt 0.298260 0.496587
vt 0.295282 0.491567
vt 0.294245 0.492378
vt 0.292303 0.486874
vt 0.291128 0.487467
vt 0.290297 0.481689
vt 0.289029 0.482042
vt 0.289340 0.476213
vt 0.288028 0.476311
vt 0.289470 0.470655
vt 0.288164 0.470495
vt 0.290681 0.465229
vt 0.289431 0.464817
vt 0.292927 0.460143
vt 0.291782 0.459496
vt 0.296122 0.455594
vt 0.295125 0.454736
vt 0.300143 0.451756
vt 0.299332 0.450719
vt 0.304835 0.448776
vt 0.304242 0.447601
vt 0.310017 0.446769
vt 0.309665 0.445501
vt 0.315492 0.445812
vt 0.315394 0.444500
vt 0.321048 0.445942
vt 0.321208 0.444636
vt 0.326472 0.447154
vt 0.326883 0.445904
vt 0.331615 0.449427
vt 0.332203 0.448255
vt 0.424490 0.496187
vt 0.424986 0.494402
vt 0.428323 0.502974
vt 0.430107 0.503470
vt 0.334654 0.516305
vt 0.332870 0.516801
vt 0.338488 0.509518
vt 0.337992 0.507733
vt 0.350411 0.460049
vt 0.352195 0.459553
vt 0.346578 0.466837
vt 0.347074 0.468622
vt 0.412567 0.446718
vt 0.410783 0.446222
vt 0.416400 0.453506
vt 0.415904 0.455291
vt 0.348494 0.463443
vt 0.349634 0.464087
vt 0.426406 0.499580
vt 0.427546 0.498936
vt 0.340011 0.506820
vt 0.339886 0.504379
vt 0.417923 0.456203
vt 0.417798 0.458644
vt 0.411043 0.444021
vt 0.408888 0.442868
vt 0.333131 0.519003
vt 0.330976 0.520155
vt 0.427429 0.442796
vt 0.430107 0.441282
vt 0.349517 0.520227
vt 0.352195 0.521741
vn 0.8315 -0.5556 -0.0000
vn 0.7071 -0.7071 -0.0000
vn 0.5556 -0.8315 -0.0000
vn 0.3827 -0.9239 -0.0000
vn 0.0491 0.9988 0.0000
vn 0.1951 0.9808 0.0000
vn 0.1951 -0.9808 -0.0000
vn 0.3827 0.9239 0.0000
vn 0.0491 -0.9988 -0.0000
vn 0.5556 0.8315 0.0000
vn 0.7071 0.7071 0.0000
vn 0.8315 0.5556 0.0000
vn 0.9239 0.3827 0.0000
vn 0.9808 0.1951 0.0000
vn 1.0000 0.0000 0.0000
vn 0.9808 -0.1951 -0.0000
vn 0.9239 -0.3827 -0.0000
vn -0.8315 0.5556 0.0000
vn -0.7071 0.7071 0.0000
vn -0.5556 0.8315 0.0000
vn -0.3827 0.9239 0.0000
vn -0.0491 -0.9988 -0.0000
vn -0.1951 -0.9808 -0.0000
vn -0.1951 0.9808 0.0000
vn -0.3827 -0.9239 -0.0000
vn -0.0491 0.9988 0.0000
vn -0.5556 -0.8315 -0.0000
vn -0.7071 -0.7071 -0.0000
vn -0.8315 -0.5556 -0.0000
vn -0.9239 -0.3827 -0.0000
vn -0.9808 -0.1951 -0.0000
vn -1.0000 -0.0000 -0.0000
vn -0.9808 0.1951 0.0000
vn -0.9239 0.3827 0.0000
vn 0.0000 -1.0000 -0.0000
vn 0.0000 1.0000 0.0000
vn 0.4256 0.9049 0.0000
vn 0.4256 -0.9049 -0.0000
vn -0.4256 0.9049 0.0000
vn -0.4256 -0.9049 -0.0000
vn 0.0000 -0.0000 1.0000
vn 0.0000 0.0000 -1.0000
usemtl Material.001
s 1
f 96/1/1 113/2/1 114/3/2 97/4/2
f 97/5/2 114/6/2 115/7/3 98/8/3
f 98/8/3 115/7/3 116/9/4 99/10/4
f 86/11/5 103/12/5 102/13/6 85/14/6
f 99/10/4 116/9/4 117/15/7 100/16/7
f 85/14/6 102/13/6 104/17/8 87/18/8
f 100/16/7 117/15/7 118/19/9 101/20/9
f 87/18/8 104/17/8 105/21/10 88/22/10
f 88/22/10 105/21/10 106/23/11 89/24/11
f 89/25/11 106/26/11 107/27/12 90/28/12
f 90/28/12 107/27/12 108/29/13 91/30/13
f 91/30/13 108/29/13 109/31/14 92/32/14
f 92/32/14 109/31/14 110/33/15 93/34/15
f 93/34/15 110/33/15 111/35/16 94/36/16
f 94/36/16 111/35/16 112/37/17 95/38/17
f 95/38/17 112/37/17 113/2/1 96/1/1
f 130/39/18 131/40/19 148/41/19 147/42/18
f 131/43/19 132/44/20 149/45/20 148/46/19
f 132/44/20 133/47/21 150/48/21 149/45/20
f 120/49/22 119/50/23 136/51/23 137/52/22
f 133/47/21 134/53/24 151/54/24 150/48/21
f 119/50/23 121/55/25 138/56/25 136/51/23
f 134/53/24 135/57/26 152/58/26 151/54/24
f 121/55/25 122/59/27 139/60/27 138/56/25
f 122/59/27 123/61/28 140/62/28 139/60/27
f 123/63/28 124/64/29 141/65/29 140/66/28
f 124/64/29 125/67/30 142/68/30 141/65/29
f 125/67/30 126/69/31 143/70/31 142/68/30
f 126/69/31 127/71/32 144/72/32 143/70/31
f 127/71/32 128/73/33 145/74/33 144/72/32
f 128/73/33 129/75/34 146/76/34 145/74/33
f 129/75/34 130/39/18 147/42/18 146/76/34
f 101/20/9 118/19/9 158/77/35 153/78/35
f 120/49/22 137/52/22 155/79/35 159/80/35
f 152/58/26 135/57/26 154/81/36 157/82/36
f 103/12/5 86/11/5 160/83/36 156/84/36
f 67/85/7 68/86/9 51/87/9 50/88/7
f 67/85/7 50/88/7 49/89/4 66/90/4
f 156/91/32 160/92/32 164/93/32 163/94/32
f 159/95/32 155/96/32 166/97/32 165/98/32
f 163/99/37 164/100/37 167/101/37 168/102/37
f 165/103/38 166/104/38 168/105/38 167/106/38
f 66/90/4 49/89/4 48/107/3 65/108/3
f 65/108/3 48/107/3 47/109/2 64/110/2
f 64/111/2 47/112/2 46/113/1 63/114/1
f 63/114/1 46/113/1 45/115/17 62/116/17
f 62/116/17 45/115/17 44/117/16 61/118/16
f 61/118/16 44/117/16 43/119/15 60/120/15
f 60/120/15 43/119/15 42/121/14 59/122/14
f 59/122/14 42/121/14 41/123/13 58/124/13
f 58/124/13 41/123/13 40/125/12 57/126/12
f 57/126/12 40/125/12 39/127/11 56/128/11
f 56/129/11 39/130/11 38/131/10 55/132/10
f 55/132/10 38/131/10 37/133/8 54/134/8
f 54/134/8 37/133/8 35/135/6 52/136/6
f 35/135/6 36/137/5 53/138/5 52/136/6
f 53/138/5 36/137/5 72/139/36 70/140/36
f 70/141/15 72/142/15 78/143/15 77/144/15
f 77/145/39 78/146/39 82/147/39 81/148/39
f 82/149/40 80/150/40 79/151/40 81/152/40
f 80/153/15 76/154/15 74/155/15 79/156/15
f 74/157/35 76/158/35 1/159/22 18/160/22
f 18/160/22 1/159/22 2/161/23 19/162/23
f 19/162/23 2/161/23 3/163/25 20/164/25
f 20/164/25 3/163/25 4/165/27 21/166/27
f 21/166/27 4/165/27 5/167/28 22/168/28
f 22/169/28 5/170/28 6/171/29 23/172/29
f 23/172/29 6/171/29 7/173/30 24/174/30
f 24/174/30 7/173/30 8/175/31 25/176/31
f 25/176/31 8/175/31 9/177/32 26/178/32
f 26/178/32 9/177/32 10/179/33 27/180/33
f 27/180/33 10/179/33 11/181/34 28/182/34
f 28/182/34 11/181/34 12/183/18 29/184/18
f 29/184/18 12/183/18 13/185/19 30/186/19
f 30/187/19 13/188/19 14/189/20 31/190/20
f 31/190/20 14/189/20 15/191/21 32/192/21
f 32/192/21 15/191/21 16/193/24 33/194/24
f 33/194/24 16/193/24 17/195/26 34/196/26
f 17/195/26 75/197/36 73/198/36 34/196/26
f 73/199/32 75/200/32 84/201/32 83/202/32
f 83/202/32 84/201/32 71/203/32 69/204/32
f 69/205/35 71/206/35 51/87/9 68/86/9
f 162/207/15 161/208/15 157/209/15 154/210/15
f 161/208/15 162/207/15 153/211/15 158/212/15
f 2/213/41 1/214/41 86/215/41 85/216/41
f 3/217/41 2/213/41 85/216/41 87/218/41
f 4/219/41 3/217/41 87/218/41 88/220/41
f 5/221/41 4/219/41 88/220/41 89/222/41
f 6/223/41 5/221/41 89/222/41 90/224/41
f 7/225/41 6/223/41 90/224/41 91/226/41
f 8/227/41 7/225/41 91/226/41 92/228/41
f 9/229/41 8/227/41 92/228/41 93/230/41
f 10/231/41 9/229/41 93/230/41 94/232/41
f 11/233/41 10/231/41 94/232/41 95/234/41
f 12/235/41 11/233/41 95/234/41 96/236/41
f 13/237/41 12/235/41 96/236/41 97/238/41
f 14/239/41 13/237/41 97/238/41 98/240/41
f 15/241/41 14/239/41 98/240/41 99/242/41
f 16/243/41 15/241/41 99/242/41 100/244/41
f 17/245/41 16/243/41 100/244/41 101/246/41
f 18/247/42 19/248/42 102/249/42 103/250/42
f 19/248/42 20/251/42 104/252/42 102/249/42
f 20/251/42 21/253/42 105/254/42 104/252/42
f 21/253/42 22/255/42 106/256/42 105/254/42
f 22/255/42 23/257/42 107/258/42 106/256/42
f 23/257/42 24/259/42 108/260/42 107/258/42
f 24/259/42 25/261/42 109/262/42 108/260/42
f 25/261/42 26/263/42 110/264/42 109/262/42
f 26/263/42 27/265/42 111/266/42 110/264/42
f 27/265/42 28/267/42 112/268/42 111/266/42
f 28/267/42 29/269/42 113/270/42 112/268/42
f 29/269/42 30/271/42 114/272/42 113/270/42
f 30/271/42 31/273/42 115/274/42 114/272/42
f 31/273/42 32/275/42 116/276/42 115/274/42
f 32/275/42 33/277/42 117/278/42 116/276/42
f 33/277/42 34/279/42 118/280/42 117/278/42
f 36/281/41 35/282/41 119/283/41 120/284/41
f 35/282/41 37/285/41 121/286/41 119/283/41
f 37/285/41 38/287/41 122/288/41 121/286/41
f 38/287/41 39/289/41 123/290/41 122/288/41
f 39/289/41 40/291/41 124/292/41 123/290/41
f 40/291/41 41/293/41 125/294/41 124/292/41
f 41/293/41 42/295/41 126/296/41 125/294/41
f 42/295/41 43/297/41 127/298/41 126/296/41
f 43/297/41 44/299/41 128/300/41 127/298/41
f 44/299/41 45/301/41 129/302/41 128/300/41
f 45/301/41 46/303/41 130/304/41 129/302/41
f 46/303/41 47/305/41 131/306/41 130/304/41
f 47/305/41 48/307/41 132/308/41 131/306/41
f 48/307/41 49/309/41 133/310/41 132/308/41
f 49/309/41 50/311/41 134/312/41 133/310/41
f 50/311/41 51/313/41 135/314/41 134/312/41
f 52/315/42 53/316/42 137/317/42 136/318/42
f 54/319/42 52/315/42 136/318/42 138/320/42
f 55/321/42 54/319/42 138/320/42 139/322/42
f 56/323/42 55/321/42 139/322/42 140/324/42
f 57/325/42 56/323/42 140/324/42 141/326/42
f 58/327/42 57/325/42 141/326/42 142/328/42
f 59/329/42 58/327/42 142/328/42 143/330/42
f 60/331/42 59/329/42 143/330/42 144/332/42
f 61/333/42 60/331/42 144/332/42 145/334/42
f 62/335/42 61/333/42 145/334/42 146/336/42
f 63/337/42 62/335/42 146/336/42 147/338/42
f 64/339/42 63/337/42 147/338/42 148/340/42
f 65/341/42 64/339/42 148/340/42 149/342/42
f 66/343/42 65/341/42 149/342/42 150/344/42
f 67/345/42 66/343/42 150/344/42 151/346/42
f 68/347/42 67/345/42 151/346/42 152/348/42
f 75/349/41 17/245/41 101/246/41 153/350/41
f 51/313/41 71/351/41 154/352/41 135/314/41
f 53/316/42 70/353/42 155/354/42 137/317/42
f 74/355/42 18/247/42 103/250/42 156/356/42
f 69/357/42 68/347/42 152/348/42 157/358/42
f 34/279/42 73/359/42 158/360/42 118/280/42
f 72/361/41 36/281/41 120/284/41 159/362/41
f 1/214/41 76/363/41 160/364/41 86/215/41
f 73/359/42 83/365/42 161/366/42 158/360/42
f 71/351/41 84/367/41 162/368/41 154/352/41
f 79/369/42 74/355/42 156/356/42 163/370/42
f 76/363/41 80/371/41 164/372/41 160/364/41
f 78/373/41 72/361/41 159/362/41 165/374/41
f 70/353/42 77/375/42 166/376/42 155/354/42
f 80/371/41 82/377/41 167/378/41 164/372/41
f 82/377/41 78/373/41 165/374/41 167/378/41
f 77/375/42 81/379/42 168/380/42 166/376/42
f 81/379/42 79/369/42 163/370/42 168/380/42
f 83/365/42 69/357/42 157/358/42 161/366/42
f 84/367/41 75/349/41 153/350/41 162/368/41
