# Blender v2.83.5 OBJ File: 'Arrows.blend'
# www.blender.org
mtllib Arrow_15.mtl
o Arrow_15
v 0.419990 0.288441 -0.371132
v 0.419990 -0.288441 -0.371132
v 0.419990 0.288441 0.371132
v 0.419990 -0.288441 0.371132
v 2.043228 0.000000 -0.371132
v 2.291541 -0.000000 0.371132
v 0.574278 -0.134251 -0.371132
v 0.469349 -0.177695 0.371132
v 0.574278 0.134251 0.371132
v 0.469349 0.177695 -0.371132
v -1.920086 0.134251 -0.371132
v -1.920086 -0.134252 0.371132
v -1.920086 -0.134251 -0.371132
v -1.920086 0.134251 0.371132
v 0.469349 -0.177695 -0.371132
v 0.291541 -0.355389 -0.371132
v 0.469349 0.177694 0.371132
v 0.291541 0.355389 0.371132
v 2.291541 0.000000 -0.371132
v 2.043228 -0.000000 0.371132
v 0.291541 -0.355390 0.371132
v 0.291541 0.355389 -0.371132
v 0.574278 -0.134252 0.371132
v 0.574278 0.134251 -0.371132
v -1.963530 0.177695 -0.371132
v -1.963530 -0.177695 0.371132
v -1.963530 -0.177695 -0.371132
v -1.963530 0.177694 0.371132
vt 0.832989 0.704075
vt 0.829566 0.704075
vt 0.829566 0.689778
vt 0.832989 0.689778
vt 0.420222 0.982998
vt 0.427065 0.982998
vt 0.427065 0.997294
vt 0.420222 0.997294
vt 0.226834 0.915650
vt 0.226834 0.954172
vt 0.212543 0.954172
vt 0.212543 0.915650
vt 0.952830 0.914317
vt 0.952830 0.952838
vt 0.938538 0.952838
vt 0.938538 0.914317
vt 0.909098 0.890170
vt 0.909098 0.842127
vt 0.923389 0.842127
vt 0.923389 0.890170
vt 0.088153 0.389027
vt 0.085182 0.389027
vt 0.085182 0.374730
vt 0.088153 0.374730
vt 0.167231 0.882661
vt 0.181523 0.882661
vt 0.181523 0.929520
vt 0.167231 0.929520
vt 0.964204 0.362882
vt 0.949913 0.362882
vt 0.949913 0.331617
vt 0.964204 0.331617
vt 0.067277 0.830323
vt 0.070700 0.830323
vt 0.070700 0.844620
vt 0.067277 0.844620
vt 0.860673 0.226340
vt 0.865827 0.225934
vt 0.866727 0.226703
vt 0.859905 0.227240
vt 0.937608 0.532866
vt 0.951900 0.532866
vt 0.951900 0.564131
vt 0.937608 0.564131
vt 0.039878 0.883910
vt 0.054169 0.883910
vt 0.054169 0.930770
vt 0.039878 0.930770
vt 0.088152 0.403752
vt 0.085182 0.403752
vt 0.085182 0.389455
vt 0.088152 0.389455
vt 0.923389 0.792642
vt 0.923389 0.840685
vt 0.909098 0.840685
vt 0.909098 0.792642
vt 0.862054 0.178039
vt 0.865247 0.180768
vt 0.866727 0.183133
vt 0.863047 0.179988
vt 0.854039 0.453885
vt 0.851313 0.450689
vt 0.850222 0.448121
vt 0.853364 0.451804
vt 0.857256 0.150036
vt 0.856880 0.145269
vt 0.854394 0.482293
vt 0.854019 0.487061
vt 0.862386 0.451562
vt 0.863865 0.449196
vt 0.854174 0.181641
vt 0.853084 0.184209
vt 0.859193 0.454291
vt 0.860186 0.452342
vt 0.856901 0.178445
vt 0.856225 0.180526
vt 0.862966 0.406396
vt 0.857812 0.405989
vt 0.857044 0.405090
vt 0.863865 0.405627
vt 0.125077 0.930809
vt 0.125077 0.945105
vt 0.119907 0.945105
vt 0.119907 0.930809
vn -0.7069 0.7073 0.0000
vn -1.0000 -0.0000 0.0000
vn 0.1750 0.9846 0.0000
vn 0.1750 -0.9846 -0.0000
vn 0.0000 1.0000 0.0000
vn 0.7069 -0.7073 -0.0000
vn 0.0000 -1.0000 -0.0000
vn -0.1750 0.9846 0.0000
vn -0.7069 -0.7073 -0.0000
vn 0.0000 0.0000 -1.0000
vn -0.1750 -0.9846 -0.0000
vn 0.7069 0.7073 0.0000
vn 0.0000 -0.0000 1.0000
vn 1.0000 0.0000 0.0000
usemtl Material.001
s off
f 15/1/1 16/2/1 21/3/1 8/4/1
f 25/5/2 27/6/2 26/7/2 28/8/2
f 18/9/3 6/10/3 19/11/3 22/12/3
f 6/13/4 21/14/4 16/15/4 19/16/4
f 12/17/5 23/18/5 7/19/5 13/20/5
f 23/21/6 4/22/6 2/23/6 7/24/6
f 15/25/7 8/26/7 26/27/7 27/28/7
f 2/29/8 4/30/8 20/31/8 5/32/8
f 22/33/9 10/34/9 17/35/9 18/36/9
f 11/37/10 13/38/10 27/39/10 25/40/10
f 5/41/11 20/42/11 3/43/11 1/44/11
f 17/45/5 10/46/5 25/47/5 28/48/5
f 3/49/12 9/50/12 24/51/12 1/52/12
f 9/53/7 14/54/7 11/55/7 24/56/7
f 7/57/10 2/58/10 16/59/10 15/60/10
f 9/61/13 3/62/13 18/63/13 17/64/13
f 2/58/10 5/65/10 19/66/10 16/59/10
f 3/62/13 20/67/13 6/68/13 18/63/13
f 20/67/13 4/69/13 21/70/13 6/68/13
f 5/65/10 1/71/10 22/72/10 19/66/10
f 4/69/13 23/73/13 8/74/13 21/70/13
f 1/71/10 24/75/10 10/76/10 22/72/10
f 12/77/13 14/78/13 28/79/13 26/80/13
f 24/75/10 11/37/10 25/40/10 10/76/10
f 23/73/13 12/77/13 26/80/13 8/74/13
f 13/38/10 7/57/10 15/60/10 27/39/10
f 14/78/13 9/61/13 17/64/13 28/79/13
f 12/81/14 13/82/14 11/83/14 14/84/14
