# Blender v2.83.5 OBJ File: 'Arrows.blend'
# www.blender.org
mtllib Arrow_33.mtl
o Arrow_33
v -0.633824 0.704544 -0.371132
v -0.633824 -0.704544 -0.371132
v -0.633824 0.704544 0.371132
v -0.633824 -0.704544 0.371132
v 0.775263 0.000000 -0.371132
v 0.309420 0.000000 -0.371132
v 0.309420 -0.000000 0.371132
v 0.887066 -0.000000 0.371132
v 0.225868 0.000000 -0.371132
v -1.112934 -1.000000 -0.371132
v 0.225868 -0.000000 0.371132
v -1.112934 1.000000 0.371132
v 0.887066 0.000000 -0.371132
v -1.112934 1.000000 -0.371132
v -1.112934 -1.000000 0.371132
v 0.775263 -0.000000 0.371132
vt 0.981727 0.404074
vt 0.993561 0.404074
vt 0.993561 0.418371
vt 0.981727 0.418371
vt 0.982271 0.861323
vt 0.982271 0.883910
vt 0.967979 0.883910
vt 0.967979 0.861323
vt 0.439533 0.497397
vt 0.439533 0.511693
vt 0.431195 0.511693
vt 0.431195 0.497397
vt 0.700715 0.947299
vt 0.700715 0.904401
vt 0.715007 0.904401
vt 0.715007 0.947299
vt 0.982271 0.792261
vt 0.982271 0.814940
vt 0.967979 0.814940
vt 0.967979 0.792261
vt 0.075025 0.751131
vt 0.060733 0.751131
vt 0.060733 0.735153
vt 0.075025 0.735153
vt 0.523910 0.965177
vt 0.523910 0.934953
vt 0.538202 0.934953
vt 0.538202 0.965177
vt 0.039878 0.964012
vt 0.039878 0.931953
vt 0.054169 0.931953
vt 0.054169 0.964012
vt 0.376677 0.765655
vt 0.394839 0.752085
vt 0.404063 0.746395
vt 0.378286 0.765655
vt 0.804878 0.478682
vt 0.784623 0.468501
vt 0.775409 0.462792
vt 0.804158 0.477243
vt 0.367708 0.765655
vt 0.365555 0.765655
vt 0.394839 0.779225
vt 0.404063 0.784916
vt 0.808889 0.456364
vt 0.809852 0.445565
vt 0.808889 0.486707
vt 0.809852 0.488634
vn -0.5984 0.8012 0.0000
vn 0.5984 0.8012 0.0000
vn 0.5984 -0.8012 -0.0000
vn 0.4472 0.8944 0.0000
vn 0.4472 -0.8944 -0.0000
vn -0.4472 0.8944 0.0000
vn -0.4472 -0.8944 -0.0000
vn -0.5984 -0.8012 -0.0000
vn 0.0000 0.0000 -1.0000
vn 0.0000 -0.0000 1.0000
usemtl Material.001
s off
f 9/1/1 10/2/1 15/3/1 11/4/1
f 3/5/2 7/6/2 6/7/2 1/8/2
f 6/9/3 7/10/3 4/11/3 2/12/3
f 12/13/4 8/14/4 13/15/4 14/16/4
f 8/17/5 15/18/5 10/19/5 13/20/5
f 16/21/6 5/22/6 2/23/6 4/24/6
f 1/25/7 5/26/7 16/27/7 3/28/7
f 14/29/8 9/30/8 11/31/8 12/32/8
f 6/33/9 2/34/9 10/35/9 9/36/9
f 7/37/10 3/38/10 12/39/10 11/40/10
f 2/34/9 5/41/9 13/42/9 10/35/9
f 1/43/9 6/33/9 9/36/9 14/44/9
f 4/45/10 7/37/10 11/40/10 15/46/10
f 3/38/10 16/47/10 8/48/10 12/39/10
f 16/47/10 4/45/10 15/46/10 8/48/10
f 5/41/9 1/43/9 14/44/9 13/42/9
