# Blender v2.83.5 OBJ File: 'Arrows.blend'
# www.blender.org
mtllib Arrow_12.mtl
o Arrow_12
v -0.067578 1.690175 0.105074
v -0.387976 1.658619 0.105074
v -0.696061 1.565162 0.105074
v -0.979994 1.413397 0.105074
v -1.228863 1.209155 0.105074
v -1.433105 0.960285 0.105074
v -1.584871 0.676352 0.105074
v -1.678327 0.368267 0.105074
v -1.709884 0.047869 0.105074
v -1.678327 -0.272529 0.105073
v -1.584871 -0.580614 0.105073
v -1.433105 -0.864547 0.105073
v -1.228863 -1.113416 0.105073
v -0.979994 -1.317658 0.105073
v -0.696061 -1.469424 0.105073
v -0.387975 -1.562880 0.105073
v -0.067577 -1.594437 0.105073
v 0.252821 -1.562880 0.105073
v 0.560906 -1.469423 0.105073
v 0.844839 -1.317658 0.105073
v 1.093709 -1.113416 0.105073
v 1.297950 -0.864546 0.105073
v 1.449716 -0.580613 0.105073
v 1.543172 -0.272527 0.105073
v 1.574728 0.047871 0.105074
v 1.543171 0.368269 0.105074
v 1.449714 0.676354 0.105074
v 1.297949 0.960287 0.105074
v 1.093706 1.209156 0.105074
v 0.844837 1.413398 0.105074
v 0.560903 1.565163 0.105074
v 0.252818 1.658619 0.105074
v -0.067578 1.690175 -0.105073
v -0.387976 1.658619 -0.105073
v -0.696061 1.565162 -0.105073
v -0.979994 1.413397 -0.105073
v -1.228863 1.209155 -0.105073
v -1.433105 0.960285 -0.105073
v -1.584871 0.676353 -0.105073
v -1.678327 0.368267 -0.105074
v -1.709884 0.047869 -0.105074
v -1.678327 -0.272529 -0.105074
v -1.584871 -0.580614 -0.105074
v -1.433105 -0.864547 -0.105074
v -1.228863 -1.113416 -0.105074
v -0.979994 -1.317658 -0.105074
v -0.696061 -1.469424 -0.105074
v -0.387975 -1.562880 -0.105074
v -0.067577 -1.594437 -0.105074
v 0.252821 -1.562880 -0.105074
v 0.560906 -1.469423 -0.105074
v 0.844839 -1.317658 -0.105074
v 1.093709 -1.113416 -0.105074
v 1.297950 -0.864546 -0.105074
v 1.449716 -0.580613 -0.105074
v 1.543172 -0.272527 -0.105074
v 1.574728 0.047871 -0.105074
v 1.543171 0.368269 -0.105074
v 1.449714 0.676354 -0.105073
v 1.297949 0.960287 -0.105073
v 1.093706 1.209156 -0.105073
v 0.844837 1.413398 -0.105073
v 0.560903 1.565163 -0.105073
v 0.252818 1.658619 -0.105073
v -0.436962 1.904891 0.105074
v -0.067578 1.941272 0.105074
v -0.792152 1.797146 0.105074
v -1.119496 1.622177 0.105074
v -1.406416 1.386708 0.105074
v -1.641885 1.099788 0.105074
v -1.816854 0.772443 0.105074
v -1.924600 0.417254 0.105074
v -1.960981 0.047869 0.105074
v -1.924600 -0.321515 0.105073
v -1.816854 -0.676705 0.105073
v -1.641885 -1.004049 0.105073
v -1.406416 -1.290969 0.105073
v -1.119496 -1.526438 0.105073
v -0.792152 -1.701407 0.105073
v -0.436962 -1.809153 0.105073
v -0.067577 -1.845534 0.105073
v 0.301808 -1.809153 0.105073
v 0.656997 -1.701407 0.105073
v 0.984342 -1.526438 0.105073
v 1.271261 -1.290968 0.105073
v 1.506730 -1.004048 0.105073
v 1.681700 -0.676703 0.105073
v 1.789445 -0.321514 0.105073
v 1.825826 0.047871 0.105074
v 1.789444 0.417256 0.105074
v 1.681698 0.772445 0.105074
v 1.506728 1.099790 0.105074
v 1.271259 1.386709 0.105074
v 0.984339 1.622178 0.105074
v 0.656994 1.797147 0.105074
v 0.301804 1.904892 0.105074
v -0.436962 1.904891 -0.105073
v -0.067578 1.941272 -0.105073
v -0.792152 1.797146 -0.105073
v -1.119496 1.622177 -0.105073
v -1.406416 1.386708 -0.105073
v -1.641885 1.099788 -0.105073
v -1.816854 0.772443 -0.105073
v -1.924600 0.417254 -0.105074
v -1.960981 0.047869 -0.105074
v -1.924600 -0.321515 -0.105074
v -1.816854 -0.676705 -0.105074
v -1.641885 -1.004049 -0.105074
v -1.406416 -1.290969 -0.105074
v -1.119496 -1.526438 -0.105074
v -0.792152 -1.701407 -0.105074
v -0.436962 -1.809153 -0.105074
v -0.067577 -1.845534 -0.105074
v 0.301808 -1.809153 -0.105074
v 0.656997 -1.701407 -0.105074
v 0.984342 -1.526438 -0.105074
v 1.271261 -1.290968 -0.105074
v 1.506730 -1.004048 -0.105074
v 1.681700 -0.676703 -0.105074
v 1.789445 -0.321514 -0.105074
v 1.825826 0.047871 -0.105074
v 1.789444 0.417256 -0.105074
v 1.681698 0.772445 -0.105073
v 1.506728 1.099790 -0.105073
v 1.271259 1.386709 -0.105073
v 0.984339 1.622178 -0.105073
v 0.656994 1.797147 -0.105073
v 0.301804 1.904892 -0.105073
v 0.608101 -0.343313 -0.106491
v 0.608101 -0.343313 0.103816
v 0.609009 0.396863 0.103817
v 0.609009 0.396863 -0.106491
v 0.306749 -0.644665 -0.106491
v 0.306749 -0.644665 0.103816
v -0.062885 -0.275031 0.103816
v -0.062885 -0.275031 -0.106491
v 0.307657 0.698215 -0.106490
v 0.307657 0.698215 0.103817
v -0.062885 0.327673 0.103817
v -0.062885 0.327673 -0.106491
v 0.793799 0.212073 -0.106491
v 0.793799 -0.157615 -0.106491
v 0.850466 0.127266 -0.106491
v 0.870364 0.027229 -0.106491
v 0.850466 -0.072808 -0.106491
v 0.793799 -0.157615 0.103816
v 0.793799 0.212072 0.103817
v 0.850466 -0.072808 0.103816
v 0.870364 0.027229 0.103816
v 0.850466 0.127265 0.103817
v -0.531134 -1.112861 0.103816
v -0.161446 -1.112861 0.103816
v -0.446327 -1.169527 0.103816
v -0.346290 -1.189426 0.103816
v -0.246253 -1.169527 0.103816
v -0.161446 -1.112861 -0.106491
v -0.531134 -1.112861 -0.106491
v -0.246253 -1.169527 -0.106491
v -0.346290 -1.189425 -0.106491
v -0.446327 -1.169527 -0.106491
v -0.531080 -0.743227 0.103816
v -0.587747 -0.828034 0.103816
v -0.607645 -0.928071 0.103816
v -0.587747 -1.028107 0.103816
v -0.531080 -0.743226 -0.106491
v -0.587747 -1.028107 -0.106491
v -0.607645 -0.928070 -0.106491
v -0.587747 -0.828034 -0.106491
v -0.531080 1.165556 0.103817
v -0.531080 0.795868 0.103817
v -0.587747 1.080748 0.103817
v -0.607645 0.980712 0.103817
v -0.587747 0.880675 0.103817
v -0.531080 0.795869 -0.106490
v -0.531080 1.165556 -0.106490
v -0.587747 0.880676 -0.106490
v -0.607645 0.980712 -0.106490
v -0.587747 1.080749 -0.106490
v -0.160539 1.166410 0.103817
v -0.530226 1.166410 0.103817
v -0.245346 1.223076 0.103817
v -0.345382 1.242975 0.103817
v -0.445419 1.223076 0.103817
v -0.530226 1.166410 -0.106490
v -0.160539 1.166410 -0.106490
v -0.445419 1.223076 -0.106490
v -0.345382 1.242975 -0.106490
v -0.245346 1.223077 -0.106490
v 0.177377 -0.034770 -0.106491
v 0.177377 0.087411 -0.106491
v 0.299558 0.087411 -0.106491
v 0.299558 -0.034770 -0.106491
v 0.191107 -0.016877 -0.106491
v 0.199737 0.003960 -0.106491
v 0.202681 0.026321 -0.106491
v 0.199737 0.048682 -0.106491
v 0.191107 0.069518 -0.106491
v 0.177377 0.087411 0.103816
v 0.177377 -0.034770 0.103816
v 0.299558 -0.034770 0.103816
v 0.299558 0.087411 0.103816
v 0.191107 0.069518 0.103816
v 0.199737 0.048681 0.103816
v 0.202681 0.026321 0.103816
v 0.199737 0.003960 0.103816
v 0.191107 -0.016877 0.103816
vt 0.680521 0.733583
vt 0.680521 0.733076
vt 0.684567 0.733076
vt 0.684567 0.733583
vt 0.320794 0.944128
vt 0.320794 0.948574
vt 0.316748 0.948574
vt 0.316748 0.944128
vt 0.680521 0.714536
vt 0.680521 0.708632
vt 0.684567 0.708632
vt 0.684567 0.714536
vt 0.246181 0.850774
vt 0.246181 0.846286
vt 0.250227 0.846286
vt 0.250227 0.850774
vt 0.680521 0.702471
vt 0.684567 0.702471
vt 0.246181 0.841050
vt 0.250227 0.841050
vt 0.680521 0.696291
vt 0.684567 0.696291
vt 0.246181 0.835266
vt 0.250227 0.835266
vt 0.680521 0.690329
vt 0.684567 0.690329
vt 0.246181 0.829158
vt 0.250227 0.829158
vt 0.680521 0.684813
vt 0.684567 0.684813
vt 0.246181 0.822958
vt 0.250227 0.822958
vt 0.680521 0.679956
vt 0.684567 0.679956
vt 0.246181 0.816907
vt 0.250227 0.816907
vt 0.320794 0.903997
vt 0.320794 0.909104
vt 0.316748 0.909104
vt 0.316748 0.903997
vt 0.246181 0.811236
vt 0.250227 0.811236
vt 0.320794 0.914799
vt 0.316748 0.914799
vt 0.246181 0.806163
vt 0.250227 0.806163
vt 0.320794 0.920864
vt 0.316748 0.920864
vt 0.680521 0.731373
vt 0.684567 0.731373
vt 0.246181 0.801884
vt 0.250227 0.801884
vt 0.320794 0.927064
vt 0.316748 0.927064
vt 0.680521 0.728540
vt 0.684567 0.728540
vt 0.246181 0.798562
vt 0.250227 0.798562
vt 0.320794 0.933162
vt 0.316748 0.933162
vt 0.680521 0.724684
vt 0.684567 0.724684
vt 0.246181 0.796326
vt 0.250227 0.796326
vt 0.320794 0.938924
vt 0.316748 0.938924
vt 0.680521 0.719956
vt 0.684567 0.719956
vt 0.246181 0.795261
vt 0.250227 0.795261
vt 0.178497 0.856224
vt 0.182543 0.856224
vt 0.182543 0.863254
vt 0.178497 0.863254
vt 0.033853 0.798033
vt 0.037899 0.798033
vt 0.037899 0.802478
vt 0.033853 0.802478
vt 0.439654 0.633329
vt 0.435608 0.633329
vt 0.435608 0.626661
vt 0.439654 0.626661
vt 0.037899 0.807929
vt 0.033853 0.807929
vt 0.435608 0.619618
vt 0.439654 0.619618
vt 0.037899 0.814178
vt 0.033853 0.814178
vt 0.435608 0.612471
vt 0.439654 0.612471
vt 0.037899 0.820985
vt 0.033853 0.820985
vt 0.435608 0.605494
vt 0.439654 0.605494
vt 0.037899 0.828087
vt 0.033853 0.828087
vt 0.435608 0.598956
vt 0.439654 0.598956
vt 0.037899 0.835212
vt 0.033853 0.835212
vt 0.435608 0.593108
vt 0.439654 0.593108
vt 0.037899 0.842087
vt 0.033853 0.842087
vt 0.435608 0.588174
vt 0.439654 0.588174
vt 0.037899 0.848446
vt 0.033853 0.848446
vt 0.435608 0.584344
vt 0.439654 0.584344
vt 0.037899 0.854045
vt 0.033853 0.854045
vt 0.435608 0.581766
vt 0.439654 0.581766
vt 0.182543 0.869897
vt 0.178497 0.869897
vt 0.178497 0.829630
vt 0.182543 0.829630
vt 0.182543 0.835518
vt 0.178497 0.835518
vt 0.435608 0.580538
vt 0.439654 0.580538
vt 0.182543 0.875897
vt 0.178497 0.875897
vt 0.182543 0.842084
vt 0.178497 0.842084
vt 0.033853 0.792219
vt 0.037899 0.792219
vt 0.037899 0.792803
vt 0.033853 0.792803
vt 0.182543 0.881022
vt 0.178497 0.881022
vt 0.182543 0.849075
vt 0.178497 0.849075
vt 0.037899 0.794767
vt 0.033853 0.794767
vt 0.439654 0.644539
vt 0.435608 0.644539
vt 0.435608 0.639365
vt 0.439654 0.639365
vt 0.022463 0.367098
vt 0.020183 0.362833
vt 0.026786 0.360097
vt 0.028189 0.364725
vt 0.441231 0.194088
vt 0.439827 0.198716
vt 0.433225 0.195980
vt 0.435504 0.191715
vt 0.418941 0.166918
vt 0.414129 0.167392
vt 0.414129 0.160243
vt 0.418941 0.160717
vt 0.017308 0.370543
vt 0.014241 0.366805
vt 0.427282 0.192008
vt 0.430349 0.188270
vt 0.415524 0.153231
vt 0.420150 0.154635
vt 0.012925 0.374928
vt 0.009188 0.371860
vt 0.422229 0.186953
vt 0.425966 0.183885
vt 0.418259 0.146627
vt 0.422522 0.148906
vt 0.009481 0.380084
vt 0.005218 0.377804
vt 0.012925 0.415062
vt 0.009188 0.418130
vt 0.005217 0.412186
vt 0.009481 0.409906
vt 0.422229 0.140682
vt 0.425966 0.143750
vt 0.007109 0.385813
vt 0.002483 0.384409
vt 0.017308 0.419447
vt 0.014241 0.423186
vt 0.427282 0.135627
vt 0.430349 0.139366
vt 0.005900 0.391895
vt 0.001088 0.391421
vt 0.022463 0.422892
vt 0.020183 0.427157
vt 0.433225 0.131655
vt 0.435504 0.135921
vt 0.005900 0.398096
vt 0.001088 0.398570
vt 0.028189 0.425265
vt 0.026786 0.429893
vt 0.439827 0.128919
vt 0.441231 0.133548
vt 0.007109 0.404177
vt 0.002483 0.405581
vt 0.034269 0.426475
vt 0.033795 0.431288
vt 0.446836 0.127525
vt 0.447310 0.132338
vt 0.040468 0.426475
vt 0.040942 0.431288
vt 0.453983 0.127525
vt 0.453509 0.132338
vt 0.046548 0.425265
vt 0.047951 0.429893
vt 0.460992 0.128919
vt 0.459589 0.133548
vt 0.052275 0.422892
vt 0.054554 0.427157
vt 0.467595 0.131655
vt 0.465316 0.135921
vt 0.057429 0.419447
vt 0.060496 0.423186
vt 0.473537 0.135627
vt 0.470470 0.139366
vt 0.061812 0.415062
vt 0.065549 0.418131
vt 0.478590 0.140682
vt 0.474853 0.143750
vt 0.065256 0.409906
vt 0.069520 0.412186
vt 0.482561 0.146627
vt 0.478297 0.148906
vt 0.067628 0.404177
vt 0.072255 0.405581
vt 0.485296 0.153231
vt 0.480669 0.154635
vt 0.068837 0.398096
vt 0.073649 0.398570
vt 0.486690 0.160243
vt 0.481878 0.160717
vt 0.068837 0.391895
vt 0.073649 0.391421
vt 0.486690 0.167392
vt 0.481878 0.166918
vt 0.067628 0.385813
vt 0.072255 0.384409
vt 0.485296 0.174404
vt 0.480669 0.173000
vt 0.065256 0.380084
vt 0.069520 0.377804
vt 0.482561 0.181009
vt 0.478297 0.178729
vt 0.061812 0.374928
vt 0.065549 0.371860
vt 0.478590 0.186953
vt 0.474853 0.183885
vt 0.057429 0.370543
vt 0.060496 0.366805
vt 0.473537 0.192008
vt 0.470470 0.188270
vt 0.052275 0.367098
vt 0.054554 0.362833
vt 0.467595 0.195980
vt 0.465316 0.191715
vt 0.046548 0.364725
vt 0.047951 0.360097
vt 0.460992 0.198716
vt 0.459589 0.194088
vt 0.040468 0.363515
vt 0.040942 0.358702
vt 0.453983 0.200111
vt 0.453509 0.195298
vt 0.418259 0.181009
vt 0.422522 0.178729
vt 0.034269 0.363515
vt 0.033795 0.358702
vt 0.446836 0.200111
vt 0.447310 0.195297
vt 0.415524 0.174404
vt 0.420150 0.173000
vt 0.729678 0.223910
vt 0.729678 0.230660
vt 0.725629 0.230660
vt 0.725629 0.223910
vt 0.114741 0.807708
vt 0.116405 0.806044
vt 0.124806 0.806044
vt 0.124806 0.811102
vt 0.124423 0.813029
vt 0.123332 0.814662
vt 0.121699 0.815754
vt 0.119773 0.816137
vt 0.114741 0.816137
vt 0.106536 0.816137
vt 0.093787 0.816137
vt 0.091861 0.815754
vt 0.090228 0.814662
vt 0.089137 0.813029
vt 0.088754 0.811102
vt 0.088754 0.811079
vt 0.089137 0.809152
vt 0.090228 0.807518
vt 0.091861 0.806427
vt 0.093787 0.806044
vt 0.106536 0.806044
vt 0.789129 0.799149
vt 0.789129 0.790720
vt 0.790793 0.789056
vt 0.797335 0.789056
vt 0.797335 0.799149
vt 0.681059 0.097327
vt 0.681059 0.092922
vt 0.685108 0.092922
vt 0.685108 0.097327
vt 0.113078 0.806044
vt 0.316748 0.872973
vt 0.316748 0.865119
vt 0.320797 0.865119
vt 0.320797 0.872973
vt 0.685108 0.104511
vt 0.685108 0.115673
vt 0.681059 0.115673
vt 0.681059 0.104511
vt 0.810084 0.789056
vt 0.812010 0.789439
vt 0.813643 0.790531
vt 0.814734 0.792164
vt 0.815117 0.794091
vt 0.815117 0.794114
vt 0.814734 0.796041
vt 0.813643 0.797674
vt 0.812010 0.798766
vt 0.810084 0.799149
vt 0.789129 0.780847
vt 0.779065 0.780847
vt 0.779065 0.768094
vt 0.779448 0.766167
vt 0.780539 0.764534
vt 0.782172 0.763442
vt 0.784098 0.763059
vt 0.786022 0.763442
vt 0.787655 0.764534
vt 0.788746 0.766167
vt 0.789129 0.768094
vt 0.320797 0.884495
vt 0.320797 0.894543
vt 0.316748 0.894543
vt 0.316748 0.884495
vt 0.114741 0.797835
vt 0.114741 0.785082
vt 0.115124 0.783155
vt 0.116215 0.781522
vt 0.117848 0.780430
vt 0.119773 0.780047
vt 0.121699 0.780430
vt 0.123332 0.781522
vt 0.124423 0.783155
vt 0.124806 0.785082
vt 0.124806 0.797835
vt 0.114741 0.804380
vt 0.316748 0.879339
vt 0.320797 0.879339
vt 0.789129 0.787392
vt 0.787466 0.789056
vt 0.779065 0.789056
vt 0.320797 0.877003
vt 0.316748 0.877003
vt 0.320797 0.858051
vt 0.316748 0.858051
vt 0.316748 0.858033
vt 0.320797 0.858033
vt 0.681059 0.091421
vt 0.685108 0.091421
vt 0.729678 0.240413
vt 0.725629 0.240413
vt 0.725629 0.238586
vt 0.729678 0.238586
vt 0.725629 0.236622
vt 0.729678 0.236622
vt 0.725629 0.234819
vt 0.729678 0.234819
vt 0.316748 0.901610
vt 0.320797 0.901610
vt 0.320797 0.902494
vt 0.316748 0.902494
vt 0.320797 0.902640
vt 0.316748 0.902640
vt 0.725629 0.211335
vt 0.729678 0.211335
vt 0.729678 0.212057
vt 0.725629 0.212057
vt 0.729678 0.213423
vt 0.725629 0.213423
vt 0.316748 0.900122
vt 0.320797 0.900122
vt 0.316748 0.898256
vt 0.320797 0.898256
vt 0.316748 0.896297
vt 0.320797 0.896297
vt 0.320797 0.859805
vt 0.316748 0.859805
vt 0.320797 0.861764
vt 0.316748 0.861764
vt 0.320797 0.863630
vt 0.316748 0.863630
vt 0.685108 0.117545
vt 0.681059 0.117545
vt 0.685108 0.119502
vt 0.681059 0.119502
vt 0.685108 0.121248
vt 0.681059 0.121248
vt 0.316748 0.856751
vt 0.320797 0.856751
vt 0.789186 0.787822
vt 0.789352 0.788224
vt 0.789617 0.788568
vt 0.789961 0.788833
vt 0.790362 0.788999
vt 0.113508 0.805987
vt 0.113910 0.805821
vt 0.114254 0.805556
vt 0.114518 0.805212
vt 0.114685 0.804810
vt 0.320797 0.877313
vt 0.316748 0.877313
vt 0.320797 0.877692
vt 0.316748 0.877692
vt 0.320797 0.878112
vt 0.316748 0.878112
vt 0.320797 0.878546
vt 0.316748 0.878546
vt 0.320797 0.878965
vt 0.316748 0.878965
vt 0.784098 0.799149
vt 0.782172 0.798766
vt 0.780539 0.797674
vt 0.779448 0.796041
vt 0.779065 0.794114
vn -0.1951 -0.9808 0.0000
vn 0.0000 -1.0000 0.0000
vn -0.3827 0.9239 0.0000
vn -0.5556 0.8315 0.0000
vn 0.8315 -0.5556 -0.0000
vn 0.9239 -0.3827 -0.0000
vn -0.7071 0.7071 0.0000
vn 0.9808 -0.1951 -0.0000
vn -0.8315 0.5556 0.0000
vn 1.0000 -0.0000 -0.0000
vn -0.9239 0.3827 0.0000
vn 0.9808 0.1951 0.0000
vn -0.9808 0.1951 0.0000
vn 0.9239 0.3827 0.0000
vn -1.0000 -0.0000 0.0000
vn 0.8315 0.5556 0.0000
vn -0.9808 -0.1951 -0.0000
vn 0.7071 0.7071 0.0000
vn -0.9239 -0.3827 -0.0000
vn 0.5556 0.8315 0.0000
vn -0.8315 -0.5556 -0.0000
vn 0.3827 0.9239 0.0000
vn 0.1951 -0.9808 0.0000
vn -0.7071 -0.7071 -0.0000
vn 0.1951 0.9808 0.0000
vn 0.3827 -0.9239 0.0000
vn -0.5556 -0.8315 0.0000
vn -0.0000 1.0000 0.0000
vn 0.5556 -0.8315 0.0000
vn -0.3827 -0.9239 0.0000
vn -0.1951 0.9808 0.0000
vn 0.7071 -0.7071 0.0000
vn 0.0000 0.0000 -1.0000
vn 0.0000 -0.0000 1.0000
vn 0.7730 0.6344 0.0000
vn -0.7730 -0.6344 -0.0000
vn 0.6344 0.7730 0.0000
vn -0.7730 0.6344 0.0000
vn -0.7518 0.6593 0.0000
vn -0.7518 -0.6593 -0.0000
vn -0.6344 0.7730 0.0000
vn 0.7730 -0.6344 -0.0000
vn -0.7072 -0.7071 -0.0000
vn 0.6344 -0.7730 -0.0000
vn -0.9239 -0.3826 -0.0000
vn -0.8660 -0.5000 -0.0000
vn -0.9659 -0.2588 -0.0000
vn -0.9659 0.2588 0.0000
vn -0.8660 0.5000 0.0000
usemtl Material.001
s 1
f 32/1/1 1/2/2 33/3/2 64/4/1
f 19/5/3 20/6/4 52/7/4 51/8/3
f 6/9/5 7/10/6 39/11/6 38/12/5
f 20/13/4 21/14/7 53/15/7 52/16/4
f 7/10/6 8/17/8 40/18/8 39/11/6
f 21/14/7 22/19/9 54/20/9 53/15/7
f 8/17/8 9/21/10 41/22/10 40/18/8
f 22/19/9 23/23/11 55/24/11 54/20/9
f 9/21/10 10/25/12 42/26/12 41/22/10
f 23/23/11 24/27/13 56/28/13 55/24/11
f 10/25/12 11/29/14 43/30/14 42/26/12
f 24/27/13 25/31/15 57/32/15 56/28/13
f 11/29/14 12/33/16 44/34/16 43/30/14
f 25/31/15 26/35/17 58/36/17 57/32/15
f 12/37/16 13/38/18 45/39/18 44/40/16
f 26/35/17 27/41/19 59/42/19 58/36/17
f 13/38/18 14/43/20 46/44/20 45/39/18
f 27/41/19 28/45/21 60/46/21 59/42/19
f 14/43/20 15/47/22 47/48/22 46/44/20
f 1/2/2 2/49/23 34/50/23 33/3/2
f 28/45/21 29/51/24 61/52/24 60/46/21
f 15/47/22 16/53/25 48/54/25 47/48/22
f 2/49/23 3/55/26 35/56/26 34/50/23
f 29/51/24 30/57/27 62/58/27 61/52/24
f 16/53/25 17/59/28 49/60/28 48/54/25
f 3/55/26 4/61/29 36/62/29 35/56/26
f 30/57/27 31/63/30 63/64/30 62/58/27
f 17/59/28 18/65/31 50/66/31 49/60/28
f 4/61/29 5/67/32 37/68/32 36/62/29
f 31/63/30 32/69/1 64/70/1 63/64/30
f 18/65/31 19/5/3 51/8/3 50/66/31
f 5/67/32 6/9/5 38/12/5 37/68/32
f 96/71/25 128/72/25 98/73/28 66/74/28
f 83/75/26 115/76/26 116/77/29 84/78/29
f 70/79/9 102/80/9 103/81/11 71/82/11
f 84/78/29 116/77/29 117/83/32 85/84/32
f 71/82/11 103/81/11 104/85/13 72/86/13
f 85/84/32 117/83/32 118/87/5 86/88/5
f 72/86/13 104/85/13 105/89/15 73/90/15
f 86/88/5 118/87/5 119/91/6 87/92/6
f 73/90/15 105/89/15 106/93/17 74/94/17
f 87/92/6 119/91/6 120/95/8 88/96/8
f 74/94/17 106/93/17 107/97/19 75/98/19
f 88/96/8 120/95/8 121/99/10 89/100/10
f 75/98/19 107/97/19 108/101/21 76/102/21
f 89/100/10 121/99/10 122/103/12 90/104/12
f 76/102/21 108/101/21 109/105/24 77/106/24
f 90/104/12 122/103/12 123/107/14 91/108/14
f 77/106/24 109/105/24 110/109/27 78/110/27
f 91/108/14 123/107/14 124/111/16 92/112/16
f 78/110/27 110/109/27 111/113/30 79/114/30
f 66/74/28 98/73/28 97/115/31 65/116/31
f 92/117/16 124/118/16 125/119/18 93/120/18
f 79/114/30 111/113/30 112/121/1 80/122/1
f 65/116/31 97/115/31 99/123/3 67/124/3
f 93/120/18 125/119/18 126/125/20 94/126/20
f 80/127/1 112/128/1 113/129/2 81/130/2
f 67/124/3 99/123/3 100/131/4 68/132/4
f 94/126/20 126/125/20 127/133/22 95/134/22
f 81/130/2 113/129/2 114/135/23 82/136/23
f 68/137/4 100/138/4 101/139/7 69/140/7
f 95/134/22 127/133/22 128/72/25 96/71/25
f 82/136/23 114/135/23 115/76/26 83/75/26
f 69/140/7 101/139/7 102/80/9 70/79/9
f 57/141/33 121/142/33 120/143/33 56/144/33
f 30/145/34 94/146/34 95/147/34 31/148/34
f 4/149/34 68/150/34 69/151/34 5/152/34
f 58/153/33 122/154/33 121/142/33 57/141/33
f 31/148/34 95/147/34 96/155/34 32/156/34
f 5/152/34 69/151/34 70/157/34 6/158/34
f 59/159/33 123/160/33 122/154/33 58/153/33
f 32/156/34 96/155/34 66/161/34 1/162/34
f 6/158/34 70/157/34 71/163/34 7/164/34
f 60/165/33 124/166/33 123/160/33 59/159/33
f 34/167/33 97/168/33 98/169/33 33/170/33
f 7/164/34 71/163/34 72/171/34 8/172/34
f 61/173/33 125/174/33 124/166/33 60/165/33
f 35/175/33 99/176/33 97/168/33 34/167/33
f 8/172/34 72/171/34 73/177/34 9/178/34
f 62/179/33 126/180/33 125/174/33 61/173/33
f 36/181/33 100/182/33 99/176/33 35/175/33
f 9/178/34 73/177/34 74/183/34 10/184/34
f 63/185/33 127/186/33 126/180/33 62/179/33
f 37/187/33 101/188/33 100/182/33 36/181/33
f 10/184/34 74/183/34 75/189/34 11/190/34
f 64/191/33 128/192/33 127/186/33 63/185/33
f 38/193/33 102/194/33 101/188/33 37/187/33
f 11/190/34 75/189/34 76/195/34 12/196/34
f 33/170/33 98/169/33 128/192/33 64/191/33
f 39/197/33 103/198/33 102/194/33 38/193/33
f 12/196/34 76/195/34 77/199/34 13/200/34
f 40/201/33 104/202/33 103/198/33 39/197/33
f 13/200/34 77/199/34 78/203/34 14/204/34
f 41/205/33 105/206/33 104/202/33 40/201/33
f 14/204/34 78/203/34 79/207/34 15/208/34
f 42/209/33 106/210/33 105/206/33 41/205/33
f 15/208/34 79/207/34 80/211/34 16/212/34
f 43/213/33 107/214/33 106/210/33 42/209/33
f 16/212/34 80/211/34 81/215/34 17/216/34
f 44/217/33 108/218/33 107/214/33 43/213/33
f 17/216/34 81/215/34 82/219/34 18/220/34
f 45/221/33 109/222/33 108/218/33 44/217/33
f 18/220/34 82/219/34 83/223/34 19/224/34
f 46/225/33 110/226/33 109/222/33 45/221/33
f 19/224/34 83/223/34 84/227/34 20/228/34
f 47/229/33 111/230/33 110/226/33 46/225/33
f 20/228/34 84/227/34 85/231/34 21/232/34
f 48/233/33 112/234/33 111/230/33 47/229/33
f 21/232/34 85/231/34 86/235/34 22/236/34
f 49/237/33 113/238/33 112/234/33 48/233/33
f 22/236/34 86/235/34 87/239/34 23/240/34
f 50/241/33 114/242/33 113/238/33 49/237/33
f 23/240/34 87/239/34 88/243/34 24/244/34
f 51/245/33 115/246/33 114/242/33 50/241/33
f 24/244/34 88/243/34 89/247/34 25/248/34
f 52/249/33 116/250/33 115/246/33 51/245/33
f 25/248/34 89/247/34 90/251/34 26/252/34
f 53/253/33 117/254/33 116/250/33 52/249/33
f 26/252/34 90/251/34 91/255/34 27/256/34
f 54/257/33 118/258/33 117/254/33 53/253/33
f 27/256/34 91/255/34 92/259/34 28/260/34
f 1/162/34 66/161/34 65/261/34 2/262/34
f 55/263/33 119/264/33 118/258/33 54/257/33
f 28/260/34 92/259/34 93/265/34 29/266/34
f 2/262/34 65/261/34 67/267/34 3/268/34
f 56/144/33 120/143/33 119/264/33 55/263/33
f 29/266/34 93/265/34 94/146/34 30/145/34
f 3/268/34 67/267/34 68/150/34 4/149/34
f 133/269/32 129/270/32 130/271/32 134/272/32
f 201/273/34 200/274/34 130/275/34 146/276/34 148/277/34 149/278/34 150/279/34 147/280/34 131/281/34
f 138/282/34 179/283/34 181/284/34 182/285/34 183/286/34 180/287/34 169/288/34 171/289/34 172/290/34 173/291/34 170/292/34 139/293/34
f 132/294/33 191/295/33 190/296/33 140/297/33 137/298/33
f 131/299/18 147/300/35 141/301/35 132/302/18
f 198/303/34 201/273/34 131/281/34 138/282/34 139/293/34
f 139/304/24 170/305/36 174/306/36 140/307/24
f 137/308/18 185/309/37 179/310/37 138/311/18
f 137/298/33 140/297/33 174/312/33 176/313/33 177/314/33 178/315/33 175/316/33 184/317/33 186/318/33 187/319/33 188/320/33 185/321/33
f 136/322/33 133/323/33 156/324/33 158/325/33 159/326/33 160/327/33 157/328/33 166/329/33 167/330/33 168/331/33 165/332/33
f 136/333/7 165/334/38 161/335/38 135/336/7
f 135/337/34 161/338/34 162/339/34 163/340/34 164/341/34 151/342/34 153/343/34 154/344/34 155/345/34 152/346/34 134/347/34
f 134/347/34 130/275/34 200/274/34 199/348/34 135/337/34
f 135/336/7 199/349/39 189/350/39 136/333/7
f 131/299/18 132/302/18 137/308/18 138/311/18
f 136/322/33 189/351/33 192/352/33 129/353/33 133/323/33
f 140/307/24 190/354/40 198/355/40 139/304/24
f 175/356/38 169/357/38 180/358/41 184/359/41
f 141/301/35 147/300/35 150/360/14 143/361/14
f 143/362/14 150/363/14 149/364/10 144/365/10
f 144/365/10 149/364/10 148/366/6 145/367/6
f 145/367/6 148/366/6 146/368/42 142/369/42
f 151/370/43 157/371/43 160/372/30 153/373/30
f 153/373/30 160/372/30 159/374/2 154/375/2
f 154/376/2 159/377/2 158/378/26 155/379/26
f 155/379/26 158/378/26 156/380/44 152/381/44
f 157/371/43 151/370/43 164/382/45 166/383/45
f 166/383/45 164/382/45 163/384/15 167/385/15
f 167/385/15 163/384/15 162/386/11 168/387/11
f 168/387/11 162/386/11 161/335/38 165/334/38
f 169/357/38 175/356/38 178/388/11 171/389/11
f 171/389/11 178/388/11 177/390/15 172/391/15
f 172/391/15 177/390/15 176/392/19 173/393/19
f 173/393/19 176/392/19 174/306/36 170/305/36
f 179/310/37 185/309/37 188/394/22 181/395/22
f 181/395/22 188/394/22 187/396/28 182/397/28
f 182/397/28 187/396/28 186/398/3 183/399/3
f 183/400/3 186/401/3 184/359/41 180/358/41
f 130/271/32 129/270/32 142/369/42 146/368/42
f 134/272/32 152/381/44 156/380/44 133/269/32
f 189/351/33 193/402/33 194/403/33 195/404/33 196/405/33 197/406/33 190/296/33 191/295/33 192/352/33
f 198/303/34 202/407/34 203/408/34 204/409/34 205/410/34 206/411/34 199/348/34 200/274/34 201/273/34
f 198/355/40 190/354/40 197/412/46 202/413/46
f 202/413/46 197/412/46 196/414/47 203/415/47
f 203/415/47 196/414/47 195/416/15 204/417/15
f 204/417/15 195/416/15 194/418/48 205/419/48
f 205/419/48 194/418/48 193/420/49 206/421/49
f 206/421/49 193/420/49 189/350/39 199/349/39
f 129/353/33 192/352/33 191/295/33 132/294/33 141/422/33 143/423/33 144/424/33 145/425/33 142/426/33
