# Blender v2.83.5 OBJ File: 'Arrows.blend'
# www.blender.org
mtllib Arrow_6.mtl
o Arrow_6
v 1.207236 1.000000 -0.371132
v 1.207236 -1.000000 -0.371132
v 1.207236 1.000000 0.371132
v 1.207236 -1.000000 0.371132
v 2.404332 0.000000 -0.371132
v 1.207236 0.000000 -0.371132
v 1.207236 -0.000000 0.371132
v 2.404332 -0.000000 0.371132
v 1.207236 -0.500000 -0.371132
v 1.207236 -0.500000 0.371132
v 1.207236 0.500000 0.371132
v 1.207236 0.500000 -0.371132
v 0.464934 0.500000 -0.371132
v 0.464934 0.000000 -0.371132
v 0.464934 -0.500000 0.371132
v 0.464934 -0.000000 0.371132
v 0.464934 -0.500000 -0.371132
v 0.464934 0.500000 0.371132
v -0.942831 0.500001 -0.371132
v -0.942831 -0.500001 -0.371132
v -0.942831 0.500001 0.371132
v -0.942831 -0.500001 0.371132
v 0.033237 0.500001 -0.371132
v 0.033237 -0.500001 -0.371132
v 0.033237 0.500001 0.371132
v 0.033237 -0.500001 0.371132
v -2.372930 0.500001 -0.371132
v -2.372930 -0.500001 -0.371132
v -2.372930 0.500001 0.371132
v -2.372930 -0.500001 0.371132
v -1.396861 0.500001 -0.371132
v -1.396861 -0.500001 -0.371132
v -1.396861 0.500001 0.371132
v -1.396861 -0.500001 0.371132
vt 0.982629 0.806861
vt 0.992256 0.806861
vt 0.992256 0.821158
vt 0.982629 0.821158
vt 0.339563 0.805107
vt 0.332174 0.798933
vt 0.324786 0.792759
vt 0.354339 0.787412
vt 0.484502 0.201722
vt 0.484502 0.231765
vt 0.477114 0.225591
vt 0.469726 0.219417
vt 0.768087 0.952770
vt 0.768087 0.978731
vt 0.753795 0.978731
vt 0.753795 0.952770
vt 0.502734 0.952851
vt 0.502734 0.978813
vt 0.488442 0.978813
vt 0.488442 0.952851
vt 0.462337 0.213243
vt 0.454949 0.207069
vt 0.354339 0.817455
vt 0.346951 0.811281
vt 0.739072 0.993609
vt 0.739072 0.979312
vt 0.753162 0.979312
vt 0.753162 0.993609
vt 0.460563 0.230390
vt 0.453174 0.224216
vt 0.981699 0.580138
vt 0.991326 0.580138
vt 0.991326 0.594434
vt 0.981699 0.594434
vt 0.974051 0.329647
vt 0.974051 0.320017
vt 0.988342 0.320017
vt 0.988342 0.329647
vt 0.974051 0.310386
vt 0.988342 0.310386
vt 0.467951 0.236564
vt 0.767882 0.979335
vt 0.767882 0.993632
vt 0.753792 0.993632
vt 0.753792 0.979335
vt 0.337788 0.822253
vt 0.330400 0.816079
vt 0.323011 0.809905
vt 0.974003 0.265448
vt 0.974003 0.246187
vt 0.988295 0.246187
vt 0.988295 0.265448
vt 0.639104 0.955010
vt 0.639104 0.974271
vt 0.620311 0.974271
vt 0.620311 0.955010
vt 0.983765 0.786337
vt 0.983765 0.789568
vt 0.969473 0.789568
vt 0.969473 0.786337
vt 0.897865 0.469286
vt 0.897865 0.488547
vt 0.879072 0.488547
vt 0.879072 0.469286
vt 0.983765 0.767803
vt 0.969473 0.767803
vt 0.993848 0.725400
vt 0.993848 0.743933
vt 0.979557 0.743933
vt 0.979557 0.725400
vt 0.973526 0.243137
vt 0.973526 0.223876
vt 0.987817 0.223876
vt 0.987817 0.243137
vt 0.968977 0.770344
vt 0.968977 0.789605
vt 0.950183 0.789605
vt 0.950183 0.770344
vt 0.938110 0.980342
vt 0.938110 0.983573
vt 0.923818 0.983573
vt 0.923818 0.980342
vt 0.950944 0.703231
vt 0.950944 0.683970
vt 0.969737 0.683970
vt 0.969737 0.703231
vt 0.938110 0.961808
vt 0.923818 0.961808
vt 0.993848 0.706310
vt 0.993848 0.724844
vt 0.979557 0.724844
vt 0.979557 0.706310
vn -1.0000 -0.0000 -0.0000
vn 0.0000 -0.0000 1.0000
vn -0.0000 0.0000 -1.0000
vn 0.6411 0.7675 0.0000
vn 0.6411 -0.7675 -0.0000
vn 0.0000 -1.0000 -0.0000
vn 0.0000 1.0000 0.0000
vn 1.0000 -0.0000 0.0000
usemtl Material.001
s off
f 9/1/1 2/2/1 4/3/1 10/4/1
f 7/5/2 10/6/2 4/7/2 8/8/2
f 5/9/3 2/10/3 9/11/3 6/12/3
f 3/13/4 8/14/4 5/15/4 1/16/4
f 8/17/5 4/18/5 2/19/5 5/20/5
f 5/9/3 6/12/3 12/21/3 1/22/3
f 3/23/2 11/24/2 7/5/2 8/8/2
f 9/25/6 10/26/6 15/27/6 17/28/6
f 12/21/3 6/12/3 14/29/3 13/30/3
f 1/31/1 12/32/1 11/33/1 3/34/1
f 13/35/1 14/36/1 16/37/1 18/38/1
f 14/36/1 17/39/1 15/40/1 16/37/1
f 6/12/3 9/11/3 17/41/3 14/29/3
f 11/42/7 12/43/7 13/44/7 18/45/7
f 7/5/2 11/24/2 18/46/2 16/47/2
f 10/6/2 7/5/2 16/47/2 15/48/2
f 19/49/1 20/50/1 22/51/1 21/52/1
f 21/53/2 22/54/2 26/55/2 25/56/2
f 25/57/8 26/58/8 24/59/8 23/60/8
f 23/61/3 24/62/3 20/63/3 19/64/3
f 21/65/7 25/57/7 23/60/7 19/66/7
f 26/67/6 22/68/6 20/69/6 24/70/6
f 27/71/1 28/72/1 30/73/1 29/74/1
f 29/75/2 30/76/2 34/77/2 33/78/2
f 33/79/8 34/80/8 32/81/8 31/82/8
f 31/83/3 32/84/3 28/85/3 27/86/3
f 29/87/7 33/79/7 31/82/7 27/88/7
f 34/89/6 30/90/6 28/91/6 32/92/6
