# Blender v2.83.5 OBJ File: 'Arrows.blend'
# www.blender.org
mtllib Arrow_63.mtl
o Arrow_63
v 0.052494 -0.801954 0.195425
v -0.097043 -0.787226 0.195425
v -0.240833 -0.743608 0.195425
v -0.373351 -0.672775 0.195425
v -0.489504 -0.577451 0.195425
v -0.584828 -0.461298 0.195425
v -0.655660 -0.328780 0.195425
v -0.699279 -0.184990 0.195425
v -0.714007 -0.035453 0.195425
v -0.699279 0.114084 0.195425
v 1.052547 -0.863575 0.195425
v -0.888764 -0.664382 -0.195425
v 1.052547 -0.863574 -0.195425
v 0.273343 -1.145743 -0.195425
v 0.345821 -0.743608 0.195425
v 0.202030 -0.787226 0.195425
v 0.052494 -0.801954 -0.195425
v -0.097043 -0.787226 -0.195425
v -0.240833 -0.743607 -0.195425
v -0.373351 -0.672775 -0.195425
v -0.489504 -0.577451 -0.195425
v -0.584828 -0.461298 -0.195425
v -0.655660 -0.328780 -0.195425
v -0.699279 -0.184990 -0.195425
v -0.714007 -0.035453 -0.195425
v -0.699279 0.114084 -0.195425
v -0.168356 -1.145743 -0.195425
v -0.747980 -0.835927 -0.195425
v -0.380720 -1.081323 -0.195425
v 0.485707 -1.081324 -0.195425
v 0.345821 -0.743608 -0.195425
v 0.202030 -0.787226 -0.195425
v -0.239670 -1.504260 0.195425
v 0.052494 -1.533036 0.195425
v -0.520606 -1.419039 0.195425
v -0.779519 -1.280648 0.195425
v -1.006457 -1.094404 0.195425
v -1.192701 -0.867465 0.195425
v -1.331092 -0.608553 0.195425
v -1.416313 -0.327617 0.195425
v -1.445089 -0.035453 0.195425
v -1.416313 0.256711 0.195425
v 0.744126 -1.714702 -0.195426
v -1.057796 0.185397 0.195425
v 0.744126 -1.714702 0.195425
v -0.576435 -0.976711 -0.195425
v 0.625592 -1.419040 0.195425
v 0.344656 -1.504261 0.195425
v -0.239670 -1.504260 -0.195426
v 0.052494 -1.533036 -0.195426
v -0.520606 -1.419039 -0.195426
v -0.779519 -1.280647 -0.195426
v -1.006457 -1.094404 -0.195425
v -1.192701 -0.867465 -0.195425
v -1.331092 -0.608553 -0.195425
v -1.416313 -0.327617 -0.195425
v -1.445089 -0.035453 -0.195425
v -1.416313 0.256711 -0.195425
v 0.234200 -0.447946 -0.195425
v -1.057796 -0.256303 0.195425
v 0.234200 -0.447946 0.195425
v -1.079548 -0.035453 0.195425
v 0.625592 -1.419040 -0.195426
v 0.344656 -1.504260 -0.195426
v 0.052494 -1.167495 -0.195426
v -0.993376 -0.468666 -0.195425
v -1.057796 -0.256303 -0.195425
v -1.079548 -0.035453 -0.195425
v -1.057796 0.185398 -0.195425
v -0.168356 -1.145743 0.195425
v 0.052494 -1.167495 0.195425
v -0.380720 -1.081323 0.195425
v -0.576435 -0.976711 0.195425
v 0.485707 -1.081324 0.195425
v -0.747980 -0.835927 0.195425
v 0.273343 -1.145743 0.195425
v -0.888764 -0.664382 0.195425
v -0.993376 -0.468667 0.195425
v -0.052494 0.801954 0.195425
v 0.097043 0.787226 0.195425
v 0.240833 0.743608 0.195425
v 0.373351 0.672775 0.195425
v 0.489504 0.577451 0.195425
v 0.584828 0.461298 0.195425
v 0.655661 0.328780 0.195425
v 0.699279 0.184990 0.195425
v 0.714007 0.035453 0.195425
v 0.699279 -0.114084 0.195425
v -1.052546 0.863575 0.195425
v 0.888765 0.664382 -0.195425
v -1.052546 0.863575 -0.195425
v -0.273343 1.145743 -0.195425
v -0.345821 0.743608 0.195425
v -0.202030 0.787226 0.195425
v -0.052494 0.801954 -0.195425
v 0.097043 0.787226 -0.195425
v 0.240833 0.743608 -0.195425
v 0.373351 0.672775 -0.195425
v 0.489504 0.577451 -0.195425
v 0.584828 0.461298 -0.195425
v 0.655661 0.328780 -0.195425
v 0.699279 0.184990 -0.195425
v 0.714007 0.035453 -0.195425
v 0.699279 -0.114084 -0.195425
v 0.168356 1.145743 -0.195425
v 0.747981 0.835928 -0.195425
v 0.380720 1.081323 -0.195425
v -0.485706 1.081324 -0.195425
v -0.345821 0.743608 -0.195425
v -0.202030 0.787226 -0.195425
v 0.239670 1.504260 0.195426
v -0.052494 1.533036 0.195426
v 0.520606 1.419039 0.195426
v 0.779519 1.280648 0.195426
v 1.006457 1.094404 0.195425
v 1.192701 0.867465 0.195425
v 1.331092 0.608553 0.195425
v 1.416314 0.327617 0.195425
v 1.445089 0.035453 0.195425
v 1.416314 -0.256711 0.195425
v -0.744125 1.714702 -0.234510
v 1.057796 -0.185398 0.195425
v -0.744125 1.714702 0.234511
v 0.576435 0.976711 -0.195425
v -0.625592 1.419040 0.195426
v -0.344656 1.504261 0.195426
v 0.239670 1.504260 -0.195425
v -0.052494 1.533036 -0.195425
v 0.520606 1.419039 -0.195425
v 0.779519 1.280648 -0.195425
v 1.006457 1.094404 -0.195425
v 1.192701 0.867465 -0.195425
v 1.331092 0.608553 -0.195425
v 1.416314 0.327617 -0.195425
v 1.445089 0.035453 -0.195425
v 1.416314 -0.256711 -0.195425
v -0.234200 0.447946 -0.195425
v 1.057796 0.256303 0.195425
v -0.234200 0.447946 0.195425
v 1.079548 0.035453 0.195425
v -0.625592 1.419040 -0.195425
v -0.344656 1.504261 -0.195425
v -0.052494 1.167495 -0.195425
v 0.993376 0.468667 -0.195425
v 1.057796 0.256303 -0.195425
v 1.079548 0.035453 -0.195425
v 1.057796 -0.185397 -0.195425
v 0.168356 1.145743 0.195425
v -0.052494 1.167495 0.195425
v 0.380720 1.081323 0.195425
v 0.576435 0.976711 0.195425
v -0.485706 1.081324 0.195425
v 0.747981 0.835927 0.195425
v -0.273343 1.145743 0.195425
v 0.888765 0.664382 0.195425
v 0.993376 0.468667 0.195425
vt 0.430420 0.959911
vt 0.437946 0.959911
vt 0.437946 0.962768
vt 0.430420 0.962768
vt 0.437946 0.965479
vt 0.430420 0.965479
vt 0.437946 0.968573
vt 0.430420 0.968573
vt 0.794742 0.727055
vt 0.793586 0.729708
vt 0.786890 0.727542
vt 0.788596 0.723623
vt 0.798479 0.159246
vt 0.799635 0.161899
vt 0.793489 0.165330
vt 0.791782 0.161412
vt 0.430420 0.944719
vt 0.437946 0.944719
vt 0.437946 0.945730
vt 0.430420 0.945730
vt 0.437946 0.947251
vt 0.430420 0.947251
vt 0.437946 0.949222
vt 0.430420 0.949222
vt 0.792971 0.732536
vt 0.785980 0.731718
vt 0.437946 0.951569
vt 0.430420 0.951569
vt 0.171327 0.360105
vt 0.171327 0.367634
vt 0.170798 0.367634
vt 0.170798 0.360105
vt 0.437946 0.954202
vt 0.430420 0.954202
vt 0.430420 0.944257
vt 0.437946 0.944257
vt 0.437946 0.957018
vt 0.430420 0.957018
vt 0.775939 0.959955
vt 0.775939 0.965609
vt 0.768414 0.965609
vt 0.768414 0.959955
vt 0.775939 0.971141
vt 0.768414 0.971141
vt 0.796053 0.743406
vt 0.798061 0.745490
vt 0.793498 0.750850
vt 0.790532 0.747773
vt 0.792918 0.735429
vt 0.785903 0.735992
vt 0.058165 0.944562
vt 0.065690 0.944562
vt 0.065690 0.958891
vt 0.058165 0.958891
vt 0.616483 0.936960
vt 0.616483 0.931311
vt 0.624008 0.931311
vt 0.624008 0.936960
vt 0.616483 0.925722
vt 0.624008 0.925722
vt 0.616483 0.920406
vt 0.624008 0.920406
vt 0.793431 0.738278
vt 0.786660 0.740199
vt 0.616483 0.915569
vt 0.624008 0.915569
vt 0.616483 0.947574
vt 0.616483 0.942451
vt 0.624008 0.942451
vt 0.624008 0.947574
vt 0.775939 0.944405
vt 0.775939 0.949145
vt 0.768414 0.949145
vt 0.768414 0.944405
vt 0.775939 0.954396
vt 0.768414 0.954396
vt 0.790873 0.157235
vt 0.785085 0.163577
vt 0.783882 0.158052
vt 0.797007 0.753289
vt 0.793577 0.759437
vt 0.788935 0.756211
vt 0.790795 0.152962
vt 0.783779 0.152399
vt 0.800924 0.754996
vt 0.798759 0.761695
vt 0.798475 0.722669
vt 0.796393 0.724678
vt 0.791034 0.720113
vt 0.794110 0.717146
vt 0.791552 0.148755
vt 0.784781 0.146834
vt 0.065690 0.970661
vt 0.058165 0.970661
vt 0.795927 0.168841
vt 0.799002 0.171808
vt 0.794637 0.177330
vt 0.790568 0.173405
vt 0.793116 0.144777
vt 0.786849 0.141571
vt 0.787343 0.168761
vt 0.795425 0.141181
vt 0.789904 0.136814
vt 0.798391 0.138104
vt 0.793828 0.132743
vt 0.794489 0.740971
vt 0.788223 0.744177
vt 0.801900 0.135665
vt 0.798470 0.129517
vt 0.805817 0.133958
vt 0.803652 0.127259
vt 0.177222 0.360105
vt 0.177222 0.367634
vt 0.464937 0.237200
vt 0.464937 0.244728
vt 0.459028 0.244728
vt 0.459028 0.237200
vt 0.780193 0.725376
vt 0.782450 0.720192
vt 0.778989 0.730901
vt 0.778887 0.736555
vt 0.779889 0.742120
vt 0.785675 0.715549
vt 0.789744 0.711623
vt 0.781957 0.747382
vt 0.785011 0.752140
vt 0.437946 0.971667
vt 0.430420 0.971667
vt 0.807982 0.140657
vt 0.805330 0.141813
vt 0.802954 0.143464
vt 0.800945 0.145548
vt 0.799382 0.147983
vt 0.801285 0.164276
vt 0.798324 0.150676
vt 0.803368 0.166285
vt 0.797811 0.153524
vt 0.800437 0.747141
vt 0.803089 0.748297
vt 0.797863 0.156418
vt 0.807291 0.161633
vt 0.807982 0.179297
vt 0.790778 0.182099
vt 0.785885 0.706855
vt 0.803089 0.709656
vt 0.802399 0.727321
vt 0.799461 0.611426
vt 0.791935 0.611426
vt 0.791935 0.608532
vt 0.799461 0.608532
vt 0.791935 0.605701
vt 0.799461 0.605701
vt 0.784184 0.619768
vt 0.784184 0.612737
vt 0.791709 0.612737
vt 0.791709 0.619768
vt 0.268210 0.752733
vt 0.267054 0.755387
vt 0.260357 0.753221
vt 0.262064 0.749302
vt 0.075582 0.711237
vt 0.076737 0.713890
vt 0.070591 0.717321
vt 0.068885 0.713403
vt 0.995670 0.212300
vt 0.988145 0.212300
vt 0.988145 0.209409
vt 0.995670 0.209409
vt 0.988145 0.206548
vt 0.995670 0.206548
vt 0.988145 0.203828
vt 0.995670 0.203828
vt 0.266438 0.758214
vt 0.259448 0.757397
vt 0.988145 0.201352
vt 0.995670 0.201352
vt 0.995670 0.217733
vt 0.988145 0.217733
vt 0.988145 0.215111
vt 0.995670 0.215111
vt 0.799461 0.619385
vt 0.791935 0.619385
vt 0.791935 0.616959
vt 0.799461 0.616959
vt 0.791935 0.614271
vt 0.799461 0.614271
vt 0.243774 0.868679
vt 0.243774 0.863097
vt 0.251300 0.863097
vt 0.251300 0.868679
vt 0.243774 0.857799
vt 0.251300 0.857799
vt 0.269521 0.769085
vt 0.271529 0.771168
vt 0.266966 0.776529
vt 0.264000 0.773452
vt 0.266386 0.761108
vt 0.259370 0.761671
vt 0.682047 0.613845
vt 0.673016 0.613845
vt 0.673769 0.598207
vt 0.681294 0.598207
vt 0.243774 0.898360
vt 0.243774 0.896385
vt 0.251300 0.896385
vt 0.251300 0.898360
vt 0.243774 0.893414
vt 0.251300 0.893414
vt 0.243774 0.889562
vt 0.251300 0.889562
vt 0.266899 0.763956
vt 0.260128 0.765878
vt 0.243774 0.884976
vt 0.251300 0.884976
vt 0.177575 0.321507
vt 0.176541 0.321507
vt 0.176541 0.313979
vt 0.177575 0.313979
vt 0.243774 0.879833
vt 0.251300 0.879833
vt 0.243774 0.899263
vt 0.251300 0.899263
vt 0.243774 0.874330
vt 0.251300 0.874330
vt 0.067975 0.709226
vt 0.062188 0.715568
vt 0.060985 0.710043
vt 0.270475 0.778968
vt 0.267045 0.785116
vt 0.262403 0.781889
vt 0.067898 0.704953
vt 0.060882 0.704390
vt 0.274392 0.780675
vt 0.272227 0.787374
vt 0.271943 0.748348
vt 0.269860 0.750357
vt 0.264502 0.745792
vt 0.267578 0.742825
vt 0.068655 0.700746
vt 0.061884 0.698825
vt 0.988145 0.184115
vt 0.995670 0.184115
vt 0.995670 0.200855
vt 0.988145 0.200855
vt 0.073029 0.720831
vt 0.076105 0.723799
vt 0.071739 0.729321
vt 0.067671 0.725396
vt 0.070218 0.696768
vt 0.063952 0.693562
vt 0.064445 0.720752
vt 0.072527 0.693171
vt 0.067007 0.688804
vt 0.075493 0.690095
vt 0.070930 0.684734
vt 0.267957 0.766650
vt 0.261691 0.769856
vt 0.079002 0.687656
vt 0.075572 0.681508
vt 0.082920 0.685949
vt 0.080755 0.679249
vt 0.452795 0.244728
vt 0.452795 0.237200
vt 0.458848 0.237200
vt 0.458848 0.244728
vt 0.584479 0.434490
vt 0.584479 0.442018
vt 0.578392 0.442771
vt 0.578392 0.433737
vt 0.253660 0.751055
vt 0.255918 0.745871
vt 0.252457 0.756580
vt 0.252355 0.762234
vt 0.253357 0.767799
vt 0.259143 0.741227
vt 0.263212 0.737302
vt 0.255425 0.773061
vt 0.258479 0.777819
vt 0.784184 0.605707
vt 0.791709 0.605707
vt 0.085085 0.692648
vt 0.082432 0.693804
vt 0.080056 0.695455
vt 0.078048 0.697538
vt 0.076485 0.699974
vt 0.078388 0.716267
vt 0.075426 0.702667
vt 0.080470 0.718276
vt 0.074913 0.705515
vt 0.273905 0.772820
vt 0.276557 0.773976
vt 0.074966 0.708409
vt 0.084394 0.713623
vt 0.085085 0.731288
vt 0.067880 0.734091
vt 0.259353 0.732533
vt 0.276557 0.735335
vt 0.275867 0.753000
vn 0.9808 0.1951 0.0000
vn 1.0000 0.0000 0.0000
vn 0.9952 -0.0980 -0.0000
vn 0.1951 0.9808 0.0000
vn 0.0000 -0.0000 1.0000
vn -0.0000 0.0000 -1.0000
vn 0.0000 1.0000 0.0000
vn 0.3827 0.9239 0.0000
vn 0.5556 0.8315 0.0000
vn 0.7071 0.7071 0.0000
vn -0.2903 0.9569 0.0000
vn -0.1951 0.9808 0.0000
vn 0.8315 0.5556 0.0000
vn 0.9239 0.3827 0.0000
vn -0.9808 -0.1951 0.0000
vn -1.0000 0.0000 0.0000
vn -0.9952 0.0980 0.0000
vn 0.9402 -0.3407 -0.0000
vn -0.0000 -1.0000 -0.0000
vn -0.1951 -0.9808 -0.0000
vn -0.3827 -0.9239 -0.0000
vn -0.5556 -0.8315 -0.0000
vn -0.7071 -0.7071 -0.0000
vn 0.2903 -0.9569 -0.0000
vn 0.1951 -0.9808 -0.0000
vn -0.8315 -0.5556 -0.0000
vn -0.9239 -0.3827 -0.0000
vn 0.4528 0.8916 0.0000
vn -0.9355 -0.3532 -0.0000
vn -0.9282 -0.3721 -0.0000
vn -0.9402 0.3407 0.0000
vn 0.0129 -0.0099 0.9999
vn -0.4528 -0.8916 -0.0000
vn 0.0129 -0.0099 -0.9999
vn 0.0352 -0.0270 -0.9990
vn 0.9355 0.3532 0.0000
vn 0.9282 0.3721 0.0000
vn 0.0352 -0.0270 0.9990
vn 0.0265 -0.0204 -0.9994
vn 0.0523 -0.0402 -0.9978
vn 0.0523 -0.0402 0.9978
vn 0.0265 -0.0204 0.9994
usemtl Material.001
s 1
f 8/1/1 24/2/1 25/3/2 9/4/2
f 9/4/2 25/3/2 26/5/3 10/6/3
f 26/5/4 69/7/4 44/8/4 10/6/4
f 1/9/5 2/10/5 70/11/5 71/12/5
f 18/13/6 17/14/6 65/15/6 27/16/6
f 1/17/7 17/18/7 18/19/4 2/20/4
f 2/20/4 18/19/4 19/21/8 3/22/8
f 3/22/8 19/21/8 20/23/9 4/24/9
f 2/10/5 3/25/5 72/26/5 70/11/5
f 4/24/9 20/23/9 21/27/10 5/28/10
f 15/29/11 31/30/11 32/31/12 16/32/12
f 5/28/10 21/27/10 22/33/13 6/34/13
f 16/35/12 32/36/12 17/18/7 1/17/7
f 6/34/13 22/33/13 23/37/14 7/38/14
f 7/38/14 23/37/14 24/2/1 8/1/1
f 40/39/15 41/40/16 57/41/16 56/42/15
f 41/40/16 42/43/17 58/44/17 57/41/16
f 7/45/5 8/46/5 60/47/5 78/48/5
f 3/25/5 4/49/5 73/50/5 72/26/5
f 45/51/18 43/52/18 13/53/18 11/54/18
f 34/55/19 33/56/20 49/57/20 50/58/19
f 33/56/20 35/59/21 51/60/21 49/57/20
f 35/59/21 36/61/22 52/62/22 51/60/21
f 4/49/5 5/63/5 75/64/5 73/50/5
f 36/61/22 37/65/23 53/66/23 52/62/22
f 47/67/24 48/68/25 64/69/25 63/70/24
f 37/71/23 38/72/26 54/73/26 53/74/23
f 48/68/25 34/55/19 50/58/19 64/69/25
f 38/72/26 39/75/27 55/76/27 54/73/26
f 39/75/27 40/39/15 56/42/15 55/76/27
f 29/77/6 27/16/6 49/78/6 51/79/6
f 60/47/5 62/80/5 41/81/5 40/82/5
f 46/83/6 29/77/6 51/79/6 52/84/6
f 62/80/5 44/85/5 42/86/5 41/81/5
f 15/87/5 16/88/5 76/89/5 74/90/5
f 28/91/6 46/83/6 52/84/6 53/92/6
f 59/93/28 61/94/28 11/54/28 13/53/28
f 14/95/6 30/96/6 63/97/6 64/98/6
f 12/99/6 28/91/6 53/92/6 54/100/6
f 65/15/6 14/95/6 64/98/6 50/101/6
f 66/102/6 12/99/6 54/100/6 55/103/6
f 67/104/6 66/102/6 55/103/6 56/105/6
f 5/63/5 6/106/5 77/107/5 75/64/5
f 68/108/6 67/104/6 56/105/6 57/109/6
f 69/110/6 68/108/6 57/109/6 58/111/6
f 31/30/29 15/29/29 61/112/29 59/113/29
f 16/88/5 1/9/5 71/12/5 76/89/5
f 47/114/30 63/115/30 43/116/30 45/117/30
f 71/12/5 70/11/5 33/118/5 34/119/5
f 70/11/5 72/26/5 35/120/5 33/118/5
f 72/26/5 73/50/5 36/121/5 35/120/5
f 6/106/5 7/45/5 78/48/5 77/107/5
f 73/50/5 75/64/5 37/122/5 36/121/5
f 74/90/5 76/89/5 48/123/5 47/124/5
f 75/64/5 77/107/5 38/125/5 37/122/5
f 76/89/5 71/12/5 34/119/5 48/123/5
f 77/107/5 78/48/5 39/126/5 38/125/5
f 69/7/4 58/127/4 42/128/4 44/8/4
f 27/16/6 65/15/6 50/101/6 49/78/6
f 78/48/5 60/47/5 40/82/5 39/126/5
f 26/129/6 25/130/6 68/108/6 69/110/6
f 25/130/6 24/131/6 67/104/6 68/108/6
f 24/131/6 23/132/6 66/102/6 67/104/6
f 23/132/6 22/133/6 12/99/6 66/102/6
f 17/14/6 32/134/6 14/95/6 65/15/6
f 22/133/6 21/135/6 28/91/6 12/99/6
f 32/134/6 31/136/6 30/96/6 14/95/6
f 21/135/6 20/137/6 46/83/6 28/91/6
f 9/138/5 10/139/5 44/85/5 62/80/5
f 20/137/6 19/140/6 29/77/6 46/83/6
f 8/46/5 9/138/5 62/80/5 60/47/5
f 19/140/6 18/13/6 27/16/6 29/77/6
f 59/141/6 13/142/6 30/96/6 31/136/6
f 13/142/6 43/143/6 63/97/6 30/96/6
f 45/144/5 11/145/5 74/90/5 47/124/5
f 74/90/5 11/145/5 61/146/5 15/87/5
f 86/147/15 102/148/15 103/149/16 87/150/16
f 87/150/16 103/149/16 104/151/17 88/152/17
f 104/153/20 147/154/20 122/155/20 88/156/20
f 79/157/5 80/158/5 148/159/5 149/160/5
f 96/161/6 95/162/6 143/163/6 105/164/6
f 79/165/19 95/166/19 96/167/20 80/168/20
f 80/168/20 96/167/20 97/169/21 81/170/21
f 81/170/21 97/169/21 98/171/22 82/172/22
f 80/158/5 81/173/5 150/174/5 148/159/5
f 82/172/22 98/171/22 99/175/23 83/176/23
f 93/177/24 109/178/24 110/179/25 94/180/25
f 83/181/23 99/182/23 100/183/26 84/184/26
f 94/180/25 110/179/25 95/166/19 79/165/19
f 84/184/26 100/183/26 101/185/27 85/186/27
f 85/186/27 101/185/27 102/148/15 86/147/15
f 118/187/1 119/188/2 135/189/2 134/190/1
f 119/188/2 120/191/3 136/192/3 135/189/2
f 85/193/5 86/194/5 138/195/5 156/196/5
f 81/173/5 82/197/5 151/198/5 150/174/5
f 123/199/31 121/200/31 91/201/31 89/202/31
f 112/203/7 111/204/4 127/205/4 128/206/7
f 111/204/4 113/207/8 129/208/8 127/205/4
f 113/207/8 114/209/9 130/210/9 129/208/8
f 82/197/5 83/211/5 153/212/5 151/198/5
f 114/209/9 115/213/10 131/214/10 130/210/9
f 125/215/11 126/216/12 142/217/12 141/218/11
f 115/213/10 116/219/13 132/220/13 131/214/10
f 126/221/12 112/203/7 128/206/7 142/222/12
f 116/219/13 117/223/14 133/224/14 132/220/13
f 117/223/14 118/187/1 134/190/1 133/224/14
f 107/225/6 105/164/6 127/226/6 129/227/6
f 138/195/5 140/228/5 119/229/5 118/230/5
f 124/231/6 107/225/6 129/227/6 130/232/6
f 140/228/5 122/233/5 120/234/5 119/229/5
f 93/235/5 94/236/5 154/237/5 152/238/32
f 106/239/6 124/231/6 130/232/6 131/240/6
f 137/241/33 139/242/33 89/243/33 91/244/33
f 92/245/6 108/246/34 141/247/35 142/248/6
f 90/249/6 106/239/6 131/240/6 132/250/6
f 143/163/6 92/245/6 142/248/6 128/251/6
f 144/252/6 90/249/6 132/250/6 133/253/6
f 145/254/6 144/252/6 133/253/6 134/255/6
f 83/211/5 84/256/5 155/257/5 153/212/5
f 146/258/6 145/254/6 134/255/6 135/259/6
f 147/260/6 146/258/6 135/259/6 136/261/6
f 109/262/36 93/263/36 139/264/36 137/265/36
f 94/236/5 79/157/5 149/160/5 154/237/5
f 125/266/37 141/267/37 121/268/37 123/269/37
f 149/160/5 148/159/5 111/270/5 112/271/5
f 148/159/5 150/174/5 113/272/5 111/270/5
f 150/174/5 151/198/5 114/273/5 113/272/5
f 84/256/5 85/193/5 156/196/5 155/257/5
f 151/198/5 153/212/5 115/274/5 114/273/5
f 152/238/32 154/237/5 126/275/5 125/276/38
f 153/212/5 155/257/5 116/277/5 115/274/5
f 154/237/5 149/160/5 112/271/5 126/275/5
f 155/257/5 156/196/5 117/278/5 116/277/5
f 147/154/20 136/279/20 120/280/20 122/155/20
f 105/164/6 143/163/6 128/251/6 127/226/6
f 156/196/5 138/195/5 118/230/5 117/278/5
f 104/281/6 103/282/6 146/258/6 147/260/6
f 103/282/6 102/283/6 145/254/6 146/258/6
f 102/283/6 101/284/6 144/252/6 145/254/6
f 101/284/6 100/285/6 90/249/6 144/252/6
f 95/162/6 110/286/6 92/245/6 143/163/6
f 100/285/6 99/287/6 106/239/6 90/249/6
f 110/286/6 109/288/6 108/246/34 92/245/6
f 99/287/6 98/289/6 124/231/6 106/239/6
f 87/290/5 88/291/5 122/233/5 140/228/5
f 98/289/6 97/292/6 107/225/6 124/231/6
f 86/194/5 87/290/5 140/228/5 138/195/5
f 97/292/6 96/161/6 105/164/6 107/225/6
f 137/293/6 91/294/39 108/246/34 109/288/6
f 91/294/39 121/295/40 141/247/35 108/246/34
f 123/296/41 89/297/42 152/238/32 125/276/38
f 152/238/32 89/297/42 139/298/5 93/235/5
