# Blender v2.83.5 OBJ File: 'Arrows.blend'
# www.blender.org
mtllib Arrow_74.mtl
o Arrow_74
v -0.727707 0.840430 -0.371132
v -0.632974 0.924260 -0.371132
v -0.737892 0.895730 -0.371132
v -0.723465 0.931080 -0.371132
v -0.686623 0.941098 -0.371132
v -0.632974 -0.924260 -0.371132
v -0.727707 -0.840430 -0.371132
v -0.686623 -0.941098 -0.371132
v -0.723465 -0.931079 -0.371132
v -0.737892 -0.895729 -0.371132
v -0.632974 0.924260 0.371132
v -0.727707 0.840430 0.371132
v -0.686623 0.941098 0.371132
v -0.723465 0.931079 0.371132
v -0.737892 0.895729 0.371132
v -0.727707 -0.840430 0.371132
v -0.632974 -0.924260 0.371132
v -0.737892 -0.895730 0.371132
v -0.723465 -0.931080 0.371132
v -0.686623 -0.941098 0.371132
v 1.064067 0.075740 -0.371132
v 1.064067 -0.075740 -0.371132
v 1.046188 0.000000 -0.371132
v 1.110505 0.040990 -0.371132
v 1.126812 0.000000 -0.371132
v 1.110505 -0.040990 -0.371132
v -0.485582 -0.159570 -0.371132
v -0.485582 0.159570 -0.371132
v -0.259477 0.000000 -0.371132
v -0.468185 -0.086358 -0.371132
v -0.462077 0.000000 -0.371132
v -0.468185 0.086359 -0.371132
v -0.485582 0.159570 0.371132
v -0.485582 -0.159570 0.371132
v -0.259477 -0.000000 0.371132
v -0.468185 0.086358 0.371132
v -0.462077 -0.000000 0.371132
v -0.468185 -0.086359 0.371132
v 1.064067 -0.075740 0.371132
v 1.064067 0.075740 0.371132
v 1.046188 -0.000000 0.371132
v 1.110505 -0.040990 0.371132
v 1.126812 -0.000000 0.371132
v 1.110505 0.040990 0.371132
vt 0.944085 0.220824
vt 0.944085 0.185839
vt 0.958377 0.185839
vt 0.958377 0.220824
vt 0.587144 0.939519
vt 0.587144 0.926405
vt 0.601435 0.926405
vt 0.601435 0.939519
vt 0.779628 0.107375
vt 0.779283 0.105916
vt 0.811958 0.089573
vt 0.812991 0.089249
vt 0.813701 0.089442
vt 0.813978 0.090122
vt 0.813782 0.091188
vt 0.809120 0.104302
vt 0.804767 0.107375
vt 0.812061 0.659069
vt 0.813093 0.658745
vt 0.813803 0.658938
vt 0.814081 0.659619
vt 0.813884 0.660684
vt 0.809223 0.673798
vt 0.804869 0.676871
vt 0.779730 0.676871
vt 0.779386 0.675412
vt 0.938538 0.830800
vt 0.938538 0.794256
vt 0.952830 0.794256
vt 0.952830 0.830800
vt 0.809223 0.679945
vt 0.813884 0.693059
vt 0.814081 0.694124
vt 0.813803 0.694805
vt 0.813093 0.694998
vt 0.812061 0.694673
vt 0.779386 0.678330
vt 0.779283 0.108834
vt 0.809120 0.110448
vt 0.813782 0.123562
vt 0.813978 0.124627
vt 0.813701 0.125308
vt 0.812991 0.125501
vt 0.811958 0.125177
vt 0.778389 0.108164
vt 0.778075 0.107375
vt 0.778389 0.106585
vt 0.808785 0.105712
vt 0.808668 0.107375
vt 0.808785 0.109038
vt 0.808888 0.675208
vt 0.808770 0.676871
vt 0.808888 0.678535
vt 0.778491 0.677661
vt 0.778177 0.676871
vt 0.778491 0.676082
vt 0.952830 0.831869
vt 0.938538 0.831869
vt 0.952830 0.832415
vt 0.938538 0.832415
vt 0.601435 0.960526
vt 0.587144 0.960526
vt 0.587144 0.959845
vt 0.601435 0.959845
vt 0.587144 0.958780
vt 0.601435 0.958780
vt 0.944085 0.184766
vt 0.958377 0.184766
vt 0.944085 0.184099
vt 0.958377 0.184099
vt 0.587144 0.924659
vt 0.601435 0.924659
vt 0.601435 0.925340
vt 0.587144 0.925340
vt 0.601435 0.940929
vt 0.587144 0.940929
vt 0.601435 0.942592
vt 0.587144 0.942592
vt 0.601435 0.944256
vt 0.587144 0.944256
vt 0.601435 0.945666
vt 0.587144 0.945666
vt 0.938538 0.793156
vt 0.952830 0.793156
vt 0.938538 0.792520
vt 0.952830 0.792520
vt 0.958377 0.222263
vt 0.944085 0.222263
vt 0.944085 0.221819
vt 0.958377 0.221819
vn 0.5253 -0.8509 -0.0000
vn 0.3745 -0.9272 -0.0000
vn -0.9590 0.2835 0.0000
vn -0.9659 0.2589 0.0000
vn -0.0000 0.0000 -1.0000
vn 0.0000 -0.0000 1.0000
vn 0.3745 0.9272 0.0000
vn 0.5253 0.8509 0.0000
vn 0.0193 0.9998 0.0000
vn -0.6627 0.7489 0.0000
vn -0.9947 0.1025 0.0000
vn -0.9659 -0.2589 -0.0000
vn 0.0193 -0.9998 -0.0000
vn -0.6627 -0.7489 -0.0000
vn -0.9947 -0.1025 -0.0000
vn -0.9885 0.1514 0.0000
vn -1.0000 -0.0000 -0.0000
vn -0.9885 -0.1514 -0.0000
vn -0.9590 -0.2835 -0.0000
vn 0.7940 0.6080 0.0000
vn 1.0000 0.0000 0.0000
vn 0.7940 -0.6080 -0.0000
usemtl Material.001
s 1
f 39/1/1 17/2/2 6/3/2 22/4/1
f 27/5/3 7/6/4 16/7/4 34/8/3
f 23/9/5 22/10/5 6/11/5 8/12/5 9/13/5 10/14/5 7/15/5 27/16/5 29/17/5
f 11/18/6 13/19/6 14/20/6 15/21/6 12/22/6 33/23/6 35/24/6 41/25/6 40/26/6
f 11/27/7 40/28/8 21/29/8 2/30/7
f 35/24/6 34/31/6 16/32/6 18/33/6 19/34/6 20/35/6 17/36/6 39/37/6 41/25/6
f 21/38/5 23/9/5 29/17/5 28/39/5 1/40/5 3/41/5 4/42/5 5/43/5 2/44/5
f 21/38/5 24/45/5 23/9/5
f 24/45/5 25/46/5 23/9/5
f 25/46/5 26/47/5 23/9/5
f 26/47/5 22/10/5 23/9/5
f 27/16/5 30/48/5 29/17/5
f 30/48/5 31/49/5 29/17/5
f 31/49/5 32/50/5 29/17/5
f 32/50/5 28/39/5 29/17/5
f 33/23/6 36/51/6 35/24/6
f 36/51/6 37/52/6 35/24/6
f 37/52/6 38/53/6 35/24/6
f 38/53/6 34/31/6 35/24/6
f 39/37/6 42/54/6 41/25/6
f 42/54/6 43/55/6 41/25/6
f 43/55/6 44/56/6 41/25/6
f 44/56/6 40/26/6 41/25/6
f 11/27/7 2/30/7 5/57/9 13/58/9
f 13/58/9 5/57/9 4/59/10 14/60/10
f 14/61/10 4/62/10 3/63/11 15/64/11
f 15/64/11 3/63/11 1/65/12 12/66/12
f 6/3/2 17/2/2 20/67/13 8/68/13
f 8/68/13 20/67/13 19/69/14 9/70/14
f 9/71/14 19/72/14 18/73/15 10/74/15
f 10/74/15 18/73/15 16/7/4 7/6/4
f 27/5/3 34/8/3 38/75/16 30/76/16
f 30/76/16 38/75/16 37/77/17 31/78/17
f 31/78/17 37/77/17 36/79/18 32/80/18
f 32/80/18 36/79/18 33/81/19 28/82/19
f 21/29/8 40/28/8 44/83/20 24/84/20
f 24/84/20 44/83/20 43/85/21 25/86/21
f 25/87/21 43/88/21 42/89/22 26/90/22
f 26/90/22 42/89/22 39/1/1 22/4/1
f 1/65/12 28/82/19 33/81/19 12/66/12
