# Blender v2.83.5 OBJ File: 'Arrows.blend'
# www.blender.org
mtllib Arrow_48.mtl
o Arrow_48
v 1.185891 -1.644049 -0.371132
v -0.693494 -2.328089 -0.371131
v 1.185892 -1.644049 0.371132
v -0.693493 -2.328089 0.371132
v 0.930239 -3.865454 -0.371132
v 0.367827 -2.320240 -0.371132
v 0.367827 -2.320240 0.371132
v 0.930240 -3.865454 0.371132
v 0.776860 -1.982144 0.371132
v 0.776859 -1.982144 -0.371132
v -0.162833 -2.324165 -0.371132
v -0.162833 -2.324165 0.371132
v -0.273326 0.821420 -0.371132
v -0.854645 0.905428 -0.371132
v -1.456134 0.970418 0.371132
v -0.854645 0.905428 0.371132
v -0.273325 0.821420 0.371132
v -1.456135 0.970418 -0.371132
v -1.234592 0.428025 0.371132
v -1.234592 0.428025 -0.371132
v -0.640877 0.337368 -0.371132
v -0.640877 0.337368 0.371132
v -0.078008 0.273066 -0.371132
v -0.078007 0.273066 0.371132
v 0.238318 0.727354 -0.371132
v 0.238318 0.727354 0.371132
v 1.050547 0.109686 -0.371132
v 1.050547 0.109686 0.371132
v -1.077871 3.899588 -0.371133
v -1.077871 3.899588 0.371131
v -0.056187 3.913594 -0.371133
v -0.056186 3.913594 0.371131
vt 0.178285 0.173574
vt 0.176551 0.173574
vt 0.176551 0.159277
vt 0.178285 0.159277
vt 0.068585 0.125309
vt 0.078556 0.123080
vt 0.088528 0.120851
vt 0.064736 0.156746
vt 0.020148 0.002316
vt 0.043939 0.038211
vt 0.033968 0.035983
vt 0.023996 0.033754
vt 0.936156 0.705274
vt 0.936156 0.664035
vt 0.950448 0.664035
vt 0.950448 0.705274
vt 0.951894 0.447647
vt 0.951894 0.488492
vt 0.937603 0.488492
vt 0.937603 0.447647
vt 0.014856 0.038324
vt 0.005717 0.042894
vt 0.050306 0.116169
vt 0.059445 0.120739
vt 0.031392 0.088002
vt 0.042136 0.092280
vt 0.043939 0.103419
vt 0.032938 0.099590
vt 0.085478 0.566257
vt 0.087515 0.566257
vt 0.087515 0.580553
vt 0.085478 0.580553
vt 0.627078 0.856108
vt 0.641369 0.856108
vt 0.641369 0.867334
vt 0.627078 0.867334
vt 0.985237 0.504220
vt 0.988810 0.504220
vt 0.988810 0.518516
vt 0.985237 0.518516
vt 0.992091 0.504220
vt 0.992091 0.518516
vt 0.086725 0.066783
vt 0.075980 0.071060
vt 0.077527 0.059473
vt 0.088528 0.055643
vt 0.021112 0.084354
vt 0.022397 0.095491
vt 0.814025 0.915209
vt 0.814025 0.900912
vt 0.827028 0.900912
vt 0.827028 0.915209
vt 0.065700 0.074709
vt 0.066986 0.063571
vt 0.538631 0.887666
vt 0.552922 0.887666
vt 0.552922 0.933332
vt 0.538631 0.933332
vt 0.627078 0.799621
vt 0.641369 0.799621
vt 0.000649 0.076391
vt 0.013207 0.091506
vt 0.024139 0.156746
vt 0.004912 0.152576
vt 0.045238 0.082672
vt 0.057796 0.067557
vt 0.981710 0.518516
vt 0.981710 0.504220
vt 0.848117 0.697087
vt 0.862409 0.697087
vt 0.862409 0.700304
vt 0.848117 0.700304
vt 0.049501 0.006486
vt 0.068728 0.002316
vt 0.719103 0.802397
vt 0.733395 0.802397
vt 0.733395 0.868238
vt 0.719103 0.868238
vt 0.848117 0.621204
vt 0.862409 0.621204
vn -0.0074 1.0000 0.0000
vn 0.0000 0.0000 1.0000
vn -0.0000 -0.0000 -1.0000
vn 0.9934 -0.1143 -0.0000
vn -0.6875 -0.7262 0.0000
vn -0.6371 0.7708 0.0000
vn -0.9258 -0.3781 0.0000
vn 0.1430 0.9897 -0.0000
vn 0.1074 0.9942 -0.0000
vn -0.1433 -0.9897 0.0000
vn 0.9351 0.3545 -0.0000
vn -0.9318 -0.3629 0.0000
vn 0.1808 0.9835 -0.0000
vn -0.0137 0.9999 0.0000
vn -0.9237 -0.3832 0.0000
vn 0.9602 0.2794 -0.0000
usemtl Material.001
s off
f 11/1/1 2/2/1 4/3/1 12/4/1
f 7/5/2 12/6/2 4/7/2 8/8/2
f 5/9/3 2/10/3 11/11/3 6/12/3
f 3/13/4 8/14/4 5/15/4 1/16/4
f 8/17/5 4/18/5 2/19/5 5/20/5
f 5/9/3 6/12/3 10/21/3 1/22/3
f 3/23/2 9/24/2 7/5/2 8/8/2
f 21/25/3 20/26/3 18/27/3 14/28/3
f 1/29/6 10/30/6 9/31/6 3/32/6
f 20/33/7 19/34/7 15/35/7 18/36/7
f 13/37/8 14/38/8 16/39/8 17/40/8
f 14/38/9 18/41/9 15/42/9 16/39/9
f 19/43/2 22/44/2 16/45/2 15/46/2
f 23/47/3 21/25/3 14/28/3 13/48/3
f 24/49/10 23/50/10 27/51/10 28/52/10
f 22/44/2 24/53/2 17/54/2 16/45/2
f 7/5/2 9/24/2 24/53/2 22/44/2
f 9/55/11 10/56/11 23/57/11 24/58/11
f 10/21/3 6/12/3 21/25/3 23/47/3
f 12/6/2 7/5/2 22/44/2 19/43/2
f 11/59/12 12/60/12 19/34/12 20/33/12
f 6/12/3 11/11/3 20/26/3 21/25/3
f 27/61/3 25/62/3 29/63/3 31/64/3
f 17/54/2 24/53/2 28/65/2 26/66/2
f 13/37/13 17/40/13 26/67/13 25/68/13
f 23/47/3 13/48/3 25/62/3 27/61/3
f 32/69/14 31/70/14 29/71/14 30/72/14
f 26/66/2 28/65/2 32/73/2 30/74/2
f 25/75/15 26/76/15 30/77/15 29/78/15
f 28/79/16 27/80/16 31/70/16 32/69/16
