# Blender v2.83.5 OBJ File: 'Arrows.blend'
# www.blender.org
mtllib Arrow_11.mtl
o Arrow_11
v -1.139442 0.435043 -0.363988
v -1.026579 0.547905 -0.363988
v -1.129896 0.483031 -0.363988
v -1.107734 0.516198 -0.363988
v -1.074567 0.538360 -0.363988
v -1.026579 -0.547905 -0.363988
v -1.139442 -0.435042 -0.363988
v -1.074567 -0.538360 -0.363988
v -1.107734 -0.516198 -0.363988
v -1.129896 -0.483030 -0.363988
v -1.026579 0.547905 0.363988
v -1.139442 0.435042 0.363988
v -1.074567 0.538360 0.363988
v -1.107734 0.516198 0.363988
v -1.129896 0.483030 0.363988
v -1.139442 -0.435043 0.363988
v -1.026579 -0.547905 0.363988
v -1.129896 -0.483031 0.363988
v -1.107734 -0.516198 0.363988
v -1.074567 -0.538360 0.363988
v 0.576560 0.637905 -0.363988
v 0.873317 0.445499 -0.363988
v 0.646160 0.540130 -0.363988
v 0.729786 0.517883 -0.363988
v 0.809659 0.484588 -0.363988
v 0.924414 -0.519736 -0.363988
v 0.571863 -0.547905 -0.363988
v 0.809658 -0.484588 -0.363988
v 0.729786 -0.517883 -0.363988
v 0.646160 -0.540130 -0.363988
v 0.924414 0.519736 0.363988
v 0.571863 0.547905 0.363988
v 0.809658 0.484588 0.363988
v 0.729786 0.517883 0.363988
v 0.646160 0.540130 0.363988
v 0.576560 -0.637905 0.363988
v 0.873317 -0.445499 0.363988
v 0.646160 -0.540130 0.363988
v 0.729786 -0.517883 0.363988
v 0.809659 -0.484588 0.363988
v 1.385274 -0.052289 0.363988
v 1.385274 0.052289 0.363988
v 1.412606 -0.020871 0.363988
v 1.418012 -0.000000 0.363988
v 1.412606 0.020871 0.363988
v 1.385274 0.052289 -0.363988
v 1.385274 -0.052289 -0.363988
v 1.412606 0.020871 -0.363988
v 1.418012 0.000000 -0.363988
v 1.412606 -0.020871 -0.363988
v 0.571863 0.547905 -0.363988
v 0.662511 0.628910 -0.363988
v 0.758801 0.603294 -0.363988
v 0.850769 0.564957 -0.363988
v 0.924414 0.519736 -0.363988
v 0.873317 -0.445498 -0.363988
v 0.850769 -0.564957 -0.363988
v 0.758801 -0.603294 -0.363988
v 0.662511 -0.628910 -0.363988
v 0.576560 -0.637905 -0.363988
v 0.873317 0.445498 0.363988
v 0.850769 0.564957 0.363988
v 0.758801 0.603294 0.363988
v 0.662511 0.628910 0.363988
v 0.576560 0.637905 0.363988
v 0.571863 -0.547905 0.363988
v 0.662511 -0.628910 0.363988
v 0.758801 -0.603294 0.363988
v 0.850769 -0.564957 0.363988
v 0.924414 -0.519736 0.363988
v -1.109683 0.623138 0.363988
v -1.035443 0.637905 0.363988
v -1.035443 0.637905 -0.363988
v -1.109683 0.623138 -0.363988
v -1.172621 0.581084 0.363988
v -1.172621 0.581084 -0.363988
v -1.214674 0.518147 0.363988
v -1.214674 0.518147 -0.363988
v -1.229442 0.443907 0.363988
v -1.229442 0.443907 -0.363988
v -1.109683 -0.623138 -0.363988
v -1.035443 -0.637905 -0.363988
v -1.035443 -0.637905 0.363988
v -1.109683 -0.623138 0.363988
v -1.172621 -0.581084 -0.363988
v -1.172621 -0.581084 0.363988
v -1.214674 -0.518147 -0.363988
v -1.214674 -0.518147 0.363988
v -1.229442 -0.443907 -0.363988
v -1.229442 -0.443907 0.363988
v 1.494418 -0.063953 0.363988
v 1.447252 -0.118169 0.363988
v 1.447252 -0.118169 -0.363988
v 1.494418 -0.063952 -0.363988
v 1.510981 -0.000000 0.363988
v 1.510981 0.000000 -0.363988
v 1.494418 0.063952 0.363988
v 1.494418 0.063953 -0.363988
v 1.447252 0.118169 0.363988
v 1.447252 0.118169 -0.363988
vt 0.587928 0.112784
vt 0.587323 0.112784
vt 0.587323 0.098762
vt 0.587928 0.098762
vt 0.920250 0.716859
vt 0.906234 0.716859
vt 0.906234 0.706789
vt 0.920250 0.706789
vt 0.586921 0.112784
vt 0.586921 0.098762
vt 0.921011 0.637545
vt 0.921011 0.668593
vt 0.906995 0.668593
vt 0.906995 0.637545
vt 0.967975 0.973793
vt 0.967975 0.956693
vt 0.981992 0.956693
vt 0.981992 0.973793
vt 0.586519 0.112784
vt 0.586519 0.098762
vt 0.921011 0.630845
vt 0.906995 0.630845
vt 0.906995 0.620774
vt 0.921011 0.620774
vt 0.585914 0.112784
vt 0.585914 0.098762
vt 0.322752 0.876595
vt 0.336768 0.876595
vt 0.336768 0.886456
vt 0.322752 0.886456
vt 0.336768 0.887682
vt 0.322752 0.887682
vt 0.336768 0.889220
vt 0.322752 0.889220
vt 0.336768 0.890831
vt 0.322752 0.890831
vt 0.336768 0.892262
vt 0.322752 0.892262
vt 0.336768 0.923049
vt 0.322752 0.923049
vt 0.336768 0.923974
vt 0.322752 0.923974
vt 0.336768 0.924613
vt 0.322752 0.924613
vt 0.985981 0.394245
vt 0.971965 0.394245
vt 0.971965 0.393606
vt 0.985981 0.393606
vt 0.971965 0.392681
vt 0.985981 0.392681
vt 0.971965 0.375923
vt 0.985981 0.375923
vt 0.971965 0.374999
vt 0.985981 0.374999
vt 0.971965 0.374360
vt 0.985981 0.374360
vt 0.351205 0.876595
vt 0.351205 0.877234
vt 0.337189 0.877234
vt 0.337189 0.876595
vt 0.351205 0.878158
vt 0.337189 0.878158
vt 0.351205 0.908946
vt 0.337189 0.908946
vt 0.906234 0.754608
vt 0.920250 0.754608
vt 0.920250 0.756038
vt 0.906234 0.756038
vt 0.920250 0.757250
vt 0.906234 0.757250
vt 0.981992 0.976435
vt 0.967975 0.976435
vt 0.967975 0.975223
vt 0.981992 0.975223
vt 0.921011 0.670023
vt 0.906995 0.670023
vt 0.921011 0.671235
vt 0.906995 0.671235
vt 0.967975 0.954050
vt 0.981992 0.954050
vt 0.981992 0.955263
vt 0.967975 0.955263
vt 0.920250 0.723559
vt 0.906234 0.723559
vt 0.906234 0.721904
vt 0.920250 0.721904
vt 0.906234 0.720049
vt 0.920250 0.720049
vt 0.906234 0.718278
vt 0.920250 0.718278
vt 0.906995 0.635889
vt 0.921011 0.635889
vt 0.906995 0.634035
vt 0.921011 0.634035
vt 0.906995 0.632263
vt 0.921011 0.632263
vt 0.286623 0.575790
vt 0.286623 0.589811
vt 0.285579 0.589811
vt 0.285579 0.575790
vt 0.284347 0.589811
vt 0.284347 0.575790
vt 0.283116 0.589811
vt 0.283116 0.575790
vt 0.282072 0.589811
vt 0.282072 0.575790
vt 0.785667 0.200371
vt 0.785518 0.201802
vt 0.783785 0.201711
vt 0.783958 0.200056
vt 0.786096 0.198760
vt 0.784451 0.198201
vt 0.786737 0.197221
vt 0.785189 0.196430
vt 0.787489 0.195995
vt 0.786060 0.195011
vt 0.805397 0.197221
vt 0.804645 0.195995
vt 0.806074 0.195011
vt 0.806945 0.196430
vt 0.806038 0.198760
vt 0.807683 0.198201
vt 0.806467 0.200371
vt 0.808176 0.200056
vt 0.806617 0.201802
vt 0.808349 0.201711
vt 0.806773 0.746099
vt 0.807526 0.747325
vt 0.806096 0.748309
vt 0.805225 0.746890
vt 0.806132 0.744560
vt 0.804487 0.745119
vt 0.805704 0.742949
vt 0.803994 0.743264
vt 0.805554 0.741518
vt 0.803821 0.741609
vt 0.826503 0.742949
vt 0.826653 0.741518
vt 0.828385 0.741609
vt 0.828212 0.743264
vt 0.826075 0.744560
vt 0.827719 0.745119
vt 0.825433 0.746099
vt 0.826981 0.746890
vt 0.824681 0.747325
vt 0.826110 0.748309
vt 0.805738 0.709807
vt 0.805554 0.710731
vt 0.803821 0.710560
vt 0.804105 0.709130
vt 0.785518 0.232589
vt 0.785702 0.233513
vt 0.784069 0.234190
vt 0.783785 0.232760
vt 0.806164 0.709168
vt 0.804915 0.707918
vt 0.786128 0.234152
vt 0.784879 0.235402
vt 0.806803 0.708741
vt 0.806127 0.707108
vt 0.786767 0.234579
vt 0.786091 0.236212
vt 0.807727 0.708557
vt 0.807556 0.706824
vt 0.787691 0.234763
vt 0.787520 0.236496
vt 0.806433 0.233513
vt 0.806617 0.232589
vt 0.808349 0.232760
vt 0.808065 0.234190
vt 0.826653 0.710731
vt 0.826469 0.709807
vt 0.828101 0.709130
vt 0.828385 0.710560
vt 0.806006 0.234152
vt 0.807255 0.235402
vt 0.826042 0.709168
vt 0.827291 0.707918
vt 0.805367 0.234579
vt 0.806044 0.236212
vt 0.825404 0.708741
vt 0.826080 0.707108
vt 0.804443 0.234763
vt 0.804614 0.236496
vt 0.824480 0.708557
vt 0.824650 0.706824
vt 0.816505 0.757712
vt 0.817110 0.757185
vt 0.818378 0.758379
vt 0.817335 0.759288
vt 0.797074 0.186135
vt 0.796469 0.185608
vt 0.797298 0.184032
vt 0.798342 0.184941
vt 0.816103 0.757816
vt 0.816103 0.759607
vt 0.796067 0.185504
vt 0.796067 0.183713
vt 0.815701 0.757712
vt 0.814872 0.759288
vt 0.795665 0.185608
vt 0.794836 0.184032
vt 0.815096 0.757185
vt 0.813828 0.758379
vt 0.795060 0.186135
vt 0.793792 0.184941
vt 0.351205 0.914752
vt 0.351205 0.924613
vt 0.337189 0.924613
vt 0.337189 0.914752
vt 0.337189 0.913526
vt 0.351205 0.913526
vt 0.351205 0.911987
vt 0.337189 0.911987
vt 0.351205 0.910377
vt 0.337189 0.910377
vn -0.6852 -0.7283 -0.0000
vn -0.8848 -0.4659 -0.0000
vn 0.5670 0.8237 0.0000
vn 0.6852 0.7283 0.0000
vn -1.0000 -0.0000 -0.0000
vn 0.0521 -0.9986 -0.0000
vn -0.0980 -0.9952 -0.0000
vn -0.9952 0.0980 0.0000
vn -0.9952 -0.0980 -0.0000
vn -0.8848 0.4659 0.0000
vn 0.5670 -0.8237 -0.0000
vn 0.6852 -0.7283 -0.0000
vn -0.6852 0.7283 0.0000
vn -0.5670 0.8237 0.0000
vn -0.4554 0.8903 0.0000
vn -0.3217 0.9469 0.0000
vn -0.1811 0.9835 0.0000
vn -0.0521 0.9986 0.0000
vn 0.0980 0.9952 0.0000
vn 0.3827 0.9239 0.0000
vn 0.7071 0.7071 0.0000
vn 0.9239 0.3827 0.0000
vn 0.9952 0.0980 0.0000
vn 0.9952 -0.0980 -0.0000
vn 0.9239 -0.3827 -0.0000
vn 0.7071 -0.7071 -0.0000
vn 0.3827 -0.9239 -0.0000
vn 0.0980 -0.9952 -0.0000
vn -0.0521 -0.9986 -0.0000
vn -0.0980 0.9952 0.0000
vn -0.3827 0.9239 0.0000
vn -0.7071 0.7071 0.0000
vn -0.9239 0.3827 0.0000
vn -0.3827 -0.9239 -0.0000
vn -0.7071 -0.7071 -0.0000
vn -0.9239 -0.3827 -0.0000
vn 0.0521 0.9986 0.0000
vn 0.1811 0.9835 0.0000
vn 0.3217 0.9469 0.0000
vn 0.4554 0.8903 0.0000
vn 0.1811 -0.9835 -0.0000
vn 0.3217 -0.9469 -0.0000
vn 0.4554 -0.8903 -0.0000
vn 0.8848 -0.4659 -0.0000
vn 1.0000 -0.0000 -0.0000
vn 0.8848 0.4659 0.0000
vn 0.0000 0.0000 -1.0000
vn 0.0000 -0.0000 1.0000
vn -0.5670 -0.8237 -0.0000
vn -0.4554 -0.8903 -0.0000
vn -0.3217 -0.9469 -0.0000
vn -0.1811 -0.9835 -0.0000
usemtl Material.001
s 1
f 46/1/1 48/2/2 45/3/2 42/4/1
f 55/5/3 31/6/3 99/7/4 100/8/4
f 48/2/2 49/9/5 44/10/5 45/3/2
f 36/11/6 83/12/7 82/13/7 60/14/6
f 80/15/8 89/16/9 90/17/9 79/18/8
f 49/9/5 50/19/10 43/20/10 44/10/5
f 70/21/11 26/22/11 93/23/12 92/24/12
f 43/20/10 50/19/10 47/25/13 41/26/13
f 41/27/13 47/28/13 56/29/14 37/30/14
f 37/30/14 56/29/14 28/31/15 40/32/15
f 40/32/15 28/31/15 29/33/16 39/34/16
f 39/34/16 29/33/16 30/35/17 38/36/17
f 38/36/17 30/35/17 27/37/18 66/38/18
f 66/38/18 27/37/18 6/39/19 17/40/19
f 17/40/19 6/39/19 8/41/20 20/42/20
f 20/42/20 8/41/20 9/43/21 19/44/21
f 19/45/21 9/46/21 10/47/22 18/48/22
f 18/48/22 10/47/22 7/49/23 16/50/23
f 7/49/23 1/51/24 12/52/24 16/50/23
f 1/51/24 3/53/25 15/54/25 12/52/24
f 3/53/25 4/55/26 14/56/26 15/54/25
f 4/57/26 5/58/27 13/59/27 14/60/26
f 5/58/27 2/61/28 11/62/28 13/59/27
f 51/63/29 32/64/29 11/62/28 2/61/28
f 72/65/30 73/66/30 74/67/31 71/68/31
f 71/68/31 74/67/31 76/69/32 75/70/32
f 75/71/32 76/72/32 78/73/33 77/74/33
f 77/74/33 78/73/33 80/15/8 79/18/8
f 82/13/7 83/12/7 84/75/34 81/76/34
f 81/76/34 84/75/34 86/77/35 85/78/35
f 85/79/35 86/80/35 88/81/36 87/82/36
f 87/82/36 88/81/36 90/17/9 89/16/9
f 21/83/37 65/84/37 64/85/38 52/86/38
f 52/86/38 64/85/38 63/87/39 53/88/39
f 53/88/39 63/87/39 62/89/40 54/90/40
f 54/90/40 62/89/40 31/6/3 55/5/3
f 36/11/6 60/14/6 59/91/41 67/92/41
f 67/92/41 59/91/41 58/93/42 68/94/42
f 68/94/42 58/93/42 57/95/43 69/96/43
f 69/96/43 57/95/43 26/22/11 70/21/11
f 92/97/12 93/98/12 94/99/44 91/100/44
f 91/100/44 94/99/44 96/101/45 95/102/45
f 95/102/45 96/101/45 98/103/46 97/104/46
f 97/104/46 98/103/46 100/105/4 99/106/4
f 72/65/30 65/84/37 21/83/37 73/66/30
f 23/107/47 51/108/47 21/109/47 52/110/47
f 24/111/47 23/107/47 52/110/47 53/112/47
f 25/113/47 24/111/47 53/112/47 54/114/47
f 22/115/47 25/113/47 54/114/47 55/116/47
f 28/117/47 56/118/47 26/119/47 57/120/47
f 29/121/47 28/117/47 57/120/47 58/122/47
f 30/123/47 29/121/47 58/122/47 59/124/47
f 27/125/47 30/123/47 59/124/47 60/126/47
f 33/127/48 61/128/48 31/129/48 62/130/48
f 34/131/48 33/127/48 62/130/48 63/132/48
f 35/133/48 34/131/48 63/132/48 64/134/48
f 32/135/48 35/133/48 64/134/48 65/136/48
f 38/137/48 66/138/48 36/139/48 67/140/48
f 39/141/48 38/137/48 67/140/48 68/142/48
f 40/143/48 39/141/48 68/142/48 69/144/48
f 37/145/48 40/143/48 69/144/48 70/146/48
f 13/147/48 11/148/48 72/149/48 71/150/48
f 2/151/47 5/152/47 74/153/47 73/154/47
f 14/155/48 13/147/48 71/150/48 75/156/48
f 5/152/47 4/157/47 76/158/47 74/153/47
f 15/159/48 14/155/48 75/156/48 77/160/48
f 4/157/47 3/161/47 78/162/47 76/158/47
f 12/163/48 15/159/48 77/160/48 79/164/48
f 3/161/47 1/165/47 80/166/47 78/162/47
f 8/167/47 6/168/47 82/169/47 81/170/47
f 17/171/48 20/172/48 84/173/48 83/174/48
f 9/175/47 8/167/47 81/170/47 85/176/47
f 20/172/48 19/177/48 86/178/48 84/173/48
f 10/179/47 9/175/47 85/176/47 87/180/47
f 19/177/48 18/181/48 88/182/48 86/178/48
f 7/183/47 10/179/47 87/180/47 89/184/47
f 18/181/48 16/185/48 90/186/48 88/182/48
f 43/187/48 41/188/48 92/189/48 91/190/48
f 47/191/47 50/192/47 94/193/47 93/194/47
f 44/195/48 43/187/48 91/190/48 95/196/48
f 50/192/47 49/197/47 96/198/47 94/193/47
f 45/199/48 44/195/48 95/196/48 97/200/48
f 49/197/47 48/201/47 98/202/47 96/198/47
f 42/203/48 45/199/48 97/200/48 99/204/48
f 48/201/47 46/205/47 100/206/47 98/202/47
f 11/148/48 32/135/48 65/136/48 72/149/48
f 51/108/47 2/151/47 73/154/47 21/109/47
f 1/165/47 7/183/47 89/184/47 80/166/47
f 16/185/48 12/163/48 79/164/48 90/186/48
f 6/168/47 27/125/47 60/126/47 82/169/47
f 66/138/48 17/171/48 83/174/48 36/139/48
f 46/205/47 22/115/47 55/116/47 100/206/47
f 61/128/48 42/203/48 99/204/48 31/129/48
f 56/118/47 47/191/47 93/194/47 26/119/47
f 41/188/48 37/145/48 70/146/48 92/189/48
f 22/207/49 46/208/1 42/209/1 61/210/49
f 61/210/49 33/211/50 25/212/50 22/207/49
f 24/213/51 25/212/50 33/211/50 34/214/51
f 23/215/52 24/213/51 34/214/51 35/216/52
f 32/64/29 51/63/29 23/215/52 35/216/52
