# Blender v2.83.5 OBJ File: 'Arrows.blend'
# www.blender.org
mtllib Arrow_54.mtl
o Arrow_54
v -1.623062 0.789882 -0.371132
v -1.507547 -0.503753 -0.371132
v -1.468141 -0.426415 -0.371132
v -1.406765 -0.365039 -0.371132
v -1.329427 -0.325633 -0.371132
v -1.235700 -0.311741 -0.371132
v -1.235700 -0.311741 0.371132
v -1.329427 -0.325633 0.371132
v -1.406765 -0.365039 0.371132
v -1.468141 -0.426415 0.371132
v -1.507547 -0.503753 0.371132
v -1.521439 -0.597480 0.371132
v -1.935906 0.840020 -0.371132
v -2.217453 0.690048 -0.371132
v -2.440064 0.457318 -0.371132
v -2.582485 0.165087 -0.371132
v -2.631171 -0.150528 -0.371132
v -2.631171 -0.150529 0.371132
v -2.582485 0.165087 0.371132
v -2.440064 0.457318 0.371132
v -2.217453 0.690047 0.371132
v -1.935906 0.840020 0.371132
v -1.631420 0.891477 0.371132
v -2.574387 -2.034289 0.371131
v -2.574387 -2.034289 -0.371133
v 3.054636 0.366848 -0.371132
v -1.531529 -1.285129 0.371132
v -1.531529 -1.285129 -0.371132
v -1.631420 0.891477 -0.371132
v 1.847968 -0.596914 0.371132
v 1.847968 -0.596914 -0.371132
v 3.054636 0.212916 0.371132
v 1.857758 -0.656458 0.371132
v 1.857758 -0.656458 -0.371132
v 1.898458 -0.721137 0.371132
v 1.898458 -0.721137 -0.371132
v 1.974054 -0.756489 0.371132
v 1.949675 -0.330170 -0.371132
v 1.974054 -0.756489 -0.371132
v 2.049785 -0.746259 0.371132
v 2.101759 -0.715599 0.371132
v 2.101759 -0.715598 -0.371132
v 2.049785 -0.746259 -0.371132
v 1.829622 -0.210118 0.371132
v 1.847968 1.176679 -0.371131
v 1.847968 1.176678 0.371132
v 1.857758 1.236223 -0.371131
v 1.857758 1.236223 0.371132
v 1.898458 1.300902 -0.371131
v 1.949675 0.909935 0.371132
v 1.898458 1.300902 0.371132
v 1.974054 1.336254 -0.371131
v 1.974054 1.336254 0.371132
v 2.049785 1.326024 -0.371131
v 2.101759 1.295364 -0.371131
v 1.829622 0.789882 -0.371132
v 2.101759 1.295363 0.371132
v -1.521439 -0.597480 -0.371132
v 2.049785 1.326024 0.371132
v 1.848052 0.917933 -0.371132
v 1.846851 0.904337 -0.371132
v 1.844278 0.899287 -0.371132
v 1.840270 0.895280 -0.371132
v 1.835220 0.892707 -0.371132
v 1.821624 0.891506 -0.371132
v -1.623062 0.789882 0.371132
v 1.821624 0.891505 0.371132
v 1.835220 0.892706 0.371132
v 1.840270 0.895279 0.371132
v 1.844278 0.899287 0.371132
v 1.846851 0.904337 0.371132
v -2.529521 -0.158181 -0.371132
v 1.848052 0.917933 0.371132
v 1.848052 -0.338168 0.371132
v 1.846851 -0.324573 0.371132
v 1.844278 -0.319523 0.371132
v -1.623062 -0.589482 0.371132
v 1.840270 -0.315515 0.371132
v 1.835220 -0.312942 0.371132
v 1.821624 -0.311741 0.371132
v 1.821624 -0.311741 -0.371132
v 1.835220 -0.312942 -0.371132
v -1.243698 -0.210117 -0.371132
v 1.840270 -0.315515 -0.371132
v 1.844278 -0.319522 -0.371132
v 1.846851 -0.324572 -0.371132
v 1.848052 -0.338168 -0.371132
v 3.125995 0.439643 0.371132
v 3.165852 0.392004 0.371132
v 3.078598 0.339298 -0.371132
v 3.091195 0.306910 -0.371132
v 3.091195 0.272855 -0.371132
v 3.078598 0.240467 -0.371132
v 3.054636 0.212917 -0.371132
v 3.191384 0.325708 0.371132
v 3.078598 0.240467 0.371132
v 3.091195 0.272855 0.371132
v 3.091195 0.306910 0.371132
v 3.078598 0.339297 0.371132
v 3.054636 0.366848 0.371132
v 3.191384 0.254056 0.371132
v 1.943799 -0.293072 -0.371132
v 1.926747 -0.259605 -0.371132
v 1.900188 -0.233045 -0.371132
v 1.866721 -0.215993 -0.371132
v 1.829622 -0.210117 -0.371132
v 3.165852 0.187761 0.371132
v 1.866721 -0.215994 0.371132
v 1.900188 -0.233046 0.371132
v 1.926747 -0.259605 0.371132
v 1.943799 -0.293072 0.371132
v 1.949675 -0.330171 0.371132
v 3.125995 0.140122 0.371132
v 1.943799 0.872837 0.371132
v 1.926747 0.839370 0.371132
v 1.900188 0.812810 0.371132
v 1.866721 0.795758 0.371132
v 1.829622 0.789882 0.371132
v 3.125995 0.140122 -0.371132
v 1.866721 0.795758 -0.371132
v 1.900188 0.812811 -0.371132
v 1.926747 0.839370 -0.371132
v 1.943799 0.872837 -0.371132
v 1.949675 0.909935 -0.371132
v 2.013340 1.230824 0.371132
v 2.041811 1.212917 0.371132
v 2.041811 1.212917 -0.371131
v 2.013340 1.230825 -0.371131
v 1.987655 1.235228 0.371132
v 1.987655 1.235228 -0.371131
v 1.967272 1.225696 0.371132
v 1.967272 1.225696 -0.371131
v 1.954185 1.203161 0.371132
v 1.954185 1.203161 -0.371131
v 1.949675 1.169830 0.371132
v 1.949675 1.169830 -0.371131
v 2.013340 -0.651060 -0.371132
v 2.041811 -0.633152 -0.371132
v 2.041811 -0.633152 0.371132
v 2.013340 -0.651060 0.371132
v 1.987655 -0.655463 -0.371132
v 1.987655 -0.655463 0.371132
v 1.967272 -0.645931 -0.371132
v 1.967272 -0.645931 0.371132
v 1.954185 -0.623396 -0.371132
v 1.954185 -0.623396 0.371132
v 1.949675 -0.590065 -0.371132
v 1.949675 -0.590065 0.371132
v 3.165852 0.187761 -0.371132
v -1.623062 -1.240263 -0.371132
v -2.499044 -1.880246 -0.371132
v -2.499044 -1.880247 0.371131
v -1.623062 -1.240263 0.371132
v 3.191384 0.254057 -0.371132
v -1.903174 0.743481 0.371132
v -2.155865 0.608818 0.371132
v -2.356403 0.399076 0.371132
v -2.485156 0.134786 0.371132
v -2.529521 -0.158182 0.371132
v 3.191384 0.325709 -0.371132
v -2.485156 0.134786 -0.371132
v -2.356403 0.399077 -0.371132
v -2.155865 0.608818 -0.371132
v -1.903174 0.743481 -0.371132
v 3.165852 0.392004 -0.371132
v -1.604495 -0.472252 0.371132
v -1.550610 -0.366497 0.371132
v -1.466682 -0.282570 0.371132
v -1.360928 -0.228685 0.371132
v -1.243698 -0.210118 0.371132
v 3.125995 0.439643 -0.371132
v -1.360928 -0.228685 -0.371132
v -1.466682 -0.282570 -0.371132
v -1.550610 -0.366497 -0.371132
v -1.604495 -0.472252 -0.371132
v -1.623062 -0.589482 -0.371132
vt 0.811418 0.978162
vt 0.797126 0.978162
vt 0.797126 0.957054
vt 0.811418 0.957054
vt 0.176630 0.203025
vt 0.176630 0.188728
vt 0.177969 0.188728
vt 0.177969 0.203025
vt 0.778738 0.990063
vt 0.778738 0.977543
vt 0.793030 0.977543
vt 0.793030 0.990063
vt 0.301571 0.985731
vt 0.287280 0.985731
vt 0.287280 0.968526
vt 0.301571 0.968526
vt 0.251749 0.258214
vt 0.246544 0.260552
vt 0.245479 0.258902
vt 0.251082 0.256368
vt 0.276023 0.340018
vt 0.275534 0.339486
vt 0.277170 0.338400
vt 0.277243 0.338481
vt 0.284361 0.339958
vt 0.284310 0.339458
vt 0.286114 0.338684
vt 0.286315 0.340142
vt 0.364060 0.621495
vt 0.364060 0.685570
vt 0.349768 0.685570
vt 0.349768 0.621495
vt 0.242307 0.264307
vt 0.240795 0.263055
vt 0.275233 0.338828
vt 0.277077 0.338154
vt 0.197883 0.262948
vt 0.198541 0.263248
vt 0.197456 0.264884
vt 0.197210 0.264792
vt 0.181652 0.329858
vt 0.181065 0.335295
vt 0.179105 0.335404
vt 0.179724 0.329488
vt 0.227114 0.270333
vt 0.227165 0.269834
vt 0.229119 0.269650
vt 0.228918 0.271108
vt 0.239453 0.269111
vt 0.237628 0.268389
vt 0.199074 0.263738
vt 0.197536 0.264958
vt 0.238847 0.279933
vt 0.256685 0.343996
vt 0.254759 0.344373
vt 0.236920 0.280303
vt 0.238261 0.274496
vt 0.236301 0.274388
vt 0.259355 0.281804
vt 0.259094 0.279533
vt 0.261055 0.279616
vt 0.261282 0.281427
vt 0.199429 0.264368
vt 0.197590 0.265053
vt 0.284176 0.340578
vt 0.286015 0.341265
vt 0.216520 0.246048
vt 0.216133 0.245461
vt 0.217561 0.244114
vt 0.218239 0.245100
vt 0.259547 0.277292
vt 0.261386 0.277977
vt 0.199572 0.265077
vt 0.197611 0.265160
vt 0.215597 0.245060
vt 0.216464 0.243298
vt 0.260670 0.275301
vt 0.262208 0.276522
vt 0.199490 0.265796
vt 0.197563 0.265419
vt 0.226980 0.269213
vt 0.228819 0.268527
vt 0.214966 0.244884
vt 0.215135 0.242928
vt 0.276503 0.269441
vt 0.283847 0.249880
vt 0.286315 0.247686
vt 0.277808 0.270907
vt 0.262353 0.273755
vt 0.263439 0.275391
vt 0.214300 0.244950
vt 0.213773 0.243059
vt 0.226652 0.359912
vt 0.219307 0.340351
vt 0.220612 0.338884
vt 0.229119 0.362106
vt 0.264432 0.272804
vt 0.265105 0.274648
vt 0.192468 0.261348
vt 0.193063 0.261604
vt 0.192410 0.263456
vt 0.191356 0.262967
vt 0.213665 0.245252
vt 0.212683 0.243552
vt 0.218038 0.270964
vt 0.218338 0.270306
vt 0.219974 0.271391
vt 0.219881 0.271637
vt 0.220166 0.269274
vt 0.220885 0.269357
vt 0.220508 0.271284
vt 0.220250 0.271236
vt 0.364060 0.615377
vt 0.364060 0.615813
vt 0.349768 0.615813
vt 0.349768 0.615377
vt 0.364060 0.616267
vt 0.349768 0.616267
vt 0.364060 0.616694
vt 0.349768 0.616694
vt 0.364060 0.617053
vt 0.349768 0.617053
vt 0.364060 0.617309
vt 0.349768 0.617309
vt 0.797126 0.956473
vt 0.811418 0.956473
vt 0.797126 0.955972
vt 0.811418 0.955972
vt 0.797126 0.955601
vt 0.811418 0.955601
vt 0.797126 0.955395
vt 0.811418 0.955395
vt 0.178057 0.203025
vt 0.178058 0.188728
vt 0.287280 0.967974
vt 0.301571 0.967974
vt 0.287280 0.967339
vt 0.301571 0.967339
vt 0.287280 0.966684
vt 0.301571 0.966684
vt 0.287280 0.966072
vt 0.301571 0.966072
vt 0.797126 0.978677
vt 0.811418 0.978677
vt 0.176548 0.203025
vt 0.176548 0.188728
vt 0.811847 0.867779
vt 0.811847 0.867520
vt 0.826138 0.867520
vt 0.826138 0.867779
vt 0.811847 0.867065
vt 0.826138 0.867065
vt 0.811847 0.866459
vt 0.826138 0.866459
vt 0.811847 0.865760
vt 0.826138 0.865760
vt 0.349768 0.620777
vt 0.364060 0.620777
vt 0.349768 0.620068
vt 0.364060 0.620068
vt 0.349768 0.619438
vt 0.364060 0.619438
vt 0.349768 0.618949
vt 0.364060 0.618949
vt 0.349768 0.618648
vt 0.364060 0.618648
vt 0.207236 0.336987
vt 0.207909 0.335143
vt 0.364060 0.707280
vt 0.364060 0.715592
vt 0.349768 0.715592
vt 0.349768 0.707280
vt 0.993848 0.744482
vt 0.993848 0.762553
vt 0.979557 0.762553
vt 0.979557 0.744482
vt 0.250258 0.348187
vt 0.249664 0.348443
vt 0.248552 0.346825
vt 0.249606 0.346335
vt 0.218827 0.269773
vt 0.220048 0.271311
vt 0.219457 0.269417
vt 0.220143 0.271257
vt 0.349768 0.704947
vt 0.364060 0.704947
vt 0.349768 0.701195
vt 0.364060 0.701195
vt 0.349768 0.696392
vt 0.364060 0.696392
vt 0.349768 0.691008
vt 0.364060 0.691008
vt 0.811847 0.806891
vt 0.826138 0.806891
vt 0.194553 0.351577
vt 0.193886 0.353424
vt 0.202160 0.327988
vt 0.204086 0.328364
vt 0.811847 0.804608
vt 0.826138 0.804608
vt 0.811847 0.802474
vt 0.826138 0.802474
vt 0.811847 0.800697
vt 0.826138 0.800697
vt 0.778738 0.994287
vt 0.778738 0.992302
vt 0.793030 0.992302
vt 0.793030 0.994287
vt 0.192117 0.260989
vt 0.190367 0.261877
vt 0.256768 0.344715
vt 0.254807 0.344631
vt 0.256625 0.345424
vt 0.254786 0.344738
vt 0.192046 0.260562
vt 0.190102 0.260292
vt 0.273716 0.363744
vt 0.275435 0.364691
vt 0.256269 0.346054
vt 0.254732 0.344833
vt 0.249313 0.348802
vt 0.249242 0.349230
vt 0.247298 0.349500
vt 0.247563 0.347914
vt 0.282901 0.339092
vt 0.278080 0.340435
vt 0.277704 0.338508
vt 0.282503 0.337169
vt 0.255737 0.346543
vt 0.254652 0.344907
vt 0.255079 0.346844
vt 0.254406 0.345000
vt 0.192260 0.260108
vt 0.190683 0.258940
vt 0.225705 0.270700
vt 0.225307 0.272622
vt 0.249456 0.349684
vt 0.247879 0.350852
vt 0.283542 0.339003
vt 0.283658 0.337043
vt 0.226347 0.270788
vt 0.226462 0.272749
vt 0.270861 0.364539
vt 0.271496 0.364841
vt 0.270969 0.366733
vt 0.269879 0.366239
vt 0.182257 0.340680
vt 0.180433 0.341403
vt 0.192739 0.259672
vt 0.191520 0.258134
vt 0.272161 0.364908
vt 0.272330 0.366864
vt 0.185112 0.345485
vt 0.183599 0.346736
vt 0.284028 0.339129
vt 0.285067 0.337464
vt 0.272793 0.364732
vt 0.273659 0.366493
vt 0.189348 0.349240
vt 0.188284 0.350889
vt 0.205158 0.336037
vt 0.206243 0.334401
vt 0.249935 0.350119
vt 0.248716 0.351658
vt 0.226832 0.270662
vt 0.227872 0.272328
vt 0.273329 0.364330
vt 0.274757 0.365677
vt 0.203475 0.334490
vt 0.205012 0.333270
vt 0.277362 0.340517
vt 0.277445 0.338556
vt 0.202351 0.332499
vt 0.204191 0.331814
vt 0.276653 0.340374
vt 0.277338 0.338534
vt 0.201898 0.330259
vt 0.203859 0.330175
vt 0.797924 0.405196
vt 0.812215 0.405196
vt 0.812215 0.405937
vt 0.797924 0.405937
vt 0.797924 0.404066
vt 0.812215 0.404066
vt 0.797924 0.402611
vt 0.812215 0.402611
vt 0.797924 0.400972
vt 0.812215 0.400972
vt 0.797924 0.399161
vt 0.812215 0.399161
vt 0.797924 0.342423
vt 0.812215 0.342423
vt 0.833397 0.631691
vt 0.847688 0.631691
vt 0.847688 0.637627
vt 0.833397 0.637627
vt 0.833397 0.625996
vt 0.847688 0.625996
vt 0.833397 0.621262
vt 0.847688 0.621262
vt 0.102719 0.880828
vt 0.088427 0.880828
vt 0.088427 0.875336
vt 0.102719 0.875336
vt 0.102719 0.886856
vt 0.088427 0.886856
vt 0.797924 0.409670
vt 0.812215 0.409670
vt 0.812215 0.432885
vt 0.797924 0.432885
vt 0.102719 0.923150
vt 0.088427 0.923150
vt 0.994498 0.525690
vt 0.999474 0.525690
vt 0.999474 0.539987
vt 0.994498 0.539987
vt 0.999735 0.525690
vt 0.999735 0.539987
vt 0.999829 0.525690
vt 0.999829 0.539987
vt 0.833397 0.704135
vt 0.847688 0.704135
vt 0.847688 0.704220
vt 0.833397 0.704220
vt 0.833397 0.704033
vt 0.847688 0.704033
vt 0.833397 0.703770
vt 0.847688 0.703770
vt 0.797924 0.342177
vt 0.812215 0.342177
vt 0.797924 0.342097
vt 0.812215 0.342097
vt 0.992069 0.094877
vt 0.992069 0.109174
vt 0.991988 0.109174
vt 0.991988 0.094877
vt 0.992168 0.094877
vt 0.992168 0.109174
vt 0.992431 0.094877
vt 0.992431 0.109174
vt 0.965967 0.028647
vt 0.951675 0.028647
vt 0.951675 0.027662
vt 0.965967 0.027662
vt 0.965967 0.029463
vt 0.951675 0.029463
vt 0.965967 0.029832
vt 0.951675 0.029832
vt 0.967049 0.587982
vt 0.981341 0.587982
vt 0.981341 0.588337
vt 0.967049 0.588337
vt 0.967049 0.587315
vt 0.981341 0.587315
vt 0.998561 0.094877
vt 0.998561 0.109174
vt 0.997407 0.109174
vt 0.997407 0.094877
vt 0.999842 0.094877
vt 0.999842 0.109174
vt 0.965967 0.001662
vt 0.951675 0.001662
vt 0.951675 0.000441
vt 0.965967 0.000441
vt 0.965967 0.003120
vt 0.951675 0.003120
vt 0.965967 0.004242
vt 0.951675 0.004242
vt 0.993362 0.539987
vt 0.993362 0.525690
vt 0.992155 0.539987
vt 0.992155 0.525690
vt 0.981341 0.567059
vt 0.967049 0.567059
vt 0.967049 0.565540
vt 0.981341 0.565540
vt 0.981341 0.568489
vt 0.967049 0.568489
vt 0.981341 0.569423
vt 0.967049 0.569423
vn -0.7000 0.7141 0.0000
vn -0.5881 0.8088 0.0000
vn 0.9969 0.0785 0.0000
vn 0.9977 0.0672 0.0000
vn -0.9969 0.0785 0.0000
vn -1.0000 0.0000 0.0000
vn -0.5881 -0.8088 -0.0000
vn -0.7000 -0.7141 -0.0000
vn 0.0000 -0.0000 1.0000
vn 0.0785 -0.9969 -0.0000
vn 0.0820 -0.9966 -0.0000
vn -0.0000 0.0000 -1.0000
vn -0.3575 -0.9339 -0.0000
vn 0.1334 -0.9911 -0.0000
vn 0.6751 -0.7378 -0.0000
vn 0.9459 -0.3243 -0.0000
vn 0.9977 -0.0672 -0.0000
vn -0.3575 0.9339 0.0000
vn 0.1334 0.9911 0.0000
vn 0.6751 0.7378 0.0000
vn 0.9459 0.3243 0.0000
vn -0.8560 -0.5170 -0.0000
vn -0.9828 -0.1844 -0.0000
vn -0.9828 0.1844 0.0000
vn -0.8560 0.5170 0.0000
vn 0.9511 0.3090 0.0000
vn 0.8090 0.5878 0.0000
vn 0.5878 0.8090 0.0000
vn 0.3090 0.9511 0.0000
vn 0.0785 0.9969 0.0000
vn 0.3090 -0.9511 -0.0000
vn 0.5878 -0.8090 -0.0000
vn 0.8090 -0.5878 -0.0000
vn 0.9511 -0.3090 -0.0000
vn 0.9969 -0.0785 -0.0000
vn 0.9978 -0.0662 -0.0000
vn 0.9998 0.0177 0.0000
vn -0.5899 0.8075 0.0000
vn 0.9548 -0.2972 -0.0000
vn 0.8207 -0.5713 -0.0000
vn 0.6042 -0.7969 -0.0000
vn 0.3211 -0.9470 -0.0000
vn -0.0785 0.9969 0.0000
vn -0.3090 0.9511 0.0000
vn -0.5878 0.8090 0.0000
vn -0.8090 0.5878 0.0000
vn -0.9511 0.3090 0.0000
vn 0.9526 -0.3043 -0.0000
vn 0.9967 -0.0808 -0.0000
vn 0.3043 -0.9526 -0.0000
vn 0.0735 -0.9973 -0.0000
vn -0.0440 -0.9990 -0.0000
vn -0.3226 0.9466 0.0000
vn -0.0836 0.9965 0.0000
vn -0.6040 0.7970 0.0000
vn -0.8206 0.5715 0.0000
vn -0.9544 0.2986 0.0000
vn -0.9981 0.0614 0.0000
vn 0.5834 -0.8122 -0.0000
vn -0.9995 -0.0301 -0.0000
vn -0.9967 0.0812 0.0000
vn -0.9990 0.0439 0.0000
vn -0.9611 0.2760 0.0000
vn -0.2760 0.9611 0.0000
vn -0.0440 0.9990 0.0000
vn -0.2760 -0.9611 -0.0000
vn -0.5878 -0.8090 -0.0000
vn -0.8090 -0.5878 -0.0000
vn -0.9611 -0.2760 -0.0000
vn -0.9990 -0.0439 -0.0000
vn 0.8617 -0.5074 -0.0000
vn 0.7069 -0.7073 -0.0000
vn 0.9832 -0.1828 -0.0000
vn 0.9832 0.1828 0.0000
vn 0.8617 0.5074 0.0000
vn 0.7069 0.7073 0.0000
vn -0.9351 -0.3544 -0.0000
vn -0.9967 -0.0812 -0.0000
vn -0.6619 -0.7496 -0.0000
vn -0.1510 -0.9885 -0.0000
vn 0.3275 -0.9449 -0.0000
vn 0.5765 -0.8171 -0.0000
vn -0.9351 0.3544 0.0000
vn -0.6618 0.7496 0.0000
vn -0.1510 0.9885 0.0000
vn 0.3275 0.9449 0.0000
vn 0.5765 0.8171 0.0000
vn 0.9999 -0.0147 -0.0000
usemtl Material.001
s 1
f 32/1/1 94/2/1 138/3/2 139/4/2
f 38/5/3 112/6/3 148/7/4 147/8/4
f 176/9/5 150/10/6 153/11/6 77/12/5
f 126/13/7 127/14/7 26/15/8 100/16/8
f 159/17/9 158/18/9 19/19/9 18/20/9
f 109/21/9 108/22/9 79/23/9 78/24/9
f 140/25/9 142/26/9 37/27/9 40/28/9
f 118/29/10 66/30/11 1/31/11 56/32/10
f 158/18/9 157/33/9 20/34/9 19/19/9
f 108/22/9 44/35/9 80/36/9 79/23/9
f 124/37/12 123/38/12 61/39/12 60/40/12
f 1/41/12 164/42/12 13/43/12 29/44/12
f 141/45/12 137/46/12 43/47/12 39/48/12
f 157/33/9 156/49/9 21/50/9 20/34/9
f 123/38/12 122/51/12 62/52/12 61/39/12
f 66/53/9 118/54/9 67/55/9 23/56/9
f 156/49/9 155/57/9 22/58/9 21/50/9
f 170/59/9 169/60/9 8/61/9 7/62/9
f 122/51/12 121/63/12 63/64/12 62/52/12
f 139/65/9 140/25/9 40/28/9 41/66/9
f 94/67/12 93/68/12 149/69/12 119/70/12
f 155/57/9 66/53/9 23/56/9 22/58/9
f 169/60/9 168/71/9 9/72/9 8/61/9
f 121/63/12 120/73/12 64/74/12 63/64/12
f 93/68/12 92/75/12 154/76/12 149/69/12
f 168/71/9 167/77/9 10/78/9 9/72/9
f 120/73/12 56/79/12 65/80/12 64/74/12
f 137/46/12 138/81/12 42/82/12 43/47/12
f 92/75/12 91/83/12 160/84/12 154/76/12
f 153/85/9 152/86/9 24/87/9 27/88/9
f 167/77/9 166/89/9 11/90/9 10/78/9
f 91/83/12 90/91/12 165/92/12 160/84/12
f 151/93/12 150/94/12 28/95/12 25/96/12
f 166/89/9 77/97/9 12/98/9 11/90/9
f 77/97/9 153/85/9 27/88/9 12/98/9
f 134/99/12 136/100/12 45/101/12 47/102/12
f 90/91/12 26/103/12 171/104/12 165/92/12
f 106/105/12 105/106/12 82/107/12 81/108/12
f 102/109/12 38/110/12 87/111/12 86/112/12
f 126/113/7 125/114/13 128/115/13 127/116/7
f 125/114/13 129/117/14 130/118/14 128/115/13
f 129/117/14 131/119/15 132/120/15 130/118/14
f 131/119/15 133/121/16 134/122/16 132/120/15
f 133/121/16 135/123/17 136/124/17 134/122/16
f 138/3/2 137/125/18 140/126/18 139/4/2
f 137/125/18 141/127/19 142/128/19 140/126/18
f 141/127/19 143/129/20 144/130/20 142/128/19
f 143/129/20 145/131/21 146/132/21 144/130/20
f 145/133/21 147/8/4 148/7/4 146/134/21
f 26/15/8 90/135/22 99/136/22 100/16/8
f 90/135/22 91/137/23 98/138/23 99/136/22
f 91/137/23 92/139/24 97/140/24 98/138/23
f 92/139/24 93/141/25 96/142/25 97/140/24
f 93/143/25 94/2/1 32/1/1 96/144/25
f 38/5/3 102/145/26 111/146/26 112/6/3
f 102/147/26 103/148/27 110/149/27 111/150/26
f 103/148/27 104/151/28 109/152/28 110/149/27
f 104/151/28 105/153/29 108/154/29 109/152/28
f 105/153/29 106/155/30 44/156/30 108/154/29
f 56/32/10 120/157/31 117/158/31 118/29/10
f 120/157/31 121/159/32 116/160/32 117/158/31
f 121/159/32 122/161/33 115/162/33 116/160/32
f 122/161/33 123/163/34 114/164/34 115/162/33
f 123/163/34 124/165/35 50/166/35 114/164/34
f 136/124/17 135/123/17 50/166/35 124/165/35
f 150/94/12 176/167/12 58/168/12 28/95/12
f 159/169/36 152/170/37 151/171/37 72/172/36
f 150/173/38 151/174/38 152/175/38 153/176/38
f 135/177/9 133/178/9 48/179/9 46/180/9
f 105/106/12 104/181/12 84/182/12 82/107/12
f 44/35/9 170/59/9 7/62/9 80/36/9
f 56/79/12 1/41/12 29/44/12 65/80/12
f 104/181/12 103/183/12 85/184/12 84/182/12
f 72/172/36 161/185/39 158/186/39 159/169/36
f 161/185/39 162/187/40 157/188/40 158/186/39
f 162/187/40 163/189/41 156/190/41 157/188/40
f 163/189/41 164/191/42 155/192/42 156/190/41
f 164/191/42 1/31/11 66/30/11 155/192/42
f 106/155/30 83/193/43 170/194/43 44/156/30
f 72/195/12 151/93/12 25/96/12 17/196/12
f 83/197/12 106/105/12 81/108/12 6/198/12
f 83/193/43 172/199/44 169/200/44 170/194/43
f 172/199/44 173/201/45 168/202/45 169/200/44
f 173/201/45 174/203/46 167/204/46 168/202/45
f 174/205/46 175/206/47 166/207/47 167/208/46
f 175/206/47 176/9/5 77/12/5 166/207/47
f 132/209/12 134/99/12 47/102/12 49/210/12
f 118/54/9 117/211/9 68/212/9 67/55/9
f 117/211/9 116/213/9 69/214/9 68/212/9
f 130/215/12 132/209/12 49/210/12 52/216/12
f 32/217/9 139/65/9 41/66/9 113/218/9
f 116/213/9 115/219/9 70/220/9 69/214/9
f 131/221/9 129/222/9 53/223/9 51/224/9
f 148/225/9 112/226/9 74/227/9 30/228/9
f 115/219/9 114/229/9 71/230/9 70/220/9
f 114/229/9 50/231/9 73/232/9 71/230/9
f 128/233/12 130/215/12 52/216/12 54/234/12
f 38/110/12 147/235/12 31/236/12 87/111/12
f 129/222/9 125/237/9 59/238/9 53/223/9
f 146/239/9 148/225/9 30/228/9 33/240/9
f 138/81/12 94/67/12 119/70/12 42/82/12
f 147/235/12 145/241/12 34/242/12 31/236/12
f 100/243/9 99/244/9 89/245/9 88/246/9
f 164/42/12 163/247/12 14/248/12 13/43/12
f 127/249/12 128/233/12 54/234/12 55/250/12
f 99/244/9 98/251/9 95/252/9 89/245/9
f 163/247/12 162/253/12 15/254/12 14/248/12
f 144/255/9 146/239/9 33/240/9 35/256/9
f 26/103/12 127/249/12 55/250/12 171/104/12
f 98/251/9 97/257/9 101/258/9 95/252/9
f 162/253/12 161/259/12 16/260/12 15/254/12
f 176/167/12 175/261/12 2/262/12 58/168/12
f 125/237/9 126/263/9 57/264/9 59/238/9
f 145/241/12 143/265/12 36/266/12 34/242/12
f 126/263/9 100/243/9 88/246/9 57/264/9
f 133/178/9 131/221/9 51/224/9 48/179/9
f 152/86/9 159/17/9 18/20/9 24/87/9
f 103/183/12 102/109/12 86/112/12 85/184/12
f 97/257/9 96/267/9 107/268/9 101/258/9
f 161/259/12 72/195/12 17/196/12 16/260/12
f 175/261/12 174/269/12 3/270/12 2/262/12
f 50/231/9 135/177/9 46/180/9 73/232/9
f 96/267/9 32/217/9 113/218/9 107/268/9
f 112/226/9 111/271/9 75/272/9 74/227/9
f 174/269/12 173/273/12 4/274/12 3/270/12
f 142/26/9 144/255/9 35/256/9 37/27/9
f 136/100/12 124/37/12 60/40/12 45/101/12
f 111/271/9 110/275/9 76/276/9 75/272/9
f 173/273/12 172/277/12 5/278/12 4/274/12
f 143/265/12 141/45/12 39/48/12 36/266/12
f 110/275/9 109/21/9 78/24/9 76/276/9
f 172/277/12 83/197/12 6/198/12 5/278/12
f 2/279/48 11/280/48 12/281/49 58/282/49
f 3/283/33 10/284/33 11/280/48 2/279/48
f 4/285/32 9/286/32 10/284/33 3/283/33
f 5/287/50 8/288/50 9/286/32 4/285/32
f 6/289/51 7/290/51 8/288/50 5/287/50
f 81/291/52 80/292/52 7/290/51 6/289/51
f 13/293/53 22/294/53 23/295/54 29/296/54
f 14/297/55 21/298/55 22/294/53 13/293/53
f 15/299/56 20/300/56 21/298/55 14/297/55
f 16/301/57 19/302/57 20/303/56 15/304/56
f 17/305/58 18/306/58 19/302/57 16/301/57
f 28/307/59 27/308/59 24/309/59 25/310/59
f 18/306/58 17/305/58 25/311/60 24/312/60
f 45/313/61 60/314/62 73/315/62 46/316/61
f 61/317/63 71/318/63 73/315/62 60/314/62
f 62/319/46 70/320/46 71/318/63 61/317/63
f 63/321/45 69/322/45 70/323/46 62/324/46
f 64/325/64 68/326/64 69/322/45 63/321/45
f 65/327/65 67/328/65 68/326/64 64/325/64
f 82/329/66 79/330/66 80/292/52 81/291/52
f 84/331/67 78/332/67 79/330/66 82/329/66
f 85/333/68 76/334/68 78/335/67 84/336/67
f 86/337/69 75/338/69 76/334/68 85/333/68
f 87/339/70 74/340/70 75/338/69 86/337/69
f 149/341/71 107/342/71 113/343/72 119/344/72
f 154/345/73 101/346/73 107/342/71 149/341/71
f 160/347/74 95/348/74 101/346/73 154/345/73
f 165/349/75 89/350/75 95/351/74 160/352/74
f 171/353/76 88/354/76 89/350/75 165/349/75
f 34/355/77 33/356/77 30/357/78 31/358/78
f 36/359/79 35/360/79 33/356/77 34/355/77
f 39/361/80 37/362/80 35/363/79 36/364/79
f 43/365/81 40/366/81 37/362/80 39/361/80
f 42/367/82 41/368/82 40/366/81 43/365/81
f 48/369/83 47/370/83 45/313/61 46/316/61
f 51/371/84 49/372/84 47/370/83 48/369/83
f 53/373/85 52/374/85 49/375/84 51/376/84
f 59/377/86 54/378/86 52/374/85 53/373/85
f 57/379/87 55/380/87 54/378/86 59/377/86
f 67/328/65 65/327/65 29/296/54 23/295/54
f 57/379/87 88/354/76 171/353/76 55/380/87
f 58/282/49 12/281/49 27/308/88 28/307/88
f 87/339/70 31/358/78 30/357/78 74/340/70
f 113/343/72 41/368/82 42/367/82 119/344/72
