# Blender v2.83.5 OBJ File: 'Arrows.blend'
# www.blender.org
mtllib Arrow_34.mtl
o Arrow_34
v -0.442709 0.687558 -0.371132
v -0.446251 0.681815 -0.371132
v -0.509009 0.724480 -0.371132
v -0.450465 0.691180 -0.371132
v -0.455618 0.693006 -0.371132
v -0.457818 0.692912 -0.371132
v -0.456914 0.690904 -0.371132
v -0.452969 0.687119 -0.371132
v -0.446251 -0.681814 -0.371132
v -0.442709 -0.687558 -0.371132
v -0.509009 -0.724480 -0.371132
v -0.452969 -0.687119 -0.371132
v -0.456914 -0.690903 -0.371132
v -0.457818 -0.692912 -0.371132
v -0.455618 -0.693006 -0.371132
v -0.450465 -0.691180 -0.371132
v -0.446251 0.681814 0.371132
v -0.442709 0.687558 0.371132
v -0.509009 0.724480 0.371132
v -0.452969 0.687119 0.371132
v -0.456914 0.690903 0.371132
v -0.457818 0.692912 0.371132
v -0.455618 0.693006 0.371132
v -0.450465 0.691180 0.371132
v -0.442709 -0.687558 0.371132
v -0.446251 -0.681815 0.371132
v -0.509009 -0.724480 0.371132
v -0.450465 -0.691180 0.371132
v -0.455618 -0.693006 0.371132
v -0.457818 -0.692912 0.371132
v -0.456914 -0.690904 0.371132
v -0.452969 -0.687119 0.371132
v 0.898435 -0.016986 -0.371132
v 0.898435 0.016986 -0.371132
v 0.970388 0.000000 -0.371132
v 0.906070 -0.012011 -0.371132
v 0.910869 -0.006217 -0.371132
v 0.912506 0.000000 -0.371132
v 0.910869 0.006217 -0.371132
v 0.906070 0.012011 -0.371132
v 0.436134 0.022729 -0.371132
v 0.436134 -0.022729 -0.371132
v 0.428582 0.000000 -0.371132
v 0.442973 0.016072 -0.371132
v 0.447272 0.008320 -0.371132
v 0.448739 0.000000 -0.371132
v 0.447272 -0.008319 -0.371132
v 0.442973 -0.016072 -0.371132
v 0.436134 -0.022729 0.371132
v 0.436134 0.022729 0.371132
v 0.428582 -0.000000 0.371132
v 0.442973 -0.016072 0.371132
v 0.447272 -0.008320 0.371132
v 0.448739 -0.000000 0.371132
v 0.447272 0.008319 0.371132
v 0.442973 0.016072 0.371132
v 1.010238 -0.016986 0.371132
v 1.010238 0.016986 0.371132
v 1.006228 -0.000000 0.371132
v 1.017873 -0.012011 0.371132
v 1.022672 -0.006217 0.371132
v 1.024309 -0.000000 0.371132
v 1.022672 0.006217 0.371132
v 1.017873 0.012011 0.371132
v 0.352582 -0.022729 -0.371132
v 0.352582 0.022729 -0.371132
v 0.420993 0.000000 -0.371132
v 0.359421 -0.016072 -0.371132
v 0.363720 -0.008319 -0.371132
v 0.365186 0.000000 -0.371132
v 0.363720 0.008320 -0.371132
v 0.359421 0.016072 -0.371132
v -0.921819 -0.983014 -0.371132
v -0.925360 -0.977271 -0.371132
v -0.923462 -0.980064 -0.371132
v -0.929574 -0.986636 -0.371132
v -0.934728 -0.988462 -0.371132
v -0.936928 -0.988368 -0.371132
v -0.936024 -0.986360 -0.371132
v -0.932079 -0.982575 -0.371132
v 0.352582 0.022729 0.371132
v 0.352582 -0.022729 0.371132
v 0.420993 -0.000000 0.371132
v 0.359421 0.016072 0.371132
v 0.363720 0.008319 0.371132
v 0.365186 -0.000000 0.371132
v 0.363720 -0.008320 0.371132
v 0.359421 -0.016072 0.371132
v -0.921819 0.983014 0.371132
v -0.925360 0.977271 0.371132
v -0.923462 0.980064 0.371132
v -0.929574 0.986636 0.371132
v -0.934728 0.988462 0.371132
v -0.936928 0.988368 0.371132
v -0.936024 0.986360 0.371132
v -0.932079 0.982575 0.371132
v 1.010238 0.016986 -0.371132
v 1.010238 -0.016986 -0.371132
v 1.006228 0.000000 -0.371132
v 1.017873 0.012011 -0.371132
v 1.022672 0.006217 -0.371132
v 1.024309 0.000000 -0.371132
v 1.022672 -0.006217 -0.371132
v 1.017873 -0.012011 -0.371132
v -0.925360 0.977271 -0.371132
v -0.921819 0.983014 -0.371132
v -0.923462 0.980064 -0.371132
v -0.932079 0.982575 -0.371132
v -0.936024 0.986360 -0.371132
v -0.936928 0.988368 -0.371132
v -0.934728 0.988462 -0.371132
v -0.929574 0.986636 -0.371132
v -0.925360 -0.977271 0.371132
v -0.921819 -0.983014 0.371132
v -0.923462 -0.980064 0.371132
v -0.932079 -0.982575 0.371132
v -0.936024 -0.986360 0.371132
v -0.936928 -0.988368 0.371132
v -0.934728 -0.988462 0.371132
v -0.929574 -0.986636 0.371132
v 0.898435 0.016986 0.371132
v 0.898435 -0.016986 0.371132
v 0.970388 -0.000000 0.371132
v 0.906070 0.012011 0.371132
v 0.910869 0.006217 0.371132
v 0.912506 -0.000000 0.371132
v 0.910869 -0.006217 0.371132
v 0.906070 -0.012011 0.371132
vt 0.991712 0.579709
vt 0.981743 0.579709
vt 0.981743 0.565412
vt 0.991712 0.565412
vt 0.804982 0.522843
vt 0.803773 0.522022
vt 0.786784 0.509327
vt 0.786929 0.508889
vt 0.787075 0.508889
vt 0.788392 0.509327
vt 0.812998 0.527712
vt 0.812961 0.527766
vt 0.804982 0.494935
vt 0.803705 0.495646
vt 0.777883 0.508562
vt 0.776497 0.508889
vt 0.775807 0.508889
vt 0.775730 0.508562
vt 0.812930 0.489956
vt 0.812961 0.490013
vt 0.936955 0.042155
vt 0.936955 0.000928
vt 0.951247 0.000928
vt 0.951247 0.042155
vt 0.873129 0.790633
vt 0.873129 0.759911
vt 0.887421 0.759911
vt 0.887421 0.790633
vt 0.552922 0.981608
vt 0.538631 0.981608
vt 0.538631 0.960414
vt 0.552922 0.960414
vt 0.777883 0.509216
vt 0.803705 0.522132
vt 0.812930 0.527823
vt 0.775730 0.509216
vt 0.966615 0.432978
vt 0.952323 0.432978
vt 0.952323 0.404591
vt 0.966615 0.404591
vt 0.615546 0.510669
vt 0.614269 0.511380
vt 0.588447 0.524296
vt 0.587061 0.524623
vt 0.586371 0.524623
vt 0.586294 0.524296
vt 0.623494 0.505689
vt 0.623526 0.505746
vt 0.597493 0.524623
vt 0.597348 0.524185
vt 0.614337 0.511490
vt 0.623562 0.505800
vt 0.598956 0.524185
vt 0.597639 0.524623
vt 0.786784 0.508452
vt 0.803773 0.495757
vt 0.812998 0.490066
vt 0.788392 0.508452
vt 0.588447 0.524950
vt 0.614269 0.537866
vt 0.615546 0.538577
vt 0.623526 0.543500
vt 0.623494 0.543556
vt 0.586294 0.524950
vt 0.614337 0.537755
vt 0.597348 0.525060
vt 0.598956 0.525060
vt 0.623562 0.543446
vt 0.223166 0.975097
vt 0.223166 0.993502
vt 0.208875 0.993502
vt 0.208875 0.975097
vt 0.634897 0.974774
vt 0.640764 0.974774
vt 0.640764 0.989071
vt 0.634897 0.989071
vt 0.803854 0.522202
vt 0.803954 0.522237
vt 0.803996 0.522235
vt 0.803979 0.522197
vt 0.803903 0.522124
vt 0.803903 0.495655
vt 0.803979 0.495582
vt 0.803996 0.495543
vt 0.803954 0.495541
vt 0.803854 0.495577
vt 0.614467 0.511388
vt 0.614543 0.511315
vt 0.614560 0.511277
vt 0.614518 0.511275
vt 0.614418 0.511310
vt 0.614418 0.537935
vt 0.614518 0.537971
vt 0.614560 0.537969
vt 0.614543 0.537930
vt 0.614467 0.537857
vt 0.777735 0.508658
vt 0.777643 0.508770
vt 0.777612 0.508889
vt 0.777643 0.509009
vt 0.777735 0.509121
vt 0.786652 0.509199
vt 0.786569 0.509050
vt 0.786541 0.508889
vt 0.786569 0.508729
vt 0.786652 0.508580
vt 0.597216 0.524932
vt 0.597133 0.524783
vt 0.597105 0.524623
vt 0.597133 0.524462
vt 0.597216 0.524313
vt 0.586147 0.524854
vt 0.586055 0.524742
vt 0.586023 0.524623
vt 0.586055 0.524503
vt 0.586147 0.524391
vt 0.788261 0.508580
vt 0.788178 0.508729
vt 0.788150 0.508889
vt 0.788178 0.509050
vt 0.788261 0.509199
vt 0.813079 0.489886
vt 0.813178 0.489851
vt 0.813221 0.489853
vt 0.813203 0.489891
vt 0.813127 0.489964
vt 0.598825 0.524313
vt 0.598742 0.524462
vt 0.598714 0.524623
vt 0.598742 0.524783
vt 0.598825 0.524932
vt 0.623643 0.505619
vt 0.623742 0.505584
vt 0.623785 0.505586
vt 0.623767 0.505625
vt 0.623691 0.505697
vt 0.775583 0.509121
vt 0.775490 0.509009
vt 0.775459 0.508889
vt 0.775490 0.508770
vt 0.775583 0.508658
vt 0.813127 0.527815
vt 0.813203 0.527887
vt 0.813221 0.527926
vt 0.813178 0.527928
vt 0.813079 0.527893
vt 0.623691 0.543548
vt 0.623767 0.543621
vt 0.623785 0.543659
vt 0.623742 0.543661
vt 0.623643 0.543626
vt 0.588300 0.524391
vt 0.588207 0.524503
vt 0.588176 0.524623
vt 0.588207 0.524742
vt 0.588300 0.524854
vt 0.208875 0.975020
vt 0.223166 0.975020
vt 0.208875 0.974963
vt 0.223166 0.974963
vt 0.208875 0.974928
vt 0.223166 0.974928
vt 0.208875 0.974918
vt 0.223166 0.974918
vt 0.991783 0.565412
vt 0.991783 0.579709
vt 0.991762 0.579709
vt 0.991762 0.565412
vt 0.936955 0.000765
vt 0.951247 0.000765
vt 0.936955 0.000664
vt 0.951247 0.000664
vt 0.936955 0.000630
vt 0.951247 0.000630
vt 0.873129 0.759605
vt 0.887421 0.759605
vt 0.887421 0.759642
vt 0.873129 0.759642
vt 0.887421 0.759746
vt 0.873129 0.759746
vt 0.634855 0.989071
vt 0.634855 0.974774
vt 0.634839 0.989071
vt 0.634839 0.974774
vt 0.811847 0.979091
vt 0.826138 0.979091
vt 0.826138 0.979098
vt 0.811847 0.979098
vt 0.826138 0.979134
vt 0.811847 0.979134
vt 0.826138 0.979197
vt 0.811847 0.979197
vt 0.826138 0.979281
vt 0.811847 0.979281
vt 0.887421 0.790815
vt 0.873129 0.790815
vt 0.887421 0.790972
vt 0.873129 0.790972
vt 0.887421 0.791091
vt 0.873129 0.791091
vt 0.887421 0.791165
vt 0.873129 0.791165
vt 0.887421 0.791190
vt 0.873129 0.791190
vt 0.981706 0.579709
vt 0.981706 0.565412
vt 0.223166 0.993561
vt 0.208875 0.993561
vt 0.223166 0.993567
vt 0.208875 0.993567
vt 0.951247 0.042605
vt 0.936955 0.042605
vt 0.936955 0.042563
vt 0.951247 0.042563
vt 0.936955 0.042470
vt 0.951247 0.042470
vt 0.936955 0.042330
vt 0.951247 0.042330
vt 0.811847 0.993342
vt 0.826138 0.993342
vt 0.826138 0.993409
vt 0.811847 0.993409
vt 0.826138 0.993423
vt 0.811847 0.993423
vt 0.966615 0.433438
vt 0.952323 0.433438
vt 0.952323 0.433391
vt 0.966615 0.433391
vt 0.952323 0.433294
vt 0.966615 0.433294
vt 0.952323 0.433153
vt 0.966615 0.433153
vt 0.538631 0.960250
vt 0.552922 0.960250
vt 0.538631 0.960146
vt 0.552922 0.960146
vt 0.538631 0.960110
vt 0.552922 0.960110
vt 0.952323 0.404297
vt 0.966615 0.404297
vt 0.966615 0.404330
vt 0.952323 0.404330
vt 0.966615 0.404430
vt 0.952323 0.404430
vt 0.640791 0.974774
vt 0.640791 0.989071
vt 0.552922 0.982138
vt 0.538631 0.982138
vt 0.538631 0.982122
vt 0.552922 0.982122
vt 0.538631 0.982055
vt 0.552922 0.982055
vt 0.538631 0.981941
vt 0.552922 0.981941
vt 0.538631 0.981789
vt 0.552922 0.981789
vn -0.6091 -0.7931 -0.0000
vn -0.6494 -0.7605 -0.0000
vn 0.0000 0.0000 -1.0000
vn 0.4974 -0.8675 -0.0000
vn 0.4352 -0.9003 -0.0000
vn -0.6494 0.7605 0.0000
vn -0.6091 0.7931 0.0000
vn 0.6494 -0.7605 -0.0000
vn 0.6091 -0.7931 -0.0000
vn -0.4974 0.8675 0.0000
vn -0.4352 0.9003 0.0000
vn -0.0000 -0.0000 1.0000
vn 0.4352 0.9003 0.0000
vn 0.4974 0.8675 0.0000
vn 0.6091 0.7931 0.0000
vn 0.6494 0.7605 0.0000
vn 0.3790 0.9254 0.0000
vn 0.1483 0.9889 0.0000
vn -0.0428 0.9991 0.0000
vn -0.9119 -0.4103 -0.0000
vn -0.8171 -0.5765 -0.0000
vn -0.6567 -0.7541 -0.0000
vn 0.3790 -0.9254 -0.0000
vn 0.1483 -0.9889 -0.0000
vn -0.0428 -0.9991 -0.0000
vn -0.9119 0.4103 0.0000
vn -0.8171 0.5765 0.0000
vn -0.6567 0.7541 0.0000
vn 0.6567 0.7541 0.0000
vn 0.8171 0.5765 0.0000
vn 0.9119 0.4103 0.0000
vn 0.0428 -0.9991 -0.0000
vn -0.1483 -0.9889 -0.0000
vn -0.3790 -0.9254 -0.0000
vn -0.4352 -0.9003 -0.0000
vn -0.7945 0.6073 0.0000
vn -0.9426 0.3339 0.0000
vn -1.0000 0.0000 0.0000
vn -0.9426 -0.3339 -0.0000
vn -0.7945 -0.6073 -0.0000
vn 0.6656 0.7463 0.0000
vn 0.8895 0.4570 0.0000
vn 1.0000 -0.0000 -0.0000
vn 0.8895 -0.4570 -0.0000
vn 0.6656 -0.7463 -0.0000
vn -0.4974 -0.8675 -0.0000
vn -0.6656 -0.7463 -0.0000
vn -0.8895 -0.4570 -0.0000
vn -0.8895 0.4570 0.0000
vn -0.6656 0.7463 0.0000
vn 0.6567 -0.7541 -0.0000
vn 0.8171 -0.5765 -0.0000
vn 0.9119 -0.4103 -0.0000
vn 0.0428 0.9991 0.0000
vn -0.1483 0.9889 0.0000
vn -0.3790 0.9254 0.0000
vn 0.7945 0.6073 0.0000
vn 0.9426 0.3339 0.0000
vn 0.9426 -0.3339 -0.0000
vn 0.7945 -0.6073 -0.0000
usemtl Material.001
s 1
f 105/1/1 66/2/2 81/3/2 90/4/1
f 3/5/3 2/6/3 41/7/3 43/8/3 67/9/3 66/10/3 105/11/3 107/12/3
f 11/13/3 10/14/3 33/15/3 35/16/3 99/17/3 98/18/3 73/19/3 75/20/3
f 57/21/4 114/22/5 73/23/5 98/24/4
f 65/25/6 74/26/7 113/27/7 82/28/6
f 42/29/8 49/30/8 26/31/9 9/32/9
f 35/16/3 34/33/3 1/34/3 3/5/3 107/12/3 106/35/3 97/36/3 99/17/3
f 122/37/10 33/38/10 10/39/11 25/40/11
f 19/41/12 18/42/12 121/43/12 123/44/12 59/45/12 58/46/12 89/47/12 91/48/12
f 51/49/12 50/50/12 17/51/12 19/41/12 91/48/12 90/52/12 81/53/12 83/54/12
f 43/8/3 42/55/3 9/56/3 11/13/3 75/20/3 74/57/3 65/58/3 67/9/3
f 123/44/12 122/59/12 25/60/12 27/61/12 115/62/12 114/63/12 57/64/12 59/45/12
f 27/61/12 26/65/12 49/66/12 51/49/12 83/54/12 82/67/12 113/68/12 115/62/12
f 89/69/13 58/70/14 97/71/14 106/72/13
f 17/73/15 50/74/16 41/75/16 2/76/15
f 1/34/3 4/77/3 3/5/3
f 4/77/3 5/78/3 3/5/3
f 5/78/3 6/79/3 3/5/3
f 6/79/3 7/80/3 3/5/3
f 7/80/3 8/81/3 3/5/3
f 8/81/3 2/6/3 3/5/3
f 9/56/3 12/82/3 11/13/3
f 12/82/3 13/83/3 11/13/3
f 13/83/3 14/84/3 11/13/3
f 14/84/3 15/85/3 11/13/3
f 15/85/3 16/86/3 11/13/3
f 16/86/3 10/14/3 11/13/3
f 17/51/12 20/87/12 19/41/12
f 20/87/12 21/88/12 19/41/12
f 21/88/12 22/89/12 19/41/12
f 22/89/12 23/90/12 19/41/12
f 23/90/12 24/91/12 19/41/12
f 24/91/12 18/42/12 19/41/12
f 25/60/12 28/92/12 27/61/12
f 28/92/12 29/93/12 27/61/12
f 29/93/12 30/94/12 27/61/12
f 30/94/12 31/95/12 27/61/12
f 31/95/12 32/96/12 27/61/12
f 32/96/12 26/65/12 27/61/12
f 33/15/3 36/97/3 35/16/3
f 36/97/3 37/98/3 35/16/3
f 37/98/3 38/99/3 35/16/3
f 38/99/3 39/100/3 35/16/3
f 39/100/3 40/101/3 35/16/3
f 40/101/3 34/33/3 35/16/3
f 41/7/3 44/102/3 43/8/3
f 44/102/3 45/103/3 43/8/3
f 45/103/3 46/104/3 43/8/3
f 46/104/3 47/105/3 43/8/3
f 47/105/3 48/106/3 43/8/3
f 48/106/3 42/55/3 43/8/3
f 49/66/12 52/107/12 51/49/12
f 52/107/12 53/108/12 51/49/12
f 53/108/12 54/109/12 51/49/12
f 54/109/12 55/110/12 51/49/12
f 55/110/12 56/111/12 51/49/12
f 56/111/12 50/50/12 51/49/12
f 57/64/12 60/112/12 59/45/12
f 60/112/12 61/113/12 59/45/12
f 61/113/12 62/114/12 59/45/12
f 62/114/12 63/115/12 59/45/12
f 63/115/12 64/116/12 59/45/12
f 64/116/12 58/46/12 59/45/12
f 65/58/3 68/117/3 67/9/3
f 68/117/3 69/118/3 67/9/3
f 69/118/3 70/119/3 67/9/3
f 70/119/3 71/120/3 67/9/3
f 71/120/3 72/121/3 67/9/3
f 72/121/3 66/10/3 67/9/3
f 73/19/3 76/122/3 75/20/3
f 76/122/3 77/123/3 75/20/3
f 77/123/3 78/124/3 75/20/3
f 78/124/3 79/125/3 75/20/3
f 79/125/3 80/126/3 75/20/3
f 80/126/3 74/57/3 75/20/3
f 81/53/12 84/127/12 83/54/12
f 84/127/12 85/128/12 83/54/12
f 85/128/12 86/129/12 83/54/12
f 86/129/12 87/130/12 83/54/12
f 87/130/12 88/131/12 83/54/12
f 88/131/12 82/67/12 83/54/12
f 89/47/12 92/132/12 91/48/12
f 92/132/12 93/133/12 91/48/12
f 93/133/12 94/134/12 91/48/12
f 94/134/12 95/135/12 91/48/12
f 95/135/12 96/136/12 91/48/12
f 96/136/12 90/52/12 91/48/12
f 97/36/3 100/137/3 99/17/3
f 100/137/3 101/138/3 99/17/3
f 101/138/3 102/139/3 99/17/3
f 102/139/3 103/140/3 99/17/3
f 103/140/3 104/141/3 99/17/3
f 104/141/3 98/18/3 99/17/3
f 105/11/3 108/142/3 107/12/3
f 108/142/3 109/143/3 107/12/3
f 109/143/3 110/144/3 107/12/3
f 110/144/3 111/145/3 107/12/3
f 111/145/3 112/146/3 107/12/3
f 112/146/3 106/35/3 107/12/3
f 113/68/12 116/147/12 115/62/12
f 116/147/12 117/148/12 115/62/12
f 117/148/12 118/149/12 115/62/12
f 118/149/12 119/150/12 115/62/12
f 119/150/12 120/151/12 115/62/12
f 120/151/12 114/63/12 115/62/12
f 121/43/12 124/152/12 123/44/12
f 124/152/12 125/153/12 123/44/12
f 125/153/12 126/154/12 123/44/12
f 126/154/12 127/155/12 123/44/12
f 127/155/12 128/156/12 123/44/12
f 128/156/12 122/59/12 123/44/12
f 89/69/13 106/72/13 112/157/17 92/158/17
f 92/158/17 112/157/17 111/159/18 93/160/18
f 93/160/18 111/159/18 110/161/19 94/162/19
f 94/162/20 110/161/20 109/163/21 95/164/21
f 95/165/21 109/166/21 108/167/22 96/168/22
f 96/168/22 108/167/22 105/1/1 90/4/1
f 73/23/5 114/22/5 120/169/23 76/170/23
f 76/170/23 120/169/23 119/171/24 77/172/24
f 77/172/24 119/171/24 118/173/25 78/174/25
f 78/175/26 118/176/26 117/177/27 79/178/27
f 79/178/27 117/177/27 116/179/28 80/180/28
f 80/180/28 116/179/28 113/27/7 74/26/7
f 17/73/15 2/76/15 8/181/29 20/182/29
f 20/182/29 8/181/29 7/183/30 21/184/30
f 21/185/30 7/186/30 6/187/31 22/188/31
f 22/188/32 6/187/32 5/189/33 23/190/33
f 23/190/33 5/189/33 4/191/34 24/192/34
f 24/192/34 4/191/34 1/193/35 18/194/35
f 65/25/6 82/28/6 88/195/36 68/196/36
f 68/196/36 88/195/36 87/197/37 69/198/37
f 69/198/37 87/197/37 86/199/38 70/200/38
f 70/200/38 86/199/38 85/201/39 71/202/39
f 71/202/39 85/201/39 84/203/40 72/204/40
f 72/205/40 84/206/40 81/3/2 66/2/2
f 97/71/14 58/70/14 64/207/41 100/208/41
f 100/208/41 64/207/41 63/209/42 101/210/42
f 101/211/42 63/212/42 62/213/43 102/214/43
f 102/214/43 62/213/43 61/215/44 103/216/44
f 103/216/44 61/215/44 60/217/45 104/218/45
f 104/218/45 60/217/45 57/21/4 98/24/4
f 121/219/46 34/220/46 40/221/47 124/222/47
f 124/222/47 40/221/47 39/223/48 125/224/48
f 125/225/48 39/226/48 38/227/38 126/228/38
f 126/228/38 38/227/38 37/229/49 127/230/49
f 127/230/49 37/229/49 36/231/50 128/232/50
f 128/232/50 36/231/50 33/38/10 122/37/10
f 9/32/9 26/31/9 32/233/51 12/234/51
f 12/234/51 32/233/51 31/235/52 13/236/52
f 13/236/52 31/235/52 30/237/53 14/238/53
f 14/239/54 30/240/54 29/241/55 15/242/55
f 15/242/55 29/241/55 28/243/56 16/244/56
f 16/244/56 28/243/56 25/40/11 10/39/11
f 41/75/16 50/74/16 56/245/57 44/246/57
f 44/247/57 56/248/57 55/249/58 45/250/58
f 45/250/58 55/249/58 54/251/43 46/252/43
f 46/252/43 54/251/43 53/253/59 47/254/59
f 47/254/59 53/253/59 52/255/60 48/256/60
f 48/256/60 52/255/60 49/30/8 42/29/8
f 1/193/35 34/220/46 121/219/46 18/194/35
