# Blender v2.83.5 OBJ File: 'Arrows.blend'
# www.blender.org
mtllib Arrow_67.mtl
o Arrow_67
v -1.338265 1.403829 -0.463607
v -1.338265 -1.403829 -0.463608
v -1.338265 1.403829 0.463608
v -1.338265 -1.403829 0.463607
v 0.039669 1.403829 -0.463607
v 0.039669 -1.403829 -0.463608
v 0.039669 1.403829 0.463608
v 0.039669 -1.403829 0.463607
v -0.039669 0.000000 -0.463608
v -0.039669 -0.000000 0.463608
v 1.338265 -0.000000 0.463608
v 1.338265 0.000000 -0.463608
v -0.494177 -0.491340 -0.463608
v -0.494177 -0.491340 0.463608
v 0.883756 -0.491340 0.463608
v 0.883756 -0.491340 -0.463608
v -0.494177 0.491340 0.463608
v 0.883756 0.491340 0.463608
v 0.883756 0.491340 -0.463608
v -0.494177 0.491340 -0.463608
vt 0.252259 0.606666
vt 0.252259 0.590408
vt 0.270112 0.590408
vt 0.270112 0.606666
vt 0.757867 0.593633
vt 0.774119 0.611208
vt 0.747589 0.611208
vt 0.731337 0.593633
vt 0.359050 0.832304
vt 0.359050 0.848561
vt 0.341198 0.848561
vt 0.341198 0.832304
vt 0.330621 0.728825
vt 0.314369 0.746400
vt 0.287838 0.746400
vt 0.304091 0.728825
vt 0.430040 0.835134
vt 0.430040 0.861674
vt 0.412187 0.861674
vt 0.412187 0.835134
vt 0.359050 0.875102
vt 0.341198 0.875102
vt 0.330621 0.709898
vt 0.339373 0.719361
vt 0.312842 0.719361
vt 0.304091 0.709898
vt 0.430040 0.877932
vt 0.430040 0.886686
vt 0.412187 0.886686
vt 0.412187 0.877932
vt 0.757867 0.574706
vt 0.749116 0.584169
vt 0.722585 0.584169
vt 0.731336 0.574706
vt 0.126277 0.704443
vt 0.126277 0.695689
vt 0.144130 0.695689
vt 0.144130 0.704443
vt 0.359050 0.823549
vt 0.341198 0.823549
vt 0.252259 0.615420
vt 0.270112 0.615420
vt 0.126277 0.720701
vt 0.144130 0.720701
vt 0.774119 0.557131
vt 0.747589 0.557131
vt 0.314369 0.692323
vt 0.287838 0.692323
vn -0.7341 0.6791 0.0000
vn 0.0000 -0.0000 1.0000
vn 0.7341 -0.6791 -0.0000
vn 0.0000 0.0000 -1.0000
vn 0.0000 1.0000 0.0000
vn 0.0000 -1.0000 -0.0000
vn 0.7341 0.6791 0.0000
vn -0.7341 -0.6791 -0.0000
usemtl Material.001
s off
f 13/1/1 2/2/1 4/3/1 14/4/1
f 14/5/2 4/6/2 8/7/2 15/8/2
f 15/9/3 8/10/3 6/11/3 16/12/3
f 16/13/4 6/14/4 2/15/4 13/16/4
f 3/17/5 7/18/5 5/19/5 1/20/5
f 8/10/6 4/21/6 2/22/6 6/11/6
f 19/23/4 12/24/4 9/25/4 20/26/4
f 18/27/7 11/28/7 12/29/7 19/30/7
f 17/31/2 10/32/2 11/33/2 18/34/2
f 20/35/8 9/36/8 10/37/8 17/38/8
f 12/24/4 16/13/4 13/16/4 9/25/4
f 11/39/3 15/9/3 16/12/3 12/40/3
f 10/32/2 14/5/2 15/8/2 11/33/2
f 9/41/1 13/1/1 14/4/1 10/42/1
f 1/43/8 20/35/8 17/38/8 3/44/8
f 3/45/2 17/31/2 18/34/2 7/46/2
f 7/18/7 18/27/7 19/30/7 5/19/7
f 5/47/4 19/23/4 20/26/4 1/48/4
