# Blender v2.83.5 OBJ File: 'Arrows.blend'
# www.blender.org
mtllib Arrow_47.mtl
o Arrow_47
v -0.226666 -0.883077 0.371131
v -0.692234 -0.000001 -0.371132
v -0.226666 -0.883076 -0.371132
v -0.219745 -0.928381 0.371131
v -0.219745 -0.928381 -0.371132
v -0.194045 -0.970167 0.371131
v -0.194045 -0.970166 -0.371132
v -0.148441 -0.991493 0.371131
v -0.148441 -0.991493 -0.371132
v -0.099897 -0.984428 0.371131
v -0.060690 -0.960695 0.371131
v -0.060690 -0.960695 -0.371132
v -0.099897 -0.984428 -0.371132
v -0.226666 0.883075 -0.371132
v -0.226666 0.883075 0.371132
v -0.219745 0.928380 -0.371132
v -0.219745 0.928380 0.371132
v -0.194045 0.970165 -0.371132
v -0.194045 0.970165 0.371132
v -0.148441 0.991491 -0.371132
v -0.148441 0.991491 0.371132
v -0.099897 0.984426 -0.371132
v -0.060690 0.960693 -0.371132
v -0.060690 0.960693 0.371132
v -0.099897 0.984426 0.371132
v -0.226628 0.623705 -0.371132
v -0.230368 0.597342 -0.371132
v -0.240807 0.576856 -0.371132
v -0.257065 0.560597 -0.371132
v -0.277552 0.550159 -0.371132
v 0.924752 0.076965 -0.371132
v -0.303915 0.546419 -0.371132
v -0.303915 0.546418 0.371132
v -0.277552 0.550159 0.371132
v -0.257065 0.560597 0.371132
v -0.240807 0.576856 0.371132
v 0.924752 -0.076967 0.371132
v -0.230368 0.597342 0.371132
v -0.226628 0.623705 0.371132
v -0.226628 -0.623707 0.371132
v -0.230368 -0.597344 0.371132
v -0.240807 -0.576857 0.371132
v -0.180209 -0.620054 -0.371132
v -0.257065 -0.560599 0.371132
v -0.277552 -0.550161 0.371132
v -0.303915 -0.546420 0.371132
v -0.303915 -0.546420 -0.371132
v -0.277552 -0.550160 -0.371132
v -0.300261 -0.500001 0.371132
v -0.257065 -0.560599 -0.371132
v -0.240807 -0.576857 -0.371132
v -0.230368 -0.597344 -0.371132
v -0.226628 -0.623707 -0.371132
v 0.957347 0.110216 0.371132
v -0.180209 0.620052 0.371132
v 0.988569 0.073489 0.371132
v 1.007076 0.025613 0.371132
v 1.007076 -0.025615 0.371132
v 0.988569 -0.073491 0.371132
v 0.957347 -0.110218 0.371132
v -0.300261 0.499999 -0.371132
v 0.957347 -0.110218 -0.371132
v 0.988569 -0.073491 -0.371132
v 1.007076 -0.025615 -0.371132
v 1.007076 0.025613 -0.371132
v 0.988569 0.073490 -0.371132
v -0.692234 0.499999 -0.371132
v 0.957347 0.110216 -0.371132
v -0.692234 -0.500001 0.371132
v -0.692234 -0.000001 0.371132
v -0.692234 -0.500001 -0.371132
v -0.692234 0.499999 0.371132
v -0.735519 0.546418 0.371132
v 0.948714 0.049414 -0.371132
v 0.961311 0.017027 -0.371132
v 0.961311 -0.017028 -0.371132
v 0.948714 -0.049416 -0.371132
v 0.924752 -0.076967 -0.371132
v -0.735519 -0.546420 -0.371132
v 0.948714 -0.049416 0.371132
v 0.961311 -0.017028 0.371132
v 0.961311 0.017026 0.371132
v 0.948714 0.049414 0.371132
v 0.924752 0.076965 0.371132
v -0.735520 -0.000001 0.371132
v -0.186085 -0.582955 -0.371132
v -0.203137 -0.549488 -0.371132
v -0.229696 -0.522929 -0.371132
v -0.263163 -0.505877 -0.371132
v -0.300261 -0.500001 -0.371132
v -0.735519 -0.546420 0.371132
v -0.263163 -0.505877 0.371132
v -0.229696 -0.522929 0.371132
v -0.203137 -0.549489 0.371132
v -0.186085 -0.582955 0.371132
v -0.180209 -0.620054 0.371132
v -0.735520 -0.000001 -0.371132
v -0.186085 0.582954 0.371132
v -0.203137 0.549487 0.371132
v -0.229696 0.522927 0.371132
v -0.263163 0.505875 0.371132
v -0.300261 0.499999 0.371132
v -0.735519 0.546419 -0.371132
v -0.263163 0.505875 -0.371132
v -0.229696 0.522927 -0.371132
v -0.203137 0.549487 -0.371132
v -0.186085 0.582954 -0.371132
v -0.180209 0.620052 -0.371132
v -0.116545 0.940941 0.371132
v -0.088073 0.923033 0.371132
v -0.088073 0.923033 -0.371132
v -0.116545 0.940941 -0.371132
v -0.142229 0.945345 0.371132
v -0.142229 0.945345 -0.371132
v -0.162612 0.935812 0.371132
v -0.162612 0.935813 -0.371132
v -0.175699 0.913278 0.371132
v -0.175699 0.913278 -0.371132
v -0.180209 0.879946 0.371132
v -0.180209 0.879947 -0.371132
v -0.116545 -0.940943 -0.371132
v -0.088073 -0.923035 -0.371132
v -0.088073 -0.923035 0.371131
v -0.116545 -0.940943 0.371131
v -0.142229 -0.945346 -0.371132
v -0.142229 -0.945346 0.371131
v -0.162612 -0.935814 -0.371132
v -0.162612 -0.935814 0.371131
v -0.175699 -0.913279 -0.371132
v -0.175699 -0.913280 0.371131
v -0.180209 -0.879948 -0.371132
v -0.180209 -0.879948 0.371131
vt 0.964407 0.737643
vt 0.950116 0.737643
vt 0.950116 0.732860
vt 0.964407 0.732860
vt 0.950116 0.727792
vt 0.964407 0.727792
vt 0.964407 0.730961
vt 0.950116 0.730961
vt 0.967550 0.882552
vt 0.953259 0.882552
vt 0.953259 0.857135
vt 0.967550 0.857135
vt 0.950116 0.706500
vt 0.964407 0.706500
vt 0.964407 0.712597
vt 0.950116 0.712597
vt 0.964407 0.718694
vt 0.950116 0.718694
vt 0.950116 0.724538
vt 0.964407 0.724538
vt 0.993347 0.806862
vt 0.999193 0.806862
vt 0.999193 0.821158
vt 0.993347 0.821158
vt 0.967550 0.883195
vt 0.953259 0.883195
vt 0.967550 0.883632
vt 0.953259 0.883632
vt 0.967550 0.883820
vt 0.953259 0.883820
vt 0.360649 0.922130
vt 0.360729 0.922130
vt 0.360729 0.936427
vt 0.360649 0.936427
vt 0.361068 0.922130
vt 0.361068 0.936427
vt 0.950116 0.732654
vt 0.964407 0.732654
vt 0.950116 0.732325
vt 0.964407 0.732325
vt 0.950116 0.731905
vt 0.964407 0.731905
vt 0.950116 0.731435
vt 0.964407 0.731435
vt 0.953259 0.856442
vt 0.967550 0.856442
vt 0.953259 0.855859
vt 0.967550 0.855859
vt 0.953259 0.855445
vt 0.967550 0.855445
vt 0.953259 0.855238
vt 0.967550 0.855238
vt 0.950116 0.737664
vt 0.964407 0.737664
vt 0.950116 0.727252
vt 0.964407 0.727252
vt 0.950116 0.726590
vt 0.964407 0.726590
vt 0.950116 0.725870
vt 0.964407 0.725870
vt 0.950116 0.725163
vt 0.964407 0.725163
vt 0.992866 0.821158
vt 0.992866 0.806862
vt 0.992574 0.821158
vt 0.992574 0.806862
vt 0.992501 0.821158
vt 0.992501 0.806862
vt 0.364755 0.936427
vt 0.364601 0.936427
vt 0.364601 0.922130
vt 0.364755 0.922130
vt 0.364236 0.936427
vt 0.364236 0.922130
vt 0.154567 0.822739
vt 0.155183 0.822939
vt 0.154964 0.823808
vt 0.154130 0.823522
vt 0.068602 0.825867
vt 0.069096 0.825952
vt 0.069216 0.826840
vt 0.068281 0.826704
vt 0.180187 0.827462
vt 0.180098 0.828354
vt 0.069717 0.798579
vt 0.069394 0.797993
vt 0.070086 0.797422
vt 0.070565 0.798287
vt 0.045889 0.806999
vt 0.046365 0.807544
vt 0.045606 0.808021
vt 0.045262 0.807640
vt 0.158522 0.817835
vt 0.154682 0.821045
vt 0.154062 0.820397
vt 0.157895 0.817194
vt 0.068891 0.797572
vt 0.069329 0.796790
vt 0.046649 0.808209
vt 0.045780 0.808428
vt 0.182122 0.799066
vt 0.181730 0.798883
vt 0.181849 0.797994
vt 0.182727 0.798405
vt 0.042049 0.803790
vt 0.041429 0.804438
vt 0.068257 0.797358
vt 0.068393 0.796472
vt 0.046714 0.808930
vt 0.045819 0.808869
vt 0.069489 0.825768
vt 0.070094 0.826430
vt 0.067554 0.797372
vt 0.067465 0.796480
vt 0.046552 0.809635
vt 0.045720 0.809301
vt 0.046181 0.810256
vt 0.045450 0.809737
vt 0.182374 0.799500
vt 0.183222 0.799209
vt 0.161364 0.802610
vt 0.153976 0.808784
vt 0.152756 0.808718
vt 0.160830 0.801970
vt 0.158814 0.814578
vt 0.159185 0.815199
vt 0.158354 0.815533
vt 0.158083 0.815098
vt 0.069741 0.825334
vt 0.070589 0.825625
vt 0.159347 0.815905
vt 0.158452 0.815965
vt 0.048731 0.822224
vt 0.056119 0.828398
vt 0.056271 0.829612
vt 0.048196 0.822864
vt 0.159282 0.816625
vt 0.158413 0.816406
vt 0.182461 0.800142
vt 0.183355 0.800082
vt 0.158998 0.817290
vt 0.158239 0.816814
vt 0.168752 0.796436
vt 0.168904 0.795223
vt 0.069828 0.824692
vt 0.070722 0.824752
vt 0.041343 0.816050
vt 0.040122 0.816117
vt 0.176847 0.802522
vt 0.176226 0.802893
vt 0.175892 0.802061
vt 0.176328 0.801791
vt 0.175521 0.803054
vt 0.175460 0.802160
vt 0.041612 0.803311
vt 0.040845 0.803776
vt 0.174801 0.802990
vt 0.175019 0.802120
vt 0.364167 0.951152
vt 0.361008 0.951152
vt 0.361008 0.936855
vt 0.364167 0.936855
vt 0.360743 0.951152
vt 0.360743 0.936855
vt 0.360649 0.951152
vt 0.360649 0.936855
vt 0.412303 0.601253
vt 0.412303 0.586956
vt 0.412347 0.586956
vt 0.412347 0.601253
vt 0.412125 0.601253
vt 0.412125 0.586956
vt 0.411777 0.601253
vt 0.411777 0.586956
vt 0.351768 0.946022
vt 0.337476 0.946022
vt 0.337476 0.945583
vt 0.351768 0.945583
vt 0.351768 0.946455
vt 0.337476 0.946455
vt 0.351768 0.946895
vt 0.337476 0.946895
vt 0.351768 0.947301
vt 0.337476 0.947301
vt 0.351768 0.947678
vt 0.337476 0.947678
vt 0.351768 0.959106
vt 0.337476 0.959106
vt 0.337476 0.959088
vt 0.351768 0.959088
vt 0.287280 0.965014
vt 0.301571 0.965014
vt 0.301571 0.965322
vt 0.287280 0.965322
vt 0.287280 0.964390
vt 0.301571 0.964390
vt 0.287280 0.963530
vt 0.301571 0.963530
vt 0.287280 0.962617
vt 0.301571 0.962617
vt 0.351768 0.951491
vt 0.337476 0.951491
vt 0.337476 0.950836
vt 0.351768 0.950836
vt 0.351768 0.952384
vt 0.337476 0.952384
vt 0.351768 0.953324
vt 0.337476 0.953324
vt 0.351768 0.953962
vt 0.337476 0.953962
vt 0.351768 0.954258
vt 0.337476 0.954258
vt 0.364615 0.936855
vt 0.364615 0.951152
vt 0.364741 0.936855
vt 0.364741 0.951152
vt 0.301571 0.935384
vt 0.287280 0.935384
vt 0.287280 0.934964
vt 0.301571 0.934964
vt 0.301571 0.936194
vt 0.287280 0.936194
vt 0.301571 0.937068
vt 0.287280 0.937068
vt 0.405345 0.601253
vt 0.405345 0.586956
vt 0.337476 0.939143
vt 0.351768 0.939143
vt 0.351768 0.932488
vt 0.337476 0.932488
vt 0.351768 0.925832
vt 0.337476 0.925832
vt 0.069829 0.799273
vt 0.070722 0.799202
vt 0.042550 0.801896
vt 0.042331 0.801026
vt 0.181235 0.798968
vt 0.180914 0.798130
vt 0.182350 0.826256
vt 0.182462 0.825561
vt 0.183355 0.825632
vt 0.183198 0.826547
vt 0.041934 0.802095
vt 0.041497 0.801312
vt 0.182027 0.826842
vt 0.182719 0.827412
vt 0.064213 0.822312
vt 0.068054 0.825522
vt 0.067526 0.826247
vt 0.063694 0.823044
vt 0.181524 0.827262
vt 0.181962 0.828045
vt 0.180687 0.799313
vt 0.180160 0.798587
vt 0.154185 0.822414
vt 0.153426 0.822892
vt 0.180890 0.827476
vt 0.181026 0.828362
vt 0.041551 0.802421
vt 0.040793 0.801943
vt 0.060958 0.822605
vt 0.061598 0.823232
vt 0.063593 0.821941
vt 0.063259 0.822773
vt 0.173591 0.802230
vt 0.174231 0.801603
vt 0.154074 0.821995
vt 0.153178 0.821954
vt 0.062888 0.821780
vt 0.062827 0.822675
vt 0.041441 0.802840
vt 0.040545 0.802880
vt 0.062167 0.821845
vt 0.062386 0.822714
vt 0.061502 0.822129
vt 0.061979 0.822888
vt 0.154245 0.821523
vt 0.153478 0.821058
vt 0.174135 0.802706
vt 0.174612 0.801946
vn -0.7000 0.7141 0.0000
vn -0.5881 0.8088 0.0000
vn 0.9969 0.0785 0.0000
vn 0.9977 0.0672 0.0000
vn -0.5881 -0.8088 -0.0000
vn -0.7000 -0.7141 -0.0000
vn 1.0000 0.0000 0.0000
vn 0.0785 0.9969 0.0000
vn 0.0000 1.0000 0.0000
vn 0.0785 -0.9969 -0.0000
vn 0.0000 -1.0000 -0.0000
vn -0.3575 -0.9339 -0.0000
vn 0.1334 -0.9911 -0.0000
vn 0.6751 -0.7378 -0.0000
vn 0.9459 -0.3243 -0.0000
vn 0.9977 -0.0672 -0.0000
vn -0.3575 0.9339 0.0000
vn 0.1334 0.9911 0.0000
vn 0.6751 0.7378 0.0000
vn 0.9459 0.3243 0.0000
vn -0.8560 -0.5170 -0.0000
vn -0.9828 -0.1844 -0.0000
vn -0.9828 0.1844 0.0000
vn -0.8560 0.5170 0.0000
vn 0.9511 0.3090 0.0000
vn 0.8090 0.5878 0.0000
vn 0.5878 0.8090 0.0000
vn 0.3090 0.9511 0.0000
vn 0.3090 -0.9511 -0.0000
vn 0.5878 -0.8090 -0.0000
vn 0.8090 -0.5878 -0.0000
vn 0.9511 -0.3090 -0.0000
vn 0.9969 -0.0785 -0.0000
vn -0.0000 -0.0000 1.0000
vn -0.0000 0.0000 -1.0000
vn -0.9971 0.0757 0.0000
vn -0.9975 0.0703 0.0000
vn -0.9535 0.3013 0.0000
vn -0.8090 0.5878 0.0000
vn -0.5878 0.8090 0.0000
vn -0.3013 0.9535 0.0000
vn -0.0704 0.9975 0.0000
vn -0.3013 -0.9535 -0.0000
vn -0.0704 -0.9975 -0.0000
vn -0.5878 -0.8090 -0.0000
vn -0.8090 -0.5878 -0.0000
vn -0.9535 -0.3013 -0.0000
vn -0.9975 -0.0703 -0.0000
vn 0.8594 -0.5113 -0.0000
vn 0.7041 -0.7101 -0.0000
vn 0.9830 -0.1834 -0.0000
vn 0.9830 0.1834 0.0000
vn 0.8594 0.5113 0.0000
vn 0.7041 0.7101 0.0000
vn -0.9389 -0.3443 -0.0000
vn -0.9971 -0.0757 -0.0000
vn -0.6657 -0.7462 -0.0000
vn -0.1459 -0.9893 -0.0000
vn 0.3377 -0.9413 -0.0000
vn 0.5812 -0.8138 -0.0000
vn -0.9389 0.3443 0.0000
vn -0.6657 0.7462 0.0000
vn -0.1459 0.9893 0.0000
vn 0.3377 0.9413 0.0000
vn 0.5812 0.8138 0.0000
vn -1.0000 0.0000 0.0000
usemtl Material.001
s 1
f 37/1/1 78/2/1 122/3/2 123/4/2
f 43/5/3 96/6/3 132/7/4 131/8/4
f 110/9/5 111/10/5 31/11/6 84/12/6
f 67/13/7 72/14/7 70/15/7 2/16/7
f 2/16/7 70/15/7 69/17/7 71/18/7
f 90/19/8 71/18/9 69/17/9 49/20/8
f 102/21/10 72/22/11 67/23/11 61/24/10
f 110/9/5 109/25/12 112/26/12 111/10/5
f 109/25/12 113/27/13 114/28/13 112/26/12
f 113/27/13 115/29/14 116/30/14 114/28/13
f 115/31/14 117/32/15 118/33/15 116/34/14
f 117/32/15 119/35/16 120/36/16 118/33/15
f 122/3/2 121/37/17 124/38/17 123/4/2
f 121/37/17 125/39/18 126/40/18 124/38/17
f 125/39/18 127/41/19 128/42/19 126/40/18
f 127/41/19 129/43/20 130/44/20 128/42/19
f 129/43/20 131/8/4 132/7/4 130/44/20
f 31/11/6 74/45/21 83/46/21 84/12/6
f 74/45/21 75/47/22 82/48/22 83/46/21
f 75/47/22 76/49/23 81/50/23 82/48/22
f 76/49/23 77/51/24 80/52/24 81/50/23
f 77/53/24 78/2/1 37/1/1 80/54/24
f 43/5/3 86/55/25 95/56/25 96/6/3
f 86/55/25 87/57/26 94/58/26 95/56/25
f 87/57/26 88/59/27 93/60/27 94/58/26
f 88/59/27 89/61/28 92/62/28 93/60/27
f 89/61/28 90/19/8 49/20/8 92/62/28
f 61/24/10 104/63/29 101/64/29 102/21/10
f 104/63/29 105/65/30 100/66/30 101/64/29
f 105/65/30 106/67/31 99/68/31 100/66/30
f 106/69/31 107/70/32 98/71/32 99/72/31
f 107/70/32 108/73/33 55/74/33 98/71/32
f 120/36/16 119/35/16 55/74/33 108/73/33
f 109/75/34 110/76/34 24/77/34 25/78/34
f 129/79/35 127/80/35 7/81/35 5/82/35
f 110/76/34 84/83/34 54/84/34 24/77/34
f 77/85/35 76/86/35 64/87/35 63/88/35
f 108/89/35 107/90/35 27/91/35 26/92/35
f 55/93/34 119/94/34 15/95/34 39/96/34
f 76/86/35 75/97/35 65/98/35 64/87/35
f 107/90/35 106/99/35 28/100/35 27/91/35
f 126/101/34 128/102/34 6/103/34 8/104/34
f 120/105/35 108/89/35 26/92/35 14/106/35
f 75/97/35 74/107/35 66/108/35 65/98/35
f 106/99/35 105/109/35 29/110/35 28/100/35
f 127/80/35 125/111/35 9/112/35 7/81/35
f 74/107/35 31/113/35 68/114/35 66/108/35
f 105/109/35 104/115/35 30/116/35 29/110/35
f 104/115/35 61/117/35 32/118/35 30/116/35
f 124/119/34 126/101/34 8/104/34 10/120/34
f 70/121/34 72/122/34 73/123/34 85/124/34
f 102/125/34 101/126/34 34/127/34 33/128/34
f 125/111/35 121/129/35 13/130/35 9/112/35
f 101/126/34 100/131/34 35/132/34 34/127/34
f 2/133/35 71/134/35 79/135/35 97/136/35
f 100/131/34 99/137/34 36/138/34 35/132/34
f 123/139/34 124/119/34 10/120/34 11/140/34
f 99/137/34 98/141/34 38/142/34 36/138/34
f 69/143/34 70/121/34 85/124/34 91/144/34
f 98/141/34 55/93/34 39/96/34 38/142/34
f 121/129/35 122/145/35 12/146/35 13/130/35
f 67/147/35 2/133/35 97/136/35 103/148/35
f 96/149/34 95/150/34 41/151/34 40/152/34
f 95/150/34 94/153/34 42/154/34 41/151/34
f 118/155/35 120/105/35 14/106/35 16/156/35
f 94/153/34 93/157/34 44/158/34 42/154/34
f 14/159/36 26/160/37 39/161/37 15/162/36
f 27/163/38 38/164/38 39/161/37 26/160/37
f 28/165/39 36/166/39 38/164/38 27/163/38
f 29/167/40 35/168/40 36/169/39 28/170/39
f 30/171/41 34/172/41 35/168/40 29/167/40
f 32/173/42 33/174/42 34/172/41 30/171/41
f 48/175/43 45/176/43 46/177/44 47/178/44
f 50/179/45 44/180/45 45/176/43 48/175/43
f 51/181/46 42/182/46 44/180/45 50/179/45
f 52/183/47 41/184/47 42/182/46 51/181/46
f 53/185/48 40/186/48 41/184/47 52/183/47
f 63/187/49 59/188/49 60/189/50 62/190/50
f 64/191/51 58/192/51 59/193/49 63/194/49
f 65/195/52 57/196/52 58/192/51 64/191/51
f 66/197/53 56/198/53 57/196/52 65/195/52
f 68/199/54 54/200/54 56/198/53 66/197/53
f 5/201/55 4/202/55 1/203/56 3/204/56
f 7/205/57 6/206/57 4/202/55 5/201/55
f 9/207/58 8/208/58 6/206/57 7/205/57
f 13/209/59 10/210/59 8/208/58 9/207/58
f 12/211/60 11/212/60 10/210/59 13/209/59
f 17/213/61 16/214/61 14/159/36 15/162/36
f 19/215/62 18/216/62 16/214/61 17/213/61
f 21/217/63 20/218/63 18/219/62 19/220/62
f 25/221/64 22/222/64 20/218/63 21/217/63
f 24/223/65 23/224/65 22/222/64 25/221/64
f 33/174/42 32/173/42 103/225/9 73/226/9
f 47/178/44 46/177/44 91/227/11 79/228/11
f 97/229/66 79/228/66 91/227/66 85/230/66
f 103/231/66 97/229/66 85/230/66 73/232/66
f 24/223/65 54/200/54 68/199/54 23/224/65
f 53/185/48 3/204/56 1/203/56 40/186/48
f 60/189/50 11/212/60 12/211/60 62/190/50
f 78/233/35 77/85/35 63/88/35 62/234/35
f 31/113/35 111/235/35 23/236/35 68/114/35
f 128/102/34 130/237/34 4/238/34 6/103/34
f 80/239/34 37/240/34 60/241/34 59/242/34
f 122/145/35 78/233/35 62/234/35 12/146/35
f 111/235/35 112/243/35 22/244/35 23/236/35
f 81/245/34 80/239/34 59/242/34 58/246/34
f 43/247/35 131/248/35 3/249/35 53/250/35
f 131/248/35 129/79/35 5/82/35 3/249/35
f 82/251/34 81/245/34 58/246/34 57/252/34
f 132/253/34 96/149/34 40/152/34 1/254/34
f 130/237/34 132/253/34 1/254/34 4/238/34
f 113/255/34 109/75/34 25/78/34 21/256/34
f 83/257/34 82/251/34 57/252/34 56/258/34
f 37/240/34 123/139/34 11/140/34 60/241/34
f 112/243/35 114/259/35 20/260/35 22/244/35
f 84/83/34 83/257/34 56/258/34 54/84/34
f 71/134/35 90/261/35 47/262/35 79/135/35
f 86/263/35 43/247/35 53/250/35 52/264/35
f 49/265/34 69/143/34 91/144/34 46/266/34
f 115/267/34 113/255/34 21/256/34 19/268/34
f 87/269/35 86/263/35 52/264/35 51/270/35
f 72/122/34 102/125/34 33/128/34 73/123/34
f 114/259/35 116/271/35 18/272/35 20/260/35
f 88/273/35 87/269/35 51/270/35 50/274/35
f 61/117/35 67/147/35 103/148/35 32/118/35
f 89/275/35 88/273/35 50/274/35 48/276/35
f 117/277/34 115/267/34 19/268/34 17/278/34
f 90/261/35 89/275/35 48/276/35 47/262/35
f 116/271/35 118/155/35 16/156/35 18/272/35
f 92/279/34 49/265/34 46/266/34 45/280/34
f 93/157/34 92/279/34 45/280/34 44/158/34
f 119/94/34 117/277/34 17/278/34 15/95/34
