# Blender v2.83.5 OBJ File: 'Arrows.blend'
# www.blender.org
mtllib Arrow_70.mtl
o Arrow_70
v -4.094132 1.403829 -0.463607
v -4.094132 -1.403829 -0.463608
v -4.094132 1.403829 0.463608
v -4.094132 -1.403829 0.463607
v -2.716198 1.403829 -0.463607
v -2.716198 -1.403829 -0.463608
v -2.716198 1.403829 0.463608
v -2.716198 -1.403829 0.463607
v -2.795536 0.000000 -0.463608
v -2.795536 -0.000000 0.463608
v -1.417602 -0.000000 0.463608
v -1.417602 0.000000 -0.463608
v -3.250044 -0.491340 -0.463608
v -3.250044 -0.491340 0.463608
v -1.872111 -0.491340 0.463608
v -1.872111 -0.491340 -0.463608
v -3.250044 0.491340 0.463608
v -1.872111 0.491340 0.463608
v -1.872111 0.491340 -0.463608
v -3.250044 0.491340 -0.463608
v -1.338264 1.403829 -0.463607
v -1.338264 -1.403829 -0.463608
v -1.338264 1.403829 0.463608
v -1.338264 -1.403829 0.463607
v 0.039669 1.403829 -0.463607
v 0.039669 -1.403829 -0.463608
v 0.039669 1.403829 0.463608
v 0.039669 -1.403829 0.463607
v -0.039668 0.000000 -0.463608
v -0.039668 -0.000000 0.463608
v 1.338266 -0.000000 0.463608
v 1.338266 0.000000 -0.463608
v -0.494177 -0.491340 -0.463608
v -0.494177 -0.491340 0.463608
v 0.883757 -0.491340 0.463608
v 0.883757 -0.491340 -0.463608
v -0.494177 0.491340 0.463608
v 0.883757 0.491340 0.463608
v 0.883757 0.491340 -0.463608
v -0.494177 0.491340 -0.463608
v 1.417603 1.403829 -0.463607
v 1.417603 -1.403829 -0.463608
v 1.417603 1.403829 0.463608
v 1.417603 -1.403829 0.463607
v 2.795537 1.403829 -0.463607
v 2.795537 -1.403829 -0.463608
v 2.795537 1.403829 0.463608
v 2.795537 -1.403829 0.463607
v 2.716199 0.000000 -0.463608
v 2.716199 -0.000000 0.463608
v 4.094133 -0.000000 0.463608
v 4.094133 0.000000 -0.463608
v 2.261690 -0.491340 -0.463608
v 2.261690 -0.491340 0.463608
v 3.639624 -0.491340 0.463608
v 3.639624 -0.491340 -0.463608
v 2.261690 0.491340 0.463608
v 3.639624 0.491340 0.463608
v 3.639624 0.491340 -0.463608
v 2.261690 0.491340 -0.463608
vt 0.364007 0.726225
vt 0.364007 0.742483
vt 0.346154 0.742483
vt 0.346154 0.726225
vt 0.766391 0.219450
vt 0.782643 0.237025
vt 0.756113 0.237025
vt 0.739860 0.219450
vt 0.612385 0.831752
vt 0.612385 0.848010
vt 0.594533 0.848010
vt 0.594533 0.831752
vt 0.731337 0.463305
vt 0.747589 0.445730
vt 0.774119 0.445730
vt 0.757867 0.463305
vt 0.892965 0.490053
vt 0.892965 0.516593
vt 0.875112 0.516593
vt 0.875112 0.490053
vt 0.612385 0.874550
vt 0.594533 0.874550
vt 0.731337 0.482233
vt 0.722585 0.472769
vt 0.749116 0.472769
vt 0.757867 0.482233
vt 0.892965 0.532851
vt 0.892965 0.541605
vt 0.875112 0.541605
vt 0.875112 0.532851
vt 0.766391 0.200523
vt 0.757640 0.209986
vt 0.731109 0.209986
vt 0.739860 0.200523
vt 0.956766 0.394022
vt 0.956766 0.402777
vt 0.938914 0.402777
vt 0.938914 0.394022
vt 0.612385 0.822998
vt 0.594533 0.822998
vt 0.364007 0.717471
vt 0.346154 0.717471
vt 0.956766 0.377764
vt 0.938914 0.377764
vt 0.782643 0.182947
vt 0.756113 0.182947
vt 0.747589 0.499808
vt 0.774119 0.499808
vt 0.759575 0.684847
vt 0.759575 0.701105
vt 0.741723 0.701105
vt 0.741723 0.684847
vt 0.124268 0.761119
vt 0.140520 0.778695
vt 0.113989 0.778695
vt 0.097737 0.761119
vt 0.593997 0.831752
vt 0.593997 0.848010
vt 0.576144 0.848010
vt 0.576144 0.831752
vt 0.009524 0.714301
vt 0.025776 0.696725
vt 0.052307 0.696725
vt 0.036055 0.714301
vt 0.143467 0.834645
vt 0.143467 0.861185
vt 0.125615 0.861185
vt 0.125615 0.834645
vt 0.593997 0.874550
vt 0.576144 0.874550
vt 0.009524 0.733228
vt 0.000773 0.723764
vt 0.027304 0.723764
vt 0.036055 0.733228
vt 0.143467 0.877443
vt 0.143467 0.886197
vt 0.125615 0.886197
vt 0.125615 0.877443
vt 0.124268 0.742192
vt 0.115517 0.751656
vt 0.088986 0.751656
vt 0.097737 0.742192
vt 0.908221 0.548565
vt 0.908221 0.539810
vt 0.926074 0.539810
vt 0.926074 0.548565
vt 0.593997 0.822998
vt 0.576144 0.822998
vt 0.759575 0.676093
vt 0.741723 0.676093
vt 0.908221 0.564822
vt 0.926074 0.564822
vt 0.140520 0.724617
vt 0.113989 0.724617
vt 0.025776 0.750803
vt 0.052307 0.750803
vt 0.556537 0.943146
vt 0.556537 0.959404
vt 0.538684 0.959404
vt 0.538684 0.943146
vt 0.760512 0.037314
vt 0.776764 0.054889
vt 0.750233 0.054889
vt 0.733981 0.037314
vt 0.170417 0.838387
vt 0.170417 0.854645
vt 0.152564 0.854645
vt 0.152564 0.838387
vt 0.765368 0.537933
vt 0.749116 0.555508
vt 0.722585 0.555508
vt 0.738837 0.537933
vt 0.557756 0.874550
vt 0.557756 0.848010
vt 0.575609 0.848010
vt 0.575609 0.874550
vt 0.170417 0.881185
vt 0.152564 0.881185
vt 0.765368 0.519006
vt 0.774119 0.528469
vt 0.747589 0.528469
vt 0.738837 0.519006
vt 0.557756 0.831752
vt 0.557756 0.822998
vt 0.575609 0.822998
vt 0.575609 0.831752
vt 0.760512 0.018386
vt 0.751760 0.027850
vt 0.725230 0.027850
vt 0.733981 0.018386
vt 0.439983 0.943462
vt 0.439983 0.934708
vt 0.457835 0.934708
vt 0.457835 0.943462
vt 0.170417 0.829633
vt 0.152564 0.829633
vt 0.556537 0.934392
vt 0.538684 0.934392
vt 0.439983 0.959720
vt 0.457835 0.959720
vt 0.776764 0.000811
vt 0.750233 0.000811
vt 0.749116 0.501430
vt 0.722585 0.501430
vn -0.7341 0.6791 0.0000
vn 0.0000 -0.0000 1.0000
vn 0.7341 -0.6791 -0.0000
vn 0.0000 0.0000 -1.0000
vn 0.0000 1.0000 0.0000
vn 0.0000 -1.0000 -0.0000
vn 0.7341 0.6791 0.0000
vn -0.7341 -0.6791 -0.0000
usemtl Material.001
s off
f 13/1/1 2/2/1 4/3/1 14/4/1
f 14/5/2 4/6/2 8/7/2 15/8/2
f 15/9/3 8/10/3 6/11/3 16/12/3
f 16/13/4 6/14/4 2/15/4 13/16/4
f 3/17/5 7/18/5 5/19/5 1/20/5
f 8/10/6 4/21/6 2/22/6 6/11/6
f 19/23/4 12/24/4 9/25/4 20/26/4
f 18/27/7 11/28/7 12/29/7 19/30/7
f 17/31/2 10/32/2 11/33/2 18/34/2
f 20/35/8 9/36/8 10/37/8 17/38/8
f 12/24/4 16/13/4 13/16/4 9/25/4
f 11/39/3 15/9/3 16/12/3 12/40/3
f 10/32/2 14/5/2 15/8/2 11/33/2
f 9/41/1 13/1/1 14/4/1 10/42/1
f 1/43/8 20/35/8 17/38/8 3/44/8
f 3/45/2 17/31/2 18/34/2 7/46/2
f 7/18/7 18/27/7 19/30/7 5/19/7
f 5/47/4 19/23/4 20/26/4 1/48/4
f 33/49/1 22/50/1 24/51/1 34/52/1
f 34/53/2 24/54/2 28/55/2 35/56/2
f 35/57/3 28/58/3 26/59/3 36/60/3
f 36/61/4 26/62/4 22/63/4 33/64/4
f 23/65/5 27/66/5 25/67/5 21/68/5
f 28/58/6 24/69/6 22/70/6 26/59/6
f 39/71/4 32/72/4 29/73/4 40/74/4
f 38/75/7 31/76/7 32/77/7 39/78/7
f 37/79/2 30/80/2 31/81/2 38/82/2
f 40/83/8 29/84/8 30/85/8 37/86/8
f 32/72/4 36/61/4 33/64/4 29/73/4
f 31/87/3 35/57/3 36/60/3 32/88/3
f 30/80/2 34/53/2 35/56/2 31/81/2
f 29/89/1 33/49/1 34/52/1 30/90/1
f 21/91/8 40/83/8 37/86/8 23/92/8
f 23/93/2 37/79/2 38/82/2 27/94/2
f 27/66/7 38/75/7 39/78/7 25/67/7
f 25/95/4 39/71/4 40/74/4 21/96/4
f 53/97/1 42/98/1 44/99/1 54/100/1
f 54/101/2 44/102/2 48/103/2 55/104/2
f 55/105/3 48/106/3 46/107/3 56/108/3
f 56/109/4 46/110/4 42/111/4 53/112/4
f 43/113/5 47/114/5 45/115/5 41/116/5
f 48/106/6 44/117/6 42/118/6 46/107/6
f 59/119/4 52/120/4 49/121/4 60/122/4
f 58/123/7 51/124/7 52/125/7 59/126/7
f 57/127/2 50/128/2 51/129/2 58/130/2
f 60/131/8 49/132/8 50/133/8 57/134/8
f 52/120/4 56/109/4 53/112/4 49/121/4
f 51/135/3 55/105/3 56/108/3 52/136/3
f 50/128/2 54/101/2 55/104/2 51/129/2
f 49/137/1 53/97/1 54/100/1 50/138/1
f 41/139/8 60/131/8 57/134/8 43/140/8
f 43/141/2 57/127/2 58/130/2 47/142/2
f 47/114/7 58/123/7 59/126/7 45/115/7
f 45/143/4 59/119/4 60/122/4 41/144/4
