# Blender v2.83.5 OBJ File: 'Arrows.blend'
# www.blender.org
mtllib Arrow_58.mtl
o Arrow_58
v -1.218895 -0.078752 -0.195425
v -0.037758 -1.573061 0.195424
v -0.928407 -1.521359 -0.195426
v -0.525674 -0.910222 0.195425
v -0.677210 -0.785859 0.195425
v -0.801573 -0.634322 0.195425
v -0.893983 -0.461436 0.195425
v -0.950889 -0.273843 0.195425
v -0.970103 -0.078752 0.195425
v -0.950889 0.116338 0.195425
v -0.893983 0.303931 0.195425
v -0.801573 0.476818 0.195425
v -0.677210 0.628355 0.195425
v -0.525674 0.752717 0.195425
v -0.352787 0.845127 0.195425
v -0.165193 0.902033 0.195425
v 0.029897 0.921248 0.195425
v 0.224987 0.902033 0.195425
v 0.412581 0.845127 0.195425
v 0.585467 0.752717 0.195425
v 0.737004 0.628354 0.195425
v 0.861367 0.476817 0.195425
v 0.953777 0.303930 0.195425
v 1.010682 0.116337 0.195425
v 1.029897 -0.078753 0.195425
v 1.010682 -0.273844 0.195425
v 0.953776 -0.461437 0.195425
v 0.861366 -0.634323 0.195425
v 0.737003 -0.785860 0.195425
v 0.585466 -0.910223 0.195425
v 0.412579 -1.002632 0.195425
v -1.194900 -0.322379 -0.195425
v -1.123836 -0.556644 -0.195425
v -0.037758 -1.573061 -0.195426
v -0.928407 -1.521360 0.195424
v -0.525674 -0.910222 -0.195426
v -0.677210 -0.785859 -0.195425
v -0.801573 -0.634322 -0.195425
v -0.893983 -0.461435 -0.195425
v -0.950889 -0.273842 -0.195425
v -0.970103 -0.078752 -0.195425
v -0.950889 0.116338 -0.195425
v -0.893983 0.303931 -0.195425
v -0.801573 0.476818 -0.195425
v -0.677210 0.628355 -0.195425
v -0.525674 0.752718 -0.195425
v -0.352787 0.845128 -0.195425
v -0.165193 0.902033 -0.195425
v 0.029897 0.921248 -0.195425
v 0.224987 0.902033 -0.195425
v 0.412581 0.845127 -0.195425
v 0.585467 0.752717 -0.195425
v 0.737004 0.628354 -0.195425
v 0.861367 0.476818 -0.195425
v 0.953777 0.303931 -0.195425
v 1.010682 0.116337 -0.195425
v 1.029897 -0.078753 -0.195425
v 1.010682 -0.273843 -0.195425
v 0.953776 -0.461437 -0.195425
v 0.861366 -0.634323 -0.195425
v 0.737003 -0.785860 -0.195425
v 0.585466 -0.910222 -0.195426
v 0.412579 -1.002632 -0.195426
v -1.008436 -0.772543 -0.195425
v 1.068228 -0.772545 -0.195425
v -0.853132 -0.961781 -0.195426
v -0.402041 -0.716133 -0.195425
v -0.802116 -1.323947 0.195425
v -1.029055 -1.137703 0.195425
v -1.215298 -0.910765 0.195425
v -1.353690 -0.651852 0.195425
v -1.438911 -0.370916 0.195425
v -1.467686 -0.078752 0.195425
v -1.438911 0.213412 0.195425
v -1.353690 0.494348 0.195425
v -1.215298 0.753260 0.195425
v -1.029055 0.980199 0.195425
v -0.802116 1.166443 0.195425
v -0.543203 1.304834 0.195425
v -0.262267 1.390055 0.195425
v 0.029897 1.418831 0.195426
v 0.322061 1.390055 0.195425
v 0.602998 1.304834 0.195425
v 0.861910 1.166442 0.195425
v 1.088848 0.980198 0.195425
v 1.275092 0.753259 0.195425
v 1.413484 0.494347 0.195425
v 1.498704 0.213410 0.195425
v 1.527480 -0.078754 0.195425
v 1.498704 -0.370918 0.195425
v 1.413482 -0.651854 0.195425
v 1.275090 -0.910766 0.195425
v 1.088846 -1.137705 0.195425
v 0.861908 -1.323948 0.195425
v 0.602995 -1.462340 0.195424
v 0.507787 -1.232486 -0.195426
v 0.912925 -0.961782 -0.195426
v -0.663895 -1.117084 -0.195426
v -0.402041 -0.716133 0.195425
v -0.802116 -1.323947 -0.195426
v -1.029055 -1.137703 -0.195426
v -1.215298 -0.910765 -0.195425
v -1.353690 -0.651852 -0.195425
v -1.438911 -0.370916 -0.195425
v -1.467687 -0.078752 -0.195425
v -1.438911 0.213412 -0.195425
v -1.353690 0.494348 -0.195425
v -1.215298 0.753260 -0.195425
v -1.029055 0.980199 -0.195425
v -0.802116 1.166443 -0.195425
v -0.543203 1.304834 -0.195425
v -0.262267 1.390055 -0.195425
v 0.029897 1.418831 -0.195425
v 0.322061 1.390055 -0.195425
v 0.602998 1.304834 -0.195425
v 0.861910 1.166442 -0.195425
v 1.088848 0.980198 -0.195425
v 1.275092 0.753260 -0.195425
v 1.413484 0.494347 -0.195425
v 1.498704 0.213411 -0.195425
v 1.527480 -0.078753 -0.195425
v 1.498704 -0.370918 -0.195425
v 1.413482 -0.651854 -0.195425
v 1.275090 -0.910766 -0.195425
v 1.088846 -1.137705 -0.195426
v 0.861908 -1.323948 -0.195426
v 0.602995 -1.462339 -0.195426
v 0.723687 -1.117085 -0.195426
v -1.194900 0.164875 -0.195425
v -1.123836 0.399140 -0.195425
v -1.008436 0.615039 -0.195425
v -0.853132 0.804277 -0.195425
v -0.663895 0.959580 -0.195425
v -0.447995 1.074981 -0.195425
v -0.213730 1.146044 -0.195425
v 0.029897 1.170039 -0.195425
v 0.273524 1.146044 -0.195425
v 0.507789 1.074981 -0.195425
v 0.723689 0.959580 -0.195425
v 0.912926 0.804276 -0.195425
v 1.068229 0.615039 -0.195425
v 1.183630 0.399139 -0.195425
v 1.254693 0.164874 -0.195425
v 1.278688 -0.078753 -0.195425
v 1.254693 -0.322381 -0.195425
v 1.183629 -0.556645 -0.195425
v -1.218895 -0.078752 0.195425
v -1.194900 -0.322379 0.195425
v -1.194900 0.164875 0.195425
v -1.123836 0.399139 0.195425
v -1.008436 0.615039 0.195425
v -0.853132 0.804277 0.195425
v -0.663895 0.959580 0.195425
v -0.447995 1.074981 0.195425
v -0.213730 1.146044 0.195425
v 0.029897 1.170039 0.195425
v 0.273524 1.146044 0.195425
v 0.507789 1.074980 0.195425
v 0.723689 0.959580 0.195425
v 0.912926 0.804276 0.195425
v 1.068229 0.615038 0.195425
v 1.183630 0.399139 0.195425
v 1.254693 0.164874 0.195425
v 1.278688 -0.078753 0.195425
v 1.254693 -0.322381 0.195425
v 1.183629 -0.556645 0.195425
v 1.068228 -0.772545 0.195425
v 0.912925 -0.961782 0.195425
v 0.723687 -1.117085 0.195425
v -0.663895 -1.117085 0.195425
v 0.507787 -1.232486 0.195425
v -0.853132 -0.961781 0.195425
v -1.008436 -0.772544 0.195425
v -1.123836 -0.556644 0.195425
vt 0.782644 0.325370
vt 0.775119 0.325370
vt 0.775119 0.321713
vt 0.782644 0.321713
vt 0.663942 0.832667
vt 0.656417 0.832667
vt 0.656417 0.828927
vt 0.663942 0.828927
vt 0.775119 0.318310
vt 0.782644 0.318310
vt 0.656417 0.825158
vt 0.663942 0.825158
vt 0.775119 0.315292
vt 0.782644 0.315292
vt 0.656417 0.821503
vt 0.663942 0.821503
vt 0.775119 0.312775
vt 0.782644 0.312775
vt 0.656417 0.818104
vt 0.663942 0.818104
vt 0.775119 0.310854
vt 0.782644 0.310854
vt 0.656417 0.815091
vt 0.663942 0.815091
vt 0.775119 0.309605
vt 0.782644 0.309605
vt 0.656417 0.812579
vt 0.663942 0.812579
vt 0.775119 0.309076
vt 0.782644 0.309076
vt 0.166967 0.669238
vt 0.169636 0.671908
vt 0.166597 0.675612
vt 0.163264 0.672278
vt 0.656417 0.810666
vt 0.663942 0.810666
vt 0.663942 0.847392
vt 0.656417 0.847392
vt 0.656417 0.847175
vt 0.663942 0.847175
vt 0.183738 0.637851
vt 0.179963 0.637851
vt 0.179494 0.633082
vt 0.184207 0.633082
vt 0.656417 0.809424
vt 0.663942 0.809424
vt 0.656417 0.846226
vt 0.663942 0.846226
vt 0.278533 0.492780
vt 0.286059 0.492780
vt 0.286059 0.499632
vt 0.278533 0.499632
vt 0.656417 0.808902
vt 0.663942 0.808902
vt 0.656417 0.844582
vt 0.663942 0.844582
vt 0.782644 0.339692
vt 0.775119 0.339692
vt 0.775119 0.336441
vt 0.782644 0.336441
vt 0.164870 0.666098
vt 0.160645 0.668357
vt 0.656417 0.842307
vt 0.663942 0.842307
vt 0.775119 0.332878
vt 0.782644 0.332878
vt 0.163425 0.662610
vt 0.158841 0.664001
vt 0.656417 0.839488
vt 0.663942 0.839488
vt 0.775119 0.329140
vt 0.782644 0.329140
vt 0.656417 0.836233
vt 0.663942 0.836233
vt 0.278533 0.468589
vt 0.278533 0.463116
vt 0.286059 0.463116
vt 0.286059 0.468589
vt 0.170589 0.382848
vt 0.170589 0.388446
vt 0.163063 0.388446
vt 0.163063 0.382848
vt 0.278533 0.458026
vt 0.286059 0.458026
vt 0.170589 0.394092
vt 0.163063 0.394092
vt 0.278533 0.453513
vt 0.286059 0.453513
vt 0.170589 0.399568
vt 0.163063 0.399568
vt 0.278533 0.449752
vt 0.286059 0.449752
vt 0.170589 0.404664
vt 0.163063 0.404664
vt 0.278533 0.446886
vt 0.286059 0.446886
vt 0.170589 0.409184
vt 0.163063 0.409184
vt 0.278533 0.445027
vt 0.286059 0.445027
vt 0.170589 0.412954
vt 0.163063 0.412954
vt 0.278533 0.444246
vt 0.286059 0.444246
vt 0.162689 0.658907
vt 0.157922 0.659376
vt 0.170589 0.415830
vt 0.163063 0.415830
vt 0.170589 0.360857
vt 0.170589 0.361171
vt 0.163063 0.361171
vt 0.163063 0.360857
vt 0.187439 0.638587
vt 0.188830 0.634002
vt 0.170589 0.417700
vt 0.163063 0.417700
vt 0.170589 0.362580
vt 0.163063 0.362580
vt 0.151459 0.986222
vt 0.143934 0.986222
vt 0.143934 0.968312
vt 0.151459 0.968312
vt 0.170589 0.418494
vt 0.163063 0.418494
vt 0.170589 0.365031
vt 0.163063 0.365031
vt 0.278533 0.490050
vt 0.278533 0.485175
vt 0.286059 0.485175
vt 0.286059 0.490050
vt 0.162689 0.655131
vt 0.157922 0.654661
vt 0.170589 0.368429
vt 0.163063 0.368429
vt 0.278533 0.479835
vt 0.286059 0.479835
vt 0.163425 0.651428
vt 0.158841 0.650037
vt 0.170589 0.372643
vt 0.163063 0.372643
vt 0.278533 0.474235
vt 0.286059 0.474235
vt 0.170589 0.377511
vt 0.163063 0.377511
vt 0.200437 0.641760
vt 0.197104 0.638426
vt 0.200143 0.634722
vt 0.204140 0.638720
vt 0.190927 0.640032
vt 0.193185 0.635806
vt 0.031911 0.642410
vt 0.027197 0.642410
vt 0.026727 0.637641
vt 0.032380 0.637641
vt 0.203056 0.645681
vt 0.207280 0.643422
vt 0.648215 0.536006
vt 0.648215 0.543534
vt 0.645529 0.543534
vt 0.645529 0.536006
vt 0.022574 0.643330
vt 0.021184 0.638744
vt 0.204859 0.650037
vt 0.209443 0.648646
vt 0.197104 0.675612
vt 0.200437 0.672278
vt 0.204140 0.675318
vt 0.200143 0.679316
vt 0.018219 0.645134
vt 0.015961 0.640908
vt 0.164870 0.647939
vt 0.160645 0.645680
vt 0.193185 0.678232
vt 0.195443 0.682458
vt 0.014300 0.647754
vt 0.011261 0.644050
vt 0.166967 0.644800
vt 0.163264 0.641760
vt 0.188830 0.680036
vt 0.190221 0.684622
vt 0.010967 0.651088
vt 0.007264 0.648048
vt 0.184207 0.680956
vt 0.184677 0.685725
vt 0.008349 0.655009
vt 0.004124 0.652750
vt 0.179494 0.680956
vt 0.179024 0.685725
vt 0.006545 0.659365
vt 0.001961 0.657974
vt 0.174871 0.680036
vt 0.173480 0.684622
vt 0.005625 0.663990
vt 0.000858 0.663520
vt 0.170516 0.678232
vt 0.168258 0.682458
vt 0.005625 0.668705
vt 0.000858 0.669174
vt 0.163558 0.679316
vt 0.006545 0.673329
vt 0.001961 0.674720
vt 0.159561 0.675318
vt 0.008349 0.677685
vt 0.004124 0.679944
vt 0.156420 0.670616
vt 0.010967 0.681606
vt 0.007264 0.684646
vt 0.154257 0.665392
vt 0.014300 0.684940
vt 0.011261 0.688644
vt 0.153155 0.659846
vt 0.018219 0.687560
vt 0.015961 0.691786
vt 0.153155 0.654192
vt 0.022574 0.689364
vt 0.021184 0.693950
vt 0.154257 0.648646
vt 0.027197 0.690284
vt 0.026727 0.695053
vt 0.156420 0.643422
vt 0.031911 0.690284
vt 0.032380 0.695053
vt 0.159561 0.638720
vt 0.036533 0.689364
vt 0.037924 0.693950
vt 0.166597 0.638426
vt 0.163558 0.634722
vt 0.040888 0.687560
vt 0.043146 0.691786
vt 0.170516 0.635806
vt 0.168258 0.631580
vt 0.044807 0.684940
vt 0.047846 0.688644
vt 0.169636 0.642130
vt 0.174871 0.634002
vt 0.173480 0.629416
vt 0.048140 0.681606
vt 0.051843 0.684646
vt 0.194065 0.642130
vt 0.179024 0.628313
vt 0.050759 0.677685
vt 0.054984 0.679944
vt 0.184677 0.628313
vt 0.052563 0.673329
vt 0.057147 0.674720
vt 0.048140 0.651088
vt 0.044807 0.647754
vt 0.047846 0.644050
vt 0.051843 0.648048
vt 0.190221 0.629416
vt 0.172774 0.640032
vt 0.040888 0.645135
vt 0.043146 0.640908
vt 0.195443 0.631580
vt 0.176261 0.638587
vt 0.036533 0.643330
vt 0.037924 0.638744
vt 0.172774 0.674005
vt 0.176261 0.675450
vt 0.179963 0.676187
vt 0.183738 0.676187
vt 0.187439 0.675450
vt 0.190927 0.674005
vt 0.194065 0.671908
vt 0.196734 0.669238
vt 0.200275 0.651428
vt 0.198831 0.647939
vt 0.196734 0.644800
vt 0.035143 0.647916
vt 0.031441 0.647179
vt 0.038630 0.649361
vt 0.041768 0.651458
vt 0.044437 0.654128
vt 0.046534 0.675427
vt 0.047979 0.671938
vt 0.044437 0.678566
vt 0.041768 0.681236
vt 0.038630 0.683334
vt 0.035143 0.684779
vt 0.031441 0.685515
vt 0.027667 0.685515
vt 0.023965 0.684779
vt 0.020477 0.683334
vt 0.017339 0.681236
vt 0.014670 0.678566
vt 0.012573 0.675427
vt 0.011129 0.671938
vt 0.010392 0.668235
vt 0.010392 0.664459
vt 0.011129 0.660756
vt 0.012573 0.657268
vt 0.014670 0.654128
vt 0.017339 0.651458
vt 0.020477 0.649361
vt 0.023965 0.647916
vt 0.027667 0.647179
vt 0.210356 0.661137
vt 0.207684 0.678111
vt 0.193248 0.666502
vt 0.058059 0.662229
vt 0.040952 0.656864
vt 0.055388 0.645255
vt 0.656417 0.799326
vt 0.663942 0.799326
vt 0.663942 0.804114
vt 0.656417 0.804114
vn 0.9808 0.1951 0.0000
vn 1.0000 -0.0000 -0.0000
vn -0.8315 -0.5556 -0.0000
vn -0.9239 -0.3827 -0.0000
vn 0.9808 -0.1951 -0.0000
vn -0.9808 -0.1951 -0.0000
vn 0.9239 -0.3827 -0.0000
vn -1.0000 0.0000 0.0000
vn 0.8315 -0.5556 -0.0000
vn -0.9808 0.1951 0.0000
vn 0.7071 -0.7071 -0.0000
vn -0.9239 0.3827 0.0000
vn 0.5556 -0.8315 -0.0000
vn -0.8315 0.5556 0.0000
vn 0.3827 -0.9239 -0.0000
vn 0.0000 0.0000 -1.0000
vn -0.7071 0.7071 0.0000
vn 0.1951 -0.9808 -0.0000
vn -0.5556 0.8315 0.0000
vn -0.0000 -1.0000 -0.0000
vn -0.0580 -0.9983 -0.0000
vn -0.4714 0.8819 0.0000
vn -0.1951 -0.9808 -0.0000
vn 0.6344 0.7730 0.0000
vn 0.7071 0.7071 0.0000
vn -0.3827 -0.9239 -0.0000
vn 0.8315 0.5556 0.0000
vn -0.5556 -0.8315 -0.0000
vn 0.9239 0.3827 0.0000
vn -0.7071 -0.7071 -0.0000
vn -0.3827 0.9239 0.0000
vn -0.1951 0.9808 0.0000
vn 0.0000 1.0000 0.0000
vn 0.9203 0.3912 0.0000
vn 0.4714 -0.8819 -0.0000
vn 0.1951 0.9808 0.0000
vn -0.6344 -0.7730 -0.0000
vn 0.3827 0.9239 0.0000
vn 0.5556 0.8315 0.0000
vn 0.0000 -0.0000 1.0000
vn -0.8434 0.5372 0.0000
vn -0.8424 0.5389 0.0000
usemtl Material.001
s 1
f 8/1/1 40/2/1 41/3/2 9/4/2
f 22/5/3 54/6/3 55/7/4 23/8/4
f 9/4/2 41/3/2 42/9/5 10/10/5
f 23/8/4 55/7/4 56/11/6 24/12/6
f 10/10/5 42/9/5 43/13/7 11/14/7
f 24/12/6 56/11/6 57/15/8 25/16/8
f 11/14/7 43/13/7 44/17/9 12/18/9
f 25/16/8 57/15/8 58/19/10 26/20/10
f 12/18/9 44/17/9 45/21/11 13/22/11
f 26/20/10 58/19/10 59/23/12 27/24/12
f 13/22/11 45/21/11 46/25/13 14/26/13
f 27/24/12 59/23/12 60/27/14 28/28/14
f 14/26/13 46/25/13 47/29/15 15/30/15
f 45/31/16 44/32/16 131/33/16 132/34/16
f 28/28/14 60/27/14 61/35/17 29/36/17
f 15/37/15 47/38/15 48/39/18 16/40/18
f 57/41/16 56/42/16 143/43/16 144/44/16
f 29/36/17 61/35/17 62/45/19 30/46/19
f 16/40/18 48/39/18 49/47/20 17/48/20
f 35/49/21 3/50/21 34/51/21 2/52/21
f 30/46/19 62/45/19 63/53/22 31/54/22
f 17/48/20 49/47/20 50/55/23 18/56/23
f 4/57/24 36/58/24 37/59/25 5/60/25
f 46/61/16 45/31/16 132/34/16 133/62/16
f 18/56/23 50/55/23 51/63/26 19/64/26
f 5/60/25 37/59/25 38/65/27 6/66/27
f 47/67/16 46/61/16 133/62/16 134/68/16
f 19/64/26 51/63/26 52/69/28 20/70/28
f 6/66/27 38/65/27 39/71/29 7/72/29
f 20/70/28 52/69/28 53/73/30 21/74/30
f 7/72/29 39/71/29 40/2/1 8/1/1
f 21/74/30 53/73/30 54/6/3 22/5/3
f 72/75/6 73/76/8 105/77/8 104/78/6
f 86/79/27 87/80/29 119/81/29 118/82/27
f 73/76/8 74/83/10 106/84/10 105/77/8
f 87/80/29 88/85/1 120/86/1 119/81/29
f 74/83/10 75/87/12 107/88/12 106/84/10
f 88/85/1 89/89/2 121/90/2 120/86/1
f 75/87/12 76/91/14 108/92/14 107/88/12
f 89/89/2 90/93/5 122/94/5 121/90/2
f 76/91/14 77/95/17 109/96/17 108/92/14
f 90/93/5 91/97/7 123/98/7 122/94/5
f 77/95/17 78/99/19 110/100/19 109/96/17
f 91/97/7 92/101/9 124/102/9 123/98/7
f 78/99/19 79/103/31 111/104/31 110/100/19
f 48/105/16 47/67/16 134/68/16 135/106/16
f 92/101/9 93/107/11 125/108/11 124/102/9
f 79/109/31 80/110/32 112/111/32 111/112/31
f 58/113/16 57/41/16 144/44/16 145/114/16
f 93/107/11 94/115/13 126/116/13 125/108/11
f 80/110/32 81/117/33 113/118/33 112/111/32
f 67/119/34 99/120/34 2/121/34 34/122/34
f 94/115/13 95/123/35 127/124/35 126/116/13
f 81/117/33 82/125/36 114/126/36 113/118/33
f 68/127/37 69/128/30 101/129/30 100/130/37
f 49/131/16 48/105/16 135/106/16 136/132/16
f 82/125/36 83/133/38 115/134/38 114/126/36
f 69/128/30 70/135/3 102/136/3 101/129/30
f 50/137/16 49/131/16 136/132/16 137/138/16
f 83/133/38 84/139/39 116/140/39 115/134/38
f 70/135/3 71/141/4 103/142/4 102/136/3
f 84/139/39 85/143/25 117/144/25 116/140/39
f 71/141/4 72/75/6 104/78/6 103/142/4
f 85/143/25 86/79/27 118/82/27 117/144/25
f 97/145/16 65/146/16 124/147/16 125/148/16
f 59/149/16 58/113/16 145/114/16 146/150/16
f 148/151/40 147/152/40 73/153/40 72/154/40
f 128/155/16 97/145/16 125/148/16 126/156/16
f 36/157/41 4/158/41 99/159/41 67/160/41
f 147/152/40 149/161/40 74/162/40 73/153/40
f 96/163/16 128/155/16 126/156/16 127/164/16
f 66/165/16 98/166/16 100/167/16 101/168/16
f 149/161/40 150/169/40 75/170/40 74/162/40
f 51/171/16 50/137/16 137/138/16 138/172/16
f 64/173/16 66/165/16 101/168/16 102/174/16
f 150/169/40 151/175/40 76/176/40 75/170/40
f 52/177/16 51/171/16 138/172/16 139/178/16
f 33/179/16 64/173/16 102/174/16 103/180/16
f 151/175/40 152/181/40 77/182/40 76/176/40
f 32/183/16 33/179/16 103/180/16 104/184/16
f 152/181/40 153/185/40 78/186/40 77/182/40
f 1/187/16 32/183/16 104/184/16 105/188/16
f 153/185/40 154/189/40 79/190/40 78/186/40
f 129/191/16 1/187/16 105/188/16 106/192/16
f 154/189/40 155/193/40 80/194/40 79/190/40
f 130/195/16 129/191/16 106/192/16 107/196/16
f 155/193/40 156/197/40 81/198/40 80/194/40
f 131/33/16 130/195/16 107/196/16 108/199/16
f 156/197/40 157/200/40 82/201/40 81/198/40
f 132/34/16 131/33/16 108/199/16 109/202/16
f 157/200/40 158/203/40 83/204/40 82/201/40
f 133/62/16 132/34/16 109/202/16 110/205/16
f 158/203/40 159/206/40 84/207/40 83/204/40
f 134/68/16 133/62/16 110/205/16 111/208/16
f 159/206/40 160/209/40 85/210/40 84/207/40
f 135/106/16 134/68/16 111/208/16 112/211/16
f 160/209/40 161/212/40 86/213/40 85/210/40
f 136/132/16 135/106/16 112/211/16 113/214/16
f 161/212/40 162/215/40 87/216/40 86/213/40
f 137/138/16 136/132/16 113/214/16 114/217/16
f 162/215/40 163/218/40 88/219/40 87/216/40
f 138/172/16 137/138/16 114/217/16 115/220/16
f 163/218/40 164/221/40 89/222/40 88/219/40
f 139/178/16 138/172/16 115/220/16 116/223/16
f 164/221/40 165/224/40 90/225/40 89/222/40
f 140/226/16 139/178/16 116/223/16 117/227/16
f 165/224/40 166/228/40 91/229/40 90/225/40
f 141/230/16 140/226/16 117/227/16 118/231/16
f 166/228/40 167/232/40 92/233/40 91/229/40
f 53/234/16 52/177/16 139/178/16 140/226/16
f 142/235/16 141/230/16 118/231/16 119/236/16
f 167/232/40 168/237/40 93/238/40 92/233/40
f 60/239/16 59/149/16 146/150/16 65/146/16
f 143/43/16 142/235/16 119/236/16 120/240/16
f 168/237/40 169/241/40 94/242/40 93/238/40
f 68/127/42 100/130/42 3/50/42 35/49/42
f 144/44/16 143/43/16 120/240/16 121/243/16
f 169/241/40 171/244/40 95/245/40 94/242/40
f 170/246/40 172/247/40 69/248/40 68/249/40
f 145/114/16 144/44/16 121/243/16 122/250/16
f 54/251/16 53/234/16 140/226/16 141/230/16
f 172/247/40 173/252/40 70/253/40 69/248/40
f 146/150/16 145/114/16 122/250/16 123/254/16
f 55/255/16 54/251/16 141/230/16 142/235/16
f 173/252/40 174/256/40 71/257/40 70/253/40
f 65/146/16 146/150/16 123/254/16 124/147/16
f 56/42/16 55/255/16 142/235/16 143/43/16
f 174/256/40 148/151/40 72/154/40 71/257/40
f 44/32/16 43/258/16 130/195/16 131/33/16
f 43/258/16 42/259/16 129/191/16 130/195/16
f 42/259/16 41/260/16 1/187/16 129/191/16
f 41/260/16 40/261/16 32/183/16 1/187/16
f 40/261/16 39/262/16 33/179/16 32/183/16
f 39/262/16 38/263/16 64/173/16 33/179/16
f 38/263/16 37/264/16 66/165/16 64/173/16
f 37/264/16 36/265/16 98/166/16 66/165/16
f 63/266/16 62/267/16 128/155/16 96/163/16
f 62/267/16 61/268/16 97/145/16 128/155/16
f 61/268/16 60/239/16 65/146/16 97/145/16
f 7/269/40 8/270/40 148/151/40 174/256/40
f 6/271/40 7/269/40 174/256/40 173/252/40
f 5/272/40 6/271/40 173/252/40 172/247/40
f 4/273/40 5/272/40 172/247/40 170/246/40
f 30/274/40 31/275/40 171/244/40 169/241/40
f 29/276/40 30/274/40 169/241/40 168/237/40
f 28/277/40 29/276/40 168/237/40 167/232/40
f 27/278/40 28/277/40 167/232/40 166/228/40
f 26/279/40 27/278/40 166/228/40 165/224/40
f 25/280/40 26/279/40 165/224/40 164/221/40
f 24/281/40 25/280/40 164/221/40 163/218/40
f 23/282/40 24/281/40 163/218/40 162/215/40
f 22/283/40 23/282/40 162/215/40 161/212/40
f 21/284/40 22/283/40 161/212/40 160/209/40
f 20/285/40 21/284/40 160/209/40 159/206/40
f 19/286/40 20/285/40 159/206/40 158/203/40
f 18/287/40 19/286/40 158/203/40 157/200/40
f 17/288/40 18/287/40 157/200/40 156/197/40
f 16/289/40 17/288/40 156/197/40 155/193/40
f 15/290/40 16/289/40 155/193/40 154/189/40
f 14/291/40 15/290/40 154/189/40 153/185/40
f 13/292/40 14/291/40 153/185/40 152/181/40
f 12/293/40 13/292/40 152/181/40 151/175/40
f 11/294/40 12/293/40 151/175/40 150/169/40
f 10/295/40 11/294/40 150/169/40 149/161/40
f 9/296/40 10/295/40 149/161/40 147/152/40
f 8/270/40 9/296/40 147/152/40 148/151/40
f 98/166/16 34/297/16 3/298/16 100/167/16
f 67/299/16 34/297/16 98/166/16 36/265/16
f 4/273/40 170/246/40 2/300/40 99/301/40
f 35/302/40 2/300/40 170/246/40 68/249/40
f 127/303/4 95/304/4 171/305/4 96/306/4
f 31/54/4 63/53/4 96/306/4 171/305/4
