# Blender v2.83.5 OBJ File: 'Arrows.blend'
# www.blender.org
mtllib Arrow_8.mtl
o Arrow_8
v -0.011136 1.648444 0.105074
v -0.331534 1.616887 0.105074
v -0.639620 1.523430 0.105074
v -0.923553 1.371665 0.105074
v -1.172422 1.167423 0.105074
v -1.376664 0.918554 0.105074
v -1.528429 0.634621 0.105074
v -1.621886 0.326536 0.105074
v -1.653442 0.006138 0.105074
v -1.621886 -0.314260 0.105073
v -1.528429 -0.622345 0.105073
v -1.376664 -0.906279 0.105073
v -1.172422 -1.155148 0.105073
v -0.923553 -1.359390 0.105073
v -0.639620 -1.511155 0.105073
v -0.331534 -1.604612 0.105073
v -0.011136 -1.636168 0.105073
v 0.309262 -1.604612 0.105073
v 0.617348 -1.511155 0.105073
v 0.901281 -1.359389 0.105073
v 1.150150 -1.155147 0.105073
v 1.354392 -0.906278 0.105073
v 1.506157 -0.622344 0.105073
v 1.599613 -0.314259 0.105073
v 1.631170 0.006139 0.105074
v 1.599613 0.326537 0.105074
v 1.506156 0.634623 0.105074
v 1.354390 0.918556 0.105074
v 1.150148 1.167425 0.105074
v 0.901278 1.371666 0.105074
v 0.617345 1.523431 0.105074
v 0.309259 1.616888 0.105074
v -0.011136 1.648444 -0.105073
v -0.331534 1.616887 -0.105073
v -0.639620 1.523430 -0.105073
v -0.923553 1.371665 -0.105073
v -1.172422 1.167423 -0.105073
v -1.376664 0.918554 -0.105073
v -1.528429 0.634621 -0.105073
v -1.621886 0.326536 -0.105073
v -1.653442 0.006138 -0.105074
v -1.621886 -0.314260 -0.105074
v -1.528429 -0.622345 -0.105074
v -1.376664 -0.906279 -0.105074
v -1.172422 -1.155148 -0.105074
v -0.923553 -1.359390 -0.105074
v -0.639620 -1.511155 -0.105074
v -0.331534 -1.604612 -0.105074
v -0.011136 -1.636168 -0.105074
v 0.309262 -1.604612 -0.105074
v 0.617348 -1.511155 -0.105074
v 0.901281 -1.359389 -0.105074
v 1.150150 -1.155147 -0.105074
v 1.354392 -0.906278 -0.105074
v 1.506157 -0.622344 -0.105074
v 1.599613 -0.314259 -0.105074
v 1.631170 0.006139 -0.105074
v 1.599613 0.326537 -0.105073
v 1.506156 0.634623 -0.105073
v 1.354390 0.918556 -0.105073
v 1.150148 1.167425 -0.105073
v 0.901278 1.371666 -0.105073
v 0.617345 1.523431 -0.105073
v 0.309259 1.616888 -0.105073
v -0.380521 1.863160 0.105074
v -0.011137 1.899541 0.105074
v -0.735711 1.755414 0.105074
v -1.063055 1.580445 0.105074
v -1.349975 1.344976 0.105074
v -1.585444 1.058056 0.105074
v -1.760413 0.730712 0.105074
v -1.868158 0.375522 0.105074
v -1.904540 0.006138 0.105074
v -1.868159 -0.363247 0.105073
v -1.760413 -0.718436 0.105073
v -1.585444 -1.045781 0.105073
v -1.349975 -1.332701 0.105073
v -1.063055 -1.568170 0.105073
v -0.735710 -1.743139 0.105073
v -0.380521 -1.850885 0.105073
v -0.011136 -1.887266 0.105073
v 0.358249 -1.850884 0.105073
v 0.713438 -1.743139 0.105073
v 1.040783 -1.568169 0.105073
v 1.327703 -1.332700 0.105073
v 1.563172 -1.045780 0.105073
v 1.738141 -0.718435 0.105073
v 1.845886 -0.363245 0.105073
v 1.882267 0.006139 0.105074
v 1.845885 0.375524 0.105074
v 1.738139 0.730714 0.105074
v 1.563170 1.058058 0.105074
v 1.327700 1.344978 0.105074
v 1.040780 1.580446 0.105074
v 0.713435 1.755415 0.105074
v 0.358245 1.863160 0.105074
v -0.380521 1.863160 -0.105073
v -0.011137 1.899541 -0.105073
v -0.735711 1.755414 -0.105073
v -1.063055 1.580445 -0.105073
v -1.349975 1.344976 -0.105073
v -1.585444 1.058056 -0.105073
v -1.760413 0.730712 -0.105073
v -1.868158 0.375522 -0.105073
v -1.904540 0.006138 -0.105074
v -1.868159 -0.363247 -0.105074
v -1.760413 -0.718436 -0.105074
v -1.585444 -1.045781 -0.105074
v -1.349975 -1.332701 -0.105074
v -1.063055 -1.568170 -0.105074
v -0.735710 -1.743139 -0.105074
v -0.380521 -1.850885 -0.105074
v -0.011136 -1.887266 -0.105074
v 0.358249 -1.850884 -0.105074
v 0.713438 -1.743139 -0.105074
v 1.040783 -1.568169 -0.105074
v 1.327703 -1.332700 -0.105074
v 1.563172 -1.045780 -0.105074
v 1.738141 -0.718435 -0.105074
v 1.845886 -0.363245 -0.105074
v 1.882267 0.006140 -0.105074
v 1.845885 0.375524 -0.105073
v 1.738139 0.730714 -0.105073
v 1.563170 1.058058 -0.105073
v 1.327700 1.344978 -0.105073
v 1.040780 1.580446 -0.105073
v 0.713435 1.755415 -0.105073
v 0.358245 1.863160 -0.105073
v -0.768937 0.854707 -0.105073
v -0.768937 -0.883698 -0.105074
v -0.768937 0.854706 0.105074
v -0.768937 -0.883699 0.105073
v 0.084232 0.854707 -0.105073
v 0.084232 -0.883698 -0.105074
v 0.084232 0.854706 0.105074
v 0.084232 -0.883699 0.105073
v 0.035109 -0.014496 -0.105074
v 0.035109 -0.014496 0.105074
v 0.888278 -0.014496 0.105074
v 0.888278 -0.014496 -0.105074
v -0.246307 -0.318717 -0.105074
v -0.246307 -0.318717 0.105073
v 0.606862 -0.318717 0.105073
v 0.606862 -0.318717 -0.105074
v -0.246307 0.289725 0.105074
v 0.606862 0.289725 0.105074
v 0.606862 0.289725 -0.105073
v -0.246307 0.289725 -0.105073
vt 0.681308 0.925665
vt 0.681308 0.916773
vt 0.685354 0.916773
vt 0.685354 0.925665
vt 0.670456 0.114077
vt 0.680519 0.124959
vt 0.664092 0.124959
vt 0.654029 0.114077
vt 0.082294 0.918724
vt 0.082294 0.909833
vt 0.086341 0.909833
vt 0.086341 0.918724
vt 0.719671 0.234002
vt 0.709608 0.244884
vt 0.693181 0.244884
vt 0.703244 0.234002
vt 0.082294 0.945728
vt 0.082294 0.942769
vt 0.086341 0.942769
vt 0.086341 0.945728
vt 0.685354 0.913814
vt 0.681308 0.913814
vt 0.719671 0.222283
vt 0.725090 0.228143
vt 0.708663 0.228143
vt 0.703244 0.222283
vt 0.082294 0.930252
vt 0.082294 0.923512
vt 0.086341 0.923512
vt 0.086341 0.930252
vt 0.670456 0.102358
vt 0.665038 0.108218
vt 0.648611 0.108218
vt 0.654029 0.102358
vt 0.681308 0.937192
vt 0.681308 0.930453
vt 0.685354 0.930453
vt 0.685354 0.937192
vt 0.681308 0.949709
vt 0.685354 0.949709
vt 0.680519 0.091476
vt 0.664092 0.091476
vt 0.709608 0.211401
vt 0.693181 0.211401
vt 0.502341 0.786318
vt 0.502341 0.784609
vt 0.506387 0.784609
vt 0.506387 0.786318
vt 0.502341 0.846650
vt 0.502341 0.844760
vt 0.506387 0.844760
vt 0.506387 0.846650
vt 0.407812 0.834232
vt 0.407812 0.829378
vt 0.411858 0.829378
vt 0.411858 0.834232
vt 0.502341 0.841753
vt 0.506387 0.841753
vt 0.407812 0.823866
vt 0.411858 0.823866
vt 0.502341 0.837747
vt 0.506387 0.837747
vt 0.407812 0.817905
vt 0.411858 0.817905
vt 0.502341 0.832893
vt 0.506387 0.832893
vt 0.407812 0.811725
vt 0.411858 0.811725
vt 0.502341 0.827381
vt 0.506387 0.827381
vt 0.407812 0.805564
vt 0.411858 0.805564
vt 0.502341 0.821420
vt 0.506387 0.821420
vt 0.407812 0.799658
vt 0.411858 0.799658
vt 0.502341 0.815240
vt 0.506387 0.815240
vt 0.407812 0.794235
vt 0.411858 0.794235
vt 0.502341 0.809079
vt 0.506387 0.809079
vt 0.407812 0.789502
vt 0.411858 0.789502
vt 0.502341 0.803173
vt 0.506387 0.803173
vt 0.407812 0.785642
vt 0.411858 0.785642
vt 0.502341 0.784096
vt 0.506387 0.784096
vt 0.502341 0.797750
vt 0.506387 0.797750
vt 0.407812 0.782803
vt 0.411858 0.782803
vt 0.407812 0.843837
vt 0.407812 0.843135
vt 0.411858 0.843135
vt 0.411858 0.843837
vt 0.502341 0.793017
vt 0.506387 0.793017
vt 0.407812 0.781094
vt 0.411858 0.781094
vt 0.407812 0.841245
vt 0.411858 0.841245
vt 0.502341 0.789157
vt 0.506387 0.789157
vt 0.407812 0.780581
vt 0.411858 0.780581
vt 0.407812 0.838238
vt 0.411858 0.838238
vt 0.502341 0.847353
vt 0.506387 0.847353
vt 0.229930 0.312600
vt 0.233977 0.312600
vt 0.233977 0.314571
vt 0.229930 0.314571
vt 0.229930 0.243043
vt 0.233977 0.243043
vt 0.233977 0.245223
vt 0.229930 0.245223
vt 0.286111 0.563411
vt 0.282065 0.563411
vt 0.282065 0.557816
vt 0.286111 0.557816
vt 0.233977 0.248689
vt 0.229930 0.248689
vt 0.282065 0.551460
vt 0.286111 0.551460
vt 0.233977 0.253309
vt 0.229930 0.253309
vt 0.282065 0.544588
vt 0.286111 0.544588
vt 0.233977 0.258904
vt 0.229930 0.258904
vt 0.282065 0.537463
vt 0.286111 0.537463
vt 0.233977 0.265259
vt 0.229930 0.265259
vt 0.282065 0.530360
vt 0.286111 0.530360
vt 0.233977 0.272132
vt 0.229930 0.272132
vt 0.282065 0.523551
vt 0.286111 0.523551
vt 0.233977 0.279256
vt 0.229930 0.279256
vt 0.282065 0.517299
vt 0.286111 0.517299
vt 0.233977 0.286359
vt 0.229930 0.286359
vt 0.282065 0.511842
vt 0.286111 0.511842
vt 0.233977 0.293168
vt 0.229930 0.293168
vt 0.282065 0.507392
vt 0.286111 0.507392
vt 0.233977 0.315162
vt 0.229930 0.315162
vt 0.233977 0.299421
vt 0.229930 0.299421
vt 0.282065 0.504119
vt 0.286111 0.504119
vt 0.286111 0.574485
vt 0.282065 0.574485
vt 0.282065 0.573676
vt 0.286111 0.573676
vt 0.233977 0.304877
vt 0.229930 0.304877
vt 0.282065 0.502149
vt 0.286111 0.502149
vt 0.282065 0.571496
vt 0.286111 0.571496
vt 0.233977 0.309327
vt 0.229930 0.309327
vt 0.282065 0.501557
vt 0.286111 0.501557
vt 0.282065 0.568030
vt 0.286111 0.568030
vt 0.229930 0.242234
vt 0.233977 0.242234
vt 0.068837 0.472859
vt 0.073649 0.473333
vt 0.072255 0.480345
vt 0.067628 0.478941
vt 0.258876 0.436303
vt 0.260279 0.440931
vt 0.253270 0.442326
vt 0.252796 0.437513
vt 0.225253 0.426100
vt 0.221516 0.429169
vt 0.217546 0.423224
vt 0.221810 0.420944
vt 0.068837 0.466658
vt 0.073649 0.466184
vt 0.246124 0.442326
vt 0.246597 0.437513
vt 0.214811 0.416619
vt 0.219437 0.415215
vt 0.067628 0.460576
vt 0.072255 0.459172
vt 0.239114 0.440931
vt 0.240518 0.436303
vt 0.213417 0.409608
vt 0.218228 0.409134
vt 0.065256 0.454847
vt 0.069520 0.452567
vt 0.034269 0.438279
vt 0.033795 0.433466
vt 0.040942 0.433466
vt 0.040468 0.438279
vt 0.213417 0.402459
vt 0.218228 0.402933
vt 0.061812 0.449691
vt 0.065549 0.446623
vt 0.028189 0.439488
vt 0.026786 0.434860
vt 0.214811 0.395447
vt 0.219437 0.396851
vt 0.057429 0.445306
vt 0.060496 0.441568
vt 0.022463 0.441861
vt 0.020183 0.437596
vt 0.217546 0.388842
vt 0.221810 0.391122
vt 0.052275 0.441861
vt 0.054554 0.437596
vt 0.017308 0.445307
vt 0.014241 0.441568
vt 0.221516 0.382898
vt 0.225253 0.385966
vt 0.046548 0.439488
vt 0.047951 0.434860
vt 0.012925 0.449691
vt 0.009188 0.446623
vt 0.226570 0.377843
vt 0.229637 0.381581
vt 0.009481 0.454847
vt 0.005218 0.452567
vt 0.232512 0.373871
vt 0.234791 0.378136
vt 0.007109 0.460576
vt 0.002483 0.459172
vt 0.239114 0.371135
vt 0.240518 0.375763
vt 0.005900 0.466658
vt 0.001088 0.466184
vt 0.246124 0.369740
vt 0.246597 0.374553
vt 0.005900 0.472859
vt 0.001088 0.473333
vt 0.253270 0.369740
vt 0.252796 0.374553
vt 0.007109 0.478941
vt 0.002483 0.480345
vt 0.260279 0.371135
vt 0.258876 0.375763
vt 0.009481 0.484670
vt 0.005218 0.486950
vt 0.266882 0.373871
vt 0.264603 0.378136
vt 0.012925 0.489826
vt 0.009188 0.492894
vt 0.272824 0.377843
vt 0.269757 0.381581
vt 0.017308 0.494211
vt 0.014241 0.497949
vt 0.277877 0.382898
vt 0.274140 0.385966
vt 0.022463 0.497656
vt 0.020183 0.501921
vt 0.281848 0.388842
vt 0.277584 0.391122
vt 0.028189 0.500029
vt 0.026786 0.504657
vt 0.284583 0.395447
vt 0.279956 0.396851
vt 0.034269 0.501238
vt 0.033795 0.506051
vt 0.285977 0.402459
vt 0.281166 0.402933
vt 0.040468 0.501238
vt 0.040942 0.506051
vt 0.285977 0.409608
vt 0.281166 0.409134
vt 0.046548 0.500029
vt 0.047951 0.504657
vt 0.284583 0.416619
vt 0.279956 0.415215
vt 0.052275 0.497656
vt 0.054554 0.501921
vt 0.281848 0.423224
vt 0.277584 0.420944
vt 0.057429 0.494211
vt 0.060496 0.497949
vt 0.277877 0.429168
vt 0.274140 0.426100
vt 0.061812 0.489826
vt 0.065549 0.492894
vt 0.272824 0.434224
vt 0.269757 0.430485
vt 0.232512 0.438195
vt 0.234791 0.433930
vt 0.065256 0.484670
vt 0.069520 0.486950
vt 0.266882 0.438195
vt 0.264603 0.433930
vt 0.226570 0.434224
vt 0.229637 0.430485
vn -0.7341 0.6791 0.0000
vn 0.0000 -0.0000 1.0000
vn 0.7341 -0.6791 -0.0000
vn 0.0000 0.0000 -1.0000
vn 0.0000 1.0000 0.0000
vn 0.0000 -1.0000 -0.0000
vn 0.7341 0.6791 0.0000
vn -0.7341 -0.6791 -0.0000
vn -0.1951 -0.9808 0.0000
vn -0.3827 0.9239 0.0000
vn -0.5556 0.8315 0.0000
vn 0.8315 -0.5556 -0.0000
vn 0.9239 -0.3827 -0.0000
vn -0.7071 0.7071 0.0000
vn 0.9808 -0.1951 -0.0000
vn -0.8315 0.5556 0.0000
vn 1.0000 -0.0000 -0.0000
vn -0.9239 0.3827 0.0000
vn 0.9808 0.1951 0.0000
vn -0.9808 0.1951 0.0000
vn 0.9239 0.3827 0.0000
vn -1.0000 -0.0000 -0.0000
vn 0.8315 0.5556 0.0000
vn -0.9808 -0.1951 -0.0000
vn 0.7071 0.7071 0.0000
vn -0.9239 -0.3827 -0.0000
vn 0.5556 0.8315 0.0000
vn -0.8315 -0.5556 -0.0000
vn 0.3827 0.9239 0.0000
vn 0.1951 -0.9808 0.0000
vn -0.7071 -0.7071 -0.0000
vn 0.1951 0.9808 0.0000
vn 0.3827 -0.9239 0.0000
vn -0.5556 -0.8315 0.0000
vn 0.5556 -0.8315 0.0000
vn -0.3827 -0.9239 0.0000
vn -0.1951 0.9808 0.0000
vn 0.7071 -0.7071 0.0000
usemtl Material.001
s off
f 141/1/1 130/2/1 132/3/1 142/4/1
f 142/5/2 132/6/2 136/7/2 143/8/2
f 143/9/3 136/10/3 134/11/3 144/12/3
f 144/13/4 134/14/4 130/15/4 141/16/4
f 131/17/5 135/18/5 133/19/5 129/20/5
f 136/21/6 132/3/6 130/2/6 134/22/6
f 147/23/4 140/24/4 137/25/4 148/26/4
f 146/27/7 139/28/7 140/29/7 147/30/7
f 145/31/2 138/32/2 139/33/2 146/34/2
f 148/35/8 137/36/8 138/37/8 145/38/8
f 140/24/4 144/13/4 141/16/4 137/25/4
f 139/28/3 143/9/3 144/12/3 140/29/3
f 138/32/2 142/5/2 143/8/2 139/33/2
f 137/36/1 141/1/1 142/4/1 138/37/1
f 129/39/8 148/35/8 145/38/8 131/40/8
f 131/41/2 145/31/2 146/34/2 135/42/2
f 135/18/7 146/27/7 147/30/7 133/19/7
f 133/43/4 147/23/4 148/26/4 129/44/4
s 1
f 32/45/9 1/46/6 33/47/6 64/48/9
f 19/49/10 20/50/11 52/51/11 51/52/10
f 6/53/12 7/54/13 39/55/13 38/56/12
f 20/50/11 21/57/14 53/58/14 52/51/11
f 7/54/13 8/59/15 40/60/15 39/55/13
f 21/57/14 22/61/16 54/62/16 53/58/14
f 8/59/15 9/63/17 41/64/17 40/60/15
f 22/61/16 23/65/18 55/66/18 54/62/16
f 9/63/17 10/67/19 42/68/19 41/64/17
f 23/65/18 24/69/20 56/70/20 55/66/18
f 10/67/19 11/71/21 43/72/21 42/68/19
f 24/69/20 25/73/22 57/74/22 56/70/20
f 11/71/21 12/75/23 44/76/23 43/72/21
f 25/73/22 26/77/24 58/78/24 57/74/22
f 12/75/23 13/79/25 45/80/25 44/76/23
f 26/77/24 27/81/26 59/82/26 58/78/24
f 13/79/25 14/83/27 46/84/27 45/80/25
f 27/81/26 28/85/28 60/86/28 59/82/26
f 14/83/27 15/87/29 47/88/29 46/84/27
f 1/46/6 2/89/30 34/90/30 33/47/6
f 28/85/28 29/91/31 61/92/31 60/86/28
f 15/87/29 16/93/32 48/94/32 47/88/29
f 2/95/30 3/96/33 35/97/33 34/98/30
f 29/91/31 30/99/34 62/100/34 61/92/31
f 16/93/32 17/101/5 49/102/5 48/94/32
f 3/96/33 4/103/35 36/104/35 35/97/33
f 30/99/34 31/105/36 63/106/36 62/100/34
f 17/101/5 18/107/37 50/108/37 49/102/5
f 4/103/35 5/109/38 37/110/38 36/104/35
f 31/105/36 32/45/9 64/48/9 63/106/36
f 18/111/37 19/49/10 51/52/10 50/112/37
f 5/109/38 6/53/12 38/56/12 37/110/38
f 96/113/32 128/114/32 98/115/5 66/116/5
f 83/117/33 115/118/33 116/119/35 84/120/35
f 70/121/16 102/122/16 103/123/18 71/124/18
f 84/120/35 116/119/35 117/125/38 85/126/38
f 71/124/18 103/123/18 104/127/20 72/128/20
f 85/126/38 117/125/38 118/129/12 86/130/12
f 72/128/20 104/127/20 105/131/22 73/132/22
f 86/130/12 118/129/12 119/133/13 87/134/13
f 73/132/22 105/131/22 106/135/24 74/136/24
f 87/134/13 119/133/13 120/137/15 88/138/15
f 74/136/24 106/135/24 107/139/26 75/140/26
f 88/138/15 120/137/15 121/141/17 89/142/17
f 75/140/26 107/139/26 108/143/28 76/144/28
f 89/142/17 121/141/17 122/145/19 90/146/19
f 76/144/28 108/143/28 109/147/31 77/148/31
f 90/146/19 122/145/19 123/149/21 91/150/21
f 77/148/31 109/147/31 110/151/34 78/152/34
f 91/150/21 123/149/21 124/153/23 92/154/23
f 78/152/34 110/151/34 111/155/36 79/156/36
f 66/116/5 98/115/5 97/157/37 65/158/37
f 92/154/23 124/153/23 125/159/25 93/160/25
f 79/156/36 111/155/36 112/161/9 80/162/9
f 65/163/37 97/164/37 99/165/10 67/166/10
f 93/160/25 125/159/25 126/167/27 94/168/27
f 80/162/9 112/161/9 113/169/6 81/170/6
f 67/166/10 99/165/10 100/171/11 68/172/11
f 94/168/27 126/167/27 127/173/29 95/174/29
f 81/170/6 113/169/6 114/175/30 82/176/30
f 68/172/11 100/171/11 101/177/14 69/178/14
f 95/174/29 127/173/29 128/114/32 96/113/32
f 82/179/30 114/180/30 115/118/33 83/117/33
f 69/178/14 101/177/14 102/122/16 70/121/16
f 57/181/4 121/182/4 120/183/4 56/184/4
f 30/185/2 94/186/2 95/187/2 31/188/2
f 4/189/2 68/190/2 69/191/2 5/192/2
f 58/193/4 122/194/4 121/182/4 57/181/4
f 31/188/2 95/187/2 96/195/2 32/196/2
f 5/192/2 69/191/2 70/197/2 6/198/2
f 59/199/4 123/200/4 122/194/4 58/193/4
f 32/196/2 96/195/2 66/201/2 1/202/2
f 6/198/2 70/197/2 71/203/2 7/204/2
f 60/205/4 124/206/4 123/200/4 59/199/4
f 34/207/4 97/208/4 98/209/4 33/210/4
f 7/204/2 71/203/2 72/211/2 8/212/2
f 61/213/4 125/214/4 124/206/4 60/205/4
f 35/215/4 99/216/4 97/208/4 34/207/4
f 8/212/2 72/211/2 73/217/2 9/218/2
f 62/219/4 126/220/4 125/214/4 61/213/4
f 36/221/4 100/222/4 99/216/4 35/215/4
f 9/218/2 73/217/2 74/223/2 10/224/2
f 63/225/4 127/226/4 126/220/4 62/219/4
f 37/227/4 101/228/4 100/222/4 36/221/4
f 10/224/2 74/223/2 75/229/2 11/230/2
f 64/231/4 128/232/4 127/226/4 63/225/4
f 38/233/4 102/234/4 101/228/4 37/227/4
f 11/230/2 75/229/2 76/235/2 12/236/2
f 33/210/4 98/209/4 128/232/4 64/231/4
f 39/237/4 103/238/4 102/234/4 38/233/4
f 12/236/2 76/235/2 77/239/2 13/240/2
f 40/241/4 104/242/4 103/238/4 39/237/4
f 13/240/2 77/239/2 78/243/2 14/244/2
f 41/245/4 105/246/4 104/242/4 40/241/4
f 14/244/2 78/243/2 79/247/2 15/248/2
f 42/249/4 106/250/4 105/246/4 41/245/4
f 15/248/2 79/247/2 80/251/2 16/252/2
f 43/253/4 107/254/4 106/250/4 42/249/4
f 16/252/2 80/251/2 81/255/2 17/256/2
f 44/257/4 108/258/4 107/254/4 43/253/4
f 17/256/2 81/255/2 82/259/2 18/260/2
f 45/261/4 109/262/4 108/258/4 44/257/4
f 18/260/2 82/259/2 83/263/2 19/264/2
f 46/265/4 110/266/4 109/262/4 45/261/4
f 19/264/2 83/263/2 84/267/2 20/268/2
f 47/269/4 111/270/4 110/266/4 46/265/4
f 20/268/2 84/267/2 85/271/2 21/272/2
f 48/273/4 112/274/4 111/270/4 47/269/4
f 21/272/2 85/271/2 86/275/2 22/276/2
f 49/277/4 113/278/4 112/274/4 48/273/4
f 22/276/2 86/275/2 87/279/2 23/280/2
f 50/281/4 114/282/4 113/278/4 49/277/4
f 23/280/2 87/279/2 88/283/2 24/284/2
f 51/285/4 115/286/4 114/282/4 50/281/4
f 24/284/2 88/283/2 89/287/2 25/288/2
f 52/289/4 116/290/4 115/286/4 51/285/4
f 25/288/2 89/287/2 90/291/2 26/292/2
f 53/293/4 117/294/4 116/290/4 52/289/4
f 26/292/2 90/291/2 91/295/2 27/296/2
f 54/297/4 118/298/4 117/294/4 53/293/4
f 27/296/2 91/295/2 92/299/2 28/300/2
f 1/202/2 66/201/2 65/301/2 2/302/2
f 55/303/4 119/304/4 118/298/4 54/297/4
f 28/300/2 92/299/2 93/305/2 29/306/2
f 2/302/2 65/301/2 67/307/2 3/308/2
f 56/184/4 120/183/4 119/304/4 55/303/4
f 29/306/2 93/305/2 94/186/2 30/185/2
f 3/308/2 67/307/2 68/190/2 4/189/2
