# Blender v2.83.5 OBJ File: 'Arrows.blend'
# www.blender.org
mtllib Arrow_39.mtl
o Arrow_39
v -0.427606 -0.010058 0.426534
v -0.620080 0.082264 0.426534
v -0.790844 0.210361 0.426534
v -0.933337 0.369311 0.426534
v -1.042082 0.553006 0.426534
v -1.083394 0.670482 0.426534
v 0.811409 0.334660 0.426534
v 0.588734 0.135041 0.426534
v 0.405039 0.026296 0.426534
v 0.203658 -0.044522 0.426534
v -0.007669 -0.074692 0.426534
v -0.220821 -0.063055 0.426534
v -0.427606 -0.010057 -0.426534
v -0.620080 0.082264 -0.426534
v -0.790844 0.210361 -0.426534
v -0.933337 0.369311 -0.426534
v -1.042082 0.553006 -0.426534
v -1.083394 0.670482 -0.426534
v 0.811409 0.334660 -0.426534
v 0.588734 0.135041 -0.426534
v 0.405039 0.026296 -0.426534
v 0.203658 -0.044522 -0.426534
v -0.007669 -0.074692 -0.426534
v -0.220821 -0.063055 -0.426534
v -0.911566 -0.398091 0.426534
v -0.619779 -0.538049 0.426534
v -1.170442 -0.203898 0.426534
v -1.386459 0.037068 0.426534
v -1.551315 0.315546 0.426534
v -1.629169 0.536932 0.426534
v 1.231515 -0.039696 0.426534
v 0.920976 -0.318082 0.426534
v 0.642497 -0.482938 0.426534
v 0.337207 -0.590297 0.426534
v 0.016839 -0.636034 0.426534
v -0.306296 -0.618392 0.426534
v -0.911566 -0.398091 -0.426534
v -0.619779 -0.538049 -0.426534
v -1.170442 -0.203898 -0.426534
v -1.386459 0.037068 -0.426534
v -1.551315 0.315546 -0.426534
v -1.629169 0.536932 -0.426534
v 1.360939 -0.171931 -0.426534
v 1.360939 -0.171931 0.426534
v 0.656929 0.486459 -0.426534
v 0.656929 0.486459 0.426534
v 1.231515 -0.039696 -0.426534
v 0.920976 -0.318082 -0.426534
v 0.642497 -0.482937 -0.426534
v 0.337207 -0.590297 -0.426534
v 0.016839 -0.636034 -0.426534
v -0.306297 -0.618392 -0.426534
v 1.522959 0.663669 -0.426534
v 1.522959 0.663669 0.426534
v -1.364749 0.601635 0.426534
v -1.364749 0.601635 -0.426534
v -0.573940 0.158300 0.426534
v -0.397187 0.073519 0.426534
v -0.730757 0.275934 0.426534
v -0.861611 0.421902 0.426534
v -0.961474 0.590594 0.426534
v -1.026509 0.775526 0.426534
v 0.536142 0.206767 0.426534
v 0.682110 0.337621 0.426534
v 0.367451 0.106904 0.426534
v 0.182518 0.041869 0.426534
v -0.011548 0.014164 0.426534
v -0.207291 0.024851 0.426534
v -0.573940 0.158300 -0.426534
v -0.397187 0.073519 -0.426534
v -0.730757 0.275935 -0.426534
v -0.861611 0.421902 -0.426534
v -0.961474 0.590594 -0.426534
v -1.026509 0.775526 -0.426534
v 0.536142 0.206767 -0.426534
v 0.682110 0.337621 -0.426534
v 0.367451 0.106904 -0.426534
v 0.182518 0.041870 -0.426534
v -0.011548 0.014164 -0.426534
v -0.207291 0.024851 -0.426534
v -0.957706 -0.474128 0.426534
v -0.650199 -0.621626 0.426534
v -1.230530 -0.269472 0.426534
v -1.458185 -0.015524 0.426534
v -1.631923 0.277958 0.426534
v -1.745067 0.599696 0.426534
v 0.973568 -0.389808 0.426534
v 1.227516 -0.162153 0.426534
v 0.680085 -0.563545 0.426534
v 0.358347 -0.676689 0.426534
v 0.020718 -0.724890 0.426534
v -0.319827 -0.706298 0.426534
v -0.957706 -0.474128 -0.426534
v -0.650199 -0.621626 -0.426534
v -1.230530 -0.269472 -0.426534
v -1.458185 -0.015524 -0.426534
v -1.631923 0.277958 -0.426534
v -1.745067 0.599696 -0.426534
v 0.973568 -0.389808 -0.426534
v 1.227516 -0.162153 -0.426534
v 0.680085 -0.563545 -0.426534
v 0.358347 -0.676689 -0.426534
v 0.020718 -0.724890 -0.426534
v -0.319827 -0.706298 -0.426534
v -1.385788 0.687611 0.426534
v -1.385788 0.687611 -0.426534
v 0.476313 0.539847 0.426534
v 0.476313 0.539848 -0.426534
v 1.415712 -0.354436 -0.426534
v 1.415712 -0.354436 0.426534
v 1.635087 0.776959 0.426534
v 1.635087 0.776959 -0.426534
vt 0.624912 0.869030
vt 0.641337 0.869030
vt 0.641337 0.872203
vt 0.624912 0.872203
vt 0.624912 0.890359
vt 0.641337 0.890359
vt 0.641337 0.893465
vt 0.624912 0.893465
vt 0.641337 0.875714
vt 0.624912 0.875714
vt 0.641337 0.896091
vt 0.624912 0.896091
vt 0.641337 0.879429
vt 0.624912 0.879429
vt 0.641337 0.898138
vt 0.624912 0.898138
vt 0.641337 0.883204
vt 0.624912 0.883204
vt 0.641337 0.899527
vt 0.624912 0.899527
vt 0.641337 0.886895
vt 0.624912 0.886895
vt 0.641337 0.900204
vt 0.624912 0.900204
vt 0.269156 0.843404
vt 0.269156 0.837885
vt 0.285581 0.837885
vt 0.285581 0.843404
vt 0.269156 0.806297
vt 0.269156 0.800894
vt 0.285581 0.800894
vt 0.285581 0.806297
vt 0.269156 0.831776
vt 0.285581 0.831776
vt 0.269156 0.796324
vt 0.285581 0.796324
vt 0.269156 0.825314
vt 0.285581 0.825314
vt 0.269156 0.792763
vt 0.285581 0.792763
vt 0.269156 0.818746
vt 0.285581 0.818746
vt 0.269156 0.790347
vt 0.285581 0.790347
vt 0.269156 0.812324
vt 0.285581 0.812324
vt 0.269156 0.789169
vt 0.285581 0.789169
vt 0.553394 0.241175
vt 0.536969 0.241175
vt 0.536969 0.235949
vt 0.553394 0.235949
vt 0.200486 0.855972
vt 0.184061 0.855972
vt 0.184061 0.855162
vt 0.200486 0.855162
vt 0.169245 0.526197
vt 0.169245 0.509766
vt 0.172546 0.509766
vt 0.172546 0.526197
vt 0.285581 0.846402
vt 0.269156 0.846402
vt 0.641337 0.907304
vt 0.641337 0.914404
vt 0.624912 0.914404
vt 0.624912 0.907304
vt 0.521274 0.975314
vt 0.504849 0.975314
vt 0.504849 0.952554
vt 0.521274 0.952554
vt 0.285581 0.854001
vt 0.269156 0.854001
vt 0.184061 0.852869
vt 0.200486 0.852869
vt 0.184061 0.849490
vt 0.200486 0.849490
vt 0.184061 0.845154
vt 0.200486 0.845154
vt 0.184061 0.840028
vt 0.200486 0.840028
vt 0.184061 0.834308
vt 0.200486 0.834308
vt 0.184061 0.828215
vt 0.200486 0.828215
vt 0.184061 0.821983
vt 0.200486 0.821983
vt 0.184061 0.815850
vt 0.200486 0.815850
vt 0.184061 0.810054
vt 0.200486 0.810054
vt 0.184061 0.803304
vt 0.200486 0.803304
vt 0.184061 0.801243
vt 0.200486 0.801243
vt 0.184061 0.795631
vt 0.200486 0.795631
vt 0.808591 0.126691
vt 0.825016 0.126691
vt 0.825016 0.143701
vt 0.808591 0.143701
vt 0.364939 0.123803
vt 0.364939 0.140234
vt 0.362461 0.140234
vt 0.362461 0.123803
vt 0.536969 0.195364
vt 0.553394 0.195364
vt 0.553394 0.200204
vt 0.536969 0.200204
vt 0.553394 0.204028
vt 0.536969 0.204028
vt 0.553394 0.208073
vt 0.536969 0.208073
vt 0.553394 0.212184
vt 0.536969 0.212184
vt 0.553394 0.216203
vt 0.536969 0.216203
vt 0.553394 0.219976
vt 0.536969 0.219976
vt 0.553394 0.223357
vt 0.536969 0.223357
vt 0.553394 0.226218
vt 0.536969 0.226218
vt 0.553394 0.228447
vt 0.536969 0.228447
vt 0.553394 0.229959
vt 0.536969 0.229959
vt 0.553394 0.230389
vt 0.536969 0.230389
vt 0.421221 0.564103
vt 0.419441 0.560396
vt 0.421050 0.559810
vt 0.422684 0.563213
vt 0.423689 0.567390
vt 0.424951 0.566232
vt 0.426751 0.570133
vt 0.427763 0.568751
vt 0.430289 0.572226
vt 0.431012 0.570673
vt 0.432551 0.573020
vt 0.434573 0.571923
vt 0.422225 0.540819
vt 0.426066 0.536528
vt 0.426124 0.539019
vt 0.423606 0.541831
vt 0.420133 0.544358
vt 0.421685 0.545082
vt 0.418771 0.548238
vt 0.420435 0.548644
vt 0.418193 0.552309
vt 0.419903 0.552382
vt 0.418419 0.556414
vt 0.420111 0.556153
vt 0.349111 0.350224
vt 0.350891 0.346518
vt 0.352354 0.347408
vt 0.350720 0.350811
vt 0.353359 0.343230
vt 0.354621 0.344388
vt 0.356421 0.340488
vt 0.357433 0.341870
vt 0.359959 0.338395
vt 0.360682 0.339948
vt 0.362221 0.337600
vt 0.364243 0.338697
vt 0.355736 0.374092
vt 0.351895 0.369801
vt 0.353276 0.368789
vt 0.355794 0.371602
vt 0.349803 0.366262
vt 0.351355 0.365539
vt 0.348441 0.362383
vt 0.350105 0.361976
vt 0.347863 0.358312
vt 0.349573 0.358238
vt 0.348089 0.354207
vt 0.349781 0.354468
vt 0.409277 0.564103
vt 0.411975 0.569722
vt 0.410512 0.570611
vt 0.407669 0.564690
vt 0.415717 0.574706
vt 0.414455 0.575864
vt 0.420359 0.578864
vt 0.419347 0.580246
vt 0.425722 0.582036
vt 0.424999 0.583589
vt 0.429986 0.583534
vt 0.431195 0.585765
vt 0.418854 0.528441
vt 0.413497 0.534425
vt 0.412115 0.533413
vt 0.416496 0.528519
vt 0.410325 0.539790
vt 0.408773 0.539067
vt 0.408262 0.545671
vt 0.406598 0.545265
vt 0.407384 0.551842
vt 0.405673 0.551769
vt 0.407727 0.558066
vt 0.406035 0.558328
vt 0.341645 0.340899
vt 0.338947 0.346518
vt 0.337339 0.345931
vt 0.340182 0.340009
vt 0.345387 0.335915
vt 0.344125 0.334757
vt 0.350029 0.331757
vt 0.349017 0.330375
vt 0.355392 0.328584
vt 0.354669 0.327031
vt 0.359656 0.327087
vt 0.360865 0.324855
vt 0.343167 0.376196
vt 0.348523 0.382180
vt 0.346166 0.382102
vt 0.341785 0.377208
vt 0.339995 0.370831
vt 0.338443 0.371554
vt 0.337931 0.364949
vt 0.336268 0.365356
vt 0.337054 0.358778
vt 0.335343 0.358852
vt 0.337397 0.352555
vt 0.335705 0.352293
vt 0.431229 0.578440
vt 0.432884 0.578844
vt 0.360899 0.332181
vt 0.362554 0.331776
vt 0.428990 0.539502
vt 0.430020 0.542980
vt 0.358660 0.371119
vt 0.359690 0.367640
vt 0.345976 0.384672
vt 0.342462 0.385725
vt 0.416306 0.525949
vt 0.412792 0.524896
vt 0.432393 0.522820
vt 0.434573 0.520659
vt 0.362063 0.387801
vt 0.364243 0.389962
vn -0.6675 0.7446 0.0000
vn -0.5913 0.8064 0.0000
vn 0.3420 0.9397 0.0000
vn 0.5188 0.8549 0.0000
vn -0.4226 0.9063 0.0000
vn 0.6756 0.7373 0.0000
vn -0.2377 0.9713 0.0000
vn 0.8064 0.5913 0.0000
vn -0.0436 0.9990 0.0000
vn 0.9063 0.4226 -0.0000
vn 0.1521 0.9884 0.0000
vn 0.9434 0.3317 -0.0000
vn 0.6675 -0.7446 -0.0000
vn 0.5913 -0.8064 -0.0000
vn -0.3420 -0.9397 -0.0000
vn -0.5188 -0.8549 -0.0000
vn 0.4226 -0.9063 -0.0000
vn -0.6756 -0.7373 -0.0000
vn 0.2377 -0.9713 -0.0000
vn -0.8064 -0.5913 -0.0000
vn 0.0436 -0.9990 -0.0000
vn -0.9063 -0.4226 -0.0000
vn -0.1521 -0.9884 -0.0000
vn -0.9434 -0.3317 -0.0000
vn -0.7009 -0.7133 -0.0000
vn -0.7147 -0.6995 -0.0000
vn -0.2005 0.9797 0.0000
vn 0.9817 -0.1904 -0.0000
vn 0.7147 0.6995 0.0000
vn -0.9817 0.1904 0.0000
vn 0.2005 -0.9797 -0.0000
vn 0.7009 0.7133 0.0000
vn -0.0000 -0.0000 1.0000
vn 0.0000 0.0000 -1.0000
usemtl Material.001
s 1
f 64/1/1 76/2/1 75/3/2 63/4/2
f 58/5/3 70/6/3 69/7/4 57/8/4
f 63/4/2 75/3/2 77/9/5 65/10/5
f 57/8/4 69/7/4 71/11/6 59/12/6
f 65/10/5 77/9/5 78/13/7 66/14/7
f 59/12/6 71/11/6 72/15/8 60/16/8
f 66/14/7 78/13/7 79/17/9 67/18/9
f 60/16/8 72/15/8 73/19/10 61/20/10
f 67/18/9 79/17/9 80/21/11 68/22/11
f 61/20/10 73/19/10 74/23/12 62/24/12
f 68/22/11 80/21/11 70/6/3 58/5/3
f 88/25/13 87/26/14 99/27/14 100/28/13
f 82/29/15 81/30/16 93/31/16 94/32/15
f 87/26/14 89/33/17 101/34/17 99/27/14
f 81/30/16 83/35/18 95/36/18 93/31/16
f 89/33/17 90/37/19 102/38/19 101/34/17
f 83/35/18 84/39/20 96/40/20 95/36/18
f 90/37/19 91/41/21 103/42/21 102/38/19
f 84/39/20 85/43/22 97/44/22 96/40/20
f 91/41/21 92/45/23 104/46/23 103/42/21
f 85/43/22 86/47/24 98/48/24 97/44/22
f 92/45/23 82/29/15 94/32/15 104/46/23
f 30/49/19 42/50/19 56/51/19 55/52/19
f 42/53/12 30/54/12 29/55/10 41/56/10
f 76/57/25 64/58/25 107/59/25 108/60/25
f 88/25/26 100/28/26 109/61/26 110/62/26
f 106/63/7 98/64/7 86/65/7 105/66/7
f 108/67/27 107/68/27 111/69/27 112/70/27
f 110/62/28 109/61/28 112/71/28 111/72/28
f 74/23/7 106/63/7 105/66/7 62/24/7
f 41/56/10 29/55/10 28/73/8 40/74/8
f 40/74/8 28/73/8 27/75/6 39/76/6
f 39/76/6 27/75/6 25/77/4 37/78/4
f 37/78/4 25/77/4 26/79/3 38/80/3
f 38/80/3 26/79/3 36/81/11 52/82/11
f 52/82/11 36/81/11 35/83/9 51/84/9
f 51/84/9 35/83/9 34/85/7 50/86/7
f 50/86/7 34/85/7 33/87/5 49/88/5
f 49/88/5 33/87/5 32/89/2 48/90/2
f 32/89/2 31/91/1 47/92/1 48/90/2
f 47/92/29 31/91/29 44/93/29 43/94/29
f 43/94/30 44/93/30 54/95/30 53/96/30
f 53/97/31 54/98/31 46/99/31 45/100/31
f 45/101/32 46/102/32 7/103/32 19/104/32
f 19/105/13 7/106/13 8/107/14 20/108/14
f 20/108/14 8/107/14 9/109/17 21/110/17
f 21/110/17 9/109/17 10/111/19 22/112/19
f 22/112/19 10/111/19 11/113/21 23/114/21
f 23/114/21 11/113/21 12/115/23 24/116/23
f 24/116/23 12/115/23 1/117/15 13/118/15
f 13/118/15 1/117/15 2/119/16 14/120/16
f 14/120/16 2/119/16 3/121/18 15/122/18
f 15/122/18 3/121/18 4/123/20 16/124/20
f 16/124/20 4/123/20 5/125/22 17/126/22
f 5/125/22 6/127/24 18/128/24 17/126/22
f 6/127/19 55/52/19 56/51/19 18/128/19
f 2/129/33 1/130/33 58/131/33 57/132/33
f 3/133/33 2/129/33 57/132/33 59/134/33
f 4/135/33 3/133/33 59/134/33 60/136/33
f 5/137/33 4/135/33 60/136/33 61/138/33
f 6/139/33 5/137/33 61/138/33 62/140/33
f 8/141/33 7/142/33 64/143/33 63/144/33
f 9/145/33 8/141/33 63/144/33 65/146/33
f 10/147/33 9/145/33 65/146/33 66/148/33
f 11/149/33 10/147/33 66/148/33 67/150/33
f 12/151/33 11/149/33 67/150/33 68/152/33
f 1/130/33 12/151/33 68/152/33 58/131/33
f 13/153/34 14/154/34 69/155/34 70/156/34
f 14/154/34 15/157/34 71/158/34 69/155/34
f 15/157/34 16/159/34 72/160/34 71/158/34
f 16/159/34 17/161/34 73/162/34 72/160/34
f 17/161/34 18/163/34 74/164/34 73/162/34
f 19/165/34 20/166/34 75/167/34 76/168/34
f 20/166/34 21/169/34 77/170/34 75/167/34
f 21/169/34 22/171/34 78/172/34 77/170/34
f 22/171/34 23/173/34 79/174/34 78/172/34
f 23/173/34 24/175/34 80/176/34 79/174/34
f 24/175/34 13/153/34 70/156/34 80/176/34
f 26/177/33 25/178/33 81/179/33 82/180/33
f 25/178/33 27/181/33 83/182/33 81/179/33
f 27/181/33 28/183/33 84/184/33 83/182/33
f 28/183/33 29/185/33 85/186/33 84/184/33
f 29/185/33 30/187/33 86/188/33 85/186/33
f 31/189/33 32/190/33 87/191/33 88/192/33
f 32/190/33 33/193/33 89/194/33 87/191/33
f 33/193/33 34/195/33 90/196/33 89/194/33
f 34/195/33 35/197/33 91/198/33 90/196/33
f 35/197/33 36/199/33 92/200/33 91/198/33
f 36/199/33 26/177/33 82/180/33 92/200/33
f 37/201/34 38/202/34 94/203/34 93/204/34
f 39/205/34 37/201/34 93/204/34 95/206/34
f 40/207/34 39/205/34 95/206/34 96/208/34
f 41/209/34 40/207/34 96/208/34 97/210/34
f 42/211/34 41/209/34 97/210/34 98/212/34
f 48/213/34 47/214/34 100/215/34 99/216/34
f 49/217/34 48/213/34 99/216/34 101/218/34
f 50/219/34 49/217/34 101/218/34 102/220/34
f 51/221/34 50/219/34 102/220/34 103/222/34
f 52/223/34 51/221/34 103/222/34 104/224/34
f 38/202/34 52/223/34 104/224/34 94/203/34
f 30/187/33 55/225/33 105/226/33 86/188/33
f 18/163/34 56/227/34 106/228/34 74/164/34
f 7/142/33 46/229/33 107/230/33 64/143/33
f 45/231/34 19/165/34 76/168/34 108/232/34
f 47/214/34 43/233/34 109/234/34 100/215/34
f 44/235/33 31/189/33 88/192/33 110/236/33
f 46/229/33 54/237/33 111/238/33 107/230/33
f 54/237/33 44/235/33 110/236/33 111/238/33
f 43/233/34 53/239/34 112/240/34 109/234/34
f 53/239/34 45/231/34 108/232/34 112/240/34
f 55/225/33 6/139/33 62/140/33 105/226/33
f 56/227/34 42/211/34 98/212/34 106/228/34
