# Blender v2.83.5 OBJ File: 'Arrows.blend'
# www.blender.org
mtllib Arrow_37.mtl
o Arrow_37
v 0.000297 -1.560188 0.195425
v 0.000296 -0.215950 0.195425
v 0.000296 -0.490996 0.195425
v -0.497287 -0.435553 -0.195425
v -0.516502 -0.240463 -0.195425
v -0.573407 -0.052870 -0.195425
v -0.665818 0.120017 -0.195425
v -0.516502 -0.240463 0.195425
v -0.954894 0.478508 0.195425
v -1.058450 0.285178 0.195425
v 0.322226 0.349994 0.195425
v 0.942311 0.395917 -0.195425
v 0.414245 -1.165751 -0.195425
v 0.574001 -0.052870 -0.195425
v 0.517095 -0.240463 -0.195425
v -0.954894 0.478508 -0.195425
v 0.497880 -1.643823 -0.195425
v 0.790774 0.271554 0.195425
v -1.361247 1.010610 -0.195425
v 0.497881 -0.797909 0.195425
v 0.497880 -1.165751 0.195425
v -1.058450 0.285178 -0.195425
v 0.665868 0.809642 -0.195425
v -0.248495 -1.560188 -0.195425
v 0.000297 -1.560188 -0.195425
v -0.417377 -1.560461 0.195425
v -0.497286 -1.643823 0.195425
v -0.248495 -1.560188 0.195425
v 0.249088 -1.643823 -0.195425
v -0.248495 -1.643823 -0.195425
v 0.731635 0.330693 0.195425
v 0.955486 0.478508 -0.195425
v -0.748168 0.798515 0.195425
v -1.065351 0.201827 -0.195425
v -0.533088 0.577582 0.195425
v -1.429635 1.058756 0.195425
v 0.539578 1.007054 -0.195425
v 0.955486 0.478508 0.195425
v 0.497881 -0.797909 -0.195425
v 1.059043 0.285178 0.195425
v 1.059043 0.285178 -0.195425
v -0.731041 0.330693 0.195425
v -0.417377 -1.560461 -0.195425
v 0.417971 -1.560461 0.195425
v 0.249088 -1.560188 0.195425
v 0.191563 0.105541 0.195425
v 0.147732 -0.040292 0.195425
v 0.147732 -0.040291 -0.195425
v 0.498069 0.564259 -0.195425
v 0.252686 0.396459 0.195425
v 0.414346 -0.431449 -0.195425
v -0.113701 0.137547 0.195425
v 0.414346 -0.431449 0.195425
v -0.252092 0.396459 0.195425
v 0.435067 -0.224146 0.195425
v -0.596277 0.166482 0.195425
v -0.474269 0.637041 -0.195425
v -0.496138 -0.020864 0.195425
v -0.320246 0.347983 -0.195425
v -0.190970 0.105541 -0.195425
v 0.000296 -0.490996 -0.195425
v -0.147139 -0.040291 0.195425
v -0.790180 0.271554 -0.195425
v -0.147139 -0.040291 -0.195425
v -0.497287 -0.797909 -0.195425
v -0.497287 -0.435553 0.195425
v 0.000297 -1.643823 0.195425
v 1.430228 1.058756 -0.195425
v 1.430228 1.058756 0.195425
v 0.539578 1.007054 0.195425
v -0.538986 1.007054 -0.195425
v -0.538986 1.007054 0.195425
v 0.748472 0.796546 0.195425
v 0.498069 0.564259 0.195425
v -0.665276 0.809642 -0.195425
v -0.941718 0.395917 0.195425
v 0.790774 0.271554 -0.195425
v 0.322226 0.349994 -0.195425
v 0.666411 0.120017 -0.195425
v 0.191563 0.105541 -0.195425
v 0.596871 0.166482 0.195425
v 0.497881 -0.435553 -0.195425
v 0.496732 -0.020864 0.195425
v -0.413652 -0.797909 0.195425
v 0.517095 -0.240463 0.195425
v -0.413651 -1.165751 -0.195425
v 0.438929 0.623398 -0.195425
v -0.413651 -1.165751 0.195425
v -0.248495 -1.643823 0.195425
v 0.731635 0.330693 -0.195425
v 0.596871 0.166483 -0.195425
v 0.000297 -1.643823 -0.195425
v -1.361247 1.010610 0.195425
v -0.497287 -1.165751 0.195425
v -0.497287 -1.165751 -0.195425
v -0.731041 0.330693 -0.195425
v -0.413652 -0.797909 -0.195425
v -0.413752 -0.431449 0.195425
v 0.414245 -0.797909 -0.195425
v -0.533088 0.577582 -0.195425
v -0.497287 -0.797909 0.195425
v -0.748168 0.798516 -0.195425
v -0.613482 0.969039 0.195425
v -1.429635 1.058756 -0.195425
v -0.613482 0.969039 -0.195425
v 0.614075 0.969039 0.195425
v -0.941718 0.395917 -0.195425
v 0.249088 -1.643823 0.195425
v 0.497880 -1.165751 -0.195425
v 1.361840 1.010610 0.195425
v 0.574001 -0.052870 0.195425
v 0.666411 0.120017 0.195425
v 0.114294 0.137547 -0.195425
v 0.252686 0.396460 -0.195425
v 0.438929 0.623398 0.195425
v 0.665868 0.809642 0.195425
v 1.361840 1.010610 -0.195425
v -0.320246 0.347983 0.195425
v -0.113701 0.137547 -0.195425
v -0.190970 0.105541 0.195425
v -0.252092 0.396460 -0.195425
v -0.474269 0.637041 0.195425
v 0.748472 0.796546 -0.195425
v -0.066683 -0.017449 -0.195425
v -0.066683 -0.017449 0.195425
v 0.000296 -0.215950 -0.195425
v -0.573407 -0.052870 0.195425
v -0.665818 0.120017 0.195425
v 0.614075 0.969039 -0.195425
v 0.249088 -1.560188 -0.195425
v 0.417971 -1.560461 -0.195425
v -0.596277 0.166483 -0.195425
v -0.496138 -0.020864 -0.195425
v 1.065944 0.201827 -0.195425
v -1.065351 0.201827 0.195425
v -0.413752 -0.431449 -0.195425
v -0.434473 -0.224146 0.195425
v 0.942311 0.395917 0.195425
v 0.497881 -0.435553 0.195425
v 0.497880 -1.643823 0.195425
v 0.067277 -0.017449 -0.195425
v 0.114294 0.137547 0.195425
v 0.067277 -0.017449 0.195425
v -0.434473 -0.224146 -0.195425
v -0.790180 0.271554 0.195425
v 0.414245 -0.797909 0.195425
v -0.497286 -1.643823 -0.195425
v 0.414245 -1.165751 0.195425
v 0.496732 -0.020864 -0.195425
v 0.435067 -0.224146 -0.195425
v 1.065944 0.201827 0.195425
v -0.665276 0.809642 0.195425
vt 0.143848 0.848409
vt 0.151374 0.848409
vt 0.151374 0.852146
vt 0.143848 0.852146
vt 0.151374 0.858921
vt 0.143848 0.858921
vt 0.151374 0.865798
vt 0.143848 0.865798
vt 0.151374 0.874737
vt 0.143848 0.874737
vt 0.143848 0.834544
vt 0.151374 0.834544
vt 0.151374 0.837570
vt 0.143848 0.837570
vt 0.151374 0.840979
vt 0.143848 0.840979
vt 0.151374 0.844638
vt 0.143848 0.844638
vt 0.360475 0.970006
vt 0.360475 0.974019
vt 0.352949 0.974019
vt 0.352949 0.970006
vt 0.360475 0.951926
vt 0.360475 0.956388
vt 0.352949 0.956388
vt 0.352949 0.951926
vt 0.360475 0.961442
vt 0.352949 0.961442
vt 0.360475 0.966894
vt 0.352949 0.966894
vt 0.679679 0.702727
vt 0.678069 0.702727
vt 0.678074 0.699475
vt 0.679679 0.697935
vt 0.170589 0.489969
vt 0.170589 0.492313
vt 0.163063 0.492313
vt 0.163063 0.489969
vt 0.170589 0.502665
vt 0.170589 0.506066
vt 0.163063 0.506066
vt 0.163063 0.502665
vt 0.209567 0.908560
vt 0.202041 0.908560
vt 0.202041 0.905277
vt 0.209567 0.905277
vt 0.209567 0.911415
vt 0.202041 0.911415
vt 0.209567 0.913734
vt 0.202041 0.913734
vt 0.209567 0.915427
vt 0.202041 0.915427
vt 0.209567 0.887975
vt 0.202041 0.887975
vt 0.202041 0.878993
vt 0.209567 0.878993
vt 0.209567 0.894886
vt 0.202041 0.894886
vt 0.209567 0.901693
vt 0.202041 0.901693
vt 0.360475 0.948753
vt 0.352949 0.948753
vt 0.352949 0.944000
vt 0.360475 0.944000
vt 0.251583 0.991906
vt 0.244058 0.991906
vt 0.244058 0.974199
vt 0.251583 0.974199
vt 0.434237 0.512021
vt 0.434237 0.519549
vt 0.431116 0.519549
vt 0.431116 0.512021
vt 0.988145 0.161662
vt 0.988145 0.158852
vt 0.995670 0.158852
vt 0.995670 0.161662
vt 0.995670 0.144299
vt 0.988145 0.144299
vt 0.473660 0.244728
vt 0.469461 0.244728
vt 0.469461 0.237200
vt 0.473660 0.237200
vt 0.163063 0.485694
vt 0.170589 0.485694
vt 0.151374 0.878189
vt 0.151374 0.879340
vt 0.143848 0.879340
vt 0.143848 0.878189
vt 0.143848 0.877038
vt 0.151374 0.877038
vt 0.143848 0.875888
vt 0.151374 0.875888
vt 0.170589 0.499984
vt 0.163063 0.499984
vt 0.170589 0.495783
vt 0.163063 0.495783
vt 0.652187 0.707519
vt 0.657483 0.707519
vt 0.648805 0.710359
vt 0.648365 0.708809
vt 0.214104 0.713729
vt 0.214836 0.715164
vt 0.214036 0.729566
vt 0.213109 0.730884
vt 0.225871 0.721486
vt 0.224281 0.721740
vt 0.227127 0.717428
vt 0.228266 0.718567
vt 0.228003 0.723734
vt 0.229608 0.723867
vt 0.656415 0.697935
vt 0.656336 0.699544
vt 0.652345 0.699145
vt 0.652659 0.697565
vt 0.670475 0.699546
vt 0.670475 0.697935
vt 0.628639 0.717906
vt 0.629371 0.719341
vt 0.628571 0.733744
vt 0.627644 0.735061
vt 0.649047 0.696469
vt 0.648431 0.697958
vt 0.644824 0.696029
vt 0.645718 0.694689
vt 0.663392 0.697935
vt 0.663392 0.699546
vt 0.229608 0.682817
vt 0.228003 0.682950
vt 0.214036 0.677117
vt 0.213109 0.675800
vt 0.645718 0.720349
vt 0.644824 0.719010
vt 0.648431 0.717081
vt 0.649047 0.718569
vt 0.642801 0.692294
vt 0.641662 0.693433
vt 0.638816 0.689122
vt 0.640406 0.689375
vt 0.225871 0.685198
vt 0.224281 0.684944
vt 0.679679 0.717103
vt 0.678074 0.715564
vt 0.678069 0.712311
vt 0.679679 0.712311
vt 0.652345 0.715893
vt 0.652659 0.717473
vt 0.225861 0.698481
vt 0.226794 0.697168
vt 0.231462 0.699658
vt 0.230846 0.701146
vt 0.670475 0.717103
vt 0.670475 0.715492
vt 0.217905 0.716161
vt 0.218157 0.717752
vt 0.217905 0.690522
vt 0.218119 0.688926
vt 0.222373 0.693069
vt 0.221229 0.694201
vt 0.265144 0.703342
vt 0.263534 0.703342
vt 0.263534 0.698550
vt 0.265144 0.698550
vt 0.656336 0.715494
vt 0.656415 0.717103
vt 0.238124 0.713296
vt 0.237810 0.711716
vt 0.241801 0.711317
vt 0.241880 0.712926
vt 0.644143 0.686994
vt 0.642538 0.687127
vt 0.628571 0.681295
vt 0.627644 0.679978
vt 0.265144 0.708134
vt 0.263534 0.708134
vt 0.234512 0.714392
vt 0.233896 0.712904
vt 0.237652 0.703342
vt 0.242948 0.703342
vt 0.234270 0.706182
vt 0.233830 0.704632
vt 0.221491 0.711790
vt 0.222630 0.712929
vt 0.234270 0.700502
vt 0.233830 0.702052
vt 0.238124 0.693388
vt 0.237810 0.694968
vt 0.233896 0.693780
vt 0.234512 0.692292
vt 0.640396 0.702658
vt 0.641290 0.701319
vt 0.645997 0.703835
vt 0.645381 0.705324
vt 0.640396 0.712381
vt 0.641329 0.713693
vt 0.636908 0.717793
vt 0.635764 0.716660
vt 0.241880 0.693758
vt 0.241801 0.695367
vt 0.248857 0.693758
vt 0.248857 0.695369
vt 0.231183 0.716172
vt 0.230289 0.714832
vt 0.663392 0.717103
vt 0.663392 0.715492
vt 0.642801 0.722745
vt 0.641662 0.721605
vt 0.225861 0.708203
vt 0.226755 0.709543
vt 0.265144 0.712926
vt 0.263539 0.711387
vt 0.248857 0.712926
vt 0.248857 0.711315
vt 0.255940 0.711315
vt 0.255940 0.712926
vt 0.644143 0.728045
vt 0.642538 0.727912
vt 0.638816 0.725917
vt 0.640406 0.725663
vt 0.255940 0.693758
vt 0.255940 0.695369
vt 0.231462 0.707026
vt 0.230846 0.705538
vt 0.230289 0.691851
vt 0.231183 0.690512
vt 0.228266 0.688117
vt 0.227127 0.689256
vt 0.265144 0.693758
vt 0.263539 0.695297
vt 0.648805 0.704680
vt 0.648365 0.706229
vt 0.632654 0.721935
vt 0.632440 0.720339
vt 0.636026 0.699071
vt 0.637165 0.697932
vt 0.678069 0.707519
vt 0.679679 0.707519
vt 0.214104 0.692955
vt 0.214836 0.691520
vt 0.628639 0.697132
vt 0.629371 0.695697
vt 0.632692 0.693109
vt 0.632440 0.694700
vt 0.645381 0.709715
vt 0.645997 0.711203
vt 0.038413 0.913386
vt 0.030888 0.913386
vt 0.030888 0.910456
vt 0.038413 0.910456
vt 0.988540 0.018183
vt 0.981014 0.018183
vt 0.981014 0.014773
vt 0.988540 0.014773
vt 0.981014 0.010768
vt 0.988540 0.010768
vt 0.981014 0.008214
vt 0.988540 0.008214
vt 0.437946 0.838569
vt 0.430420 0.838569
vt 0.430420 0.837857
vt 0.437946 0.837857
vt 0.430420 0.836801
vt 0.437946 0.836801
vt 0.430420 0.835745
vt 0.437946 0.835745
vt 0.430420 0.835023
vt 0.437946 0.835023
vt 0.981014 0.021421
vt 0.988540 0.021421
vt 0.988540 0.025196
vt 0.981014 0.025196
vt 0.477855 0.237200
vt 0.477855 0.244728
vt 0.473784 0.244728
vt 0.473784 0.237200
vt 0.992075 0.540424
vt 0.999600 0.540424
vt 0.999600 0.552587
vt 0.992075 0.552587
vt 0.999600 0.555268
vt 0.992075 0.555268
vt 0.038413 0.928881
vt 0.038413 0.931485
vt 0.030888 0.931485
vt 0.030888 0.928881
vt 0.481414 0.237200
vt 0.484549 0.237200
vt 0.484549 0.244728
vt 0.481414 0.244728
vt 0.999573 0.564785
vt 0.999573 0.579699
vt 0.992047 0.579699
vt 0.992047 0.564785
vt 0.038413 0.935720
vt 0.030888 0.935720
vt 0.430420 0.905261
vt 0.430420 0.901480
vt 0.437946 0.901480
vt 0.437946 0.905261
vt 0.430420 0.894629
vt 0.437946 0.894629
vt 0.430420 0.887751
vt 0.437946 0.887751
vt 0.430420 0.880354
vt 0.437946 0.880354
vt 0.430420 0.915991
vt 0.430420 0.914263
vt 0.437946 0.914263
vt 0.437946 0.915991
vt 0.430420 0.911816
vt 0.437946 0.911816
vt 0.430420 0.908776
vt 0.437946 0.908776
vt 0.981014 0.000372
vt 0.988540 0.000372
vt 0.038413 0.918560
vt 0.030888 0.918560
vt 0.038413 0.923380
vt 0.030888 0.923380
vt 0.030888 0.901347
vt 0.038413 0.901347
vt 0.430420 0.867828
vt 0.430420 0.863747
vt 0.437946 0.863747
vt 0.437946 0.867828
vt 0.430420 0.871773
vt 0.437946 0.871773
vt 0.430420 0.875430
vt 0.437946 0.875430
vt 0.430420 0.879158
vt 0.437946 0.879158
vt 0.430420 0.845969
vt 0.437946 0.845969
vt 0.430420 0.852880
vt 0.437946 0.852880
vt 0.430420 0.859765
vt 0.437946 0.859765
vn 0.9808 -0.1951 -0.0000
vn 0.9988 -0.0491 -0.0000
vn 1.0000 -0.0000 -0.0000
vn 0.6344 -0.7730 -0.0000
vn 0.7071 -0.7071 -0.0000
vn 0.8315 -0.5556 -0.0000
vn 0.9239 -0.3827 -0.0000
vn -0.9523 0.3050 -0.0000
vn -0.9475 0.3197 -0.0000
vn -0.6344 0.7730 0.0000
vn -0.7071 0.7071 0.0000
vn -0.8315 0.5556 0.0000
vn -0.9239 0.3827 0.0000
vn 0.0000 0.0000 -1.0000
vn 0.6705 0.7419 0.0000
vn 0.7033 0.7109 0.0000
vn 0.9523 0.3050 0.0000
vn 0.9475 0.3197 0.0000
vn -0.9239 -0.3827 -0.0000
vn -0.9808 -0.1951 -0.0000
vn -0.8315 -0.5556 -0.0000
vn -0.7071 -0.7071 -0.0000
vn -0.6344 -0.7730 -0.0000
vn -1.0000 -0.0000 0.0000
vn -0.9988 -0.0491 -0.0000
vn -0.0580 0.9983 0.0000
vn 0.9203 -0.3912 -0.0000
vn -0.8434 -0.5373 -0.0000
vn -0.8424 -0.5389 -0.0000
vn 0.0580 0.9983 0.0000
vn -0.9203 -0.3912 -0.0000
vn 0.8434 -0.5373 -0.0000
vn 0.8424 -0.5389 -0.0000
vn 0.0000 -1.0000 0.0000
vn 0.9239 0.3827 0.0000
vn 0.8149 0.5796 0.0000
vn 0.0000 -0.0000 1.0000
vn 0.9244 -0.3815 -0.0000
vn 0.9541 -0.2994 0.0000
vn -0.7250 -0.6887 -0.0000
vn -0.8146 -0.5800 -0.0000
vn -0.9246 -0.3810 -0.0000
vn -0.9541 -0.2994 -0.0000
vn 0.0016 1.0000 0.0000
vn 0.0008 1.0000 0.0000
vn 0.0000 1.0000 0.0000
vn -0.0008 1.0000 0.0000
vn -0.0016 1.0000 0.0000
vn -0.7847 0.6198 0.0000
vn -0.8815 0.4722 0.0000
vn 0.9228 0.3852 0.0000
vn -0.0555 -0.9985 0.0000
vn 0.7888 0.6146 0.0000
vn 0.8815 0.4722 0.0000
vn -0.9228 0.3852 0.0000
vn 0.0555 -0.9985 0.0000
vn 0.9806 0.1958 0.0000
vn 0.9988 0.0499 0.0000
vn 1.0000 0.0001 0.0000
vn 1.0000 -0.0047 0.0000
vn 1.0000 -0.0094 0.0000
vn 0.5510 0.8345 0.0000
vn 0.6695 0.7428 0.0000
vn 0.8315 0.5556 0.0000
vn -0.9504 -0.3109 -0.0000
vn -0.7165 -0.6976 -0.0000
vn 0.7282 -0.6853 -0.0000
vn 0.6801 -0.7331 -0.0000
vn 0.9504 -0.3109 0.0000
vn -0.9806 0.1958 0.0000
vn -0.6695 0.7428 0.0000
vn -0.5510 0.8345 0.0000
vn -1.0000 -0.0047 0.0000
vn -1.0000 -0.0094 0.0000
vn -1.0000 0.0001 0.0000
vn -0.9988 0.0499 0.0000
usemtl Material.001
s 1
f 15/1/1 85/2/1 139/3/2 82/4/2
f 82/4/2 139/3/2 20/5/3 39/6/3
f 39/6/3 20/5/3 21/7/3 109/8/3
f 109/8/3 21/7/3 140/9/3 17/10/3
f 12/11/4 138/12/4 18/13/5 77/14/5
f 77/14/5 18/13/5 112/15/6 79/16/6
f 79/16/6 112/15/6 111/17/7 14/18/7
f 14/18/7 111/17/7 85/2/1 15/1/1
f 141/19/8 126/20/9 2/21/9 143/22/8
f 23/23/10 87/24/11 115/25/11 116/26/10
f 87/24/11 114/27/12 50/28/12 115/25/11
f 114/27/12 113/29/13 142/30/13 50/28/12
f 29/31/14 130/32/14 131/33/14 17/34/14
f 152/35/15 122/36/16 57/37/16 75/38/15
f 125/39/17 2/40/18 126/41/18 124/42/17
f 127/43/19 6/44/19 5/45/20 8/46/20
f 128/47/21 7/48/21 6/44/19 127/43/19
f 145/49/22 63/50/22 7/48/21 128/47/21
f 76/51/23 107/52/23 63/50/22 145/49/22
f 94/53/24 95/54/24 147/55/24 27/56/24
f 101/57/24 65/58/24 95/54/24 94/53/24
f 66/59/25 4/60/25 65/58/24 101/57/24
f 8/46/20 5/45/20 4/60/25 66/59/25
f 37/61/26 70/62/26 69/63/26 68/64/26
f 151/65/27 134/66/27 68/67/27 69/68/27
f 138/69/28 12/70/28 134/71/28 151/72/28
f 23/23/29 116/26/29 70/62/29 37/61/29
f 71/73/30 104/74/30 36/75/30 72/76/30
f 135/77/31 36/75/31 104/74/31 34/78/31
f 76/79/32 135/80/32 34/81/32 107/82/32
f 75/38/33 71/83/33 72/84/33 152/35/33
f 89/85/34 27/86/34 147/87/34 30/88/34
f 30/88/34 92/89/34 67/90/34 89/85/34
f 29/91/34 108/92/34 67/90/34 92/89/34
f 140/9/34 108/92/34 29/91/34 17/10/34
f 52/93/35 125/39/17 124/42/17 119/94/35
f 54/95/36 52/93/35 119/94/35 121/96/36
f 122/36/16 54/95/36 121/96/36 57/37/16
f 126/97/14 61/98/14 64/99/14 124/100/14
f 70/101/37 106/102/37 110/103/37 69/104/37
f 138/105/37 38/106/37 31/107/37 18/108/37
f 69/104/37 110/103/37 40/109/37 151/110/37
f 82/111/14 51/112/14 150/113/14 15/114/14
f 17/34/14 131/33/14 13/115/14 109/116/14
f 71/117/14 105/118/14 19/119/14 104/120/14
f 14/121/14 149/122/14 91/123/14 79/124/14
f 39/125/14 99/126/14 51/112/14 82/111/14
f 135/127/37 10/128/37 93/129/37 36/130/37
f 7/131/14 132/132/14 133/133/14 6/134/14
f 77/135/14 90/136/14 32/137/14 12/138/14
f 113/29/13 141/19/8 143/22/8 142/30/13
f 76/139/37 9/140/37 10/128/37 135/127/37
f 147/141/14 43/142/14 24/143/14 30/144/14
f 6/134/14 133/133/14 144/145/14 5/146/14
f 54/147/37 118/148/37 120/149/37 52/150/37
f 95/151/14 86/152/14 43/142/14 147/141/14
f 116/153/37 73/154/37 106/102/37 70/101/37
f 152/155/37 33/156/37 35/157/37 122/158/37
f 67/159/37 1/160/37 28/161/37 89/162/37
f 5/146/14 144/145/14 136/163/14 4/164/14
f 85/165/37 55/166/37 53/167/37 139/168/37
f 134/169/14 41/170/14 117/171/14 68/172/14
f 108/173/37 45/174/37 1/160/37 67/159/37
f 111/175/37 83/176/37 55/166/37 85/165/37
f 122/158/37 35/157/37 118/148/37 54/147/37
f 2/177/37 3/178/37 47/179/37 143/180/37
f 115/181/37 74/182/37 73/154/37 116/153/37
f 52/150/37 120/149/37 62/183/37 125/184/37
f 151/110/37 40/109/37 38/106/37 138/105/37
f 8/185/37 137/186/37 58/187/37 127/188/37
f 114/189/14 78/190/14 80/191/14 113/192/14
f 121/193/14 59/194/14 100/195/14 57/196/14
f 66/197/37 98/198/37 137/186/37 8/185/37
f 101/199/37 84/200/37 98/198/37 66/197/37
f 79/124/14 91/123/14 90/136/14 77/135/14
f 112/201/37 81/202/37 83/176/37 111/175/37
f 65/203/14 97/204/14 86/152/14 95/151/14
f 63/205/14 96/206/14 132/132/14 7/131/14
f 4/164/14 136/163/14 97/204/14 65/203/14
f 50/207/37 11/208/37 74/182/37 115/181/37
f 140/209/37 44/210/37 45/174/37 108/173/37
f 20/211/37 146/212/37 148/213/37 21/214/37
f 109/116/14 13/115/14 99/126/14 39/125/14
f 125/184/37 62/183/37 3/178/37 2/177/37
f 15/114/14 150/113/14 149/122/14 14/121/14
f 34/215/14 22/216/14 16/217/14 107/218/14
f 94/219/37 88/220/37 84/200/37 101/199/37
f 143/180/37 47/179/37 46/221/37 142/222/37
f 142/222/37 46/221/37 11/208/37 50/207/37
f 127/188/37 58/187/37 56/223/37 128/224/37
f 104/120/14 19/119/14 22/216/14 34/215/14
f 145/225/37 42/226/37 9/140/37 76/139/37
f 27/227/37 26/228/37 88/220/37 94/219/37
f 113/192/14 80/191/14 48/229/14 141/230/14
f 57/196/14 100/195/14 102/231/14 75/232/14
f 107/218/14 16/217/14 96/206/14 63/205/14
f 87/233/14 49/234/14 78/190/14 114/189/14
f 75/232/14 102/231/14 105/118/14 71/117/14
f 30/144/14 24/143/14 25/235/14 92/236/14
f 72/237/37 103/238/37 33/156/37 152/155/37
f 92/236/14 25/235/14 130/32/14 29/31/14
f 141/230/14 48/229/14 61/98/14 126/97/14
f 37/239/14 129/240/14 123/241/14 23/242/14
f 89/162/37 28/161/37 26/228/37 27/227/37
f 128/224/37 56/223/37 42/226/37 145/225/37
f 21/214/37 148/213/37 44/210/37 140/209/37
f 68/172/14 117/171/14 129/240/14 37/239/14
f 12/138/14 32/137/14 41/170/14 134/169/14
f 119/243/14 60/244/14 59/194/14 121/193/14
f 23/242/14 123/241/14 49/234/14 87/233/14
f 139/168/37 53/167/37 146/212/37 20/211/37
f 36/130/37 93/129/37 103/238/37 72/237/37
f 124/100/14 64/99/14 60/244/14 119/243/14
f 18/108/37 31/107/37 81/202/37 112/201/37
f 80/245/38 46/246/38 47/247/39 48/248/39
f 35/249/40 100/250/40 59/251/41 118/252/41
f 118/252/41 59/251/41 60/253/42 120/254/42
f 120/254/42 60/253/42 64/255/43 62/256/43
f 44/257/44 131/258/44 130/259/45 45/260/45
f 130/259/45 25/261/46 1/262/46 45/260/45
f 24/263/47 28/264/47 1/262/46 25/261/46
f 28/264/47 24/263/47 43/265/48 26/266/48
f 102/267/49 33/268/49 103/269/49 105/270/49
f 9/271/50 16/272/50 22/273/50 10/274/50
f 10/275/51 22/276/51 19/277/51 93/278/51
f 105/279/52 103/280/52 93/278/52 19/277/52
f 123/281/53 129/282/53 106/283/53 73/284/53
f 38/285/54 40/286/54 41/287/54 32/288/54
f 40/289/55 110/290/55 117/291/55 41/292/55
f 129/282/56 117/293/56 110/294/56 106/283/56
f 137/295/57 98/296/58 136/297/58 144/298/57
f 98/296/58 84/299/59 97/300/59 136/297/58
f 84/299/59 88/301/60 86/302/60 97/300/59
f 88/301/60 26/303/61 43/304/61 86/302/60
f 9/305/62 42/306/63 96/307/63 16/308/62
f 42/306/63 56/309/64 132/310/64 96/307/63
f 56/309/64 58/311/35 133/312/35 132/310/64
f 58/311/35 137/295/57 144/298/57 133/312/35
f 62/256/43 64/255/43 61/313/65 3/314/65
f 33/268/66 102/267/66 100/250/40 35/249/40
f 78/315/6 11/316/6 46/246/38 80/245/38
f 49/317/67 74/318/67 11/316/6 78/315/6
f 123/281/68 73/284/68 74/318/67 49/317/67
f 48/248/39 47/247/39 3/319/69 61/320/69
f 149/321/13 150/322/70 55/323/70 83/324/13
f 91/325/12 149/321/13 83/324/13 81/326/12
f 90/327/71 91/325/12 81/326/12 31/328/71
f 32/329/72 90/327/71 31/328/71 38/330/72
f 13/331/73 131/258/74 44/257/74 148/332/73
f 99/333/75 13/331/73 148/332/73 146/334/75
f 51/335/76 99/333/75 146/334/75 53/336/76
f 150/322/70 51/335/76 53/336/76 55/323/70
