# Blender v2.83.5 OBJ File: 'Arrows.blend'
# www.blender.org
mtllib Arrow_49.mtl
o Arrow_49
v 2.058946 0.234135 -0.371132
v 2.058946 0.234134 0.371132
v -1.513791 0.734135 -0.371132
v -1.513791 0.234135 -0.371132
v -1.513791 0.234134 0.371132
v 2.058946 1.114082 -0.371132
v 2.151082 1.157169 -0.371132
v 2.063456 1.147413 -0.371132
v 2.076542 1.169948 -0.371132
v 2.096926 1.179480 -0.371132
v 2.122610 1.175077 -0.371132
v 2.151082 -0.688900 -0.371132
v 2.058946 -0.645813 -0.371132
v 2.122610 -0.706807 -0.371132
v 2.096926 -0.711211 -0.371132
v 2.076542 -0.701679 -0.371132
v 2.063456 -0.679144 -0.371132
v 2.151082 1.157169 0.371132
v 2.058946 1.114082 0.371132
v 2.122610 1.175077 0.371132
v 2.096926 1.179480 0.371132
v 2.076542 1.169948 0.371132
v 2.063456 1.147413 0.371132
v 2.058946 -0.645813 0.371132
v 2.151082 -0.688900 0.371132
v 2.063456 -0.679144 0.371132
v 2.076542 -0.701679 0.371132
v 2.096926 -0.711211 0.371132
v 2.122610 -0.706808 0.371132
v 3.163907 0.311101 -0.371132
v 3.163907 0.157169 -0.371132
v 3.135989 0.234135 -0.371132
v 3.187869 0.283550 -0.371132
v 3.200466 0.251162 -0.371132
v 3.200466 0.217107 -0.371132
v 3.187869 0.184720 -0.371132
v 3.163907 0.157169 0.371132
v 3.163907 0.311100 0.371132
v 3.135989 0.234134 0.371132
v 3.187869 0.184719 0.371132
v 3.200466 0.217107 0.371132
v 3.200466 0.251162 0.371132
v 3.187869 0.283550 0.371132
v 2.058946 -0.385918 -0.371132
v 1.938893 -0.265865 -0.371132
v 2.058946 -0.145812 -0.371132
v 2.053070 -0.348820 -0.371132
v 2.036018 -0.315353 -0.371132
v 2.009459 -0.288793 -0.371132
v 1.975992 -0.271741 -0.371132
v 1.938893 -0.265866 0.371132
v 2.058946 -0.385918 0.371132
v 2.058946 -0.145813 0.371132
v 1.975992 -0.271741 0.371132
v 2.009459 -0.288794 0.371132
v 2.036018 -0.315353 0.371132
v 2.053070 -0.348820 0.371132
v 2.058946 0.854187 0.371132
v 1.938893 0.734134 0.371132
v 2.058946 0.614082 0.371132
v 2.053070 0.817089 0.371132
v 2.036018 0.783622 0.371132
v 2.009459 0.757063 0.371132
v 1.975992 0.740010 0.371132
v 1.938893 0.734135 -0.371132
v 2.058946 0.854187 -0.371132
v 2.058946 0.614082 -0.371132
v 1.975992 0.740010 -0.371132
v 2.009459 0.757063 -0.371132
v 2.036018 0.783622 -0.371132
v 2.053070 0.817089 -0.371132
v -1.513791 -1.296011 -0.371132
v -1.513791 -1.296011 0.371131
v -2.420250 -1.998504 -0.371133
v -2.420250 -1.998504 0.371131
v -1.513791 0.734134 0.371132
v -2.420250 -0.213929 0.371132
v -1.783526 0.031705 0.371132
v -1.590102 0.276227 0.371132
v -1.793903 0.687733 0.371132
v -2.046594 0.553070 0.371132
v -2.247132 0.343329 0.371132
v -2.375885 0.079038 0.371132
v -2.420250 -0.213929 -0.371132
v -1.590102 0.276227 -0.371132
v -1.783526 0.031705 -0.371132
v -2.375885 0.079039 -0.371132
v -2.247132 0.343329 -0.371132
v -2.046594 0.553071 -0.371132
v -1.793903 0.687733 -0.371132
v -1.513791 -0.645230 0.371132
v -1.134427 -0.265866 0.371132
v -1.513791 0.113499 0.371132
v -1.768574 0.015210 0.371132
v -1.495224 -0.528000 0.371132
v -1.441339 -0.422245 0.371132
v -1.357411 -0.338318 0.371132
v -1.251657 -0.284433 0.371132
v -1.134427 -0.265865 -0.371132
v -1.513791 -0.645230 -0.371132
v -1.768574 0.015210 -0.371132
v -1.513791 0.113499 -0.371132
v -1.251657 -0.284433 -0.371132
v -1.357411 -0.338317 -0.371132
v -1.441339 -0.422245 -0.371132
v -1.495224 -0.528000 -0.371132
vt 0.894177 0.142354
vt 0.894177 0.120402
vt 0.908469 0.120402
vt 0.908469 0.142354
vt 0.379294 0.234758
vt 0.378098 0.221668
vt 0.378482 0.221477
vt 0.392055 0.220236
vt 0.404107 0.223664
vt 0.412344 0.244158
vt 0.925602 0.984114
vt 0.930606 0.984114
vt 0.930606 0.998410
vt 0.925602 0.998410
vt 0.398976 0.128537
vt 0.400254 0.129460
vt 0.394583 0.149414
vt 0.387546 0.147412
vt 0.383099 0.146147
vt 0.378286 0.144778
vt 0.377693 0.144519
vt 0.377344 0.144158
vt 0.377275 0.143730
vt 0.377492 0.143278
vt 0.377973 0.142844
vt 0.425599 0.348952
vt 0.425117 0.348519
vt 0.424900 0.348066
vt 0.424969 0.347638
vt 0.425318 0.347277
vt 0.425911 0.347018
vt 0.430725 0.345649
vt 0.435171 0.344384
vt 0.442208 0.342383
vt 0.447880 0.362336
vt 0.446601 0.363259
vt 0.401827 0.129348
vt 0.412163 0.152569
vt 0.412344 0.153191
vt 0.412291 0.153690
vt 0.412007 0.154017
vt 0.411520 0.154141
vt 0.410879 0.154049
vt 0.406066 0.152680
vt 0.401619 0.151415
vt 0.449245 0.340381
vt 0.453691 0.339116
vt 0.458505 0.337747
vt 0.459146 0.337655
vt 0.459632 0.337779
vt 0.459916 0.338106
vt 0.459969 0.338605
vt 0.459788 0.339227
vt 0.449452 0.362448
vt 0.823653 0.213438
vt 0.837944 0.213438
vt 0.837944 0.215529
vt 0.823653 0.215529
vt 0.984355 0.032012
vt 0.984355 0.050863
vt 0.970064 0.050863
vt 0.970064 0.032012
vt 0.366509 0.212970
vt 0.375769 0.215604
vt 0.374588 0.216796
vt 0.450836 0.337525
vt 0.423394 0.276192
vt 0.425629 0.275557
vt 0.434652 0.280587
vt 0.384691 0.149004
vt 0.853142 0.328000
vt 0.838851 0.328000
vt 0.838851 0.261550
vt 0.853142 0.261550
vt 0.432316 0.342792
vt 0.414134 0.278826
vt 0.399612 0.128238
vt 0.400279 0.128176
vt 0.400909 0.128355
vt 0.401443 0.128759
vt 0.449068 0.363037
vt 0.448534 0.363441
vt 0.447904 0.363621
vt 0.447238 0.363558
vt 0.405348 0.152593
vt 0.404639 0.152733
vt 0.404007 0.153085
vt 0.403515 0.153615
vt 0.403211 0.154272
vt 0.451140 0.338181
vt 0.451632 0.338711
vt 0.452264 0.339063
vt 0.452973 0.339203
vt 0.431381 0.345345
vt 0.431911 0.344852
vt 0.432263 0.344220
vt 0.432402 0.343511
vt 0.384777 0.148286
vt 0.384638 0.147576
vt 0.384286 0.146944
vt 0.383756 0.146452
vt 0.970064 0.031477
vt 0.984355 0.031477
vt 0.970064 0.030986
vt 0.984355 0.030986
vt 0.970064 0.030587
vt 0.984355 0.030587
vt 0.992229 0.968226
vt 0.992229 0.953929
vt 0.992661 0.953929
vt 0.992661 0.968226
vt 0.993302 0.953929
vt 0.993302 0.968226
vt 0.894177 0.119803
vt 0.908469 0.119803
vt 0.894177 0.119301
vt 0.908469 0.119301
vt 0.894177 0.118945
vt 0.908469 0.118945
vt 0.931684 0.984114
vt 0.931684 0.998410
vt 0.931248 0.998410
vt 0.931248 0.984114
vt 0.984355 0.051303
vt 0.970064 0.051303
vt 0.984355 0.051521
vt 0.970064 0.051521
vt 0.908469 0.143350
vt 0.894177 0.143350
vt 0.894177 0.143241
vt 0.908469 0.143241
vt 0.894177 0.142898
vt 0.908469 0.142898
vt 0.924886 0.998410
vt 0.924886 0.984114
vt 0.924239 0.998410
vt 0.924239 0.984114
vt 0.923723 0.998410
vt 0.923723 0.984114
vt 0.823653 0.145383
vt 0.837944 0.145383
vt 0.837944 0.145964
vt 0.823653 0.145964
vt 0.837944 0.146650
vt 0.823653 0.146650
vt 0.853142 0.328718
vt 0.838851 0.328718
vt 0.853142 0.329375
vt 0.838851 0.329375
vt 0.853142 0.329907
vt 0.838851 0.329907
vt 0.999660 0.953929
vt 0.999660 0.968226
vt 0.999019 0.968226
vt 0.999019 0.953929
vt 0.998305 0.968226
vt 0.998305 0.953929
vt 0.378003 0.216239
vt 0.302000 0.899413
vt 0.316292 0.899413
vt 0.316292 0.933784
vt 0.302000 0.933784
vt 0.837944 0.235000
vt 0.823653 0.235000
vt 0.439680 0.271560
vt 0.426107 0.270319
vt 0.425723 0.270129
vt 0.426919 0.257039
vt 0.459969 0.247638
vt 0.451733 0.268132
vt 0.422213 0.275000
vt 0.387027 0.211210
vt 0.413519 0.273392
vt 0.414682 0.268001
vt 0.417510 0.263181
vt 0.421727 0.259404
vt 0.374102 0.232393
vt 0.369885 0.228615
vt 0.367057 0.223795
vt 0.365894 0.218404
vt 0.302000 0.893778
vt 0.316292 0.893778
vt 0.302000 0.888710
vt 0.316292 0.888710
vt 0.838851 0.247140
vt 0.853142 0.247140
vt 0.853142 0.251158
vt 0.838851 0.251158
vt 0.853142 0.256124
vt 0.838851 0.256124
vt 0.837944 0.205015
vt 0.823653 0.205015
vt 0.437607 0.272522
vt 0.435932 0.274077
vt 0.434820 0.276074
vt 0.434379 0.278317
vt 0.386753 0.213479
vt 0.387194 0.215722
vt 0.388307 0.217719
vt 0.389982 0.219275
vt 0.837944 0.207301
vt 0.823653 0.207301
vt 0.837944 0.209483
vt 0.823653 0.209483
vt 0.837944 0.211346
vt 0.823653 0.211346
vt 0.837944 0.212709
vt 0.823653 0.212709
vn 0.7000 -0.7141 -0.0000
vn 0.5881 -0.8088 -0.0000
vn -0.0000 0.0000 -1.0000
vn -0.9969 -0.0785 -0.0000
vn -0.9977 -0.0672 -0.0000
vn 0.0000 -0.0000 1.0000
vn 0.9969 -0.0785 -0.0000
vn 1.0000 0.0000 0.0000
vn 0.5881 0.8088 0.0000
vn 0.7000 0.7141 0.0000
vn -0.0785 0.9969 0.0000
vn -0.0820 0.9966 0.0000
vn 0.3575 0.9339 0.0000
vn -0.1334 0.9911 0.0000
vn -0.6751 0.7378 0.0000
vn -0.9459 0.3243 0.0000
vn -0.9977 0.0672 0.0000
vn 0.3575 -0.9339 -0.0000
vn -0.1334 -0.9911 -0.0000
vn -0.6751 -0.7378 -0.0000
vn -0.9459 -0.3243 -0.0000
vn 0.8560 0.5170 0.0000
vn 0.9828 0.1844 0.0000
vn 0.9828 -0.1844 -0.0000
vn 0.8560 -0.5170 -0.0000
vn -0.9511 -0.3090 -0.0000
vn -0.8090 -0.5878 -0.0000
vn -0.5878 -0.8090 -0.0000
vn -0.3090 -0.9511 -0.0000
vn -0.0785 -0.9969 -0.0000
vn -0.3090 0.9511 0.0000
vn -0.5878 0.8090 0.0000
vn -0.8090 0.5878 0.0000
vn -0.9511 0.3090 0.0000
vn -0.9969 0.0785 0.0000
vn -0.9972 0.0751 0.0000
vn -1.0000 0.0000 0.0000
vn 0.6126 -0.7904 -0.0000
vn -0.9548 0.2972 0.0000
vn -0.8207 0.5713 0.0000
vn -0.6042 0.7969 0.0000
vn -0.3211 0.9470 0.0000
vn 0.0785 -0.9969 -0.0000
vn 0.3090 -0.9511 -0.0000
vn 0.5878 -0.8090 -0.0000
vn 0.8090 -0.5878 -0.0000
vn 0.9511 -0.3090 -0.0000
usemtl Material.001
s 1
f 37/1/1 25/2/2 12/3/2 31/4/1
f 84/5/3 86/6/3 101/7/3 100/8/3 72/9/3 74/10/3
f 44/11/4 13/12/5 24/13/5 52/14/4
f 30/15/3 32/16/3 1/17/3 67/18/3 66/19/3 6/20/3 8/21/3 9/22/3 10/23/3 11/24/3 7/25/3
f 18/26/6 20/27/6 21/28/6 22/29/6 23/30/6 19/31/6 58/32/6 60/33/6 2/34/6 39/35/6 38/36/6
f 32/16/3 31/37/3 12/38/3 14/39/3 15/40/3 16/41/3 17/42/3 13/43/3 44/44/3 46/45/3 1/17/3
f 2/34/6 53/46/6 52/47/6 24/48/6 26/49/6 27/50/6 28/51/6 29/52/6 25/53/6 37/54/6 39/35/6
f 100/55/7 91/56/7 73/57/8 72/58/8
f 18/59/9 38/60/10 30/61/10 7/62/9
f 3/63/3 4/64/3 85/65/3
f 51/66/6 53/46/6 2/34/6 5/67/6 93/68/6 92/69/6
f 65/70/3 67/18/3 1/17/3 4/64/3 3/63/3
f 59/71/11 65/72/11 3/73/12 76/74/12
f 2/34/6 60/33/6 59/75/6 76/76/6 5/67/6
f 30/15/3 33/77/3 32/16/3
f 33/77/3 34/78/3 32/16/3
f 34/78/3 35/79/3 32/16/3
f 35/79/3 36/80/3 32/16/3
f 36/80/3 31/37/3 32/16/3
f 37/54/6 40/81/6 39/35/6
f 40/81/6 41/82/6 39/35/6
f 41/82/6 42/83/6 39/35/6
f 42/83/6 43/84/6 39/35/6
f 43/84/6 38/36/6 39/35/6
f 44/44/3 47/85/3 46/45/3
f 47/85/3 48/86/3 46/45/3
f 48/86/3 49/87/3 46/45/3
f 49/87/3 50/88/3 46/45/3
f 50/88/3 45/89/3 46/45/3
f 51/66/6 54/90/6 53/46/6
f 54/90/6 55/91/6 53/46/6
f 55/91/6 56/92/6 53/46/6
f 56/92/6 57/93/6 53/46/6
f 57/93/6 52/47/6 53/46/6
f 58/32/6 61/94/6 60/33/6
f 61/94/6 62/95/6 60/33/6
f 62/95/6 63/96/6 60/33/6
f 63/96/6 64/97/6 60/33/6
f 64/97/6 59/75/6 60/33/6
f 65/70/3 68/98/3 67/18/3
f 68/98/3 69/99/3 67/18/3
f 69/99/3 70/100/3 67/18/3
f 70/100/3 71/101/3 67/18/3
f 71/101/3 66/19/3 67/18/3
f 18/59/9 7/62/9 11/102/13 20/103/13
f 20/103/13 11/102/13 10/104/14 21/105/14
f 21/105/14 10/104/14 9/106/15 22/107/15
f 22/108/15 9/109/15 8/110/16 23/111/16
f 23/111/16 8/110/16 6/112/17 19/113/17
f 12/3/2 25/2/2 29/114/18 14/115/18
f 14/115/18 29/114/18 28/116/19 15/117/19
f 15/117/19 28/116/19 27/118/20 16/119/20
f 16/120/20 27/121/20 26/122/21 17/123/21
f 17/123/21 26/122/21 24/13/5 13/12/5
f 30/61/10 38/60/10 43/124/22 33/125/22
f 33/125/22 43/124/22 42/126/23 34/127/23
f 34/128/23 42/129/23 41/130/24 35/131/24
f 35/131/24 41/130/24 40/132/25 36/133/25
f 36/133/25 40/132/25 37/1/1 31/4/1
f 44/11/4 52/14/4 57/134/26 47/135/26
f 47/135/26 57/134/26 56/136/27 48/137/27
f 48/137/27 56/136/27 55/138/28 49/139/28
f 49/140/28 55/141/28 54/142/29 50/143/29
f 50/143/29 54/142/29 51/144/30 45/145/30
f 65/72/11 59/71/11 64/146/31 68/147/31
f 68/147/31 64/146/31 63/148/32 69/149/32
f 69/149/32 63/148/32 62/150/33 70/151/33
f 70/152/33 62/153/33 61/154/34 71/155/34
f 71/155/34 61/154/34 58/156/35 66/157/35
f 6/112/17 66/157/35 58/156/35 19/113/17
f 4/64/3 102/158/3 101/7/3 86/6/3 85/65/3
f 77/159/36 84/160/36 74/161/37 75/162/37
f 72/58/38 73/57/38 75/163/38 74/164/38
f 91/165/6 94/166/6 78/167/6 77/168/6 75/169/6 73/170/6
f 5/67/6 76/76/6 79/171/6
f 1/17/3 46/45/3 45/89/3 99/172/3 102/158/3 4/64/3
f 76/76/6 80/173/6 81/174/6 82/175/6 83/176/6 77/168/6 78/167/6 79/171/6
f 84/5/3 87/177/3 88/178/3 89/179/3 90/180/3 3/63/3 85/65/3 86/6/3
f 84/160/36 77/159/36 83/181/39 87/182/39
f 87/182/39 83/181/39 82/183/40 88/184/40
f 88/185/40 82/186/40 81/187/41 89/188/41
f 89/188/41 81/187/41 80/189/42 90/190/42
f 90/190/42 80/189/42 76/74/12 3/73/12
f 45/145/30 51/144/30 92/191/43 99/192/43
f 91/165/6 95/193/6 96/194/6 97/195/6 98/196/6 92/69/6 93/68/6 94/166/6
f 99/172/3 103/197/3 104/198/3 105/199/3 106/200/3 100/8/3 101/7/3 102/158/3
f 99/192/43 92/191/43 98/201/44 103/202/44
f 103/202/44 98/201/44 97/203/45 104/204/45
f 104/204/45 97/203/45 96/205/46 105/206/46
f 105/206/46 96/205/46 95/207/47 106/208/47
f 106/208/47 95/207/47 91/56/7 100/55/7
f 94/166/6 93/68/6 5/67/6 79/171/6 78/167/6
