# Blender v2.83.5 OBJ File: 'Arrows.blend'
# www.blender.org
mtllib Arrow_36.mtl
o Arrow_36
v 0.917690 -0.598695 -0.425990
v 0.917690 -0.598696 0.425989
v 0.919158 0.597892 0.425990
v 0.919158 0.597892 -0.425989
v 0.430517 -1.085868 -0.425990
v 0.430517 -1.085869 0.425989
v -0.167043 -0.488309 0.425989
v -0.167043 -0.488309 -0.425990
v 0.431985 1.085065 -0.425989
v 0.431984 1.085065 0.425990
v -0.167043 0.486037 0.425990
v -0.167043 0.486038 -0.425989
v 1.217894 0.299155 -0.425989
v 1.217894 -0.298491 -0.425989
v 1.309503 0.162054 -0.425989
v 1.341671 0.000332 -0.425989
v 1.309503 -0.161389 -0.425989
v 1.217894 -0.298491 0.425989
v 1.217894 0.299155 0.425990
v 1.309502 -0.161390 0.425989
v 1.341671 0.000332 0.425989
v 1.309502 0.162054 0.425989
v -0.924026 -1.842766 0.425988
v -0.326380 -1.842766 0.425988
v -0.786925 -1.934374 0.425988
v -0.625203 -1.966543 0.425988
v -0.463481 -1.934374 0.425988
v -0.326380 -1.842765 -0.425990
v -0.924026 -1.842765 -0.425990
v -0.463481 -1.934373 -0.425990
v -0.625203 -1.966542 -0.425990
v -0.786925 -1.934373 -0.425990
v -0.923940 -1.245206 0.425989
v -1.015548 -1.382307 0.425989
v -1.047716 -1.544029 0.425988
v -1.015548 -1.705751 0.425988
v -0.923940 -1.245206 -0.425990
v -1.015548 -1.705751 -0.425990
v -1.047716 -1.544029 -0.425990
v -1.015548 -1.382307 -0.425990
v -0.923249 1.841271 0.425990
v -0.923940 1.242934 0.425990
v -1.015548 1.703479 0.425990
v -1.047717 1.541757 0.425990
v -1.015548 1.380036 0.425990
v -0.923940 1.242935 -0.425989
v -0.923249 1.841272 -0.425988
v -1.015548 1.380036 -0.425989
v -1.047717 1.541758 -0.425989
v -1.015548 1.703480 -0.425988
v -0.324913 1.841962 0.425990
v -0.462014 1.933570 0.425990
v -0.623735 1.965738 0.425990
v -0.785457 1.933570 0.425990
v -0.324913 1.841962 -0.425988
v -0.785457 1.933570 -0.425988
v -0.623735 1.965739 -0.425988
v -0.462014 1.933571 -0.425988
v 0.221370 -0.099896 -0.425989
v 0.221370 0.097625 -0.425989
v 0.418891 0.097625 -0.425989
v 0.418891 -0.099896 -0.425989
v 0.243566 -0.070970 -0.425989
v 0.257519 -0.037284 -0.425989
v 0.262278 -0.001135 -0.425989
v 0.257519 0.035013 -0.425989
v 0.243566 0.068699 -0.425989
v 0.221370 0.097624 0.425989
v 0.221370 -0.099896 0.425989
v 0.418891 -0.099896 0.425989
v 0.418891 0.097624 0.425989
v 0.243566 0.068698 0.425989
v 0.257519 0.035013 0.425989
v 0.262278 -0.001136 0.425989
v 0.257519 -0.037285 0.425989
v 0.243566 -0.070970 0.425989
vt 0.104863 0.846924
vt 0.104863 0.860134
vt 0.088459 0.860134
vt 0.088459 0.846924
vt 0.195183 0.612950
vt 0.197872 0.610260
vt 0.211454 0.610260
vt 0.211454 0.618437
vt 0.210835 0.621552
vt 0.209071 0.624193
vt 0.206431 0.625957
vt 0.203317 0.626577
vt 0.195183 0.626577
vt 0.181917 0.626577
vt 0.161308 0.626577
vt 0.158194 0.625957
vt 0.155554 0.624193
vt 0.153790 0.621552
vt 0.153171 0.618400
vt 0.153790 0.615285
vt 0.155554 0.612644
vt 0.158194 0.610880
vt 0.161308 0.610260
vt 0.181917 0.610260
vt 0.602602 0.504138
vt 0.602602 0.490511
vt 0.605291 0.487821
vt 0.615867 0.487821
vt 0.615867 0.504138
vt 0.908637 0.887137
vt 0.908637 0.895237
vt 0.892233 0.895237
vt 0.892233 0.887137
vt 0.192494 0.610260
vt 0.086192 0.357860
vt 0.088159 0.357860
vt 0.088159 0.374269
vt 0.086192 0.374269
vt 0.892233 0.873928
vt 0.892233 0.853405
vt 0.908637 0.853405
vt 0.908637 0.873928
vt 0.636477 0.487821
vt 0.639591 0.488441
vt 0.642231 0.490205
vt 0.643995 0.492846
vt 0.644614 0.495998
vt 0.643995 0.499113
vt 0.642231 0.501754
vt 0.639591 0.503518
vt 0.636477 0.504138
vt 0.602602 0.474551
vt 0.586331 0.474551
vt 0.586331 0.453934
vt 0.586950 0.450819
vt 0.588714 0.448178
vt 0.591354 0.446414
vt 0.594468 0.445794
vt 0.597579 0.446414
vt 0.600219 0.448178
vt 0.601983 0.450819
vt 0.602602 0.453934
vt 0.666773 0.899328
vt 0.666773 0.878714
vt 0.683177 0.878714
vt 0.683177 0.899328
vt 0.195183 0.596990
vt 0.195183 0.576373
vt 0.195802 0.573258
vt 0.197566 0.570617
vt 0.200206 0.568853
vt 0.203317 0.568233
vt 0.206431 0.568853
vt 0.209071 0.570617
vt 0.210835 0.573258
vt 0.211454 0.576373
vt 0.211454 0.596990
vt 0.195183 0.607570
vt 0.683177 0.909906
vt 0.666773 0.909906
vt 0.602602 0.485131
vt 0.599913 0.487821
vt 0.586331 0.487821
vt 0.085182 0.374269
vt 0.085182 0.357860
vt 0.908637 0.898397
vt 0.892233 0.898397
vt 0.908637 0.901194
vt 0.892233 0.901194
vt 0.104863 0.873775
vt 0.088459 0.873775
vt 0.088459 0.871315
vt 0.104863 0.871315
vt 0.088459 0.868274
vt 0.104863 0.868274
vt 0.088459 0.817522
vt 0.104863 0.817522
vt 0.104863 0.818436
vt 0.088459 0.818436
vt 0.104863 0.820445
vt 0.088459 0.820445
vt 0.104863 0.823242
vt 0.088459 0.823242
vt 0.104863 0.826401
vt 0.088459 0.826401
vt 0.666773 0.870432
vt 0.683177 0.870432
vt 0.683177 0.871106
vt 0.666773 0.871106
vt 0.683177 0.872917
vt 0.666773 0.872917
vt 0.683177 0.875588
vt 0.666773 0.875588
vt 0.988592 0.655635
vt 0.988592 0.672045
vt 0.985467 0.672045
vt 0.985467 0.655635
vt 0.982797 0.672045
vt 0.982797 0.655635
vt 0.980987 0.672045
vt 0.980987 0.655635
vt 0.980313 0.672045
vt 0.980313 0.655635
vt 0.892233 0.850363
vt 0.908637 0.850363
vt 0.892233 0.847903
vt 0.908637 0.847903
vt 0.994340 0.655635
vt 0.994340 0.672045
vt 0.991732 0.672045
vt 0.991732 0.655635
vt 0.602694 0.485827
vt 0.602962 0.486476
vt 0.603390 0.487033
vt 0.603947 0.487461
vt 0.604595 0.487729
vt 0.193190 0.610168
vt 0.193838 0.609900
vt 0.194395 0.609472
vt 0.194823 0.608915
vt 0.195091 0.608266
vt 0.683177 0.912643
vt 0.666773 0.912643
vt 0.666773 0.912539
vt 0.683177 0.912539
vt 0.666773 0.912259
vt 0.683177 0.912259
vt 0.666773 0.911822
vt 0.683177 0.911822
vt 0.666773 0.911257
vt 0.683177 0.911257
vt 0.666773 0.910604
vt 0.683177 0.910604
vt 0.594468 0.504138
vt 0.591354 0.503518
vt 0.588714 0.501754
vt 0.586950 0.499113
vt 0.586331 0.495998
vn 0.7071 -0.7071 -0.0000
vn -0.0000 -0.0000 1.0000
vn 0.0000 0.0000 -1.0000
vn 0.7071 0.7071 0.0000
vn 0.7730 0.6344 0.0000
vn -0.7071 -0.7071 -0.0000
vn -0.7730 -0.6344 -0.0000
vn 0.6344 0.7730 0.0000
vn -0.7071 0.7071 0.0000
vn -0.7730 0.6344 0.0000
vn -0.7518 0.6593 0.0000
vn -0.7518 -0.6593 -0.0000
vn 0.9239 0.3827 0.0000
vn 1.0000 -0.0000 0.0000
vn 0.9239 -0.3827 -0.0000
vn 0.7730 -0.6344 -0.0000
vn -0.7072 -0.7071 -0.0000
vn -0.3827 -0.9239 -0.0000
vn 0.0000 -1.0000 -0.0000
vn 0.3827 -0.9239 -0.0000
vn 0.6344 -0.7730 -0.0000
vn -0.9239 -0.3826 -0.0000
vn -1.0000 -0.0000 -0.0000
vn -0.9239 0.3827 0.0000
vn -0.9237 0.3832 0.0000
vn -0.9239 -0.3827 -0.0000
vn 0.3827 0.9239 0.0000
vn -0.0000 1.0000 0.0000
vn -0.3832 0.9237 0.0000
vn -0.8660 -0.5000 -0.0000
vn -0.9659 -0.2588 -0.0000
vn -0.9659 0.2588 0.0000
vn -0.8660 0.5000 0.0000
usemtl Material.001
s 1
f 5/1/1 1/2/1 2/3/1 6/4/1
f 71/5/2 70/6/2 2/7/2 18/8/2 20/9/2 21/10/2 22/11/2 19/12/2 3/13/2
f 10/14/2 51/15/2 52/16/2 53/17/2 54/18/2 41/19/2 43/20/2 44/21/2 45/22/2 42/23/2 11/24/2
f 4/25/3 61/26/3 60/27/3 12/28/3 9/29/3
f 3/30/4 19/31/5 13/32/5 4/33/4
f 68/34/2 71/5/2 3/13/2 10/14/2 11/24/2
f 11/35/6 42/36/7 46/37/7 12/38/6
f 9/39/4 55/40/8 51/41/8 10/42/4
f 9/29/3 12/28/3 46/43/3 48/44/3 49/45/3 50/46/3 47/47/3 56/48/3 57/49/3 58/50/3 55/51/3
f 8/52/3 5/53/3 28/54/3 30/55/3 31/56/3 32/57/3 29/58/3 38/59/3 39/60/3 40/61/3 37/62/3
f 8/63/9 37/64/10 33/65/10 7/66/9
f 7/67/2 33/68/2 34/69/2 35/70/2 36/71/2 23/72/2 25/73/2 26/74/2 27/75/2 24/76/2 6/77/2
f 6/77/2 2/7/2 70/6/2 69/78/2 7/67/2
f 7/66/9 69/79/11 59/80/11 8/63/9
f 3/30/4 4/33/4 9/39/4 10/42/4
f 8/52/3 59/81/3 62/82/3 1/83/3 5/53/3
f 12/38/6 60/84/12 68/85/12 11/35/6
f 13/32/5 19/31/5 22/86/13 15/87/13
f 15/87/13 22/86/13 21/88/14 16/89/14
f 16/90/14 21/91/14 20/92/15 17/93/15
f 17/93/15 20/92/15 18/94/16 14/95/16
f 23/96/17 29/97/17 32/98/18 25/99/18
f 25/99/18 32/98/18 31/100/19 26/101/19
f 26/101/19 31/100/19 30/102/20 27/103/20
f 27/103/20 30/102/20 28/104/21 24/105/21
f 29/106/17 23/107/17 36/108/22 38/109/22
f 38/109/22 36/108/22 35/110/23 39/111/23
f 39/111/23 35/110/23 34/112/24 40/113/24
f 40/113/24 34/112/24 33/65/10 37/64/10
f 41/114/9 47/115/9 50/116/25 43/117/25
f 43/117/25 50/116/25 49/118/23 44/119/23
f 44/119/23 49/118/23 48/120/26 45/121/26
f 45/121/26 48/120/26 46/122/7 42/123/7
f 51/41/8 55/40/8 58/124/27 52/125/27
f 52/125/27 58/124/27 57/126/28 53/127/28
f 53/128/28 57/129/28 56/130/29 54/131/29
f 54/131/29 56/130/29 47/115/9 41/114/9
f 2/3/1 1/2/1 14/95/16 18/94/16
f 6/4/1 24/105/21 28/104/21 5/1/1
f 59/81/3 63/132/3 64/133/3 65/134/3 66/135/3 67/136/3 60/27/3 61/26/3 62/82/3
f 68/34/2 72/137/2 73/138/2 74/139/2 75/140/2 76/141/2 69/78/2 70/6/2 71/5/2
f 68/142/12 60/143/12 67/144/30 72/145/30
f 72/145/30 67/144/30 66/146/31 73/147/31
f 73/147/31 66/146/31 65/148/23 74/149/23
f 74/149/23 65/148/23 64/150/32 75/151/32
f 75/151/32 64/150/32 63/152/33 76/153/33
f 76/153/33 63/152/33 59/80/11 69/79/11
f 1/83/3 62/82/3 61/26/3 4/25/3 13/154/3 15/155/3 16/156/3 17/157/3 14/158/3
