# Blender v2.83.5 OBJ File: 'Arrows.blend'
# www.blender.org
mtllib Arrow_76.mtl
o Arrow_76
v 0.639004 0.000000 -0.371132
v 0.639004 -0.000000 0.371132
v 0.313435 0.915503 -0.371132
v 0.363600 0.959894 -0.371132
v 0.309157 0.952379 -0.371132
v 0.327519 0.968627 -0.371132
v 0.363600 -0.959893 -0.371132
v 0.313435 -0.915503 -0.371132
v 0.327519 -0.968626 -0.371132
v 0.309157 -0.952378 -0.371132
v 0.363600 0.959894 0.371132
v 0.313435 0.915503 0.371132
v 0.327519 0.968626 0.371132
v 0.309157 0.952378 0.371132
v 0.313435 -0.915503 0.371132
v 0.363600 -0.959893 0.371132
v 0.309157 -0.952378 0.371132
v 0.327519 -0.968626 0.371132
v 2.203174 0.040107 -0.371132
v 2.203174 -0.040106 -0.371132
v 2.193706 0.000000 -0.371132
v 2.232534 0.014680 -0.371132
v 2.232534 -0.014680 -0.371132
v 2.203174 -0.040107 0.371132
v 2.203174 0.040106 0.371132
v 2.193706 -0.000000 0.371132
v 2.232534 -0.014680 0.371132
v 2.232534 0.014680 0.371132
v 0.431147 -0.584497 -0.371132
v 0.371514 -0.500000 -0.371132
v 0.491244 -0.415503 -0.371132
v 0.434156 -0.542248 -0.371132
v 0.412329 -0.511320 -0.371132
v 0.371514 -0.500000 0.371132
v 0.431147 -0.584497 0.371132
v 0.491244 -0.415503 0.371132
v 0.412329 -0.511320 0.371132
v 0.434156 -0.542248 0.371132
v 0.431147 0.584497 0.371132
v 0.371514 0.500000 0.371132
v 0.491244 0.415503 0.371132
v 0.434156 0.542248 0.371132
v 0.412329 0.511320 0.371132
v 0.371514 0.500000 -0.371132
v 0.431147 0.584497 -0.371132
v 0.491244 0.415503 -0.371132
v 0.412329 0.511321 -0.371132
v 0.434156 0.542249 -0.371132
v -2.013793 0.415503 -0.371132
v -1.954160 0.500000 -0.371132
v -2.016802 0.457752 -0.371132
v -1.994975 0.488680 -0.371132
v -1.896081 -0.084497 -0.371132
v -1.896081 0.084497 -0.371132
v -1.776351 0.000000 -0.371132
v -1.885082 -0.030928 -0.371132
v -1.885082 0.030928 -0.371132
v -2.013793 -0.415503 0.371132
v -1.954160 -0.500000 0.371132
v -2.016802 -0.457752 0.371132
v -1.994975 -0.488680 0.371132
v -1.896081 0.084497 0.371132
v -1.896081 -0.084497 0.371132
v -1.776351 -0.000000 0.371132
v -1.885082 0.030928 0.371132
v -1.885082 -0.030928 0.371132
v -1.954160 -0.500000 -0.371132
v -2.013793 -0.415503 -0.371132
v -1.994975 -0.488679 -0.371132
v -2.016802 -0.457751 -0.371132
v -1.954160 0.500000 0.371132
v -2.013793 0.415503 0.371132
v -1.994975 0.488680 0.371132
v -2.016802 0.457752 0.371132
vt 0.812644 0.432887
vt 0.812644 0.397071
vt 0.826936 0.397071
vt 0.826936 0.432887
vt 0.710313 0.179547
vt 0.703049 0.175149
vt 0.701919 0.172563
vt 0.710928 0.128684
vt 0.711299 0.127958
vt 0.711967 0.127666
vt 0.712752 0.127886
vt 0.718539 0.131390
vt 0.719669 0.133976
vt 0.995242 0.232490
vt 0.988869 0.232490
vt 0.988869 0.218193
vt 0.995242 0.218193
vt 0.705010 0.209213
vt 0.704291 0.208879
vt 0.718722 0.178369
vt 0.722142 0.177890
vt 0.728841 0.176952
vt 0.729553 0.177014
vt 0.729788 0.177424
vt 0.729484 0.178070
vt 0.707170 0.290093
vt 0.707145 0.289379
vt 0.707523 0.289095
vt 0.708202 0.289319
vt 0.713989 0.292823
vt 0.716943 0.294611
vt 0.724207 0.299009
vt 0.718185 0.328342
vt 0.717392 0.328365
vt 0.703497 0.208903
vt 0.693276 0.170631
vt 0.693251 0.169917
vt 0.693628 0.169633
vt 0.694307 0.169857
vt 0.700094 0.173360
vt 0.732616 0.297831
vt 0.736036 0.297352
vt 0.742735 0.296414
vt 0.743447 0.296476
vt 0.743683 0.296886
vt 0.743378 0.297533
vt 0.718905 0.328676
vt 0.014935 0.888447
vt 0.029226 0.888447
vt 0.029226 0.933231
vt 0.014935 0.933231
vt 0.720779 0.176438
vt 0.721727 0.132045
vt 0.728426 0.131107
vt 0.729234 0.131214
vt 0.729733 0.131745
vt 0.729788 0.132559
vt 0.700286 0.921933
vt 0.700286 0.957749
vt 0.685995 0.957749
vt 0.685995 0.921933
vt 0.470054 0.982098
vt 0.470054 0.975722
vt 0.484345 0.975722
vt 0.484345 0.982098
vt 0.715813 0.292025
vt 0.724822 0.248146
vt 0.725194 0.247420
vt 0.725862 0.247128
vt 0.726647 0.247349
vt 0.732434 0.250852
vt 0.733564 0.253439
vt 0.470054 0.991728
vt 0.470054 0.985353
vt 0.484345 0.985353
vt 0.484345 0.991728
vt 0.734674 0.295900
vt 0.735621 0.251507
vt 0.742320 0.250569
vt 0.743128 0.250676
vt 0.743627 0.251207
vt 0.743683 0.252021
vt 0.139853 0.933230
vt 0.125561 0.933230
vt 0.125561 0.888447
vt 0.139853 0.888447
vt 0.704417 0.209669
vt 0.703863 0.209555
vt 0.718311 0.329131
vt 0.717758 0.329017
vt 0.700879 0.173581
vt 0.701547 0.173289
vt 0.734729 0.296714
vt 0.735228 0.297245
vt 0.714774 0.293043
vt 0.715442 0.292751
vt 0.720835 0.177252
vt 0.721333 0.177783
vt 0.719507 0.131805
vt 0.720674 0.132045
vt 0.733401 0.251267
vt 0.734568 0.251507
vt 0.685995 0.921235
vt 0.700286 0.921235
vt 0.685995 0.920888
vt 0.700286 0.920888
vt 0.768745 0.125911
vt 0.768745 0.111615
vt 0.769455 0.111615
vt 0.769455 0.125911
vt 0.812644 0.396372
vt 0.826936 0.396372
vt 0.812644 0.396026
vt 0.826936 0.396026
vt 0.988159 0.232490
vt 0.988159 0.218193
vt 0.700286 0.958326
vt 0.685995 0.958326
vt 0.826936 0.433476
vt 0.812644 0.433476
vt 0.812644 0.433463
vt 0.826936 0.433463
vt 0.996056 0.218193
vt 0.996056 0.232490
vt 0.996651 0.218193
vt 0.996651 0.232490
vt 0.139853 0.934011
vt 0.125561 0.934011
vt 0.014935 0.887666
vt 0.029226 0.887666
vt 0.777237 0.111615
vt 0.777237 0.125911
vt 0.776642 0.125911
vt 0.776642 0.111615
vt 0.775828 0.125911
vt 0.775828 0.111615
vt 0.484345 0.983130
vt 0.470054 0.983130
vt 0.484345 0.984321
vt 0.470054 0.984321
vt 0.125561 0.887666
vt 0.139853 0.887666
vt 0.470054 0.974313
vt 0.484345 0.974313
vt 0.484345 0.974909
vt 0.470054 0.974909
vt 0.484345 0.992542
vt 0.470054 0.992542
vt 0.484345 0.993138
vt 0.470054 0.993138
vt 0.029226 0.934012
vt 0.014935 0.934012
vn 0.5553 -0.8317 -0.0000
vn 0.3434 -0.9392 -0.0000
vn -0.0000 0.0000 -1.0000
vn -0.9788 0.2049 0.0000
vn -0.9740 0.2266 0.0000
vn 0.0000 -0.0000 1.0000
vn -0.1349 0.9909 0.0000
vn 0.3434 0.9392 0.0000
vn 0.5553 0.8317 0.0000
vn -0.9632 0.2687 0.0000
vn -0.9788 -0.2049 -0.0000
vn -0.9632 -0.2687 -0.0000
vn -0.1349 -0.9909 -0.0000
vn -0.2411 0.9705 0.0000
vn -0.9340 0.3574 0.0000
vn -0.9740 -0.2266 -0.0000
vn -0.2411 -0.9705 -0.0000
vn -0.9340 -0.3574 -0.0000
vn 0.9096 0.4155 0.0000
vn 0.9096 -0.4155 -0.0000
vn -0.9633 -0.2684 -0.0000
vn -0.5756 -0.8177 -0.0000
vn -0.5756 0.8177 0.0000
vn -0.9633 0.2684 0.0000
vn -0.9949 0.1011 0.0000
vn -0.9949 -0.1011 -0.0000
usemtl Material.001
s 1
f 24/1/1 16/2/2 7/3/2 20/4/1
f 1/5/3 31/6/3 30/7/3 67/8/3 69/9/3 70/10/3 68/11/3 53/12/3 55/13/3
f 29/14/4 8/15/5 15/16/5 35/17/4
f 19/18/3 21/19/3 1/5/3 46/20/3 45/21/3 3/22/3 5/23/3 6/24/3 4/25/3
f 11/26/6 13/27/6 14/28/6 12/29/6 39/30/6 41/31/6 2/32/6 26/33/6 25/34/6
f 21/19/3 20/35/3 7/36/3 9/37/3 10/38/3 8/39/3 29/40/3 31/6/3 1/5/3
f 2/32/6 36/41/6 35/42/6 15/43/6 17/44/6 18/45/6 16/46/6 24/47/6 26/33/6
f 40/48/7 44/49/7 50/50/7 71/51/7
f 44/52/3 46/20/3 1/5/3 55/13/3 54/53/3 49/54/3 51/55/3 52/56/3 50/57/3
f 11/58/8 25/59/9 19/60/9 4/61/8
f 53/62/10 68/63/4 58/64/4 63/65/10
f 2/32/6 41/31/6 40/66/6 71/67/6 73/68/6 74/69/6 72/70/6 62/71/6 64/72/6
f 49/73/11 54/74/12 62/75/12 72/76/11
f 34/77/6 36/41/6 2/32/6 64/72/6 63/78/6 58/79/6 60/80/6 61/81/6 59/82/6
f 30/83/13 34/84/13 59/85/13 67/86/13
f 19/18/3 22/87/3 21/19/3
f 22/87/3 23/88/3 21/19/3
f 23/88/3 20/35/3 21/19/3
f 24/47/6 27/89/6 26/33/6
f 27/89/6 28/90/6 26/33/6
f 28/90/6 25/34/6 26/33/6
f 29/40/3 32/91/3 31/6/3
f 32/91/3 33/92/3 31/6/3
f 33/92/3 30/7/3 31/6/3
f 34/77/6 37/93/6 36/41/6
f 37/93/6 38/94/6 36/41/6
f 38/94/6 35/42/6 36/41/6
f 39/30/6 42/95/6 41/31/6
f 42/95/6 43/96/6 41/31/6
f 43/96/6 40/66/6 41/31/6
f 44/52/3 47/97/3 46/20/3
f 47/97/3 48/98/3 46/20/3
f 48/98/3 45/21/3 46/20/3
f 53/12/3 56/99/3 55/13/3
f 56/99/3 57/100/3 55/13/3
f 57/100/3 54/53/3 55/13/3
f 62/71/6 65/101/6 64/72/6
f 65/101/6 66/102/6 64/72/6
f 66/102/6 63/78/6 64/72/6
f 11/58/8 4/61/8 6/103/14 13/104/14
f 13/104/14 6/103/14 5/105/15 14/106/15
f 14/107/15 5/108/15 3/109/16 12/110/16
f 7/3/2 16/2/2 18/111/17 9/112/17
f 9/112/17 18/111/17 17/113/18 10/114/18
f 10/115/18 17/116/18 15/16/5 8/15/5
f 19/60/9 25/59/9 28/117/19 22/118/19
f 22/119/19 28/120/19 27/121/20 23/122/20
f 23/122/20 27/121/20 24/1/1 20/4/1
f 29/14/4 35/17/4 38/123/21 32/124/21
f 32/124/21 38/123/21 37/125/22 33/126/22
f 33/127/22 37/128/22 34/84/13 30/83/13
f 44/49/7 40/48/7 43/129/23 47/130/23
f 47/131/23 43/132/23 42/133/24 48/134/24
f 48/134/24 42/133/24 39/135/11 45/136/11
f 53/62/10 63/65/10 66/137/25 56/138/25
f 56/138/25 66/137/25 65/139/26 57/140/26
f 57/140/26 65/139/26 62/75/12 54/74/12
f 67/86/13 59/85/13 61/141/22 69/142/22
f 69/143/22 61/144/22 60/145/21 70/146/21
f 70/146/21 60/145/21 58/64/4 68/63/4
f 49/73/11 72/76/11 74/147/24 51/148/24
f 51/148/24 74/147/24 73/149/23 52/150/23
f 52/151/23 73/152/23 71/51/7 50/50/7
f 3/109/16 45/136/11 39/135/11 12/110/16
