# Blender v2.83.5 OBJ File: 'Arrows.blend'
# www.blender.org
mtllib Arrow_20.mtl
o Arrow_20
v 0.837733 -0.500908 -0.425989
v 0.837733 -0.500909 0.425989
v 0.839201 0.500809 0.425990
v 0.839201 0.500809 -0.425989
v 0.350560 -0.988082 -0.425990
v 0.350560 -0.988082 0.425989
v -0.052131 -0.585392 0.425989
v -0.149565 -0.487957 -0.425990
v 0.352028 0.987983 -0.425989
v 0.352027 0.987982 0.425990
v -0.149566 0.486389 0.425989
v -0.149565 0.486390 -0.425989
v 1.128341 0.211669 -0.425989
v 1.128341 -0.210301 -0.425989
v 1.197182 0.108642 -0.425989
v 1.218656 0.000684 -0.425989
v 1.197182 -0.107273 -0.425989
v 1.128341 -0.210301 0.425989
v 1.128341 0.211669 0.425989
v 1.197181 -0.107274 0.425989
v 1.218655 0.000684 0.425989
v 1.197181 0.108641 0.425989
v -0.807197 -1.743076 0.425988
v -0.396741 -1.735383 0.425988
v -0.715683 -1.804223 0.425988
v -0.607726 -1.825698 0.425988
v -0.499769 -1.804223 0.425988
v -0.396741 -1.735382 -0.425990
v -0.807197 -1.743075 -0.425990
v -0.499768 -1.804223 -0.425990
v -0.607726 -1.825697 -0.425990
v -0.715683 -1.804223 -0.425990
v -0.799432 -1.332692 0.425989
v -0.868272 -1.435719 0.425988
v -0.889746 -1.543677 0.425988
v -0.868270 -1.651645 0.425988
v -0.799431 -1.332692 -0.425990
v -0.868270 -1.651644 -0.425990
v -0.889746 -1.543677 -0.425990
v -0.868272 -1.435719 -0.425990
v -0.799432 1.331125 0.425990
v -0.868272 1.650067 0.425990
v -0.889746 1.542109 0.425990
v -0.868272 1.434152 0.425990
v -0.799432 1.331125 -0.425989
v -0.868272 1.434153 -0.425989
v -0.889746 1.542110 -0.425989
v -0.868272 1.650067 -0.425989
v -0.395273 1.735283 0.425990
v -0.817243 1.735283 0.425990
v -0.498301 1.804124 0.425990
v -0.606258 1.825598 0.425990
v -0.714216 1.804124 0.425990
v -0.817243 1.735283 -0.425988
v -0.395273 1.735283 -0.425988
v -0.714216 1.804124 -0.425988
v -0.606258 1.825598 -0.425988
v -0.498301 1.804124 -0.425988
v 0.238847 -0.099544 -0.425989
v 0.342668 0.189025 -0.425989
v 0.381406 -0.140109 -0.425989
v 0.409243 -0.072903 -0.425989
v 0.418738 -0.000783 -0.425989
v 0.409243 0.071337 -0.425989
v 0.381406 0.138542 -0.425989
v 0.238847 0.097976 0.425989
v 0.342668 -0.190593 0.425989
v 0.381406 0.138541 0.425989
v 0.409243 0.071336 0.425989
v 0.418738 -0.000784 0.425989
v 0.409243 -0.072904 0.425989
v 0.381406 -0.140109 0.425989
v 0.447994 -1.085516 -0.425990
v 0.935167 -0.598343 -0.425990
v 0.449462 1.085417 0.425990
v 0.936635 0.598244 0.425990
v 0.935167 -0.598344 0.425989
v 0.447994 -1.085517 0.425989
v 0.936635 0.598244 -0.425989
v 0.449462 1.085417 -0.425989
v 1.326980 0.162406 -0.425989
v 1.235372 0.299507 -0.425989
v 1.235372 0.299507 0.425990
v 1.326980 0.162406 0.425989
v 1.359149 0.000684 -0.425989
v 1.359148 0.000684 0.425989
v 1.326980 -0.161037 -0.425989
v 1.326980 -0.161038 0.425989
v 1.235372 -0.298139 -0.425989
v 1.235372 -0.298139 0.425989
v -0.769448 -1.934022 0.425988
v -0.906549 -1.842414 0.425988
v -0.906549 -1.842413 -0.425990
v -0.769448 -1.934021 -0.425990
v -0.607726 -1.966191 0.425988
v -0.607726 -1.966190 -0.425990
v -0.446004 -1.934022 0.425988
v -0.446004 -1.934021 -0.425990
v -0.308903 -1.842414 0.425988
v -0.308903 -1.842413 -0.425990
v -1.030239 -1.543677 -0.425990
v -0.998071 -1.705399 -0.425990
v -0.998071 -1.705399 0.425988
v -1.030239 -1.543677 0.425988
v -0.998071 -1.381955 -0.425990
v -0.998071 -1.381955 0.425988
v -0.906463 -1.244853 -0.425990
v -0.906463 -1.244854 0.425989
v -0.998071 1.703831 0.425990
v -0.905081 1.842314 -0.425988
v -0.998071 1.703832 -0.425988
v -1.030239 1.542109 0.425990
v -1.030239 1.542110 -0.425989
v -0.998071 1.380388 0.425990
v -0.998071 1.380388 -0.425989
v -0.906463 1.243286 0.425990
v -0.906463 1.243287 -0.425989
v -0.444536 1.933922 0.425990
v -0.307435 1.842314 0.425990
v -0.307435 1.842314 -0.425988
v -0.444536 1.933923 -0.425988
v -0.606258 1.966090 0.425990
v -0.606258 1.966091 -0.425988
v -0.767980 1.933922 0.425990
v -0.767980 1.933922 -0.425988
v -0.905081 1.842314 0.425990
v -0.149566 -0.487957 0.425989
v -0.052131 -0.585391 -0.425990
v -0.052131 0.583824 -0.425989
v -0.052131 0.583824 0.425990
v 0.342668 -0.190592 -0.425989
v 0.261043 -0.070618 -0.425989
v 0.274996 -0.036932 -0.425989
v 0.279755 -0.000783 -0.425989
v 0.274996 0.035365 -0.425989
v 0.261043 0.069051 -0.425989
v 0.238847 0.097977 -0.425989
v 0.342668 0.189025 0.425989
v 0.261043 0.069050 0.425989
v 0.274996 0.035365 0.425989
v 0.279755 -0.000784 0.425989
v 0.274996 -0.036933 0.425989
v 0.261043 -0.070618 0.425989
v 0.238847 -0.099544 0.425989
vt 0.829000 0.853184
vt 0.829000 0.851711
vt 0.845404 0.851711
vt 0.845404 0.853184
vt 0.772407 0.812086
vt 0.756003 0.812086
vt 0.756003 0.810465
vt 0.772407 0.810465
vt 0.756003 0.809490
vt 0.772407 0.809490
vt 0.756003 0.809287
vt 0.772407 0.809287
vt 0.845404 0.833724
vt 0.845404 0.841811
vt 0.829000 0.841811
vt 0.829000 0.833724
vt 0.755511 0.809287
vt 0.755511 0.811546
vt 0.739106 0.811546
vt 0.739106 0.809287
vt 0.304208 0.821998
vt 0.304208 0.801508
vt 0.320612 0.801508
vt 0.320612 0.821998
vt 0.829000 0.820536
vt 0.829000 0.800046
vt 0.845404 0.800046
vt 0.845404 0.820536
vt 0.755511 0.813019
vt 0.739106 0.813019
vt 0.755511 0.813897
vt 0.739106 0.813897
vt 0.320612 0.836659
vt 0.320612 0.838947
vt 0.304208 0.838947
vt 0.304208 0.836659
vt 0.755511 0.814620
vt 0.739106 0.814620
vt 0.755511 0.815986
vt 0.739106 0.815986
vt 0.304208 0.835485
vt 0.320612 0.835485
vt 0.755511 0.817869
vt 0.739106 0.817869
vt 0.320612 0.832512
vt 0.304208 0.832512
vt 0.845404 0.844975
vt 0.829000 0.844975
vt 0.845404 0.847796
vt 0.829000 0.847796
vt 0.845404 0.849842
vt 0.829000 0.849842
vt 0.845404 0.850804
vt 0.829000 0.850804
vt 0.304208 0.847937
vt 0.320612 0.847937
vt 0.320612 0.850964
vt 0.304208 0.850964
vt 0.320612 0.853393
vt 0.304208 0.853393
vt 0.320612 0.854853
vt 0.304208 0.854853
vt 0.320612 0.855123
vt 0.304208 0.855123
vt 0.304208 0.844775
vt 0.320612 0.844775
vt 0.304208 0.841955
vt 0.320612 0.841955
vt 0.304208 0.839908
vt 0.320612 0.839908
vt 0.304208 0.792511
vt 0.320612 0.792511
vt 0.320612 0.793477
vt 0.304208 0.793477
vt 0.320612 0.795524
vt 0.304208 0.795524
vt 0.320612 0.798344
vt 0.304208 0.798344
vt 0.829000 0.797019
vt 0.845404 0.797019
vt 0.829000 0.794591
vt 0.845404 0.794591
vt 0.829000 0.793130
vt 0.845404 0.793130
vt 0.829000 0.792860
vt 0.845404 0.792860
vt 0.845404 0.855472
vt 0.829000 0.855472
vt 0.755511 0.820247
vt 0.739106 0.820247
vt 0.755511 0.828074
vt 0.739106 0.828074
vt 0.320612 0.833215
vt 0.304208 0.833215
vt 0.320612 0.833889
vt 0.304208 0.833889
vt 0.320612 0.834490
vt 0.304208 0.834490
vt 0.320612 0.834977
vt 0.304208 0.834977
vt 0.320612 0.835316
vt 0.304208 0.835316
vt 0.755511 0.841262
vt 0.739106 0.841262
vt 0.003527 0.606318
vt 0.003527 0.619588
vt 0.000874 0.619588
vt 0.000874 0.606318
vt 0.624746 0.183001
vt 0.638012 0.183001
vt 0.638012 0.185655
vt 0.624746 0.185655
vt 0.651630 0.169338
vt 0.651630 0.156068
vt 0.654283 0.156068
vt 0.654283 0.169338
vt 0.017145 0.633251
vt 0.030411 0.633251
vt 0.030411 0.635905
vt 0.017145 0.635905
vt 0.006932 0.632785
vt 0.009272 0.633251
vt 0.009011 0.635905
vt 0.005897 0.635285
vt 0.645885 0.183001
vt 0.648225 0.182535
vt 0.649260 0.185035
vt 0.646146 0.185655
vt 0.005170 0.631608
vt 0.003257 0.633521
vt 0.649987 0.181357
vt 0.651900 0.183271
vt 0.003993 0.629845
vt 0.001494 0.630880
vt 0.651165 0.179594
vt 0.653664 0.180630
vt 0.003527 0.627504
vt 0.000874 0.627765
vt 0.651630 0.177254
vt 0.654283 0.177515
vt 0.648225 0.130431
vt 0.646146 0.130017
vt 0.646146 0.127311
vt 0.649260 0.127931
vt 0.009011 0.580267
vt 0.006932 0.580681
vt 0.005897 0.578181
vt 0.009011 0.577561
vt 0.649987 0.131609
vt 0.651900 0.129695
vt 0.005170 0.581859
vt 0.003257 0.579945
vt 0.651165 0.133371
vt 0.653664 0.132336
vt 0.003993 0.583622
vt 0.001494 0.582586
vt 0.651630 0.135712
vt 0.654283 0.135451
vt 0.003527 0.585962
vt 0.000874 0.585701
vt 0.012849 0.581859
vt 0.011087 0.580681
vt 0.012122 0.578181
vt 0.014762 0.579945
vt 0.644070 0.130431
vt 0.642308 0.131609
vt 0.640395 0.129695
vt 0.643035 0.127931
vt 0.014027 0.583622
vt 0.016526 0.582586
vt 0.641130 0.133371
vt 0.638631 0.132336
vt 0.014492 0.585962
vt 0.017145 0.585701
vt 0.640665 0.135712
vt 0.638012 0.135451
vt 0.599118 0.175398
vt 0.598653 0.177254
vt 0.596000 0.177515
vt 0.596619 0.174363
vt 0.056504 0.627504
vt 0.056039 0.625648
vt 0.058538 0.624613
vt 0.059157 0.627765
vt 0.600296 0.173635
vt 0.598383 0.171722
vt 0.054861 0.623886
vt 0.056774 0.621972
vt 0.602058 0.172457
vt 0.601023 0.169957
vt 0.053099 0.622708
vt 0.054134 0.620208
vt 0.604398 0.171992
vt 0.604137 0.169338
vt 0.050759 0.622242
vt 0.051021 0.619588
vt 0.602058 0.182535
vt 0.604398 0.183001
vt 0.604137 0.185655
vt 0.601023 0.185035
vt 0.050759 0.633251
vt 0.053099 0.632785
vt 0.054134 0.635285
vt 0.051021 0.635905
vt 0.600296 0.181357
vt 0.598383 0.183271
vt 0.054861 0.631608
vt 0.056774 0.633521
vt 0.599118 0.179594
vt 0.596619 0.180630
vt 0.056039 0.629845
vt 0.058538 0.630880
vt 0.640665 0.156068
vt 0.638012 0.156068
vt 0.014492 0.606318
vt 0.017145 0.606318
vt 0.030411 0.622242
vt 0.030411 0.619588
vt 0.624746 0.171992
vt 0.624746 0.169338
vt 0.014652 0.618287
vt 0.014492 0.617072
vt 0.017145 0.616898
vt 0.017237 0.617594
vt 0.015188 0.619582
vt 0.017506 0.618243
vt 0.016041 0.620693
vt 0.017933 0.618800
vt 0.017152 0.621546
vt 0.018490 0.619228
vt 0.018446 0.622082
vt 0.019139 0.619496
vt 0.019661 0.622242
vt 0.019835 0.619588
vt 0.636711 0.171832
vt 0.635497 0.171992
vt 0.635323 0.169338
vt 0.636019 0.169246
vt 0.638005 0.171296
vt 0.636667 0.168977
vt 0.639116 0.170443
vt 0.637224 0.168550
vt 0.639969 0.169331
vt 0.637652 0.167993
vt 0.640505 0.168037
vt 0.637920 0.167344
vt 0.640665 0.166822
vt 0.638012 0.166648
vt 0.772407 0.814106
vt 0.756003 0.814106
vt 0.772407 0.816216
vt 0.756003 0.816216
vt 0.772407 0.818099
vt 0.756003 0.818099
vt 0.772407 0.819465
vt 0.756003 0.819465
vt 0.772407 0.820188
vt 0.756003 0.820188
vt 0.756003 0.822447
vt 0.772407 0.822447
vt 0.772407 0.823641
vt 0.756003 0.823641
vt 0.772407 0.823934
vt 0.756003 0.823934
vt 0.772407 0.824611
vt 0.756003 0.824611
vt 0.772407 0.825582
vt 0.756003 0.825582
vt 0.772407 0.826781
vt 0.756003 0.826781
vt 0.772407 0.828127
vt 0.756003 0.828127
vt 0.772407 0.829353
vt 0.756003 0.829353
vt 0.772407 0.840040
vt 0.756003 0.840040
vt 0.772407 0.860270
vt 0.756003 0.860270
vt 0.772407 0.862648
vt 0.756003 0.862648
vt 0.772407 0.864531
vt 0.756003 0.864531
vt 0.772407 0.865897
vt 0.756003 0.865897
vt 0.772407 0.866565
vt 0.756003 0.866565
vt 0.755511 0.866565
vt 0.739106 0.866565
vt 0.739106 0.866363
vt 0.755511 0.866363
vt 0.739106 0.865388
vt 0.755511 0.865388
vt 0.739106 0.863766
vt 0.755511 0.863766
vt 0.739106 0.861492
vt 0.755511 0.861492
vn 0.7071 -0.7071 -0.0000
vn 0.3827 0.9239 0.0000
vn -0.0000 1.0000 0.0000
vn -0.3827 0.9239 0.0000
vn -0.6344 0.7730 0.0000
vn 0.7071 0.7071 0.0000
vn 0.7730 0.6344 0.0000
vn -0.7071 0.7071 0.0000
vn -0.7071 -0.7071 -0.0000
vn -0.7730 -0.6344 -0.0000
vn 0.6344 0.7730 0.0000
vn -0.7730 0.6344 0.0000
vn -0.9239 0.3827 -0.0000
vn -1.0000 0.0000 -0.0000
vn -0.7518 0.6593 0.0000
vn -0.9239 -0.3827 -0.0000
vn -0.7518 -0.6593 -0.0000
vn 0.9239 0.3827 0.0000
vn 1.0000 -0.0000 0.0000
vn 0.9239 -0.3827 -0.0000
vn 0.7730 -0.6344 -0.0000
vn -0.7072 -0.7071 -0.0000
vn -0.3827 -0.9239 -0.0000
vn 0.0000 -1.0000 -0.0000
vn 0.3827 -0.9239 -0.0000
vn 0.6344 -0.7730 -0.0000
vn -0.9239 -0.3826 -0.0000
vn -0.7063 0.7079 0.0000
vn -0.9234 0.3837 0.0000
vn -0.8660 -0.5000 -0.0000
vn -0.9659 -0.2588 -0.0000
vn -0.9659 0.2588 0.0000
vn -0.8660 0.5000 0.0000
vn 0.0000 0.0000 -1.0000
vn -0.0000 -0.0000 1.0000
vn 0.7072 0.7071 0.0000
vn 0.9239 0.3826 0.0000
vn 0.7518 -0.6593 -0.0000
vn 0.8660 -0.5000 -0.0000
vn 0.9659 -0.2588 -0.0000
vn 0.9659 0.2588 0.0000
vn 0.8660 0.5000 0.0000
vn 0.7518 0.6593 0.0000
vn 0.9331 -0.3597 -0.0000
vn 0.7244 -0.6894 -0.0000
vn -0.6344 -0.7730 -0.0000
usemtl Material.001
s 1
f 73/1/1 74/2/1 77/3/1 78/4/1
f 32/5/2 25/6/2 26/7/3 31/8/3
f 31/8/3 26/7/3 27/9/4 30/10/4
f 27/9/4 24/11/5 28/12/5 30/10/4
f 76/13/6 83/14/7 82/15/7 79/16/6
f 24/17/5 6/18/8 5/19/8 28/20/5
f 11/21/9 116/22/10 117/23/10 12/24/9
f 80/25/6 120/26/11 119/27/11 75/28/6
f 5/19/8 6/18/8 2/29/8 1/30/8
f 2/29/8 18/31/12 14/32/12 1/30/8
f 8/33/8 107/34/12 108/35/12 127/36/8
f 18/31/12 20/37/13 17/38/13 14/32/12
f 20/37/13 21/39/14 16/40/14 17/38/13
f 127/36/8 144/41/15 59/42/15 8/33/8
f 76/13/6 79/16/6 80/25/6 75/28/6
f 21/39/14 22/43/16 15/44/16 16/40/14
f 12/24/9 137/45/17 66/46/17 11/21/9
f 82/15/7 83/14/7 84/47/18 81/48/18
f 81/48/18 84/47/18 86/49/19 85/50/19
f 85/50/19 86/49/19 88/51/20 87/52/20
f 87/52/20 88/51/20 90/53/21 89/54/21
f 92/55/22 93/56/22 94/57/23 91/58/23
f 91/58/23 94/57/23 96/59/24 95/60/24
f 95/60/24 96/59/24 98/61/25 97/62/25
f 97/62/25 98/61/25 100/63/26 99/64/26
f 93/56/22 92/55/22 103/65/27 102/66/27
f 102/66/27 103/65/27 104/67/14 101/68/14
f 101/68/14 104/67/14 106/69/13 105/70/13
f 105/70/13 106/69/13 108/35/12 107/34/12
f 126/71/28 110/72/28 111/73/29 109/74/29
f 109/74/29 111/73/29 113/75/14 112/76/14
f 112/76/14 113/75/14 115/77/16 114/78/16
f 114/78/16 115/77/16 117/23/10 116/22/10
f 119/27/11 120/26/11 121/79/2 118/80/2
f 118/80/2 121/79/2 123/81/3 122/82/3
f 122/82/3 123/81/3 125/83/4 124/84/4
f 124/84/4 125/83/4 110/85/28 126/86/28
f 77/3/1 74/2/1 89/54/21 90/53/21
f 78/4/1 99/87/26 100/88/26 73/1/1
f 15/44/16 22/43/16 19/89/10 13/90/10
f 13/90/10 19/89/10 3/91/9 4/92/9
f 66/46/17 137/45/17 136/93/30 139/94/30
f 139/94/30 136/93/30 135/95/31 140/96/31
f 140/96/31 135/95/31 134/97/14 141/98/14
f 141/98/14 134/97/14 133/99/32 142/100/32
f 142/100/32 133/99/32 132/101/33 143/102/33
f 143/102/33 132/101/33 59/42/15 144/41/15
f 4/92/9 3/91/9 10/103/9 9/104/9
f 5/105/34 1/106/34 74/107/34 73/108/34
f 10/109/35 3/110/35 76/111/35 75/112/35
f 2/113/35 6/114/35 78/115/35 77/116/35
f 4/117/34 9/118/34 80/119/34 79/120/34
f 15/121/34 13/122/34 82/123/34 81/124/34
f 19/125/35 22/126/35 84/127/35 83/128/35
f 16/129/34 15/121/34 81/124/34 85/130/34
f 22/126/35 21/131/35 86/132/35 84/127/35
f 17/133/34 16/129/34 85/130/34 87/134/34
f 21/131/35 20/135/35 88/136/35 86/132/35
f 14/137/34 17/133/34 87/134/34 89/138/34
f 20/135/35 18/139/35 90/140/35 88/136/35
f 25/141/35 23/142/35 92/143/35 91/144/35
f 29/145/34 32/146/34 94/147/34 93/148/34
f 26/149/35 25/141/35 91/144/35 95/150/35
f 32/146/34 31/151/34 96/152/34 94/147/34
f 27/153/35 26/149/35 95/150/35 97/154/35
f 31/151/34 30/155/34 98/156/34 96/152/34
f 24/157/35 27/153/35 97/154/35 99/158/35
f 30/155/34 28/159/34 100/160/34 98/156/34
f 39/161/34 38/162/34 102/163/34 101/164/34
f 36/165/35 35/166/35 104/167/35 103/168/35
f 40/169/34 39/161/34 101/164/34 105/170/34
f 35/166/35 34/171/35 106/172/35 104/167/35
f 37/173/34 40/169/34 105/170/34 107/174/34
f 34/171/35 33/175/35 108/176/35 106/172/35
f 42/177/35 50/178/35 126/179/35 109/180/35
f 54/181/34 48/182/34 111/183/34 110/184/34
f 43/185/35 42/177/35 109/180/35 112/186/35
f 48/182/34 47/187/34 113/188/34 111/183/34
f 44/189/35 43/185/35 112/186/35 114/190/35
f 47/187/34 46/191/34 115/192/34 113/188/34
f 41/193/35 44/189/35 114/190/35 116/194/35
f 46/191/34 45/195/34 117/196/34 115/192/34
f 51/197/35 49/198/35 119/199/35 118/200/35
f 55/201/34 58/202/34 121/203/34 120/204/34
f 52/205/35 51/197/35 118/200/35 122/206/35
f 58/202/34 57/207/34 123/208/34 121/203/34
f 53/209/35 52/205/35 122/206/35 124/210/35
f 57/207/34 56/211/34 125/212/34 123/208/34
f 50/178/35 53/209/35 124/210/35 126/179/35
f 56/211/34 54/181/34 110/184/34 125/212/34
f 18/139/35 2/113/35 77/116/35 90/140/35
f 1/106/34 14/137/34 89/138/34 74/107/34
f 3/110/35 19/125/35 83/128/35 76/111/35
f 13/122/34 4/117/34 79/120/34 82/123/34
f 28/159/34 5/105/34 73/108/34 100/160/34
f 6/114/35 24/157/35 99/158/35 78/115/35
f 33/175/35 7/213/35 127/214/35 108/176/35
f 128/215/34 37/173/34 107/174/34 8/216/34
f 45/195/34 129/217/34 12/218/34 117/196/34
f 130/219/35 41/193/35 116/194/35 11/220/35
f 49/198/35 10/109/35 75/112/35 119/199/35
f 9/118/34 55/201/34 120/204/34 80/119/34
f 38/162/34 29/145/34 93/148/34 102/163/34
f 23/142/35 36/165/35 103/168/35 92/143/35
f 61/221/34 131/222/34 59/223/34 132/224/34
f 62/225/34 61/221/34 132/224/34 133/226/34
f 63/227/34 62/225/34 133/226/34 134/228/34
f 64/229/34 63/227/34 134/228/34 135/230/34
f 65/231/34 64/229/34 135/230/34 136/232/34
f 60/233/34 65/231/34 136/232/34 137/234/34
f 68/235/35 138/236/35 66/237/35 139/238/35
f 69/239/35 68/235/35 139/238/35 140/240/35
f 70/241/35 69/239/35 140/240/35 141/242/35
f 71/243/35 70/241/35 141/242/35 142/244/35
f 72/245/35 71/243/35 142/244/35 143/246/35
f 67/247/35 72/245/35 143/246/35 144/248/35
f 129/217/34 60/233/34 137/234/34 12/218/34
f 7/213/35 67/247/35 144/248/35 127/214/35
f 131/222/34 128/215/34 8/216/34 59/223/34
f 138/236/35 130/219/35 11/220/35 66/237/35
f 29/249/36 23/250/36 25/6/2 32/5/2
f 23/250/36 29/249/36 38/251/37 36/252/37
f 39/253/19 35/254/19 36/252/37 38/251/37
f 40/255/20 34/256/20 35/254/19 39/253/19
f 37/257/21 33/258/21 34/256/20 40/255/20
f 7/259/1 33/258/21 37/257/21 128/260/1
f 7/259/1 128/260/1 131/261/38 67/262/38
f 131/261/38 61/263/39 72/264/39 67/262/38
f 61/263/39 62/265/40 71/266/40 72/264/39
f 62/265/40 63/267/19 70/268/19 71/266/40
f 63/267/19 64/269/41 69/270/41 70/268/19
f 64/269/41 65/271/42 68/272/42 69/270/41
f 65/271/42 60/273/43 138/274/43 68/272/42
f 129/275/6 130/276/6 138/274/43 60/273/43
f 45/277/7 41/278/7 130/276/6 129/275/6
f 41/278/7 45/277/7 46/279/18 44/280/18
f 44/280/18 46/279/18 47/281/19 43/282/19
f 43/282/19 47/281/19 48/283/44 42/284/44
f 42/284/44 48/283/44 54/285/45 50/286/45
f 50/287/45 54/288/45 56/289/25 53/290/25
f 53/290/25 56/289/25 57/291/24 52/292/24
f 52/292/24 57/291/24 58/293/23 51/294/23
f 51/294/23 58/293/23 55/295/46 49/296/46
f 9/104/9 10/103/9 49/296/46 55/295/46
