# Blender v2.83.5 OBJ File: 'Arrows.blend'
# www.blender.org
mtllib Arrow_27.mtl
o Arrow_27
v -1.025549 0.437905 -0.363988
v -1.025549 -0.437905 -0.363988
v -1.025549 0.437905 0.363988
v -1.025549 -0.437905 0.363988
v 0.706509 0.437905 -0.363988
v 0.706509 -0.437905 -0.363988
v 0.706509 0.437905 0.363988
v 0.706509 -0.437905 0.363988
v 1.276659 -0.000000 0.363988
v 1.276659 0.000000 -0.363988
v -1.225549 0.637905 -0.363988
v -1.225549 -0.637905 -0.363988
v -1.225549 -0.637905 0.363988
v -1.225549 0.637905 0.363988
v 0.774451 0.637905 0.363988
v 0.774451 -0.637905 0.363988
v 0.774451 0.637905 -0.363988
v 0.774451 -0.637905 -0.363988
v 1.605000 -0.000000 0.363988
v 1.605000 0.000000 -0.363988
vt 0.906234 0.782949
vt 0.906234 0.758375
vt 0.920250 0.758375
vt 0.920250 0.782949
vt 0.937178 0.448868
vt 0.923161 0.448868
vt 0.923161 0.437886
vt 0.937178 0.437886
vt 0.226555 0.875733
vt 0.212538 0.875733
vt 0.212538 0.859736
vt 0.226555 0.859736
vt 0.937178 0.404525
vt 0.923161 0.404525
vt 0.900250 0.199375
vt 0.900250 0.160854
vt 0.914267 0.160854
vt 0.914267 0.199375
vt 0.226555 0.914255
vt 0.212538 0.914255
vt 0.978645 0.356712
vt 0.978645 0.373580
vt 0.964629 0.373580
vt 0.964629 0.356712
vt 0.914267 0.200858
vt 0.914267 0.234219
vt 0.900250 0.234219
vt 0.900250 0.200858
vt 0.900250 0.144857
vt 0.914267 0.144857
vt 0.148113 0.561004
vt 0.164976 0.561004
vt 0.168827 0.564856
vt 0.144262 0.564856
vt 0.481730 0.694284
vt 0.498593 0.694284
vt 0.502444 0.698137
vt 0.477880 0.698137
vt 0.498593 0.660924
vt 0.502444 0.659615
vt 0.481730 0.660924
vt 0.477880 0.659615
vt 0.148113 0.527643
vt 0.144262 0.526334
vt 0.164976 0.527643
vt 0.168827 0.526334
vt 0.490162 0.649942
vt 0.490162 0.643618
vt 0.156544 0.516661
vt 0.156544 0.510337
vt 0.914267 0.245201
vt 0.900250 0.245201
vn -1.0000 -0.0000 0.0000
vn -0.6091 0.7931 0.0000
vn 0.6091 -0.7931 -0.0000
vn 0.0000 1.0000 0.0000
vn 0.0000 -1.0000 -0.0000
vn 1.0000 0.0000 0.0000
vn 0.6091 0.7931 0.0000
vn 0.0000 0.0000 -1.0000
vn 0.0000 -0.0000 1.0000
vn -0.6091 -0.7931 -0.0000
usemtl Material.001
s off
f 11/1/1 12/2/1 13/3/1 14/4/1
f 9/5/2 10/6/2 6/7/2 8/8/2
f 16/9/3 18/10/3 20/11/3 19/12/3
f 4/13/4 8/8/4 6/7/4 2/14/4
f 14/15/4 15/16/4 17/17/4 11/18/4
f 16/9/5 13/19/5 12/20/5 18/10/5
f 3/21/6 4/22/6 2/23/6 1/24/6
f 1/25/5 5/26/5 7/27/5 3/28/5
f 17/17/7 15/16/7 19/29/7 20/30/7
f 1/31/8 2/32/8 12/33/8 11/34/8
f 4/35/9 3/36/9 14/37/9 13/38/9
f 3/36/9 7/39/9 15/40/9 14/37/9
f 8/41/9 4/35/9 13/38/9 16/42/9
f 5/43/8 1/31/8 11/34/8 17/44/8
f 2/32/8 6/45/8 18/46/8 12/33/8
f 7/39/9 9/47/9 19/48/9 15/40/9
f 9/47/9 8/41/9 16/42/9 19/48/9
f 10/49/8 5/43/8 17/44/8 20/50/8
f 6/45/8 10/49/8 20/50/8 18/46/8
f 5/26/10 10/51/10 9/52/10 7/27/10
