# Blender v2.83.5 OBJ File: 'Arrows.blend'
# www.blender.org
mtllib Arrow_62.mtl
o Arrow_62
v -0.480284 0.674350 -0.371132
v -0.515324 0.643344 -0.371132
v -0.575769 0.751016 -0.371132
v -0.500128 0.680578 -0.371132
v -0.513755 0.676872 -0.371132
v -0.519091 0.663797 -0.371132
v -0.515324 -0.643343 -0.371132
v -0.480284 -0.674350 -0.371132
v -0.575769 -0.751016 -0.371132
v -0.519091 -0.663797 -0.371132
v -0.513755 -0.676872 -0.371132
v -0.500128 -0.680578 -0.371132
v -0.515324 0.643343 0.371132
v -0.480284 0.674350 0.371132
v -0.575769 0.751016 0.371132
v -0.519091 0.663797 0.371132
v -0.513755 0.676872 0.371132
v -0.500128 0.680577 0.371132
v -0.480284 -0.674350 0.371132
v -0.515324 -0.643344 0.371132
v -0.575769 -0.751016 0.371132
v -0.500128 -0.680578 0.371132
v -0.513755 -0.676872 0.371132
v -0.519091 -0.663797 0.371132
v 0.812387 -0.028014 -0.371132
v 0.812387 0.028014 -0.371132
v 0.931056 0.000000 -0.371132
v 0.829563 -0.015161 -0.371132
v 0.835595 0.000000 -0.371132
v 0.829563 0.015161 -0.371132
v -0.307528 0.059021 -0.371132
v -0.307528 -0.059020 -0.371132
v -0.349181 0.000000 -0.371132
v -0.301094 0.031942 -0.371132
v -0.298835 0.000000 -0.371132
v -0.301094 -0.031942 -0.371132
v -0.307528 -0.059021 0.371132
v -0.307528 0.059020 0.371132
v -0.349181 -0.000000 0.371132
v -0.301094 -0.031942 0.371132
v -0.298835 -0.000000 0.371132
v -0.301094 0.031941 0.371132
v 1.166278 -0.028014 0.371132
v 1.166278 0.028014 0.371132
v 1.159665 -0.000000 0.371132
v 1.183454 -0.015161 0.371132
v 1.189485 0.000000 0.371132
v 1.183454 0.015161 0.371132
v -0.443066 -0.059020 -0.371132
v -0.443066 0.059021 -0.371132
v -0.359436 0.000000 -0.371132
v -0.436631 -0.031941 -0.371132
v -0.434372 0.000000 -0.371132
v -0.436631 0.031942 -0.371132
v -0.721666 -0.971986 -0.371132
v -0.756706 -0.940979 -0.371132
v -0.738237 -0.951347 -0.371132
v -0.741510 -0.978214 -0.371132
v -0.755137 -0.974508 -0.371132
v -0.760473 -0.961433 -0.371132
v -0.443066 0.059020 0.371132
v -0.443066 -0.059020 0.371132
v -0.359436 -0.000000 0.371132
v -0.436631 0.031942 0.371132
v -0.434372 -0.000000 0.371132
v -0.436631 -0.031942 0.371132
v -0.721666 0.971986 0.371132
v -0.756706 0.940980 0.371132
v -0.738237 0.951347 0.371132
v -0.741510 0.978214 0.371132
v -0.755137 0.974508 0.371132
v -0.760473 0.961433 0.371132
v 1.166278 0.028014 -0.371132
v 1.166278 -0.028014 -0.371132
v 1.159665 0.000000 -0.371132
v 1.183454 0.015161 -0.371132
v 1.189485 0.000000 -0.371132
v 1.183454 -0.015161 -0.371132
v -0.756706 0.940980 -0.371132
v -0.721666 0.971986 -0.371132
v -0.738237 0.951348 -0.371132
v -0.760473 0.961434 -0.371132
v -0.755137 0.974508 -0.371132
v -0.741510 0.978214 -0.371132
v -0.756706 -0.940980 0.371132
v -0.721666 -0.971986 0.371132
v -0.738237 -0.951347 0.371132
v -0.760473 -0.961433 0.371132
v -0.755137 -0.974508 0.371132
v -0.741510 -0.978214 0.371132
v 0.812387 0.028014 0.371132
v 0.812387 -0.028014 0.371132
v 0.931056 -0.000000 0.371132
v 0.829563 0.015161 0.371132
v 0.835595 -0.000000 0.371132
v 0.829563 -0.015161 0.371132
vt 0.067728 0.928430
vt 0.067728 0.925120
vt 0.082019 0.925120
vt 0.082019 0.928430
vt 0.952329 0.585289
vt 0.966620 0.585289
vt 0.966620 0.594403
vt 0.952329 0.594403
vt 0.720230 0.090956
vt 0.718391 0.092433
vt 0.693502 0.104882
vt 0.691217 0.105421
vt 0.686815 0.105421
vt 0.686688 0.104882
vt 0.723039 0.086700
vt 0.723358 0.087097
vt 0.951900 0.490611
vt 0.951900 0.531187
vt 0.937608 0.531187
vt 0.937608 0.490611
vt 0.067728 0.923977
vt 0.067728 0.910221
vt 0.082019 0.910221
vt 0.082019 0.923977
vt 0.720230 0.119886
vt 0.719066 0.117812
vt 0.715065 0.106558
vt 0.715867 0.105421
vt 0.716064 0.105421
vt 0.717674 0.106558
vt 0.723713 0.123545
vt 0.723358 0.123745
vt 0.693502 0.105961
vt 0.718391 0.118410
vt 0.723039 0.124142
vt 0.686688 0.105961
vt 0.966620 0.548028
vt 0.952328 0.548028
vt 0.952328 0.520246
vt 0.966620 0.520246
vt 0.809444 0.533440
vt 0.807606 0.534917
vt 0.782716 0.547366
vt 0.780431 0.547906
vt 0.776030 0.547906
vt 0.775902 0.547366
vt 0.812253 0.529184
vt 0.812572 0.529582
vt 0.805081 0.547906
vt 0.804279 0.546769
vt 0.808280 0.535514
vt 0.812928 0.529782
vt 0.806889 0.546769
vt 0.805279 0.547906
vt 0.715065 0.104284
vt 0.719066 0.093030
vt 0.723713 0.087297
vt 0.717674 0.104284
vt 0.782716 0.548445
vt 0.807606 0.560894
vt 0.809444 0.562371
vt 0.812572 0.566229
vt 0.812253 0.566627
vt 0.775902 0.548445
vt 0.808280 0.560297
vt 0.804279 0.549042
vt 0.806889 0.549042
vt 0.812928 0.566030
vt 0.082019 0.929313
vt 0.082019 0.951622
vt 0.067728 0.951622
vt 0.067728 0.929313
vt 0.952329 0.581954
vt 0.966620 0.581954
vt 0.966620 0.584147
vt 0.952329 0.584147
vt 0.718773 0.118530
vt 0.719035 0.118458
vt 0.719138 0.118206
vt 0.719138 0.092636
vt 0.719035 0.092384
vt 0.718773 0.092313
vt 0.808353 0.535120
vt 0.808250 0.534868
vt 0.807988 0.534797
vt 0.807988 0.561014
vt 0.808250 0.560943
vt 0.808353 0.560691
vt 0.693171 0.105129
vt 0.693055 0.105421
vt 0.693171 0.105713
vt 0.714941 0.106036
vt 0.714897 0.105421
vt 0.714941 0.104806
vt 0.804155 0.548521
vt 0.804112 0.547906
vt 0.804155 0.547290
vt 0.775572 0.548198
vt 0.775456 0.547906
vt 0.775572 0.547614
vt 0.717551 0.104806
vt 0.717507 0.105421
vt 0.717551 0.106036
vt 0.723421 0.086580
vt 0.723683 0.086651
vt 0.723786 0.086903
vt 0.806765 0.547290
vt 0.806722 0.547906
vt 0.806765 0.548521
vt 0.812635 0.529064
vt 0.812898 0.529136
vt 0.813000 0.529388
vt 0.686357 0.105713
vt 0.686241 0.105421
vt 0.686357 0.105129
vt 0.723786 0.123939
vt 0.723683 0.124191
vt 0.723421 0.124262
vt 0.813000 0.566424
vt 0.812898 0.566675
vt 0.812635 0.566747
vt 0.782386 0.547614
vt 0.782269 0.547906
vt 0.782386 0.548198
vt 0.067728 0.929043
vt 0.082019 0.929043
vt 0.067728 0.928780
vt 0.082019 0.928780
vt 0.067728 0.928565
vt 0.082019 0.928565
vt 0.951900 0.531578
vt 0.937608 0.531578
vt 0.951900 0.531769
vt 0.937608 0.531769
vt 0.067728 0.909922
vt 0.082019 0.909922
vt 0.082019 0.909960
vt 0.067728 0.909960
vt 0.952329 0.581819
vt 0.966620 0.581819
vt 0.952329 0.581603
vt 0.966620 0.581603
vt 0.952329 0.581340
vt 0.966620 0.581340
vt 0.952329 0.581070
vt 0.966620 0.581070
vt 0.082019 0.924347
vt 0.067728 0.924347
vt 0.082019 0.924693
vt 0.067728 0.924693
vt 0.082019 0.924965
vt 0.067728 0.924965
vt 0.082019 0.951784
vt 0.067728 0.951784
vt 0.937608 0.489908
vt 0.951900 0.489908
vt 0.951900 0.489954
vt 0.937608 0.489954
vt 0.951900 0.490201
vt 0.937608 0.490201
vt 0.966620 0.565795
vt 0.952329 0.565795
vt 0.952329 0.565634
vt 0.966620 0.565634
vt 0.966620 0.548731
vt 0.952328 0.548731
vt 0.952328 0.548685
vt 0.966620 0.548685
vt 0.952328 0.548438
vt 0.966620 0.548438
vt 0.952329 0.584920
vt 0.966620 0.584920
vt 0.952329 0.584573
vt 0.966620 0.584573
vt 0.952329 0.584302
vt 0.966620 0.584302
vt 0.966620 0.594664
vt 0.952329 0.594664
vt 0.966620 0.594701
vt 0.952329 0.594701
vt 0.952328 0.519664
vt 0.966620 0.519664
vt 0.966620 0.519855
vt 0.952328 0.519855
vn -0.9659 -0.2589 -0.0000
vn -0.9590 -0.2835 -0.0000
vn 0.9590 -0.2835 -0.0000
vn 0.9659 -0.2589 -0.0000
vn -0.0000 0.0000 -1.0000
vn 0.5253 -0.8509 -0.0000
vn 0.3745 -0.9272 -0.0000
vn -0.9590 0.2835 0.0000
vn -0.9659 0.2589 0.0000
vn -0.5253 0.8509 0.0000
vn -0.3745 0.9272 0.0000
vn 0.0000 -0.0000 1.0000
vn 0.3745 0.9272 0.0000
vn 0.5253 0.8509 0.0000
vn 0.9659 0.2589 0.0000
vn 0.9590 0.2835 0.0000
vn 0.0193 0.9998 0.0000
vn -0.6627 0.7489 0.0000
vn -0.9947 0.1025 0.0000
vn 0.0193 -0.9998 -0.0000
vn -0.6627 -0.7489 -0.0000
vn -0.9947 -0.1025 -0.0000
vn 0.9947 -0.1025 -0.0000
vn 0.6627 -0.7489 -0.0000
vn -0.0193 -0.9998 -0.0000
vn -0.3745 -0.9272 -0.0000
vn -0.9885 0.1514 0.0000
vn -1.0000 -0.0000 -0.0000
vn -0.9885 -0.1514 -0.0000
vn 0.7940 0.6080 0.0000
vn 1.0000 0.0000 0.0000
vn 0.7940 -0.6080 -0.0000
vn -0.5253 -0.8509 -0.0000
vn -0.7940 -0.6080 -0.0000
vn -0.7940 0.6080 0.0000
vn 0.9885 -0.1514 -0.0000
vn 0.9885 0.1514 0.0000
vn 0.9947 0.1025 0.0000
vn 0.6627 0.7489 0.0000
vn -0.0193 0.9998 0.0000
usemtl Material.001
s 1
f 79/1/1 50/2/2 61/3/2 68/4/1
f 32/5/3 37/6/3 20/7/4 7/8/4
f 9/9/5 8/10/5 25/11/5 27/12/5 75/13/5 74/14/5 55/15/5 57/16/5
f 43/17/6 86/18/7 55/19/7 74/20/6
f 49/21/8 56/22/9 85/23/9 62/24/8
f 3/25/5 2/26/5 31/27/5 33/28/5 51/29/5 50/30/5 79/31/5 81/32/5
f 27/12/5 26/33/5 1/34/5 3/25/5 81/32/5 80/35/5 73/36/5 75/13/5
f 92/37/10 25/38/10 8/39/11 19/40/11
f 15/41/12 14/42/12 91/43/12 93/44/12 45/45/12 44/46/12 67/47/12 69/48/12
f 39/49/12 38/50/12 13/51/12 15/41/12 69/48/12 68/52/12 61/53/12 63/54/12
f 33/28/5 32/55/5 7/56/5 9/9/5 57/16/5 56/57/5 49/58/5 51/29/5
f 93/44/12 92/59/12 19/60/12 21/61/12 87/62/12 86/63/12 43/64/12 45/45/12
f 21/61/12 20/65/12 37/66/12 39/49/12 63/54/12 62/67/12 85/68/12 87/62/12
f 67/69/13 44/70/14 73/71/14 80/72/13
f 2/73/15 13/74/15 38/75/16 31/76/16
f 1/34/5 4/77/5 3/25/5
f 4/77/5 5/78/5 3/25/5
f 5/78/5 6/79/5 3/25/5
f 6/79/5 2/26/5 3/25/5
f 7/56/5 10/80/5 9/9/5
f 10/80/5 11/81/5 9/9/5
f 11/81/5 12/82/5 9/9/5
f 12/82/5 8/10/5 9/9/5
f 13/51/12 16/83/12 15/41/12
f 16/83/12 17/84/12 15/41/12
f 17/84/12 18/85/12 15/41/12
f 18/85/12 14/42/12 15/41/12
f 19/60/12 22/86/12 21/61/12
f 22/86/12 23/87/12 21/61/12
f 23/87/12 24/88/12 21/61/12
f 24/88/12 20/65/12 21/61/12
f 25/11/5 28/89/5 27/12/5
f 28/89/5 29/90/5 27/12/5
f 29/90/5 30/91/5 27/12/5
f 30/91/5 26/33/5 27/12/5
f 31/27/5 34/92/5 33/28/5
f 34/92/5 35/93/5 33/28/5
f 35/93/5 36/94/5 33/28/5
f 36/94/5 32/55/5 33/28/5
f 37/66/12 40/95/12 39/49/12
f 40/95/12 41/96/12 39/49/12
f 41/96/12 42/97/12 39/49/12
f 42/97/12 38/50/12 39/49/12
f 43/64/12 46/98/12 45/45/12
f 46/98/12 47/99/12 45/45/12
f 47/99/12 48/100/12 45/45/12
f 48/100/12 44/46/12 45/45/12
f 49/58/5 52/101/5 51/29/5
f 52/101/5 53/102/5 51/29/5
f 53/102/5 54/103/5 51/29/5
f 54/103/5 50/30/5 51/29/5
f 55/15/5 58/104/5 57/16/5
f 58/104/5 59/105/5 57/16/5
f 59/105/5 60/106/5 57/16/5
f 60/106/5 56/57/5 57/16/5
f 61/53/12 64/107/12 63/54/12
f 64/107/12 65/108/12 63/54/12
f 65/108/12 66/109/12 63/54/12
f 66/109/12 62/67/12 63/54/12
f 67/47/12 70/110/12 69/48/12
f 70/110/12 71/111/12 69/48/12
f 71/111/12 72/112/12 69/48/12
f 72/112/12 68/52/12 69/48/12
f 73/36/5 76/113/5 75/13/5
f 76/113/5 77/114/5 75/13/5
f 77/114/5 78/115/5 75/13/5
f 78/115/5 74/14/5 75/13/5
f 79/31/5 82/116/5 81/32/5
f 82/116/5 83/117/5 81/32/5
f 83/117/5 84/118/5 81/32/5
f 84/118/5 80/35/5 81/32/5
f 85/68/12 88/119/12 87/62/12
f 88/119/12 89/120/12 87/62/12
f 89/120/12 90/121/12 87/62/12
f 90/121/12 86/63/12 87/62/12
f 91/43/12 94/122/12 93/44/12
f 94/122/12 95/123/12 93/44/12
f 95/123/12 96/124/12 93/44/12
f 96/124/12 92/59/12 93/44/12
f 67/69/13 80/72/13 84/125/17 70/126/17
f 70/126/17 84/125/17 83/127/18 71/128/18
f 71/128/18 83/127/18 82/129/19 72/130/19
f 72/130/19 82/129/19 79/1/1 68/4/1
f 55/19/7 86/18/7 90/131/20 58/132/20
f 58/132/20 90/131/20 89/133/21 59/134/21
f 59/135/21 89/136/21 88/137/22 60/138/22
f 60/138/22 88/137/22 85/23/9 56/22/9
f 13/74/15 2/73/15 6/139/23 16/140/23
f 16/140/23 6/139/23 5/141/24 17/142/24
f 17/142/24 5/141/24 4/143/25 18/144/25
f 18/144/25 4/143/25 1/145/26 14/146/26
f 49/21/8 62/24/8 66/147/27 52/148/27
f 52/148/27 66/147/27 65/149/28 53/150/28
f 53/150/28 65/149/28 64/151/29 54/152/29
f 54/152/29 64/151/29 61/3/2 50/2/2
f 73/71/14 44/70/14 48/153/30 76/154/30
f 76/155/30 48/156/30 47/157/31 77/158/31
f 77/158/31 47/157/31 46/159/32 78/160/32
f 78/160/32 46/159/32 43/17/6 74/20/6
f 91/161/33 26/162/33 30/163/34 94/164/34
f 94/165/34 30/166/34 29/167/28 95/168/28
f 95/168/28 29/167/28 28/169/35 96/170/35
f 96/170/35 28/169/35 25/38/10 92/37/10
f 37/6/3 32/5/3 36/171/36 40/172/36
f 40/172/36 36/171/36 35/173/31 41/174/31
f 41/174/31 35/173/31 34/175/37 42/176/37
f 42/176/37 34/175/37 31/76/16 38/75/16
f 7/8/4 20/7/4 24/177/38 10/178/38
f 10/178/38 24/177/38 23/179/39 11/180/39
f 11/181/39 23/182/39 22/183/40 12/184/40
f 12/184/40 22/183/40 19/40/11 8/39/11
f 1/145/26 26/162/33 91/161/33 14/146/26
