# Blender v2.83.5 OBJ File: 'Arrows.blend'
# www.blender.org
mtllib Arrow_71.mtl
o Arrow_71
v -1.112934 1.000000 -0.371132
v -1.112934 -1.000000 -0.371132
v -1.112934 1.000000 0.371132
v -1.112934 -1.000000 0.371132
v 0.887066 0.000000 -0.371132
v 0.225868 0.000000 -0.371132
v 0.225868 -0.000000 0.371132
v 0.887066 -0.000000 0.371132
vt 0.958805 0.245468
vt 0.958805 0.231018
vt 0.973097 0.231018
vt 0.973097 0.245468
vt 0.791499 0.373059
vt 0.797192 0.341381
vt 0.797192 0.384450
vt 0.413619 0.221038
vt 0.452127 0.201777
vt 0.426349 0.221038
vt 0.938110 0.836928
vt 0.938110 0.879996
vt 0.923818 0.879996
vt 0.923818 0.836928
vt 0.987817 0.144329
vt 0.987817 0.163665
vt 0.973526 0.163665
vt 0.973526 0.144329
vt 0.452127 0.240299
vt 0.762750 0.358608
vt 0.152511 0.962994
vt 0.152511 0.930808
vt 0.166803 0.930808
vt 0.166803 0.962994
vn -0.5984 0.8012 0.0000
vn 0.0000 -0.0000 1.0000
vn 0.0000 0.0000 -1.0000
vn 0.4472 0.8944 0.0000
vn 0.4472 -0.8944 -0.0000
vn -0.5984 -0.8012 -0.0000
usemtl Material.001
s off
f 6/1/1 2/2/1 4/3/1 7/4/1
f 7/5/2 4/6/2 8/7/2
f 5/8/3 2/9/3 6/10/3
f 3/11/4 8/12/4 5/13/4 1/14/4
f 8/15/5 4/16/5 2/17/5 5/18/5
f 5/8/3 6/10/3 1/19/3
f 3/20/2 7/5/2 8/7/2
f 1/21/6 6/22/6 7/23/6 3/24/6
