# Blender v2.83.5 OBJ File: 'Arrows.blend'
# www.blender.org
mtllib Arrow_30.mtl
o Arrow_30
v -3.778960 1.266036 -0.463607
v -3.778960 -1.266036 -0.463608
v -3.778960 1.266036 0.463608
v -3.778960 -1.266036 0.463607
v -2.776442 1.266036 -0.463607
v -2.776442 -1.266036 -0.463608
v -2.776442 1.266036 0.463608
v -2.776442 -1.266036 0.463607
v -2.607828 0.000000 -0.463608
v -2.607828 -0.000000 0.463608
v -1.605309 -0.000000 0.463608
v -1.605309 0.000000 -0.463608
v -3.148892 -0.584910 -0.463608
v -3.148892 -0.584910 0.463608
v -1.973263 -0.397771 0.463608
v -1.973263 -0.397771 -0.463608
v -3.148892 0.584910 0.463608
v -1.973263 0.397771 0.463608
v -1.973263 0.397771 -0.463608
v -3.148892 0.584910 -0.463608
v -1.023093 1.266036 -0.463607
v -1.023093 -1.266036 -0.463608
v -1.023093 1.266036 0.463608
v -1.023093 -1.266036 0.463607
v -0.020574 1.266036 -0.463607
v -0.020574 -1.266036 -0.463608
v -0.020574 1.266036 0.463608
v -0.020574 -1.266036 0.463607
v 0.148039 0.000000 -0.463608
v 0.148039 -0.000000 0.463608
v 1.150558 -0.000000 0.463608
v 1.150558 0.000000 -0.463608
v -0.393025 -0.584910 -0.463608
v -0.393025 -0.584910 0.463608
v 0.782605 -0.397771 0.463608
v 0.782605 -0.397771 -0.463608
v -0.393025 0.584910 0.463608
v 0.782605 0.397771 0.463608
v 0.782605 0.397771 -0.463608
v -0.393025 0.584910 -0.463608
v 1.732775 1.266036 -0.463607
v 1.732775 -1.266036 -0.463608
v 1.732775 1.266036 0.463608
v 1.732775 -1.266036 0.463607
v 2.735293 1.266036 -0.463607
v 2.735293 -1.266036 -0.463608
v 2.735293 1.266036 0.463608
v 2.735293 -1.266036 0.463607
v 2.903907 0.000000 -0.463608
v 2.903907 -0.000000 0.463608
v 3.906425 -0.000000 0.463608
v 3.906425 0.000000 -0.463608
v 2.362843 -0.584910 -0.463608
v 2.362843 -0.584910 0.463608
v 3.538471 -0.397771 0.463608
v 3.538471 -0.397771 -0.463608
v 2.362843 0.584910 0.463608
v 3.538471 0.397771 0.463608
v 3.538471 0.397771 -0.463608
v 2.362843 0.584910 -0.463608
v -3.250044 -0.491340 -0.463608
v -4.094132 -1.403829 -0.463608
v -3.250044 0.491340 0.463608
v -4.094132 1.403829 0.463608
v -2.716198 1.403829 0.463608
v -4.094132 -1.403829 0.463607
v -2.716198 -1.403829 0.463607
v -1.872111 0.491340 0.463608
v -1.872111 0.491340 -0.463608
v -2.716198 1.403829 -0.463607
v -4.094132 1.403829 -0.463607
v -2.716198 -1.403829 -0.463608
v -3.250044 0.491340 -0.463608
v -2.795536 0.000000 -0.463608
v -3.250044 -0.491340 0.463608
v -2.795536 -0.000000 0.463608
v -1.872111 -0.491340 0.463608
v -1.417602 -0.000000 0.463608
v -1.872111 -0.491340 -0.463608
v -1.417602 0.000000 -0.463608
v -0.494177 -0.491340 -0.463608
v -1.338264 -1.403829 -0.463608
v -0.494177 0.491340 0.463608
v -1.338264 1.403829 0.463608
v 0.039669 1.403829 0.463608
v -1.338264 -1.403829 0.463607
v 0.039669 -1.403829 0.463607
v 0.883757 0.491340 0.463608
v 0.883757 0.491340 -0.463608
v 0.039669 1.403829 -0.463607
v -1.338264 1.403829 -0.463607
v 0.039669 -1.403829 -0.463608
v -0.494177 0.491340 -0.463608
v -0.039668 0.000000 -0.463608
v -0.494177 -0.491340 0.463608
v -0.039668 -0.000000 0.463608
v 0.883757 -0.491340 0.463608
v 1.338266 -0.000000 0.463608
v 0.883757 -0.491340 -0.463608
v 1.338266 0.000000 -0.463608
v 2.261690 -0.491340 -0.463608
v 1.417603 -1.403829 -0.463608
v 2.261690 0.491340 0.463608
v 1.417603 1.403829 0.463608
v 2.795537 1.403829 0.463608
v 1.417603 -1.403829 0.463607
v 2.795537 -1.403829 0.463607
v 3.639624 0.491340 0.463608
v 3.639624 0.491340 -0.463608
v 2.795537 1.403829 -0.463607
v 1.417603 1.403829 -0.463607
v 2.795537 -1.403829 -0.463608
v 2.261690 0.491340 -0.463608
v 2.716199 0.000000 -0.463608
v 2.261690 -0.491340 0.463608
v 2.716199 -0.000000 0.463608
v 3.639624 -0.491340 0.463608
v 4.094133 -0.000000 0.463608
v 3.639624 -0.491340 -0.463608
v 4.094133 0.000000 -0.463608
vt 0.412187 0.950567
vt 0.412187 0.934309
vt 0.430040 0.934309
vt 0.430040 0.950567
vt 0.641851 0.876004
vt 0.659704 0.876004
vt 0.659704 0.891474
vt 0.641851 0.891474
vt 0.875112 0.585950
vt 0.875112 0.569692
vt 0.892965 0.569692
vt 0.892965 0.585950
vt 0.641851 0.868917
vt 0.659704 0.868917
vt 0.885052 0.144812
vt 0.885052 0.171352
vt 0.867199 0.171352
vt 0.867199 0.144812
vt 0.875112 0.543152
vt 0.892965 0.543152
vt 0.757516 0.875140
vt 0.757516 0.868053
vt 0.775369 0.868053
vt 0.775369 0.875140
vt 0.885052 0.187610
vt 0.885052 0.196364
vt 0.867199 0.196364
vt 0.867199 0.187610
vt 0.952376 0.486719
vt 0.952376 0.474583
vt 0.970229 0.474583
vt 0.970229 0.486719
vt 0.555131 0.229219
vt 0.555131 0.220465
vt 0.572984 0.220465
vt 0.572984 0.229219
vt 0.952376 0.464162
vt 0.970229 0.464162
vt 0.875112 0.594704
vt 0.892965 0.594704
vt 0.970964 0.127269
vt 0.953112 0.127269
vt 0.953112 0.116848
vt 0.970964 0.116848
vt 0.412187 0.959321
vt 0.430040 0.959321
vt 0.555131 0.245477
vt 0.572984 0.245477
vt 0.970964 0.139405
vt 0.953112 0.139405
vt 0.739128 0.887362
vt 0.739128 0.868053
vt 0.756981 0.868053
vt 0.756981 0.887362
vt 0.885530 0.308126
vt 0.885530 0.324384
vt 0.867677 0.324384
vt 0.867677 0.308126
vt 0.756981 0.902832
vt 0.739128 0.902832
vt 0.891035 0.715560
vt 0.891035 0.731817
vt 0.873183 0.731817
vt 0.873183 0.715560
vt 0.756981 0.909919
vt 0.739128 0.909919
vt 0.105377 0.869004
vt 0.105377 0.842463
vt 0.123230 0.842463
vt 0.123230 0.869004
vt 0.891035 0.758358
vt 0.873183 0.758358
vt 0.470107 0.864685
vt 0.487960 0.864685
vt 0.487960 0.871772
vt 0.470107 0.871772
vt 0.105377 0.826206
vt 0.105377 0.817451
vt 0.123230 0.817451
vt 0.123230 0.826206
vt 0.487960 0.887242
vt 0.470107 0.887242
vt 0.519017 0.109240
vt 0.519017 0.100486
vt 0.536869 0.100486
vt 0.536869 0.109240
vt 0.969581 0.041033
vt 0.969581 0.053168
vt 0.951729 0.053168
vt 0.951729 0.041033
vt 0.891035 0.706805
vt 0.873183 0.706805
vt 0.951729 0.030611
vt 0.969581 0.030611
vt 0.885530 0.299372
vt 0.867677 0.299372
vt 0.519017 0.125498
vt 0.536869 0.125498
vt 0.845382 0.948480
vt 0.845382 0.958901
vt 0.827530 0.958901
vt 0.827530 0.948480
vt 0.845382 0.971037
vt 0.827530 0.971037
vt 0.938378 0.386519
vt 0.938378 0.402777
vt 0.920525 0.402777
vt 0.920525 0.386519
vt 0.845918 0.863330
vt 0.863771 0.863330
vt 0.863771 0.882639
vt 0.845918 0.882639
vt 0.892312 0.009528
vt 0.892312 0.025785
vt 0.874459 0.025785
vt 0.874459 0.009528
vt 0.863771 0.898109
vt 0.845918 0.898109
vt 0.856071 0.052325
vt 0.856071 0.025785
vt 0.873923 0.025785
vt 0.873923 0.052325
vt 0.892312 0.052325
vt 0.874459 0.052325
vt 0.863771 0.905196
vt 0.845918 0.905196
vt 0.856071 0.009528
vt 0.856071 0.000773
vt 0.873923 0.000773
vt 0.873923 0.009528
vt 0.648299 0.400497
vt 0.666152 0.400497
vt 0.666152 0.407584
vt 0.648299 0.407584
vt 0.477779 0.708084
vt 0.477779 0.699330
vt 0.495632 0.699330
vt 0.495632 0.708084
vt 0.666152 0.423054
vt 0.648299 0.423054
vt 0.892312 0.000773
vt 0.874459 0.000773
vt 0.757516 0.890610
vt 0.775369 0.890610
vt 0.938378 0.377764
vt 0.920525 0.377764
vt 0.477779 0.724342
vt 0.495632 0.724342
vt 0.470107 0.906551
vt 0.487960 0.906551
vt 0.648299 0.442363
vt 0.666152 0.442363
vt 0.728126 0.379851
vt 0.715994 0.392970
vt 0.709926 0.395624
vt 0.726178 0.378049
vt 0.593987 0.747221
vt 0.606119 0.734102
vt 0.612187 0.731448
vt 0.595935 0.749023
vt 0.586816 0.734102
vt 0.585656 0.731448
vt 0.586816 0.782872
vt 0.606119 0.782872
vt 0.612187 0.785526
vt 0.585656 0.785526
vt 0.571352 0.750826
vt 0.569404 0.749023
vt 0.750761 0.360924
vt 0.735297 0.344200
vt 0.736457 0.341546
vt 0.752709 0.359121
vt 0.715994 0.344200
vt 0.709926 0.341546
vt 0.735297 0.392970
vt 0.736457 0.395624
vt 0.728126 0.357319
vt 0.738543 0.368585
vt 0.734929 0.368585
vt 0.726178 0.359121
vt 0.593987 0.769753
vt 0.583570 0.758487
vt 0.587184 0.758487
vt 0.595935 0.767951
vt 0.564267 0.758487
vt 0.571352 0.766149
vt 0.569404 0.767951
vt 0.560653 0.758487
vt 0.750761 0.376246
vt 0.757846 0.368585
vt 0.761460 0.368585
vt 0.752709 0.378049
vt 0.743532 0.659133
vt 0.731400 0.672252
vt 0.725332 0.674906
vt 0.741584 0.657331
vt 0.540907 0.747221
vt 0.553039 0.734102
vt 0.559107 0.731448
vt 0.542855 0.749023
vt 0.533736 0.734102
vt 0.532576 0.731448
vt 0.533736 0.782872
vt 0.553039 0.782872
vt 0.559107 0.785526
vt 0.532576 0.785526
vt 0.518272 0.750826
vt 0.516324 0.749023
vt 0.766167 0.640206
vt 0.750703 0.623483
vt 0.751863 0.620829
vt 0.768115 0.638404
vt 0.731400 0.623483
vt 0.725332 0.620829
vt 0.750703 0.672252
vt 0.751863 0.674906
vt 0.743532 0.636602
vt 0.753949 0.647868
vt 0.750335 0.647868
vt 0.741584 0.638404
vt 0.540907 0.769753
vt 0.530490 0.758487
vt 0.534104 0.758487
vt 0.542855 0.767951
vt 0.511187 0.758487
vt 0.518272 0.766149
vt 0.516324 0.767951
vt 0.507573 0.758487
vt 0.766167 0.655529
vt 0.773252 0.647868
vt 0.776866 0.647868
vt 0.768115 0.657331
vt 0.458688 0.766562
vt 0.446556 0.779682
vt 0.440488 0.782336
vt 0.456740 0.764760
vt 0.758564 0.072284
vt 0.770695 0.059165
vt 0.776764 0.056511
vt 0.760512 0.074087
vt 0.751393 0.059165
vt 0.750233 0.056511
vt 0.751393 0.107935
vt 0.770695 0.107935
vt 0.776764 0.110589
vt 0.750233 0.110589
vt 0.735928 0.075889
vt 0.733981 0.074087
vt 0.481323 0.747635
vt 0.465859 0.730912
vt 0.467019 0.728258
vt 0.483271 0.745833
vt 0.446556 0.730912
vt 0.440488 0.728258
vt 0.465859 0.779682
vt 0.467019 0.782336
vt 0.458688 0.744031
vt 0.469105 0.755297
vt 0.465491 0.755297
vt 0.456740 0.745833
vt 0.758564 0.094816
vt 0.748146 0.083550
vt 0.751760 0.083550
vt 0.760512 0.093014
vt 0.728844 0.083550
vt 0.735928 0.091212
vt 0.733981 0.093014
vt 0.725230 0.083550
vt 0.481323 0.762958
vt 0.488408 0.755297
vt 0.492022 0.755297
vt 0.483271 0.764760
vt 0.641851 0.910783
vt 0.659704 0.910783
vt 0.893211 0.961191
vt 0.875359 0.961191
vt 0.875359 0.949056
vt 0.893211 0.949056
vt 0.893211 0.971613
vt 0.875359 0.971613
vt 0.970235 0.605897
vt 0.952382 0.605897
vt 0.952382 0.595476
vt 0.970235 0.595476
vt 0.970235 0.618033
vt 0.952382 0.618033
vt 0.775369 0.909919
vt 0.757516 0.909919
vn -0.7341 0.6791 0.0000
vn 0.7341 -0.6791 -0.0000
vn 0.0000 1.0000 0.0000
vn 0.0000 -1.0000 -0.0000
vn -0.7341 -0.6791 -0.0000
vn 0.7341 0.6791 0.0000
vn 0.0000 0.0000 -1.0000
vn 0.0000 -0.0000 1.0000
usemtl Material.001
s off
f 61/1/1 62/2/1 66/3/1 75/4/1
f 55/5/1 56/6/1 46/7/1 48/8/1
f 77/9/2 67/10/2 72/11/2 79/12/2
f 51/13/1 52/14/1 56/6/1 55/5/1
f 64/15/3 65/16/3 70/17/3 71/18/3
f 67/10/4 66/19/4 62/20/4 72/11/4
f 59/21/5 52/22/5 51/23/5 58/24/5
f 68/25/6 78/26/6 80/27/6 69/28/6
f 23/29/6 37/30/6 40/31/6 21/32/6
f 73/33/5 74/34/5 76/35/5 63/36/5
f 40/31/6 37/30/6 30/37/6 29/38/6
f 78/39/2 77/9/2 79/12/2 80/40/2
f 34/41/2 33/42/2 29/43/2 30/44/2
f 74/45/1 61/1/1 75/4/1 76/46/1
f 71/47/5 73/33/5 63/36/5 64/48/5
f 33/42/2 34/41/2 24/49/2 22/50/2
f 65/16/6 68/25/6 69/28/6 70/17/6
f 26/51/3 22/52/3 24/53/3 28/54/3
f 81/55/1 82/56/1 86/57/1 95/58/1
f 26/51/1 28/54/1 35/59/1 36/60/1
f 97/61/2 87/62/2 92/63/2 99/64/2
f 36/60/1 35/59/1 31/65/1 32/66/1
f 84/67/3 85/68/3 90/69/3 91/70/3
f 87/62/4 86/71/4 82/72/4 92/63/4
f 32/73/5 31/74/5 38/75/5 39/76/5
f 88/77/6 98/78/6 100/79/6 89/80/6
f 39/76/5 38/75/5 27/81/5 25/82/5
f 93/83/5 94/84/5 96/85/5 83/86/5
f 20/87/6 1/88/6 3/89/6 17/90/6
f 98/91/2 97/61/2 99/64/2 100/92/2
f 20/87/6 17/90/6 10/93/6 9/94/6
f 94/95/1 81/55/1 95/58/1 96/96/1
f 91/97/5 93/83/5 83/86/5 84/98/5
f 10/99/2 14/100/2 13/101/2 9/102/2
f 85/68/6 88/77/6 89/80/6 90/69/6
f 13/101/2 14/100/2 4/103/2 2/104/2
f 101/105/1 102/106/1 106/107/1 115/108/1
f 2/109/3 4/110/3 8/111/3 6/112/3
f 117/113/2 107/114/2 112/115/2 119/116/2
f 6/112/1 8/111/1 15/117/1 16/118/1
f 104/119/3 105/120/3 110/121/3 111/122/3
f 107/114/4 106/123/4 102/124/4 112/115/4
f 16/118/1 15/117/1 11/125/1 12/126/1
f 108/127/6 118/128/6 120/129/6 109/130/6
f 12/131/5 11/132/5 18/133/5 19/134/5
f 113/135/5 114/136/5 116/137/5 103/138/5
f 19/134/5 18/133/5 7/139/5 5/140/5
f 118/141/2 117/113/2 119/116/2 120/142/2
f 45/143/5 59/21/5 58/24/5 47/144/5
f 114/145/1 101/105/1 115/108/1 116/146/1
f 111/147/5 113/135/5 103/138/5 104/148/5
f 21/149/4 25/82/4 27/81/4 23/150/4
f 105/120/6 108/127/6 109/130/6 110/121/6
f 1/151/4 5/140/4 7/139/4 3/152/4
f 13/153/7 2/154/7 62/155/7 61/156/7
f 17/157/8 3/158/8 64/159/8 63/160/8
f 3/158/8 7/161/8 65/162/8 64/159/8
f 8/163/8 4/164/8 66/165/8 67/166/8
f 7/161/8 18/167/8 68/168/8 65/162/8
f 19/169/7 5/170/7 70/171/7 69/172/7
f 5/170/7 1/173/7 71/174/7 70/171/7
f 2/154/7 6/175/7 72/176/7 62/155/7
f 20/177/7 9/178/7 74/179/7 73/180/7
f 14/181/8 10/182/8 76/183/8 75/184/8
f 11/185/8 15/186/8 77/187/8 78/188/8
f 16/189/7 12/190/7 80/191/7 79/192/7
f 9/178/7 13/153/7 61/156/7 74/179/7
f 4/164/8 14/181/8 75/184/8 66/165/8
f 15/186/8 8/163/8 67/166/8 77/187/8
f 6/175/7 16/189/7 79/192/7 72/176/7
f 10/182/8 17/157/8 63/160/8 76/183/8
f 18/167/8 11/185/8 78/188/8 68/168/8
f 12/190/7 19/169/7 69/172/7 80/191/7
f 1/173/7 20/177/7 73/180/7 71/174/7
f 33/193/7 22/194/7 82/195/7 81/196/7
f 37/197/8 23/198/8 84/199/8 83/200/8
f 23/198/8 27/201/8 85/202/8 84/199/8
f 28/203/8 24/204/8 86/205/8 87/206/8
f 27/201/8 38/207/8 88/208/8 85/202/8
f 39/209/7 25/210/7 90/211/7 89/212/7
f 25/210/7 21/213/7 91/214/7 90/211/7
f 22/194/7 26/215/7 92/216/7 82/195/7
f 40/217/7 29/218/7 94/219/7 93/220/7
f 34/221/8 30/222/8 96/223/8 95/224/8
f 31/225/8 35/226/8 97/227/8 98/228/8
f 36/229/7 32/230/7 100/231/7 99/232/7
f 29/218/7 33/193/7 81/196/7 94/219/7
f 24/204/8 34/221/8 95/224/8 86/205/8
f 35/226/8 28/203/8 87/206/8 97/227/8
f 26/215/7 36/229/7 99/232/7 92/216/7
f 30/222/8 37/197/8 83/200/8 96/223/8
f 38/207/8 31/225/8 98/228/8 88/208/8
f 32/230/7 39/209/7 89/212/7 100/231/7
f 21/213/7 40/217/7 93/220/7 91/214/7
f 53/233/7 42/234/7 102/235/7 101/236/7
f 57/237/8 43/238/8 104/239/8 103/240/8
f 43/238/8 47/241/8 105/242/8 104/239/8
f 48/243/8 44/244/8 106/245/8 107/246/8
f 47/241/8 58/247/8 108/248/8 105/242/8
f 59/249/7 45/250/7 110/251/7 109/252/7
f 45/250/7 41/253/7 111/254/7 110/251/7
f 42/234/7 46/255/7 112/256/7 102/235/7
f 60/257/7 49/258/7 114/259/7 113/260/7
f 54/261/8 50/262/8 116/263/8 115/264/8
f 51/265/8 55/266/8 117/267/8 118/268/8
f 56/269/7 52/270/7 120/271/7 119/272/7
f 49/258/7 53/233/7 101/236/7 114/259/7
f 44/244/8 54/261/8 115/264/8 106/245/8
f 55/266/8 48/243/8 107/246/8 117/267/8
f 46/255/7 56/269/7 119/272/7 112/256/7
f 50/262/8 57/237/8 103/240/8 116/263/8
f 58/247/8 51/265/8 118/268/8 108/248/8
f 52/270/7 59/249/7 109/252/7 120/271/7
f 41/253/7 60/257/7 113/260/7 111/254/7
f 44/273/3 48/8/3 46/7/3 42/274/3
f 53/275/2 54/276/2 44/277/2 42/278/2
f 54/276/2 53/275/2 49/279/2 50/280/2
f 60/281/6 57/282/6 50/283/6 49/284/6
f 57/282/6 60/281/6 41/285/6 43/286/6
f 45/143/4 47/144/4 43/287/4 41/288/4
