# Blender v2.83.5 OBJ File: 'Arrows.blend'
# www.blender.org
mtllib Arrow_14.mtl
o Arrow_14
v -1.103209 1.203829 -0.463607
v -1.103209 -1.203829 -0.463608
v -1.103209 1.203829 0.463608
v -1.103209 -1.203829 0.463607
v 0.409476 1.203829 -0.463607
v 0.409476 -1.203829 -0.463608
v 0.409476 1.203829 0.463608
v 0.409476 -1.203829 0.463607
v -0.262068 0.000000 -0.463608
v -0.262068 -0.000000 0.463608
v 1.656905 -0.000000 0.463608
v 1.944915 0.000000 -0.463608
v 0.490243 1.403829 0.463608
v -1.560665 1.403829 0.463608
v -1.560665 -1.403829 0.463607
v 0.490243 -1.403829 0.463607
v -1.560665 1.403829 -0.463607
v 0.490243 1.403829 -0.463607
v 0.490243 -1.403829 -0.463608
v -1.560665 -1.403829 -0.463608
v 0.010380 0.000000 -0.463608
v 0.010380 -0.000000 0.463608
v 1.944915 -0.000000 0.463608
v 1.656905 0.000000 -0.463608
vt 0.573519 0.245477
vt 0.573519 0.220465
vt 0.591372 0.220465
vt 0.591372 0.245477
vt 0.518481 0.100486
vt 0.518481 0.125498
vt 0.500628 0.125498
vt 0.500628 0.100486
vt 0.855535 0.000797
vt 0.855535 0.029933
vt 0.837683 0.029933
vt 0.837683 0.000797
vt 0.815062 0.688551
vt 0.815062 0.660532
vt 0.832915 0.660532
vt 0.832915 0.688551
vt 0.832637 0.057512
vt 0.832637 0.097014
vt 0.814785 0.097014
vt 0.814785 0.057512
vt 0.815062 0.621030
vt 0.832915 0.621030
vt 0.855535 0.053960
vt 0.837683 0.053960
vt 0.832637 0.125032
vt 0.814785 0.125032
vt 0.718621 0.831343
vt 0.718621 0.855369
vt 0.700768 0.855369
vt 0.700768 0.831343
vt 0.718621 0.802207
vt 0.700768 0.802207
vt 0.578770 0.305620
vt 0.578770 0.276485
vt 0.582621 0.274929
vt 0.582621 0.314431
vt 0.532413 0.276485
vt 0.532413 0.305620
vt 0.528562 0.314431
vt 0.528562 0.274929
vt 0.092875 0.540106
vt 0.092875 0.569242
vt 0.089024 0.578052
vt 0.089024 0.538550
vt 0.139232 0.569241
vt 0.139232 0.540106
vt 0.143083 0.538550
vt 0.143083 0.578052
vt 0.116053 0.547793
vt 0.116053 0.553040
vt 0.555592 0.284172
vt 0.555592 0.289419
vt 0.555592 0.252458
vt 0.555592 0.246911
vt 0.116053 0.516079
vt 0.116053 0.510532
vt 0.887903 0.769893
vt 0.905756 0.769893
vt 0.905756 0.791342
vt 0.887903 0.791342
vt 0.892332 0.704991
vt 0.892332 0.683543
vt 0.910184 0.683543
vt 0.910184 0.704991
vn -0.7341 -0.6791 -0.0000
vn -0.7341 0.6791 0.0000
vn 0.0000 1.0000 0.0000
vn 0.6944 -0.7196 -0.0000
vn 0.0000 -1.0000 -0.0000
vn -0.6944 0.7196 0.0000
vn 0.6944 0.7196 0.0000
vn -0.6944 -0.7196 -0.0000
vn 0.0000 -0.0000 1.0000
vn 0.0000 0.0000 -1.0000
vn 0.7341 -0.6791 -0.0000
vn 0.7341 0.6791 0.0000
usemtl Material.001
s off
f 17/1/1 9/2/1 10/3/1 14/4/1
f 9/5/2 20/6/2 15/7/2 10/8/2
f 4/9/3 8/10/3 6/11/3 2/12/3
f 23/13/4 16/14/4 19/15/4 12/16/4
f 14/17/3 13/18/3 18/19/3 17/20/3
f 16/14/5 15/21/5 20/22/5 19/15/5
f 11/23/6 24/24/6 6/11/6 8/10/6
f 13/18/7 23/25/7 12/26/7 18/19/7
f 5/27/8 24/28/8 11/29/8 7/30/8
f 1/31/5 5/27/5 7/30/5 3/32/5
f 3/33/9 7/34/9 13/35/9 14/36/9
f 8/37/9 4/38/9 15/39/9 16/40/9
f 5/41/10 1/42/10 17/43/10 18/44/10
f 2/45/10 6/46/10 19/47/10 20/48/10
f 21/49/10 2/45/10 20/48/10 9/50/10
f 4/38/9 22/51/9 10/52/9 15/39/9
f 11/53/9 8/37/9 16/40/9 23/54/9
f 6/46/10 24/55/10 12/56/10 19/47/10
f 22/51/9 3/33/9 14/36/9 10/52/9
f 7/34/9 11/53/9 23/54/9 13/35/9
f 24/55/10 5/41/10 18/44/10 12/56/10
f 1/42/10 21/49/10 9/50/10 17/43/10
f 21/57/11 22/58/11 4/59/11 2/60/11
f 3/61/12 22/62/12 21/63/12 1/64/12
