# Blender v2.83.5 OBJ File: 'Arrows.blend'
# www.blender.org
mtllib Arrow_26.mtl
o Arrow_26
v -1.223985 0.637905 -0.363988
v -1.223985 -0.637905 -0.363988
v -1.223985 0.637905 0.363988
v -1.223985 -0.637905 0.363988
v 0.776015 0.637905 -0.363988
v 0.776015 -0.637905 -0.363988
v 0.776015 0.637905 0.363988
v 0.776015 -0.637905 0.363988
v 1.606564 -0.000000 0.363988
v 1.606564 0.000000 -0.363988
vt 0.964629 0.356090
vt 0.964629 0.331517
vt 0.978645 0.331517
vt 0.978645 0.356090
vt 0.624375 0.719797
vt 0.599810 0.719797
vt 0.599810 0.681275
vt 0.624375 0.681275
vt 0.184025 0.894185
vt 0.198041 0.894185
vt 0.198041 0.913284
vt 0.184025 0.913284
vt 0.126378 0.655974
vt 0.150942 0.655974
vt 0.150942 0.694496
vt 0.126378 0.694496
vt 0.243451 0.858010
vt 0.243451 0.894485
vt 0.229435 0.894485
vt 0.229435 0.858010
vt 0.184025 0.857711
vt 0.198041 0.857711
vt 0.612092 0.665278
vt 0.138660 0.639977
vt 0.243451 0.913584
vt 0.229435 0.913584
vn -1.0000 -0.0000 0.0000
vn 0.0000 -0.0000 1.0000
vn 0.6091 -0.7931 -0.0000
vn 0.0000 0.0000 -1.0000
vn 0.0000 1.0000 0.0000
vn 0.0000 -1.0000 -0.0000
vn 0.6091 0.7931 0.0000
usemtl Material.001
s off
f 1/1/1 2/2/1 4/3/1 3/4/1
f 3/5/2 4/6/2 8/7/2 7/8/2
f 8/9/3 6/10/3 10/11/3 9/12/3
f 5/13/4 6/14/4 2/15/4 1/16/4
f 3/17/5 7/18/5 5/19/5 1/20/5
f 8/9/6 4/21/6 2/22/6 6/10/6
f 7/8/2 8/7/2 9/23/2
f 6/14/4 5/13/4 10/24/4
f 5/19/7 7/18/7 9/25/7 10/26/7
