# Blender v2.83.5 OBJ File: 'Arrows.blend'
# www.blender.org
mtllib Arrow_42.mtl
o Arrow_42
v 1.020510 -2.029617 -0.371132
v -0.391284 -2.543468 -0.371131
v 1.020510 -2.029617 0.371132
v -0.391283 -2.543468 0.371132
v 0.828464 -3.698337 -0.371132
v 0.923354 -3.959042 0.371132
v 0.715402 -2.281812 0.371132
v 0.769973 -2.075732 -0.371132
v 0.011227 -2.540491 -0.371132
v -0.169719 -2.417753 0.371132
v -0.300309 0.590944 -0.371132
v -0.877073 0.674293 -0.371132
v -1.269481 0.731123 0.371132
v -0.877073 0.674293 0.371132
v -0.300309 0.590944 0.371132
v -1.269481 0.731123 -0.371132
v -1.126231 0.380410 0.371132
v -1.126231 0.380410 -0.371132
v -0.275568 0.332449 -0.371132
v -0.275568 0.332449 0.371132
v 0.283905 0.489161 -0.371132
v 0.283905 0.489161 0.371132
v 1.043661 0.016099 -0.371132
v 1.043661 0.016099 0.371132
v -0.899994 3.684448 -0.371132
v -0.899994 3.684448 0.371131
v -0.155819 3.694649 -0.371133
v -0.155819 3.694649 0.371131
v -0.169719 -2.417753 -0.371132
v -0.700380 -2.421677 -0.371131
v 0.769974 -2.075732 0.371132
v 1.179006 -1.737637 0.371132
v 0.923353 -3.959042 -0.371132
v -1.241478 0.334437 0.371132
v -1.463020 0.876830 0.371132
v 0.828464 -3.698336 0.371132
v -0.700379 -2.421677 0.371132
v 1.179006 -1.737637 -0.371132
v 0.715402 -2.281812 -0.371132
v 0.011228 -2.540492 0.371132
v -0.280212 0.713402 -0.371132
v -0.861531 0.797410 -0.371132
v -0.861531 0.797410 0.371132
v -0.280211 0.713402 0.371132
v -1.463021 0.876830 -0.371132
v -1.241478 0.334437 -0.371131
v -0.084894 0.179478 -0.371132
v -0.084893 0.179478 0.371132
v 0.870681 0.166508 -0.371132
v 0.870681 0.166508 0.371132
v 0.081818 0.652468 0.371132
v 0.081818 0.652468 -0.371132
v -1.084757 3.806000 -0.371132
v -0.063073 3.820006 -0.371133
v -1.084757 3.806000 0.371131
v -0.063072 3.820006 0.371131
vt 0.151740 0.593576
vt 0.148296 0.593576
vt 0.148296 0.579280
vt 0.151740 0.579280
vt 0.624880 0.954144
vt 0.624880 0.915662
vt 0.639172 0.915662
vt 0.639172 0.954144
vt 0.935727 0.666042
vt 0.935727 0.704602
vt 0.921436 0.704602
vt 0.921436 0.666042
vt 0.070568 0.676232
vt 0.059977 0.676232
vt 0.059977 0.661935
vt 0.070568 0.661935
vt 0.892794 0.054653
vt 0.892794 0.000808
vt 0.907086 0.000808
vt 0.907086 0.054653
vt 0.088024 0.521651
vt 0.085486 0.521651
vt 0.085486 0.507355
vt 0.088024 0.507355
vt 0.198302 0.871817
vt 0.201707 0.871817
vt 0.201707 0.886114
vt 0.198302 0.886114
vt 0.071396 0.853872
vt 0.085687 0.853872
vt 0.085687 0.865150
vt 0.071396 0.865150
vt 0.677529 0.993562
vt 0.672160 0.993562
vt 0.672160 0.979266
vt 0.677529 0.979266
vt 0.666741 0.993562
vt 0.666741 0.979266
vt 0.967550 0.851100
vt 0.953259 0.851100
vt 0.953259 0.822191
vt 0.967550 0.822191
vt 0.953259 0.792356
vt 0.967550 0.792356
vt 0.967550 0.821323
vt 0.953259 0.821323
vt 0.992138 0.489494
vt 0.992138 0.503791
vt 0.981711 0.503791
vt 0.981711 0.489494
vt 0.365075 0.140695
vt 0.365075 0.154992
vt 0.362463 0.154992
vt 0.362463 0.140695
vt 0.656090 0.799620
vt 0.656090 0.859982
vt 0.641798 0.859982
vt 0.641798 0.799620
vt 0.000214 0.887668
vt 0.014506 0.887668
vt 0.014506 0.934118
vt 0.000214 0.934118
vt 0.656090 0.867274
vt 0.641798 0.867274
vt 0.410259 0.993576
vt 0.395967 0.993576
vt 0.395967 0.989949
vt 0.410259 0.989949
vt 0.071396 0.796997
vt 0.085687 0.796997
vt 0.395967 0.984621
vt 0.410259 0.984621
vt 0.395967 0.978910
vt 0.410259 0.978910
vt 0.858409 0.707017
vt 0.872701 0.707017
vt 0.872701 0.772649
vt 0.858409 0.772649
vt 0.681029 0.979266
vt 0.681029 0.993562
vt 0.335048 0.615004
vt 0.349340 0.615004
vt 0.349340 0.619748
vt 0.335048 0.619748
vt 0.857734 0.497035
vt 0.843442 0.497035
vt 0.843442 0.490519
vt 0.857734 0.490519
vt 0.335048 0.690358
vt 0.349340 0.690358
vt 0.862560 0.057471
vt 0.876852 0.057471
vt 0.876852 0.122233
vt 0.862560 0.122233
vt 0.857734 0.573163
vt 0.843442 0.573163
vt 0.120283 0.032894
vt 0.127847 0.034585
vt 0.133117 0.038211
vt 0.123145 0.035983
vt 0.150540 0.124369
vt 0.143723 0.120961
vt 0.139483 0.116169
vt 0.148623 0.120739
vt 0.109974 0.007620
vt 0.109325 0.002316
vt 0.173541 0.066420
vt 0.174707 0.059217
vt 0.177706 0.055643
vt 0.175902 0.066783
vt 0.154563 0.151442
vt 0.153914 0.156746
vt 0.172436 0.124478
vt 0.177706 0.120851
vt 0.099134 0.038102
vt 0.094894 0.042894
vt 0.105952 0.034693
vt 0.104034 0.038324
vt 0.164872 0.126169
vt 0.167734 0.123080
vt 0.112546 0.093010
vt 0.123004 0.097076
vt 0.122178 0.099319
vt 0.111637 0.095221
vt 0.167592 0.061986
vt 0.166767 0.059744
vt 0.157134 0.066053
vt 0.156226 0.063842
vt 0.130118 0.099845
vt 0.133117 0.103419
vt 0.128952 0.092642
vt 0.131314 0.092280
vt 0.113203 0.088051
vt 0.110289 0.084354
vt 0.157791 0.071011
vt 0.154878 0.074709
vt 0.092420 0.079964
vt 0.089827 0.076391
vt 0.137008 0.079099
vt 0.134416 0.082672
vt 0.146616 0.070498
vt 0.149699 0.066556
vt 0.102028 0.088565
vt 0.105110 0.092506
vt 0.096373 0.150626
vt 0.110378 0.153664
vt 0.113317 0.156746
vt 0.094090 0.152576
vt 0.154967 0.005399
vt 0.140962 0.008437
vt 0.138679 0.006486
vt 0.157905 0.002316
vn -0.0074 1.0000 0.0000
vn 0.9934 -0.1143 -0.0000
vn -0.6875 -0.7262 0.0000
vn 0.1433 0.9897 0.0000
vn -0.9351 -0.3545 0.0000
vn 0.6371 -0.7708 0.0000
vn -0.6371 0.7708 0.0000
vn -0.9258 -0.3781 0.0000
vn 0.1430 0.9897 -0.0000
vn 0.1309 0.9914 0.0000
vn -0.9934 0.1143 0.0000
vn 0.6875 0.7262 -0.0000
vn -0.1433 -0.9897 0.0000
vn 0.0074 -1.0000 -0.0000
vn 0.9318 0.3629 -0.0000
vn 0.9351 0.3545 -0.0000
vn 0.9258 0.3781 -0.0000
vn -0.9318 -0.3629 0.0000
vn -0.1430 -0.9897 0.0000
vn -0.1716 -0.9852 0.0000
vn 0.9377 0.3474 -0.0000
vn 0.1660 0.9861 -0.0000
vn 0.0137 -0.9999 0.0000
vn -0.0137 0.9999 -0.0000
vn -0.9602 -0.2794 0.0000
vn -0.9379 -0.3469 0.0000
vn 0.9602 0.2794 -0.0000
vn -0.0000 -0.0000 -1.0000
vn 0.0000 0.0000 1.0000
usemtl Material.001
s off
f 29/1/1 30/2/1 37/3/1 10/4/1
f 32/5/2 6/6/2 33/7/2 38/8/2
f 6/9/3 37/10/3 30/11/3 33/12/3
f 20/13/4 50/14/4 49/15/4 19/16/4
f 19/17/5 39/18/5 7/19/5 20/20/5
f 39/21/6 1/22/6 3/23/6 7/24/6
f 38/25/7 8/26/7 31/27/7 32/28/7
f 46/29/8 34/30/8 35/31/8 45/32/8
f 41/33/9 42/34/9 43/35/9 44/36/9
f 42/34/10 45/37/10 35/38/10 43/35/10
f 3/39/11 1/40/11 5/41/11 36/42/11
f 36/43/12 5/44/12 2/45/12 4/46/12
f 48/47/13 47/48/13 23/49/13 24/50/13
f 4/51/14 2/52/14 9/53/14 40/54/14
f 9/55/15 18/56/15 17/57/15 40/58/15
f 31/59/16 8/60/16 47/61/16 48/62/16
f 18/56/17 16/63/17 13/64/17 17/57/17
f 13/65/13 16/66/13 12/67/13 14/68/13
f 29/69/18 10/70/18 34/30/18 46/29/18
f 12/67/19 11/71/19 15/72/19 14/68/19
f 15/72/20 11/71/20 21/73/20 22/74/20
f 22/75/21 21/76/21 25/77/21 26/78/21
f 41/33/22 44/36/22 51/79/22 52/80/22
f 26/81/23 25/82/23 27/83/23 28/84/23
f 56/85/24 54/86/24 53/87/24 55/88/24
f 50/89/25 28/84/25 27/83/25 49/90/25
f 52/91/26 51/92/26 55/93/26 53/94/26
f 24/95/27 23/96/27 54/86/27 56/85/27
f 9/97/28 2/98/28 30/99/28 29/100/28
f 7/101/29 3/102/29 32/103/29 31/104/29
f 2/98/28 5/105/28 33/106/28 30/99/28
f 17/107/29 13/108/29 35/109/29 34/110/29
f 3/102/29 36/111/29 6/112/29 32/103/29
f 36/111/29 4/113/29 37/114/29 6/112/29
f 5/105/28 1/115/28 38/116/28 33/106/28
f 1/115/28 39/117/28 8/118/28 38/116/28
f 4/113/29 40/119/29 10/120/29 37/114/29
f 11/121/28 12/122/28 42/123/28 41/124/28
f 13/108/29 14/125/29 43/126/29 35/109/29
f 14/125/29 15/127/29 44/128/29 43/126/29
f 12/122/28 16/129/28 45/130/28 42/123/28
f 18/131/28 9/97/28 29/100/28 46/132/28
f 39/117/28 19/133/28 47/134/28 8/118/28
f 20/135/29 7/101/29 31/104/29 48/136/29
f 40/119/29 17/107/29 34/110/29 10/120/29
f 16/129/28 18/131/28 46/132/28 45/130/28
f 19/133/28 49/137/28 23/138/28 47/134/28
f 50/139/29 20/135/29 48/136/29 24/140/29
f 15/127/29 22/141/29 51/142/29 44/128/29
f 21/143/28 11/121/28 41/124/28 52/144/28
f 27/145/28 25/146/28 53/147/28 54/148/28
f 26/149/29 28/150/29 56/151/29 55/152/29
f 25/146/28 21/143/28 52/144/28 53/147/28
f 49/137/28 27/145/28 54/148/28 23/138/28
f 28/150/29 50/139/29 24/140/29 56/151/29
f 22/141/29 26/149/29 55/152/29 51/142/29
