# Blender v2.83.5 OBJ File: 'Arrows.blend'
# www.blender.org
mtllib Arrow_66.mtl
o Arrow_66
v -0.067578 1.690175 0.105074
v -0.387976 1.658619 0.105074
v -0.696061 1.565162 0.105074
v -0.979994 1.413397 0.105074
v -1.228863 1.209155 0.105074
v -1.433105 0.960285 0.105074
v -1.584871 0.676352 0.105074
v -1.678327 0.368267 0.105074
v -1.709884 0.047869 0.105074
v -1.678327 -0.272529 0.105073
v -1.584871 -0.580614 0.105073
v -1.433105 -0.864547 0.105073
v -1.228863 -1.113416 0.105073
v -0.979994 -1.317658 0.105073
v -0.696061 -1.469424 0.105073
v -0.387975 -1.562880 0.105073
v -0.067577 -1.594437 0.105073
v 0.252821 -1.562880 0.105073
v 0.560906 -1.469423 0.105073
v 0.844839 -1.317658 0.105073
v 1.093709 -1.113416 0.105073
v 1.297950 -0.864546 0.105073
v 1.449716 -0.580613 0.105073
v 1.543172 -0.272527 0.105073
v 1.574728 0.047871 0.105074
v 1.543171 0.368269 0.105074
v 1.449714 0.676354 0.105074
v 1.297949 0.960287 0.105074
v 1.093706 1.209156 0.105074
v 0.844837 1.413398 0.105074
v 0.560903 1.565163 0.105074
v 0.252818 1.658619 0.105074
v -0.067578 1.690175 -0.105073
v -0.387976 1.658619 -0.105073
v -0.696061 1.565162 -0.105073
v -0.979994 1.413397 -0.105073
v -1.228863 1.209155 -0.105073
v -1.433105 0.960285 -0.105073
v -1.584871 0.676353 -0.105073
v -1.678327 0.368267 -0.105074
v -1.709884 0.047869 -0.105074
v -1.678327 -0.272529 -0.105074
v -1.584871 -0.580614 -0.105074
v -1.433105 -0.864547 -0.105074
v -1.228863 -1.113416 -0.105074
v -0.979994 -1.317658 -0.105074
v -0.696061 -1.469424 -0.105074
v -0.387975 -1.562880 -0.105074
v -0.067577 -1.594437 -0.105074
v 0.252821 -1.562880 -0.105074
v 0.560906 -1.469423 -0.105074
v 0.844839 -1.317658 -0.105074
v 1.093709 -1.113416 -0.105074
v 1.297950 -0.864546 -0.105074
v 1.449716 -0.580613 -0.105074
v 1.543172 -0.272527 -0.105074
v 1.574728 0.047871 -0.105074
v 1.543171 0.368269 -0.105074
v 1.449714 0.676354 -0.105073
v 1.297949 0.960287 -0.105073
v 1.093706 1.209156 -0.105073
v 0.844837 1.413398 -0.105073
v 0.560903 1.565163 -0.105073
v 0.252818 1.658619 -0.105073
v -0.436962 1.904891 0.105074
v -0.067578 1.941272 0.105074
v -0.792152 1.797146 0.105074
v -1.119496 1.622177 0.105074
v -1.406416 1.386708 0.105074
v -1.641885 1.099788 0.105074
v -1.816854 0.772443 0.105074
v -1.924600 0.417254 0.105074
v -1.960981 0.047869 0.105074
v -1.924600 -0.321515 0.105073
v -1.816854 -0.676705 0.105073
v -1.641885 -1.004049 0.105073
v -1.406416 -1.290969 0.105073
v -1.119496 -1.526438 0.105073
v -0.792152 -1.701407 0.105073
v -0.436962 -1.809153 0.105073
v -0.067577 -1.845534 0.105073
v 0.301808 -1.809153 0.105073
v 0.656997 -1.701407 0.105073
v 0.984342 -1.526438 0.105073
v 1.271261 -1.290968 0.105073
v 1.506730 -1.004048 0.105073
v 1.681700 -0.676703 0.105073
v 1.789445 -0.321514 0.105073
v 1.825826 0.047871 0.105074
v 1.789444 0.417256 0.105074
v 1.681698 0.772445 0.105074
v 1.506728 1.099790 0.105074
v 1.271259 1.386709 0.105074
v 0.984339 1.622178 0.105074
v 0.656994 1.797147 0.105074
v 0.301804 1.904892 0.105074
v -0.436962 1.904891 -0.105073
v -0.067578 1.941272 -0.105073
v -0.792152 1.797146 -0.105073
v -1.119496 1.622177 -0.105073
v -1.406416 1.386708 -0.105073
v -1.641885 1.099788 -0.105073
v -1.816854 0.772443 -0.105073
v -1.924600 0.417254 -0.105074
v -1.960981 0.047869 -0.105074
v -1.924600 -0.321515 -0.105074
v -1.816854 -0.676705 -0.105074
v -1.641885 -1.004049 -0.105074
v -1.406416 -1.290969 -0.105074
v -1.119496 -1.526438 -0.105074
v -0.792152 -1.701407 -0.105074
v -0.436962 -1.809153 -0.105074
v -0.067577 -1.845534 -0.105074
v 0.301808 -1.809153 -0.105074
v 0.656997 -1.701407 -0.105074
v 0.984342 -1.526438 -0.105074
v 1.271261 -1.290968 -0.105074
v 1.506730 -1.004048 -0.105074
v 1.681700 -0.676703 -0.105074
v 1.789445 -0.321514 -0.105074
v 1.825826 0.047871 -0.105074
v 1.789444 0.417256 -0.105074
v 1.681698 0.772445 -0.105073
v 1.506728 1.099790 -0.105073
v 1.271259 1.386709 -0.105073
v 0.984339 1.622178 -0.105073
v 0.656994 1.797147 -0.105073
v 0.301804 1.904892 -0.105073
v -0.899093 1.080673 -0.105073
v -0.899093 -0.919327 -0.105074
v -0.899093 1.080673 0.105074
v -0.899093 -0.919327 0.105073
v 1.100907 0.080673 -0.105074
v -0.543476 0.080673 -0.105074
v -0.543476 0.080673 0.105073
v 1.100907 0.080673 0.105073
vt 0.210000 0.706938
vt 0.210000 0.725542
vt 0.205954 0.725542
vt 0.205954 0.706938
vt 0.319523 0.148079
vt 0.326370 0.167340
vt 0.287862 0.148079
vt 0.000578 0.771453
vt 0.039086 0.752192
vt 0.032239 0.771453
vt 0.664079 0.868848
vt 0.664079 0.906155
vt 0.660033 0.906155
vt 0.660033 0.868848
vt 0.670526 0.400478
vt 0.670526 0.441085
vt 0.666480 0.441085
vt 0.666480 0.400478
vt 0.039086 0.790714
vt 0.326370 0.128818
vt 0.210000 0.687162
vt 0.205954 0.687162
vt 0.282827 0.937292
vt 0.282827 0.931244
vt 0.286874 0.931244
vt 0.286874 0.937292
vt 0.553197 0.898303
vt 0.553197 0.892670
vt 0.557244 0.892670
vt 0.557244 0.898303
vt 0.435608 0.686236
vt 0.435608 0.681080
vt 0.439654 0.681080
vt 0.439654 0.686236
vt 0.553197 0.887651
vt 0.557244 0.887651
vt 0.435608 0.675351
vt 0.439654 0.675351
vt 0.229930 0.365890
vt 0.229930 0.361451
vt 0.233977 0.361451
vt 0.233977 0.365890
vt 0.435608 0.669269
vt 0.439654 0.669269
vt 0.229930 0.356253
vt 0.233977 0.356253
vt 0.435608 0.663068
vt 0.439654 0.663068
vt 0.229930 0.350494
vt 0.233977 0.350494
vt 0.435608 0.656986
vt 0.439654 0.656986
vt 0.229930 0.344398
vt 0.233977 0.344398
vt 0.435608 0.651257
vt 0.439654 0.651257
vt 0.229930 0.338197
vt 0.233977 0.338197
vt 0.435608 0.646101
vt 0.439654 0.646101
vt 0.229930 0.332131
vt 0.233977 0.332131
vt 0.553197 0.932306
vt 0.553197 0.927756
vt 0.557244 0.927756
vt 0.557244 0.932306
vt 0.229930 0.326432
vt 0.233977 0.326432
vt 0.553197 0.922470
vt 0.557244 0.922470
vt 0.282827 0.925045
vt 0.286874 0.925045
vt 0.229930 0.321320
vt 0.233977 0.321320
vt 0.553197 0.916654
vt 0.557244 0.916654
vt 0.282827 0.918934
vt 0.286874 0.918934
vt 0.229930 0.316990
vt 0.233977 0.316990
vt 0.553197 0.910530
vt 0.557244 0.910530
vt 0.282827 0.913146
vt 0.286874 0.913146
vt 0.282827 0.948024
vt 0.282827 0.942958
vt 0.286874 0.942958
vt 0.286874 0.948024
vt 0.553197 0.904334
vt 0.557244 0.904334
vt 0.282827 0.907903
vt 0.286874 0.907903
vt 0.282827 0.903406
vt 0.286874 0.903406
vt 0.776760 0.842637
vt 0.772714 0.842637
vt 0.772714 0.835577
vt 0.776760 0.835577
vt 0.363932 0.838895
vt 0.359886 0.838895
vt 0.359886 0.832222
vt 0.363932 0.832222
vt 0.212268 0.783814
vt 0.208221 0.783814
vt 0.208221 0.777821
vt 0.212268 0.777821
vt 0.359886 0.826177
vt 0.363932 0.826177
vt 0.208221 0.771183
vt 0.212268 0.771183
vt 0.359886 0.820993
vt 0.363932 0.820993
vt 0.208221 0.764154
vt 0.212268 0.764154
vt 0.282827 0.855772
vt 0.286874 0.855772
vt 0.286874 0.861717
vt 0.282827 0.861717
vt 0.208221 0.757006
vt 0.212268 0.757006
vt 0.286874 0.868321
vt 0.282827 0.868321
vt 0.208221 0.750012
vt 0.212268 0.750012
vt 0.286874 0.875333
vt 0.282827 0.875333
vt 0.208221 0.743442
vt 0.212268 0.743442
vt 0.286874 0.882482
vt 0.282827 0.882482
vt 0.208221 0.737547
vt 0.212268 0.737547
vt 0.286874 0.889494
vt 0.282827 0.889494
vt 0.208221 0.732556
vt 0.212268 0.732556
vt 0.286874 0.896099
vt 0.282827 0.896099
vt 0.363932 0.872433
vt 0.359886 0.872433
vt 0.359886 0.866592
vt 0.363932 0.866592
vt 0.772714 0.828433
vt 0.776760 0.828433
vt 0.286874 0.902043
vt 0.282827 0.902043
vt 0.359886 0.860060
vt 0.363932 0.860060
vt 0.772714 0.821481
vt 0.776760 0.821481
vt 0.776760 0.860683
vt 0.772714 0.860683
vt 0.772714 0.855436
vt 0.776760 0.855436
vt 0.359886 0.853087
vt 0.363932 0.853087
vt 0.772714 0.814986
vt 0.776760 0.814986
vt 0.772714 0.849343
vt 0.776760 0.849343
vt 0.359886 0.845940
vt 0.363932 0.845940
vt 0.772714 0.809200
vt 0.776760 0.809200
vt 0.212268 0.788932
vt 0.208221 0.788932
vt 0.457169 0.065279
vt 0.454890 0.069544
vt 0.448948 0.065572
vt 0.452015 0.061834
vt 0.393167 0.433012
vt 0.391764 0.437640
vt 0.385161 0.434904
vt 0.387440 0.430639
vt 0.370877 0.405843
vt 0.366066 0.406317
vt 0.366066 0.399168
vt 0.370877 0.399642
vt 0.462896 0.067652
vt 0.461493 0.072280
vt 0.379219 0.430933
vt 0.382286 0.427194
vt 0.367460 0.392156
vt 0.372087 0.393560
vt 0.468976 0.068862
vt 0.468502 0.073675
vt 0.374166 0.425877
vt 0.377903 0.422809
vt 0.370195 0.385551
vt 0.374459 0.387831
vt 0.475175 0.068862
vt 0.475649 0.073675
vt 0.502335 0.046564
vt 0.506961 0.047968
vt 0.504227 0.054573
vt 0.499963 0.052293
vt 0.374166 0.379607
vt 0.377903 0.382675
vt 0.481255 0.067652
vt 0.482658 0.072280
vt 0.503544 0.040482
vt 0.508356 0.040956
vt 0.379219 0.374552
vt 0.382286 0.378290
vt 0.486982 0.065279
vt 0.489261 0.069544
vt 0.503544 0.034281
vt 0.508356 0.033807
vt 0.385161 0.370580
vt 0.387440 0.374845
vt 0.492136 0.061834
vt 0.495203 0.065572
vt 0.502335 0.028199
vt 0.506961 0.026795
vt 0.391764 0.367844
vt 0.393167 0.372472
vt 0.496519 0.057449
vt 0.500256 0.060517
vt 0.499963 0.022470
vt 0.504227 0.020191
vt 0.398773 0.366449
vt 0.399247 0.371262
vt 0.496519 0.017314
vt 0.500256 0.014246
vt 0.405919 0.366449
vt 0.405446 0.371262
vt 0.492136 0.012930
vt 0.495203 0.009191
vt 0.412929 0.367844
vt 0.411525 0.372472
vt 0.486982 0.009485
vt 0.489261 0.005219
vt 0.419531 0.370580
vt 0.417252 0.374845
vt 0.481255 0.007112
vt 0.482658 0.002484
vt 0.425473 0.374552
vt 0.422406 0.378290
vt 0.475175 0.005902
vt 0.475649 0.001089
vt 0.430527 0.379607
vt 0.426790 0.382675
vt 0.468976 0.005902
vt 0.468502 0.001089
vt 0.434497 0.385551
vt 0.430233 0.387831
vt 0.462896 0.007112
vt 0.461493 0.002484
vt 0.437232 0.392156
vt 0.432606 0.393560
vt 0.457169 0.009485
vt 0.454890 0.005219
vt 0.438626 0.399168
vt 0.433815 0.399642
vt 0.452015 0.012930
vt 0.448948 0.009191
vt 0.438626 0.406317
vt 0.433815 0.405843
vt 0.447632 0.017314
vt 0.443895 0.014246
vt 0.437232 0.413328
vt 0.432606 0.411924
vt 0.444188 0.022470
vt 0.439924 0.020191
vt 0.434497 0.419933
vt 0.430233 0.417653
vt 0.441816 0.028199
vt 0.437189 0.026795
vt 0.430527 0.425877
vt 0.426790 0.422809
vt 0.440607 0.034281
vt 0.435795 0.033807
vt 0.425473 0.430933
vt 0.422406 0.427194
vt 0.440607 0.040482
vt 0.435795 0.040956
vt 0.419531 0.434904
vt 0.417252 0.430639
vt 0.441816 0.046564
vt 0.437189 0.047968
vt 0.412929 0.437640
vt 0.411525 0.433012
vt 0.444188 0.052293
vt 0.439924 0.054573
vt 0.405919 0.439035
vt 0.405446 0.434222
vt 0.370195 0.419933
vt 0.374459 0.417653
vt 0.447632 0.057449
vt 0.443895 0.060517
vt 0.398773 0.439035
vt 0.399247 0.434222
vt 0.367460 0.413328
vt 0.372087 0.411924
vn -0.9422 0.3351 0.0000
vn 0.0000 -0.0000 1.0000
vn 0.0000 0.0000 -1.0000
vn 0.4472 0.8944 0.0000
vn 0.4472 -0.8944 -0.0000
vn -0.9422 -0.3351 -0.0000
vn -0.1951 -0.9808 0.0000
vn 0.0000 -1.0000 0.0000
vn -0.3827 0.9239 0.0000
vn -0.5556 0.8315 0.0000
vn 0.8315 -0.5556 -0.0000
vn 0.9239 -0.3827 -0.0000
vn -0.7071 0.7071 0.0000
vn 0.9808 -0.1951 -0.0000
vn -0.8315 0.5556 0.0000
vn 1.0000 -0.0000 -0.0000
vn -0.9239 0.3827 0.0000
vn 0.9808 0.1951 0.0000
vn -0.9808 0.1951 0.0000
vn 0.9239 0.3827 0.0000
vn -1.0000 -0.0000 0.0000
vn 0.8315 0.5556 0.0000
vn -0.9808 -0.1951 -0.0000
vn 0.7071 0.7071 0.0000
vn -0.9239 -0.3827 -0.0000
vn 0.5556 0.8315 0.0000
vn -0.8315 -0.5556 -0.0000
vn 0.3827 0.9239 0.0000
vn 0.1951 -0.9808 0.0000
vn -0.7071 -0.7071 -0.0000
vn 0.1951 0.9808 0.0000
vn 0.3827 -0.9239 0.0000
vn -0.5556 -0.8315 0.0000
vn -0.0000 1.0000 0.0000
vn 0.5556 -0.8315 0.0000
vn -0.3827 -0.9239 0.0000
vn -0.1951 0.9808 0.0000
vn 0.7071 -0.7071 0.0000
usemtl Material.001
s off
f 134/1/1 130/2/1 132/3/1 135/4/1
f 135/5/2 132/6/2 136/7/2
f 133/8/3 130/9/3 134/10/3
f 131/11/4 136/12/4 133/13/4 129/14/4
f 136/15/5 132/16/5 130/17/5 133/18/5
f 133/8/3 134/10/3 129/19/3
f 131/20/2 135/5/2 136/7/2
f 129/21/6 134/1/6 135/4/6 131/22/6
s 1
f 32/23/7 1/24/8 33/25/8 64/26/7
f 19/27/9 20/28/10 52/29/10 51/30/9
f 6/31/11 7/32/12 39/33/12 38/34/11
f 20/28/10 21/35/13 53/36/13 52/29/10
f 7/32/12 8/37/14 40/38/14 39/33/12
f 21/39/13 22/40/15 54/41/15 53/42/13
f 8/37/14 9/43/16 41/44/16 40/38/14
f 22/40/15 23/45/17 55/46/17 54/41/15
f 9/43/16 10/47/18 42/48/18 41/44/16
f 23/45/17 24/49/19 56/50/19 55/46/17
f 10/47/18 11/51/20 43/52/20 42/48/18
f 24/49/19 25/53/21 57/54/21 56/50/19
f 11/51/20 12/55/22 44/56/22 43/52/20
f 25/53/21 26/57/23 58/58/23 57/54/21
f 12/55/22 13/59/24 45/60/24 44/56/22
f 26/57/23 27/61/25 59/62/25 58/58/23
f 13/63/24 14/64/26 46/65/26 45/66/24
f 27/61/25 28/67/27 60/68/27 59/62/25
f 14/64/26 15/69/28 47/70/28 46/65/26
f 1/24/8 2/71/29 34/72/29 33/25/8
f 28/67/27 29/73/30 61/74/30 60/68/27
f 15/69/28 16/75/31 48/76/31 47/70/28
f 2/71/29 3/77/32 35/78/32 34/72/29
f 29/73/30 30/79/33 62/80/33 61/74/30
f 16/75/31 17/81/34 49/82/34 48/76/31
f 3/77/32 4/83/35 36/84/35 35/78/32
f 30/85/33 31/86/36 63/87/36 62/88/33
f 17/81/34 18/89/37 50/90/37 49/82/34
f 4/83/35 5/91/38 37/92/38 36/84/35
f 31/86/36 32/23/7 64/26/7 63/87/36
f 18/89/37 19/27/9 51/30/9 50/90/37
f 5/91/38 6/93/11 38/94/11 37/92/38
f 96/95/31 128/96/31 98/97/34 66/98/34
f 83/99/32 115/100/32 116/101/35 84/102/35
f 70/103/15 102/104/15 103/105/17 71/106/17
f 84/102/35 116/101/35 117/107/38 85/108/38
f 71/106/17 103/105/17 104/109/19 72/110/19
f 85/108/38 117/107/38 118/111/11 86/112/11
f 72/110/19 104/109/19 105/113/21 73/114/21
f 86/115/11 118/116/11 119/117/12 87/118/12
f 73/114/21 105/113/21 106/119/23 74/120/23
f 87/118/12 119/117/12 120/121/14 88/122/14
f 74/120/23 106/119/23 107/123/25 75/124/25
f 88/122/14 120/121/14 121/125/16 89/126/16
f 75/124/25 107/123/25 108/127/27 76/128/27
f 89/126/16 121/125/16 122/129/18 90/130/18
f 76/128/27 108/127/27 109/131/30 77/132/30
f 90/130/18 122/129/18 123/133/20 91/134/20
f 77/132/30 109/131/30 110/135/33 78/136/33
f 91/134/20 123/133/20 124/137/22 92/138/22
f 78/139/33 110/140/33 111/141/36 79/142/36
f 66/98/34 98/97/34 97/143/37 65/144/37
f 92/138/22 124/137/22 125/145/24 93/146/24
f 79/142/36 111/141/36 112/147/7 80/148/7
f 65/144/37 97/143/37 99/149/9 67/150/9
f 93/151/24 125/152/24 126/153/26 94/154/26
f 80/148/7 112/147/7 113/155/8 81/156/8
f 67/150/9 99/149/9 100/157/10 68/158/10
f 94/154/26 126/153/26 127/159/28 95/160/28
f 81/156/8 113/155/8 114/161/29 82/162/29
f 68/158/10 100/157/10 101/163/13 69/164/13
f 95/160/28 127/159/28 128/96/31 96/95/31
f 82/162/29 114/161/29 115/100/32 83/99/32
f 69/165/13 101/166/13 102/104/15 70/103/15
f 57/167/3 121/168/3 120/169/3 56/170/3
f 30/171/2 94/172/2 95/173/2 31/174/2
f 4/175/2 68/176/2 69/177/2 5/178/2
f 58/179/3 122/180/3 121/168/3 57/167/3
f 31/174/2 95/173/2 96/181/2 32/182/2
f 5/178/2 69/177/2 70/183/2 6/184/2
f 59/185/3 123/186/3 122/180/3 58/179/3
f 32/182/2 96/181/2 66/187/2 1/188/2
f 6/184/2 70/183/2 71/189/2 7/190/2
f 60/191/3 124/192/3 123/186/3 59/185/3
f 34/193/3 97/194/3 98/195/3 33/196/3
f 7/190/2 71/189/2 72/197/2 8/198/2
f 61/199/3 125/200/3 124/192/3 60/191/3
f 35/201/3 99/202/3 97/194/3 34/193/3
f 8/198/2 72/197/2 73/203/2 9/204/2
f 62/205/3 126/206/3 125/200/3 61/199/3
f 36/207/3 100/208/3 99/202/3 35/201/3
f 9/204/2 73/203/2 74/209/2 10/210/2
f 63/211/3 127/212/3 126/206/3 62/205/3
f 37/213/3 101/214/3 100/208/3 36/207/3
f 10/210/2 74/209/2 75/215/2 11/216/2
f 64/217/3 128/218/3 127/212/3 63/211/3
f 38/219/3 102/220/3 101/214/3 37/213/3
f 11/216/2 75/215/2 76/221/2 12/222/2
f 33/196/3 98/195/3 128/218/3 64/217/3
f 39/223/3 103/224/3 102/220/3 38/219/3
f 12/222/2 76/221/2 77/225/2 13/226/2
f 40/227/3 104/228/3 103/224/3 39/223/3
f 13/226/2 77/225/2 78/229/2 14/230/2
f 41/231/3 105/232/3 104/228/3 40/227/3
f 14/230/2 78/229/2 79/233/2 15/234/2
f 42/235/3 106/236/3 105/232/3 41/231/3
f 15/234/2 79/233/2 80/237/2 16/238/2
f 43/239/3 107/240/3 106/236/3 42/235/3
f 16/238/2 80/237/2 81/241/2 17/242/2
f 44/243/3 108/244/3 107/240/3 43/239/3
f 17/242/2 81/241/2 82/245/2 18/246/2
f 45/247/3 109/248/3 108/244/3 44/243/3
f 18/246/2 82/245/2 83/249/2 19/250/2
f 46/251/3 110/252/3 109/248/3 45/247/3
f 19/250/2 83/249/2 84/253/2 20/254/2
f 47/255/3 111/256/3 110/252/3 46/251/3
f 20/254/2 84/253/2 85/257/2 21/258/2
f 48/259/3 112/260/3 111/256/3 47/255/3
f 21/258/2 85/257/2 86/261/2 22/262/2
f 49/263/3 113/264/3 112/260/3 48/259/3
f 22/262/2 86/261/2 87/265/2 23/266/2
f 50/267/3 114/268/3 113/264/3 49/263/3
f 23/266/2 87/265/2 88/269/2 24/270/2
f 51/271/3 115/272/3 114/268/3 50/267/3
f 24/270/2 88/269/2 89/273/2 25/274/2
f 52/275/3 116/276/3 115/272/3 51/271/3
f 25/274/2 89/273/2 90/277/2 26/278/2
f 53/279/3 117/280/3 116/276/3 52/275/3
f 26/278/2 90/277/2 91/281/2 27/282/2
f 54/283/3 118/284/3 117/280/3 53/279/3
f 27/282/2 91/281/2 92/285/2 28/286/2
f 1/188/2 66/187/2 65/287/2 2/288/2
f 55/289/3 119/290/3 118/284/3 54/283/3
f 28/286/2 92/285/2 93/291/2 29/292/2
f 2/288/2 65/287/2 67/293/2 3/294/2
f 56/170/3 120/169/3 119/290/3 55/289/3
f 29/292/2 93/291/2 94/172/2 30/171/2
f 3/294/2 67/293/2 68/176/2 4/175/2
