# Blender v2.83.5 OBJ File: 'Arrows.blend'
# www.blender.org
mtllib Arrow_25.mtl
o Arrow_25
v -0.481135 0.676393 -0.369946
v -0.481135 -0.676393 -0.369946
v -0.481135 0.676393 0.369946
v -0.481135 -0.676393 0.369946
v 0.871651 0.000000 -0.369946
v -0.481135 0.000000 -0.369946
v -0.481135 -0.000000 0.369946
v 1.318865 -0.000000 0.369946
v -0.681135 0.000000 -0.369946
v -0.681135 -1.000000 -0.369947
v -0.681135 -0.000000 0.369946
v -0.681135 1.000000 0.369947
v 1.318865 0.000000 -0.369946
v -0.681135 1.000000 -0.369946
v -0.681135 -1.000000 0.369946
v 0.871651 -0.000000 0.369946
vt 0.906447 0.911254
vt 0.906447 0.919867
vt 0.892201 0.919867
vt 0.892201 0.911254
vt 0.953058 0.056936
vt 0.967304 0.056936
vt 0.967304 0.074415
vt 0.953058 0.074415
vt 0.967304 0.080241
vt 0.953058 0.080241
vt 0.944135 0.246544
vt 0.944135 0.289613
vt 0.929889 0.289613
vt 0.929889 0.246544
vt 0.892201 0.945708
vt 0.906447 0.945708
vt 0.967304 0.086067
vt 0.953058 0.086067
vt 0.953058 0.116073
vt 0.953058 0.086941
vt 0.967304 0.086941
vt 0.967304 0.116073
vt 0.906447 0.902640
vt 0.892201 0.902640
vt 0.768397 0.428090
vt 0.780046 0.433917
vt 0.783897 0.440150
vt 0.766675 0.431536
vt 0.721015 0.781571
vt 0.721015 0.768543
vt 0.724866 0.762310
vt 0.724866 0.781571
vt 0.780046 0.404785
vt 0.783897 0.397081
vt 0.756749 0.422264
vt 0.749454 0.422922
vt 0.721015 0.794599
vt 0.724866 0.800832
vt 0.694969 0.781571
vt 0.686358 0.781571
vn -1.0000 -0.0000 0.0000
vn -0.4472 0.8944 0.0000
vn 1.0000 0.0000 0.0000
vn 0.4472 0.8944 0.0000
vn 0.4472 -0.8944 -0.0000
vn -0.4472 -0.8944 -0.0000
vn 0.0000 0.0000 -1.0000
vn 0.0000 -0.0000 1.0000
usemtl Material.001
s off
f 9/1/1 10/2/1 15/3/1 11/4/1
f 16/5/2 5/6/2 2/7/2 4/8/2
f 6/9/3 7/10/3 4/8/3 2/7/3
f 12/11/4 8/12/4 13/13/4 14/14/4
f 8/15/5 15/3/5 10/2/5 13/16/5
f 1/17/3 3/18/3 7/10/3 6/9/3
f 1/19/6 5/20/6 16/21/6 3/22/6
f 14/23/1 9/1/1 11/4/1 12/24/1
f 6/25/7 2/26/7 10/27/7 9/28/7
f 7/29/8 3/30/8 12/31/8 11/32/8
f 2/26/7 5/33/7 13/34/7 10/27/7
f 1/35/7 6/25/7 9/28/7 14/36/7
f 4/37/8 7/29/8 11/32/8 15/38/8
f 3/30/8 16/39/8 8/40/8 12/31/8
f 16/39/8 4/37/8 15/38/8 8/40/8
f 5/33/7 1/35/7 14/36/7 13/34/7
