# Blender v2.83.5 OBJ File: 'Arrows.blend'
# www.blender.org
mtllib Arrow_73.mtl
o Arrow_73
v -0.785206 1.000000 -0.371132
v -0.785206 -1.000000 -0.371132
v -0.785206 1.000000 0.371132
v -0.785206 -1.000000 0.371132
v 1.214794 0.000000 -0.371132
v -0.429588 0.000000 -0.371132
v -0.429588 -0.000000 0.371132
v 1.214794 -0.000000 0.371132
vt 0.184029 0.933957
vt 0.184029 0.914696
vt 0.198320 0.914696
vt 0.198320 0.933957
vt 0.354780 0.767050
vt 0.361627 0.786311
vt 0.323119 0.767050
vt 0.647515 0.400515
vt 0.647515 0.443583
vt 0.633355 0.428843
vt 0.938110 0.881288
vt 0.938110 0.924357
vt 0.923818 0.924357
vt 0.923818 0.881288
vt 0.938110 0.792567
vt 0.938110 0.835636
vt 0.923818 0.835636
vt 0.923818 0.792567
vt 0.613072 0.426356
vt 0.361627 0.747789
vt 0.184029 0.953217
vt 0.198320 0.953217
vn -0.9422 0.3351 0.0000
vn 0.0000 -0.0000 1.0000
vn 0.0000 0.0000 -1.0000
vn 0.4472 0.8944 0.0000
vn 0.4472 -0.8944 -0.0000
vn -0.9422 -0.3351 -0.0000
usemtl Material.001
s off
f 6/1/1 2/2/1 4/3/1 7/4/1
f 7/5/2 4/6/2 8/7/2
f 5/8/3 2/9/3 6/10/3
f 3/11/4 8/12/4 5/13/4 1/14/4
f 8/15/5 4/16/5 2/17/5 5/18/5
f 5/8/3 6/10/3 1/19/3
f 3/20/2 7/5/2 8/7/2
f 1/21/6 6/1/6 7/4/6 3/22/6
