# Blender v2.83.5 OBJ File: 'Arrows.blend'
# www.blender.org
mtllib Arrow_43.mtl
o Arrow_43
v 1.215774 1.046136 -0.371132
v 1.215774 -0.476975 -0.371132
v 1.215774 1.046135 0.371132
v 1.215774 -0.476976 0.371132
v 2.127428 0.284580 -0.371132
v 2.301361 0.284580 0.371132
v 1.215774 -0.098589 -0.371132
v 1.104265 -0.215420 0.371132
v 1.215774 0.683060 0.371132
v 1.104265 0.784580 -0.371132
v -0.458468 0.637703 -0.371132
v -0.035850 -0.268605 0.371132
v -0.035850 -0.268605 -0.371132
v -0.458468 0.637702 0.371132
v -1.280300 -0.116291 -0.371132
v -0.857682 -1.022599 0.371132
v -0.857682 -1.022599 -0.371132
v -1.280300 -0.116292 0.371132
v -2.279773 -0.074556 -0.371132
v -2.257766 -0.385600 -0.371132
v -1.970564 -0.737657 0.371132
v -2.156706 -0.338475 0.371132
v -1.970564 -0.737657 -0.371132
v -2.279773 -0.074556 0.371132
v 1.104265 -0.215420 -0.371132
v 1.104265 -0.715420 -0.371132
v 1.104265 0.784580 0.371132
v 1.104265 1.284580 0.371132
v 2.301361 0.284580 -0.371132
v 2.127428 0.284580 0.371132
v 1.104265 -0.715420 0.371132
v 1.104265 1.284580 -0.371131
v 1.215774 -0.098589 0.371132
v 1.215774 0.683061 -0.371132
v -0.410709 0.530192 -0.371132
v -0.081438 -0.159102 0.371132
v -0.081438 -0.159102 -0.371132
v -0.410709 0.530192 0.371132
v -0.893587 -0.904213 0.371132
v -1.244395 -0.234678 -0.371132
v -1.244395 -0.234678 0.371132
v -0.893587 -0.904213 -0.371132
v -2.469076 0.067554 -0.371132
v -2.156706 -0.338475 -0.371132
v -2.046457 -0.838754 0.371132
v -2.257766 -0.385600 0.371132
v -2.046457 -0.838754 -0.371132
v -2.469076 0.067554 0.371132
vt 0.485013 0.201414
vt 0.487730 0.201414
vt 0.487730 0.215710
vt 0.485013 0.215710
vt 0.824130 0.263921
vt 0.824130 0.247238
vt 0.838422 0.247238
vt 0.838422 0.263921
vt 0.973622 0.290672
vt 0.973622 0.318228
vt 0.959330 0.318228
vt 0.959330 0.290672
vt 0.877129 0.685474
vt 0.862838 0.685474
vt 0.862838 0.664118
vt 0.877129 0.664118
vt 0.843260 0.719988
vt 0.843260 0.721962
vt 0.828968 0.721962
vt 0.828968 0.719988
vt 0.838422 0.266640
vt 0.824130 0.266640
vt 0.824130 0.296314
vt 0.838422 0.296314
vt 0.838422 0.315598
vt 0.824130 0.315598
vt 0.828968 0.707283
vt 0.843260 0.707283
vt 0.557703 0.962819
vt 0.571994 0.962819
vt 0.571994 0.983804
vt 0.557703 0.983804
vt 0.087535 0.565828
vt 0.085478 0.565828
vt 0.085478 0.551531
vt 0.087535 0.551531
vt 0.864284 0.469286
vt 0.864284 0.444987
vt 0.878576 0.444987
vt 0.878576 0.469286
vt 0.864284 0.425930
vt 0.878576 0.425930
vt 0.864284 0.406936
vt 0.878576 0.406936
vt 0.862838 0.644833
vt 0.877129 0.644833
vt 0.864284 0.405666
vt 0.878576 0.405666
vt 0.864284 0.404827
vt 0.878576 0.404827
vt 0.843260 0.790670
vt 0.828968 0.790670
vt 0.828968 0.772409
vt 0.843260 0.772409
vt 0.877129 0.620985
vt 0.877129 0.622426
vt 0.862838 0.622426
vt 0.862838 0.620985
vt 0.877129 0.623867
vt 0.862838 0.623867
vt 0.828968 0.752847
vt 0.843260 0.752847
vt 0.838422 0.336565
vt 0.824130 0.336565
vt 0.656585 0.512396
vt 0.649689 0.510046
vt 0.646035 0.506532
vt 0.655148 0.509637
vt 0.680501 0.145079
vt 0.687118 0.142825
vt 0.692156 0.143377
vt 0.683043 0.146482
vt 0.657910 0.531397
vt 0.656830 0.534568
vt 0.667579 0.130932
vt 0.666499 0.127761
vt 0.659358 0.152283
vt 0.655704 0.155796
vt 0.677449 0.519504
vt 0.682487 0.518952
vt 0.666254 0.149933
vt 0.664817 0.152692
vt 0.670832 0.517250
vt 0.673374 0.515847
vt 0.678142 0.486646
vt 0.680398 0.486442
vt 0.673204 0.173960
vt 0.670925 0.173809
vt 0.663535 0.488369
vt 0.661256 0.488520
vt 0.687811 0.175683
vt 0.690067 0.175886
vt 0.664665 0.193394
vt 0.662284 0.193475
vt 0.669376 0.466696
vt 0.671757 0.466776
vt 0.679045 0.195633
vt 0.681426 0.195552
vt 0.654996 0.468934
vt 0.652615 0.468854
vt 0.678722 0.448813
vt 0.673148 0.449418
vt 0.672916 0.447283
vt 0.682487 0.446244
vt 0.674386 0.211996
vt 0.682817 0.212911
vt 0.682585 0.215046
vt 0.673014 0.214007
vt 0.664717 0.450333
vt 0.663345 0.448321
vt 0.688391 0.213516
vt 0.692156 0.216085
vn -1.0000 -0.0000 -0.0000
vn 0.6411 0.7675 0.0000
vn 0.6411 -0.7675 -0.0000
vn 0.0466 -0.9989 -0.0000
vn 1.0000 -0.0000 0.0000
vn -0.6760 0.7369 0.0000
vn -0.6411 -0.7675 -0.0000
vn -0.6411 0.7675 0.0000
vn -0.0936 0.9956 0.0000
vn -0.0466 0.9989 0.0000
vn 0.1528 0.9883 0.0000
vn 0.6760 -0.7369 -0.0000
vn 0.9063 0.4226 0.0000
vn -0.1528 -0.9883 -0.0000
vn -0.9063 -0.4226 -0.0000
vn 0.0936 -0.9956 -0.0000
vn -0.0000 0.0000 -1.0000
vn 0.0000 -0.0000 1.0000
usemtl Material.001
s off
f 25/1/1 26/2/1 31/3/1 8/4/1
f 28/5/2 6/6/2 29/7/2 32/8/2
f 6/9/3 31/10/3 26/11/3 29/12/3
f 25/13/4 8/14/4 12/15/4 13/16/4
f 3/17/5 9/18/5 34/19/5 1/20/5
f 32/8/1 10/21/1 27/22/1 28/5/1
f 14/23/6 11/24/6 15/25/6 18/26/6
f 3/17/7 1/20/7 5/27/7 30/28/7
f 30/29/8 5/30/8 2/31/8 4/32/8
f 27/22/9 10/21/9 11/24/9 14/23/9
f 2/33/5 7/34/5 33/35/5 4/36/5
f 7/37/10 37/38/10 36/39/10 33/40/10
f 36/39/6 37/38/6 42/41/6 39/42/6
f 42/41/11 23/43/11 21/44/11 39/42/11
f 13/16/12 12/15/12 16/45/12 17/46/12
f 21/44/13 23/43/13 44/47/13 22/48/13
f 22/48/13 44/47/13 19/49/13 24/50/13
f 24/51/14 19/52/14 40/53/14 41/54/14
f 43/55/15 20/56/15 46/57/15 48/58/15
f 20/56/15 47/59/15 45/60/15 46/57/15
f 41/54/12 40/53/12 35/61/12 38/62/12
f 9/18/16 38/62/16 35/61/16 34/19/16
f 18/26/11 15/25/11 43/63/11 48/64/11
f 17/46/14 16/45/14 45/60/14 47/59/14
f 7/65/17 2/66/17 26/67/17 25/68/17
f 9/69/18 3/70/18 28/71/18 27/72/18
f 2/66/17 5/73/17 29/74/17 26/67/17
f 3/70/18 30/75/18 6/76/18 28/71/18
f 30/75/18 4/77/18 31/78/18 6/76/18
f 5/73/17 1/79/17 32/80/17 29/74/17
f 4/77/18 33/81/18 8/82/18 31/78/18
f 1/79/17 34/83/17 10/84/17 32/80/17
f 34/83/17 35/85/17 11/86/17 10/84/17
f 33/81/18 36/87/18 12/88/18 8/82/18
f 37/89/17 7/65/17 25/68/17 13/90/17
f 38/91/18 9/69/18 27/72/18 14/92/18
f 36/87/18 39/93/18 16/94/18 12/88/18
f 35/85/17 40/95/17 15/96/17 11/86/17
f 41/97/18 38/91/18 14/92/18 18/98/18
f 42/99/17 37/89/17 13/90/17 17/100/17
f 19/101/17 44/102/17 20/103/17 43/104/17
f 21/105/18 22/106/18 46/107/18 45/108/18
f 44/102/17 23/109/17 47/110/17 20/103/17
f 22/106/18 24/111/18 48/112/18 46/107/18
f 40/95/17 19/101/17 43/104/17 15/96/17
f 24/111/18 41/97/18 18/98/18 48/112/18
f 23/109/17 42/99/17 17/100/17 47/110/17
f 39/93/18 21/105/18 45/108/18 16/94/18
