# Blender v2.83.5 OBJ File: 'Arrows.blend'
# www.blender.org
mtllib Arrow_51.mtl
o Arrow_51
v 0.947988 0.804590 -0.371132
v 0.947988 -0.804590 -0.371132
v 0.947988 0.804590 0.371132
v 0.947988 -0.804590 0.371132
v 2.557167 0.000000 -0.371132
v 2.775069 -0.000000 0.371132
v 1.090960 0.402551 0.371132
v 0.952878 0.500000 -0.371132
v 1.090960 -0.402551 -0.371132
v 0.952878 -0.500000 0.371132
v -1.972039 0.000000 -0.371132
v -1.972039 -0.000000 0.371132
v -1.209486 0.402551 -0.371132
v -1.209486 0.402551 0.371132
v -1.154868 -0.500000 -0.371132
v -1.209486 -0.402551 0.371132
v -1.470445 -0.829049 0.371132
v -2.104311 -0.829049 0.371132
v -2.104311 -0.829049 -0.371132
v -1.470445 -0.829049 -0.371132
v -1.470445 0.829049 -0.371132
v -2.104311 0.829049 -0.371132
v -2.104311 0.829049 0.371132
v -1.470445 0.829049 0.371132
v 0.952878 -0.500000 -0.371132
v 0.775069 -1.000000 -0.371132
v 0.952878 0.500000 0.371132
v 0.775069 1.000000 0.371132
v 2.775069 0.000000 -0.371132
v 2.557167 -0.000000 0.371132
v 0.775069 -1.000000 0.371132
v 0.775069 1.000000 -0.371132
v 1.090960 0.402551 -0.371132
v 1.090960 -0.402551 0.371132
v -1.415828 -0.926498 0.371132
v -2.232999 -0.926498 0.371132
v -2.232999 -0.926497 -0.371132
v -1.415828 -0.926497 -0.371132
v -1.154868 -0.500000 0.371132
v -1.415828 0.926498 -0.371132
v -2.232999 0.926498 -0.371132
v -2.232999 0.926497 0.371132
v -1.415828 0.926497 0.371132
v -1.154868 0.500000 0.371132
v -1.154868 0.500000 -0.371132
v -1.870798 0.000000 -0.371132
v -1.870798 -0.000000 0.371132
v -1.209486 -0.402551 -0.371132
vt 0.506288 0.686762
vt 0.502864 0.686762
vt 0.502864 0.672466
vt 0.506288 0.672466
vt 0.905809 0.719164
vt 0.891518 0.719164
vt 0.891518 0.706955
vt 0.905809 0.706955
vt 0.905809 0.724190
vt 0.891518 0.724190
vt 0.410259 0.915583
vt 0.410259 0.954105
vt 0.395967 0.954105
vt 0.395967 0.915583
vt 0.952830 0.874639
vt 0.952830 0.913161
vt 0.938538 0.913161
vt 0.938538 0.874639
vt 0.905809 0.768499
vt 0.891518 0.768499
vt 0.085179 0.463083
vt 0.087931 0.463083
vt 0.087931 0.477380
vt 0.085179 0.477380
vt 0.950876 0.620482
vt 0.965168 0.620482
vt 0.965168 0.651477
vt 0.950876 0.651477
vt 0.148296 0.623456
vt 0.151720 0.623456
vt 0.151720 0.637753
vt 0.148296 0.637753
vt 0.892278 0.620938
vt 0.906570 0.620938
vt 0.906570 0.661535
vt 0.892278 0.661535
vt 0.964407 0.769590
vt 0.950116 0.769590
vt 0.950116 0.738596
vt 0.964407 0.738596
vt 0.172525 0.478046
vt 0.169772 0.478046
vt 0.169772 0.463750
vt 0.172525 0.463750
vt 0.893447 0.490200
vt 0.907739 0.490200
vt 0.907739 0.530797
vt 0.893447 0.530797
vt 0.905323 0.332071
vt 0.905323 0.376380
vt 0.891031 0.376380
vt 0.891031 0.332071
vt 0.905323 0.381406
vt 0.891031 0.381406
vt 0.905323 0.393615
vt 0.891031 0.393615
vt 0.892278 0.682301
vt 0.892278 0.666561
vt 0.906570 0.666561
vt 0.906570 0.682301
vt 0.086797 0.975502
vt 0.082301 0.975502
vt 0.082301 0.961206
vt 0.086797 0.961206
vt 0.738709 0.854704
vt 0.738709 0.869001
vt 0.733685 0.869001
vt 0.733685 0.854704
vt 0.907739 0.535823
vt 0.907739 0.551563
vt 0.893447 0.551563
vt 0.893447 0.535823
vt 0.738709 0.935401
vt 0.738709 0.949697
vt 0.733685 0.949697
vt 0.733685 0.935401
vt 0.964689 0.753744
vt 0.969185 0.753744
vt 0.969185 0.768041
vt 0.964689 0.768041
vt 0.200247 0.402536
vt 0.207988 0.405289
vt 0.211751 0.408620
vt 0.202124 0.405195
vt 0.537026 0.033884
vt 0.544767 0.036638
vt 0.548530 0.039969
vt 0.538903 0.036544
vt 0.192497 0.374295
vt 0.192497 0.370098
vt 0.529276 0.005644
vt 0.529276 0.001447
vt 0.513784 0.036638
vt 0.510022 0.039969
vt 0.177005 0.405289
vt 0.173242 0.408620
vt 0.184746 0.402536
vt 0.182870 0.405195
vt 0.521525 0.033884
vt 0.519649 0.036544
vt 0.513313 0.083219
vt 0.513313 0.095428
vt 0.511437 0.097906
vt 0.511437 0.082167
vt 0.208459 0.464079
vt 0.208459 0.451870
vt 0.210335 0.450818
vt 0.210335 0.466558
vt 0.521525 0.078193
vt 0.519649 0.077141
vt 0.176534 0.451870
vt 0.176534 0.464079
vt 0.174658 0.466558
vt 0.174658 0.450818
vt 0.545238 0.095428
vt 0.545238 0.083219
vt 0.547115 0.082167
vt 0.547115 0.097906
vt 0.537026 0.078193
vt 0.538903 0.077141
vt 0.184746 0.446844
vt 0.182870 0.445792
vt 0.192497 0.459582
vt 0.192497 0.461532
vt 0.529276 0.090930
vt 0.529276 0.092880
vt 0.200247 0.446844
vt 0.202124 0.445792
vn -0.9422 0.3351 0.0000
vn 0.0000 -1.0000 -0.0000
vn -0.8530 -0.5219 -0.0000
vn 0.4472 0.8944 0.0000
vn 0.4472 -0.8944 -0.0000
vn 0.9422 0.3351 0.0000
vn -0.4472 -0.8944 -0.0000
vn -0.9422 -0.3351 -0.0000
vn -0.4472 0.8944 0.0000
vn 0.9422 -0.3351 -0.0000
vn 0.0000 1.0000 0.0000
vn -0.8530 0.5219 0.0000
vn 0.9625 -0.2711 -0.0000
vn 0.8530 -0.5219 -0.0000
vn -0.9625 0.2711 0.0000
vn 0.8530 0.5219 0.0000
vn -0.9625 -0.2711 -0.0000
vn 0.9625 0.2711 0.0000
vn 0.0000 0.0000 -1.0000
vn 0.0000 -0.0000 1.0000
usemtl Material.001
s off
f 25/1/1 26/2/1 31/3/1 10/4/1
f 21/5/2 24/6/2 23/7/2 22/8/2
f 24/6/3 21/5/3 13/9/3 14/10/3
f 28/11/4 6/12/4 29/13/4 32/14/4
f 6/15/5 31/16/5 26/17/5 29/18/5
f 13/9/2 33/19/2 7/20/2 14/10/2
f 33/21/6 1/22/6 3/23/6 7/24/6
f 3/25/7 1/26/7 5/27/7 30/28/7
f 32/29/8 8/30/8 27/31/8 28/32/8
f 25/33/2 10/34/2 39/35/2 15/36/2
f 30/37/9 5/38/9 2/39/9 4/40/9
f 2/41/10 9/42/10 34/43/10 4/44/10
f 27/45/11 8/46/11 45/47/11 44/48/11
f 9/49/11 48/50/11 16/51/11 34/52/11
f 48/50/12 20/53/12 17/54/12 16/51/12
f 17/54/11 20/53/11 19/55/11 18/56/11
f 37/57/2 38/58/2 35/59/2 36/60/2
f 19/61/13 46/62/13 47/63/13 18/64/13
f 15/36/14 39/35/14 35/59/14 38/58/14
f 12/65/15 11/66/15 37/67/15 36/68/15
f 40/69/11 41/70/11 42/71/11 43/72/11
f 44/48/16 45/47/16 40/69/16 43/72/16
f 11/73/17 12/74/17 42/75/17 41/76/17
f 46/77/18 22/78/18 23/79/18 47/80/18
f 9/81/19 2/82/19 26/83/19 25/84/19
f 7/85/20 3/86/20 28/87/20 27/88/20
f 2/82/19 5/89/19 29/90/19 26/83/19
f 3/86/20 30/91/20 6/92/20 28/87/20
f 30/91/20 4/93/20 31/94/20 6/92/20
f 5/89/19 1/95/19 32/96/19 29/90/19
f 1/95/19 33/97/19 8/98/19 32/96/19
f 4/93/20 34/99/20 10/100/20 31/94/20
f 17/101/20 18/102/20 36/103/20 35/104/20
f 19/105/19 20/106/19 38/107/19 37/108/19
f 16/109/20 17/101/20 35/104/20 39/110/20
f 21/111/19 22/112/19 41/113/19 40/114/19
f 23/115/20 24/116/20 43/117/20 42/118/20
f 24/116/20 14/119/20 44/120/20 43/117/20
f 13/121/19 21/111/19 40/114/19 45/122/19
f 34/99/20 16/109/20 39/110/20 10/100/20
f 33/97/19 13/121/19 45/122/19 8/98/19
f 14/119/20 7/85/20 27/88/20 44/120/20
f 46/123/19 19/105/19 37/108/19 11/124/19
f 18/102/20 47/125/20 12/126/20 36/103/20
f 47/125/20 23/115/20 42/118/20 12/126/20
f 22/112/19 46/123/19 11/124/19 41/113/19
f 20/106/19 48/127/19 15/128/19 38/107/19
f 48/127/19 9/81/19 25/84/19 15/128/19
